<svg width="53" height="52" viewBox="0 0 53 52" fill="none" xmlns="http://www.w3.org/2000/svg">
<path id="callback" d="M26.4999 51.6138C40.4871 51.6138 52.1139 39.9872 52.1139 26C52.1139 11.9878 40.462 0.386215 26.4748 0.386215C12.4625 0.386215 0.886108 11.9878 0.886108 26C0.886108 39.9872 12.4876 51.6138 26.4999 51.6138ZM19.9458 32.2529C13.7181 26.0502 9.75047 18.14 14.4463 13.4443C14.7225 13.1679 15.0239 12.8917 15.3001 12.6155C16.7315 11.2595 18.1126 11.3348 19.3431 13.0675L22.6076 17.7131C23.7125 19.3203 23.4362 20.2244 22.2561 21.48L21.2264 22.61C20.8498 22.9614 21.0005 23.4386 21.1763 23.7399C21.6534 24.644 23.0094 26.2511 24.4658 27.7076C25.9725 29.2143 27.5044 30.495 28.4586 31.0223C28.8102 31.2232 29.3124 31.2735 29.6389 30.9721L30.7186 29.9425C31.924 28.7623 32.9034 28.461 34.4603 29.5658C36.6199 31.0976 37.9257 32.0017 39.2064 32.8806C40.7884 34.0357 41.1651 35.4671 39.5579 36.9235C39.2817 37.1998 39.0306 37.5011 38.7544 37.7774C34.0585 42.4481 26.1734 38.4804 19.9458 32.2529Z" />
</svg>
