<svg width="448" height="56" viewBox="0 0 448 56" fill="none" xmlns="http://www.w3.org/2000/svg">
<g clip-path="url(#clip0_604_61651)">
<path fill-rule="evenodd" clip-rule="evenodd" d="M12.375 14.6129L3.32443 3.59281H121.42C129.458 3.59281 136.301 9.3631 137.608 17.2092L137.671 17.587H131.853V19.1584H137.933L143.482 52.477H129.533L128.853 51.0121C127.139 47.3196 123.42 44.9619 119.336 44.9619C114.462 44.9619 110.222 48.3012 109.123 53.0328L108.97 53.6933L112.032 54.4036L112.185 53.7433C112.95 50.4508 115.909 48.1048 119.336 48.1048C122.206 48.1048 124.806 49.7615 126.002 52.3354L127.527 55.6198H147.193L141.12 19.1584H152.043V30.2646H153.615V17.587H140.858L140.709 16.693C139.147 7.31426 130.978 0.449951 121.42 0.449951H3.15354C0.587237 0.449951 -0.877753 3.42905 0.777039 5.44397L10.4145 17.1787L10.4168 17.1815L17.9903 26.4466L26.8634 36.6442C27.448 37.3161 28.2954 37.6994 29.1835 37.6994H81.2336C82.2185 37.6994 83.1473 37.2285 83.7261 36.4272L90.9575 26.4155L110.523 26.1377L110.479 22.9952L90.8793 23.2735C89.9097 23.2872 89.0002 23.7568 88.4306 24.5453L81.1995 34.5565H29.2137L22.5971 26.9523L56.4381 26.4267L56.3893 23.2842L19.9282 23.8505L14.9462 17.7558H56.4137V14.6129H12.375Z" fill="white"/>
<path d="M195.436 2.61597H199.464C199.925 2.61597 200.219 2.8657 200.219 3.28191V31.0852C200.219 31.4597 199.925 31.7511 199.464 31.7511H199.338C197.785 31.7511 195.939 31.5846 195.939 29.7116L195.856 8.6511C195.856 8.23489 195.688 8.19326 195.436 8.56786L181.34 28.1716C181.088 28.5046 180.627 28.7127 180.165 28.7127H179.242C178.781 28.7127 178.319 28.5046 178.067 28.1716L160.153 3.19867C159.86 2.82407 160.028 2.61597 160.489 2.61597H163.971C164.433 2.61597 164.894 2.82407 165.146 3.19867L179.746 23.3435L194.303 3.19867C194.513 2.82407 194.975 2.61597 195.436 2.61597ZM225.347 3.19867L243.303 31.1268C243.513 31.4597 243.345 31.7511 242.884 31.7511H239.192C238.73 31.7511 238.269 31.4597 238.017 31.1268L234.115 25.05C233.948 24.6754 233.444 24.4673 232.899 24.4673H223.333C222.872 24.4673 222.578 24.2176 222.578 23.8014V23.51C222.578 22.1781 222.788 20.6381 224.928 20.6381H231.472C228.494 16.0181 225.557 11.3565 222.578 6.69489L207.307 31.1268C207.056 31.4597 206.594 31.7511 206.133 31.7511H202.567C202.105 31.7511 201.895 31.4597 202.147 31.1268L220.103 3.19867C220.313 2.82407 220.774 2.61597 221.236 2.61597H224.214C224.676 2.61597 225.137 2.82407 225.347 3.19867ZM278.475 3.15705L264.714 16.6841L279.65 31.2933C279.943 31.5846 279.817 31.7927 279.356 31.7927H274.825C274.363 31.7927 273.902 31.5846 273.566 31.2933L261.568 19.6808L249.695 31.2933C249.401 31.5846 248.856 31.7927 248.394 31.7927H243.989C243.528 31.7927 243.402 31.5846 243.696 31.2933L258.547 16.8506L244.745 3.15705C244.451 2.90732 244.535 2.69921 244.996 2.69921H248.856C249.653 2.69921 250.576 3.03218 251.205 3.69813C254.645 7.06948 258.128 10.5241 261.526 13.8954L272.476 3.15705C272.853 2.90732 273.315 2.69921 273.776 2.69921H278.181C278.643 2.69921 278.769 2.90732 278.475 3.15705Z" fill="white"/>
<path d="M280.691 2.69921H310.31C310.771 2.69921 311.065 2.94894 311.065 3.36516V5.82083C311.065 6.19543 310.813 6.48678 310.31 6.48678H297.808L297.85 31.1268C297.85 31.543 297.556 31.7927 297.094 31.7927H293.948C293.486 31.7927 293.193 31.543 293.193 31.1268V7.19435C293.193 6.77813 292.899 6.48678 292.438 6.48678H282.285C280.984 6.48678 279.978 5.61272 279.978 4.48894V3.36516C279.978 2.94894 280.229 2.69921 280.691 2.69921ZM327.653 2.69921C337.722 2.69921 343.637 6.32029 343.637 12.6052C343.679 17.2252 340.532 20.6381 335.037 22.0116L344.182 31.2933C344.56 31.5846 344.434 31.7927 343.973 31.7927H340.365C339.484 31.7927 338.561 31.3349 337.931 30.6689L330.841 23.177C330.632 22.9273 330.086 22.7608 329.541 22.7608C327.905 22.8441 326.226 22.8441 324.548 22.8441C323.248 22.8441 321.989 22.8441 320.731 22.8441C319.43 22.8025 318.171 22.8025 316.871 22.8025L316.913 31.1268C316.913 31.543 316.619 31.7927 316.158 31.7927H313.011C312.55 31.7927 312.256 31.543 312.256 31.1268V19.6808C312.256 19.3062 312.55 18.9733 313.011 18.9733H327.653C335.079 18.9733 339.19 16.7673 339.19 12.7716C339.19 8.73435 335.079 6.48678 327.653 6.48678H314.563C313.263 6.48678 312.256 5.61272 312.256 4.48894V3.36516C312.256 2.94894 312.508 2.69921 312.969 2.69921H327.653ZM368.034 3.19867L385.99 31.1268C386.2 31.4598 386.032 31.7511 385.571 31.7511H381.879C381.417 31.7511 380.956 31.4598 380.704 31.1268L376.802 25.05C376.635 24.6754 376.131 24.4673 375.586 24.4673H366.021C365.559 24.4673 365.265 24.2176 365.265 23.8014V23.51C365.265 22.1781 365.475 20.6381 367.615 20.6381H374.159C371.181 16.0181 368.244 11.3565 365.265 6.69489L349.994 31.1268C349.743 31.4598 349.281 31.7511 348.82 31.7511H345.254C344.792 31.7511 344.582 31.4598 344.834 31.1268L362.79 3.19867C363 2.82408 363.461 2.61597 363.923 2.61597H366.902C367.363 2.61597 367.825 2.82408 368.034 3.19867ZM387.712 3.0738L411.751 25.7576L411.709 4.6138C411.709 3.49002 412.758 2.61597 414.058 2.61597H415.569C416.03 2.61597 416.324 2.8657 416.324 3.28191V31.0852C416.324 31.4598 416.03 31.7511 415.569 31.7511H412.506C412.045 31.7511 411.583 31.543 411.248 31.21L387.208 8.60948V15.6435C387.208 16.7673 386.16 17.683 384.901 17.683H383.349C382.887 17.683 382.594 17.4333 382.594 17.017V3.28191C382.594 2.8657 382.845 2.61597 383.307 2.61597H386.453C386.915 2.61597 387.46 2.78245 387.712 3.0738ZM442.417 4.78029C442.04 6.11218 441.41 7.52732 439.774 7.52732C439.648 7.52732 439.355 7.44408 439.019 7.36083C436.879 6.94462 434.74 6.65326 432.474 6.65326C427.188 6.65326 423.832 8.11002 423.832 10.3576C423.832 13.1879 428.573 14.1452 433.733 15.1857C439.9 16.3927 446.613 17.7662 446.613 23.5933C446.613 28.3798 441.41 31.6679 433.355 31.9592C432.894 32.0425 432.6 31.7095 432.6 31.2933V28.7127C432.6 28.2965 432.894 28.0468 433.355 28.0052C438.39 27.7138 441.536 26.2154 441.536 23.843C441.536 20.8462 436.586 19.8473 431.3 18.8068C425.3 17.5998 418.756 16.3095 418.756 10.6906C418.714 5.82083 424.293 2.65759 432.768 2.65759C435.789 2.65759 438.893 3.11543 441.914 3.94786C442.333 4.07272 442.543 4.44732 442.417 4.78029Z" fill="white"/>
<path d="M263.19 39.7781V48.1024H262.315V40.5392H257.005V48.1024H256.13V39.7781H263.19ZM271.392 45.8786H266.717L265.71 48.1024H264.787L268.623 39.7781H269.498L273.334 48.1024H272.399L271.392 45.8786ZM271.068 45.1651L269.054 40.6938L267.041 45.1651H271.068ZM278.492 48.1738C277.661 48.1738 276.91 47.9914 276.239 47.6267C275.575 47.2621 275.052 46.7586 274.669 46.1165C274.293 45.4664 274.105 44.741 274.105 43.9403C274.105 43.1395 274.293 42.4181 274.669 41.7759C275.052 41.1259 275.58 40.6184 276.251 40.2538C276.922 39.8891 277.673 39.7067 278.504 39.7067C279.128 39.7067 279.703 39.8098 280.23 40.0159C280.758 40.2221 281.204 40.5233 281.573 40.9197L281.01 41.4786C280.353 40.8206 279.526 40.4916 278.528 40.4916C277.865 40.4916 277.261 40.6422 276.718 40.9435C276.175 41.2448 275.747 41.657 275.436 42.1803C275.132 42.7035 274.98 43.2902 274.98 43.9403C274.98 44.5903 275.132 45.177 275.436 45.7003C275.747 46.2235 276.175 46.6357 276.718 46.937C277.261 47.2383 277.865 47.3889 278.528 47.3889C279.535 47.3889 280.362 47.0559 281.01 46.39L281.573 46.9489C281.204 47.3454 280.753 47.6505 280.218 47.8646C279.691 48.0708 279.116 48.1738 278.492 48.1738ZM286.897 48.1738C286.065 48.1738 285.314 47.9914 284.643 47.6267C283.979 47.2621 283.456 46.7586 283.073 46.1165C282.697 45.4664 282.509 44.741 282.509 43.9403C282.509 43.1395 282.697 42.4181 283.073 41.7759C283.456 41.1259 283.984 40.6184 284.655 40.2538C285.326 39.8891 286.077 39.7067 286.909 39.7067C287.532 39.7067 288.107 39.8098 288.635 40.0159C289.162 40.2221 289.61 40.5233 289.977 40.9197L289.414 41.4786C288.759 40.8206 287.932 40.4916 286.933 40.4916C286.269 40.4916 285.666 40.6422 285.123 40.9435C284.579 41.2448 284.152 41.657 283.84 42.1803C283.536 42.7035 283.384 43.2902 283.384 43.9403C283.384 44.5903 283.536 45.177 283.84 45.7003C284.152 46.2235 284.579 46.6357 285.123 46.937C285.666 47.2383 286.269 47.3889 286.933 47.3889C287.939 47.3889 288.766 47.0559 289.414 46.39L289.977 46.9489C289.61 47.3454 289.158 47.6505 288.623 47.8646C288.095 48.0708 287.52 48.1738 286.897 48.1738ZM296.968 45.8786H292.294L291.287 48.1024H290.364L294.199 39.7781H295.074L298.91 48.1024H297.975L296.968 45.8786ZM296.645 45.1651L294.631 40.6938L292.617 45.1651H296.645ZM306.952 44.2851H305.214V48.1024H304.351V44.2851H302.601L300.035 48.1024H299.005L301.881 43.8094L299.22 39.7781H300.179L302.589 43.5122H304.351V39.7781H305.214V43.5122H306.952L309.373 39.7781H310.332L307.671 43.8094L310.548 48.1024H309.517L306.952 44.2851ZM311.955 39.7781H312.83V46.6754L318.2 39.7781H319.003V48.1024H318.128V41.217L312.758 48.1024H311.955V39.7781ZM324.975 39.7781C326.045 39.7781 326.884 40.0318 327.492 40.5392C328.099 41.0465 328.403 41.7443 328.403 42.6322C328.403 43.52 328.099 44.2178 327.492 44.7251C326.884 45.2246 326.045 45.4743 324.975 45.4743H322.722V48.1024H321.835V39.7781H324.975ZM324.951 44.7013C325.781 44.7013 326.416 44.523 326.857 44.1662C327.296 43.8016 327.516 43.2902 327.516 42.6322C327.516 41.9583 327.296 41.443 326.857 41.0862C326.416 40.7216 325.781 40.5392 324.951 40.5392H322.722V44.7013H324.951ZM334.011 48.1738C333.181 48.1738 332.429 47.9914 331.758 47.6267C331.096 47.2621 330.571 46.7586 330.188 46.1165C329.813 45.4664 329.624 44.741 329.624 43.9403C329.624 43.1395 329.813 42.4181 330.188 41.7759C330.571 41.1259 331.099 40.6184 331.77 40.2538C332.441 39.8891 333.193 39.7067 334.023 39.7067C334.647 39.7067 335.222 39.8098 335.75 40.0159C336.277 40.2221 336.725 40.5233 337.092 40.9197L336.529 41.4786C335.874 40.8206 335.047 40.4916 334.047 40.4916C333.385 40.4916 332.781 40.6422 332.237 40.9435C331.695 41.2448 331.267 41.657 330.955 42.1803C330.652 42.7035 330.499 43.2902 330.499 43.9403C330.499 44.5903 330.652 45.177 330.955 45.7003C331.267 46.2235 331.695 46.6357 332.237 46.937C332.781 47.2383 333.385 47.3889 334.047 47.3889C335.054 47.3889 335.881 47.0559 336.529 46.39L337.092 46.9489C336.725 47.3454 336.274 47.6505 335.738 47.8646C335.21 48.0708 334.635 48.1738 334.011 48.1738ZM341.705 44.2851H339.788V48.1024H338.924V39.7781H339.788V43.5122H341.705L344.546 39.7781H345.505L342.389 43.8213L345.685 48.1024H344.666L341.705 44.2851ZM347.048 39.7781H347.923V48.1024H347.048V39.7781ZM360.944 39.7781V48.1024H360.069V40.5392H354.759V48.1024H353.884V39.7781H360.944ZM369.709 47.3413V48.1024H363.776V39.7781H369.529V40.5392H364.663V43.5003H369.002V44.2495H364.663V47.3413H369.709ZM374.817 39.7781C375.888 39.7781 376.727 40.0318 377.334 40.5392C377.942 41.0465 378.245 41.7443 378.245 42.6322C378.245 43.52 377.942 44.2178 377.334 44.7251C376.727 45.2246 375.888 45.4743 374.817 45.4743H372.563V48.1024H371.676V39.7781H374.817ZM374.793 44.7013C375.625 44.7013 376.26 44.523 376.699 44.1662C377.139 43.8016 377.358 43.2902 377.358 42.6322C377.358 41.9583 377.139 41.443 376.699 41.0862C376.26 40.7216 375.625 40.5392 374.793 40.5392H372.563V44.7013H374.793ZM386.003 47.3413V48.1024H380.07V39.7781H385.824V40.5392H380.957V43.5003H385.296V44.2495H380.957V47.3413H386.003ZM392.945 43.8094C393.53 43.9284 393.973 44.1622 394.276 44.5111C394.58 44.8519 394.731 45.3 394.731 45.8549C394.731 46.5762 394.472 47.1313 393.952 47.5197C393.441 47.9081 392.686 48.1024 391.687 48.1024H387.971V39.7781H391.459C392.355 39.7781 393.053 39.9605 393.557 40.3251C394.06 40.6898 394.312 41.217 394.312 41.9067C394.312 42.3745 394.192 42.7708 393.952 43.0959C393.712 43.413 393.377 43.6508 392.945 43.8094ZM388.846 43.5478H391.411C392.058 43.5478 392.554 43.417 392.897 43.1554C393.249 42.8938 393.425 42.5132 393.425 42.0138C393.425 41.5143 393.249 41.1338 392.897 40.8722C392.554 40.6105 392.058 40.4797 391.411 40.4797H388.846V43.5478ZM391.687 47.4008C393.134 47.4008 393.856 46.8657 393.856 45.7954C393.856 44.7489 393.134 44.2257 391.687 44.2257H388.846V47.4008H391.687ZM402.882 47.3413V48.1024H396.949V39.7781H402.702V40.5392H397.836V43.5003H402.175V44.2495H397.836V47.3413H402.882ZM408.495 43.75C409.046 43.8848 409.478 44.1305 409.789 44.4873C410.109 44.844 410.269 45.2722 410.269 45.7716C410.269 46.2552 410.116 46.6794 409.813 47.044C409.509 47.4087 409.106 47.6902 408.603 47.8884C408.099 48.0786 407.551 48.1738 406.961 48.1738C406.4 48.1738 405.849 48.0865 405.306 47.9122C404.77 47.7298 404.288 47.4603 403.856 47.1035L404.18 46.4732C404.547 46.7824 404.966 47.0203 405.438 47.1867C405.909 47.3454 406.385 47.4246 406.865 47.4246C407.32 47.4246 407.74 47.3532 408.123 47.2105C408.507 47.0678 408.809 46.8657 409.034 46.604C409.265 46.3345 409.382 46.0173 409.382 45.6527C409.382 45.1691 409.19 44.7965 408.807 44.5349C408.423 44.2732 407.884 44.1424 407.188 44.1424H405.39V43.4289H407.14C407.731 43.4289 408.191 43.306 408.519 43.0603C408.854 42.8065 409.022 42.4578 409.022 42.0138C409.022 41.5222 408.81 41.1378 408.387 40.8603C407.963 40.5749 407.431 40.4322 406.793 40.4322C406.393 40.4322 405.99 40.4916 405.582 40.6105C405.175 40.7216 404.786 40.8919 404.419 41.1219L404.12 40.3965C404.95 39.9049 405.849 39.6592 406.817 39.6592C407.383 39.6592 407.903 39.7503 408.375 39.9327C408.845 40.1151 409.217 40.3767 409.49 40.7176C409.768 41.0584 409.909 41.4589 409.909 41.9186C409.909 42.3627 409.785 42.7471 409.538 43.0722C409.289 43.3892 408.941 43.6152 408.495 43.75ZM418.405 47.3413V48.1024H412.471V39.7781H418.225V40.5392H413.358V43.5003H417.698V44.2495H413.358V47.3413H418.405ZM427.384 39.7781V48.1024H426.509V44.2613H421.259V48.1024H420.372V39.7781H421.259V43.4884H426.509V39.7781H427.384ZM437.23 39.7781V48.1024H436.355V44.2613H431.105V48.1024H430.218V39.7781H431.105V43.4884H436.355V39.7781H437.23ZM446.007 39.7781V48.1024H445.132V45.5813H442.627C442.514 45.5813 442.354 45.5735 442.147 45.5576L440.385 48.1024H439.438L441.344 45.403C440.728 45.2206 440.256 44.8995 439.93 44.4397C439.602 43.9719 439.438 43.4011 439.438 42.7273C439.438 41.7918 439.733 41.0664 440.325 40.5511C440.925 40.0357 441.731 39.7781 442.747 39.7781H446.007ZM440.325 42.7035C440.325 43.3854 440.525 43.9125 440.925 44.2851C441.332 44.6498 441.923 44.8322 442.699 44.8322H445.132V40.5392H442.783C441.999 40.5392 441.392 40.7254 440.961 41.0981C440.537 41.4627 440.325 41.9979 440.325 42.7035Z" fill="white"/>
<path fill-rule="evenodd" clip-rule="evenodd" d="M442.756 55.5349H29.2173L109.319 52.5619H448L442.756 55.5349Z" fill="white"/>
</g>
<defs>
<clipPath id="clip0_604_61651">
<rect width="448" height="55" fill="white" transform="translate(0 0.534912)"/>
</clipPath>
</defs>
</svg>
