<svg width="85" height="68" viewBox="0 0 85 68" fill="none" xmlns="http://www.w3.org/2000/svg">
<g id="Icon box" clip-path="url(#clip0_208_309)">
<g id="Group">
<g id="OBJECTS">
<g id="Group_2">
<path id="Vector" d="M72.647 65.4074C74.595 63.9109 78.8093 63.5558 78.6969 64.545C78.6657 64.824 79.2276 64.7352 79.3712 64.4943C80.1766 63.1563 82.0185 62.4905 83.4295 62.8963C84.1912 63.1182 84.9654 63.3021 84.9217 62.5031C84.7719 59.6623 82.8426 52.4145 81.7937 46.7328C78.6095 29.4026 78.2412 23.8542 75.1756 9.58672C74.2141 5.10357 70.6491 7.70976 71.1485 7.40538C70.8114 26.454 72.0289 45.5154 73.0903 64.5386L72.647 65.4137V65.4074Z" fill="#C0CCD9"/>
<g id="Group_3" style="mix-blend-mode:multiply" opacity="0.6">
<path id="Vector_2" d="M76.3741 64.1455C75.7623 42.5541 74.0078 20.5441 72.7279 7.38003C72.0786 7.2215 71.4917 7.19614 71.1546 7.40539C70.8174 26.454 71.5916 46.3904 72.653 65.4137C73.2024 64.6084 75.2253 64.2153 76.3741 64.1455Z" fill="#E6E1DC"/>
</g>
<g id="Group_4" style="mix-blend-mode:multiply" opacity="0.6">
<path id="Vector_3" d="M73.5273 5.77573C74.0081 19.1428 77.2422 46.6885 78.697 64.545C78.697 64.545 81.0695 63.0231 81.8 62.8709C80.801 55.2806 74.058 9.77696 73.5273 5.77573Z" fill="#E6E1DC"/>
</g>
<path id="Vector_4" d="M5.32327 12.0407C27.7874 9.89744 47.7291 8.12193 70.2494 6.70787C70.6677 6.6825 71.1172 6.66348 71.4731 6.88542C72.0413 7.24686 72.1162 8.03316 72.1349 8.71165C72.597 26.7965 73.059 44.8813 73.521 62.9597C73.5335 63.5368 73.5397 64.1455 73.265 64.6464C72.7593 65.5469 71.5855 65.7308 70.5678 65.8069C48.6968 67.5126 26.726 67.9692 4.80506 67.1765C4.08082 67.1512 3.31287 67.1068 2.73222 66.6693C1.85813 66.0161 1.74575 64.7542 1.71453 63.6572C1.24003 48.7113 1.17135 33.7463 1.49601 18.7877C1.54596 16.5239 1.74575 13.9557 3.49393 12.5544L5.32327 12.0344V12.0407Z" fill="#DCECFF"/>
<path id="Vector_5" d="M11.3421 38.3563H7.92693C6.9304 38.3563 6.12256 39.1767 6.12256 40.1888V43.5623C6.12256 44.5744 6.9304 45.3949 7.92693 45.3949H11.3421C12.3386 45.3949 13.1465 44.5744 13.1465 43.5623V40.1888C13.1465 39.1767 12.3386 38.3563 11.3421 38.3563Z" fill="#40A6FF"/>
<path id="Vector_6" d="M38.545 35.6803H34.5492C33.8936 35.6803 33.3691 35.1413 33.3691 34.4818V30.4806C33.3691 29.4724 34.1808 28.648 35.1735 28.648H38.545C39.5377 28.648 40.3494 29.4724 40.3494 30.4806V33.8477C40.3494 34.856 39.5377 35.6803 38.545 35.6803Z" fill="#40A6FF"/>
<path id="Vector_7" d="M72.4846 21.489L72.1349 8.71799C72.1162 8.0395 72.0413 7.2532 71.4731 6.89176C71.1172 6.66982 70.6677 6.6825 70.2494 6.71421C47.7291 8.12193 27.7874 9.90378 5.32326 12.0471L3.49392 12.567C1.74574 13.9684 1.54594 16.5366 1.496 18.8003C1.45229 20.8358 1.43356 23.74 1.40234 25.7755C5.49808 25.1604 66.4596 21.4636 72.4846 21.4953V21.489Z" fill="#FF6604"/>
<g id="Group_5">
<path id="Vector_8" d="M10.0434 15.2113C10.0434 15.9658 9.43776 16.5809 8.69479 16.5809C7.95181 16.5809 7.34619 15.9658 7.34619 15.2113C7.34619 14.4567 7.95181 13.8416 8.69479 13.8416C9.43776 13.8416 10.0434 14.4567 10.0434 15.2113Z" fill="#182E57"/>
<path id="Vector_9" d="M18.2787 14.5835C18.2787 15.3381 17.6731 15.9532 16.9301 15.9532C16.1872 15.9532 15.5815 15.3381 15.5815 14.5835C15.5815 13.8289 16.1872 13.2138 16.9301 13.2138C17.6731 13.2138 18.2787 13.8289 18.2787 14.5835Z" fill="#182E57"/>
<path id="Vector_10" d="M25.1401 15.002C25.8849 15.002 26.4887 14.3888 26.4887 13.6323C26.4887 12.8759 25.8849 12.2627 25.1401 12.2627C24.3953 12.2627 23.7915 12.8759 23.7915 13.6323C23.7915 14.3888 24.3953 15.002 25.1401 15.002Z" fill="#182E57"/>
<path id="Vector_11" d="M34.2431 14.1143C34.9879 14.1143 35.5917 13.501 35.5917 12.7446C35.5917 11.9881 34.9879 11.3749 34.2431 11.3749C33.4983 11.3749 32.8945 11.9881 32.8945 12.7446C32.8945 13.501 33.4983 14.1143 34.2431 14.1143Z" fill="#182E57"/>
<path id="Vector_12" d="M43.2588 13.347C44.0036 13.347 44.6073 12.7338 44.6073 11.9773C44.6073 11.2209 44.0036 10.6076 43.2588 10.6076C42.5139 10.6076 41.9102 11.2209 41.9102 11.9773C41.9102 12.7338 42.5139 13.347 43.2588 13.347Z" fill="#182E57"/>
<path id="Vector_13" d="M52.9736 11.3749C52.9736 12.1295 52.3679 12.7446 51.625 12.7446C50.882 12.7446 50.2764 12.1295 50.2764 11.3749C50.2764 10.6203 50.882 10.0052 51.625 10.0052C52.3679 10.0052 52.9736 10.6203 52.9736 11.3749Z" fill="#182E57"/>
<path id="Vector_14" d="M61.6708 10.5569C61.6708 11.3115 61.0652 11.9266 60.3222 11.9266C59.5792 11.9266 58.9736 11.3115 58.9736 10.5569C58.9736 9.80231 59.5792 9.18723 60.3222 9.18723C61.0652 9.18723 61.6708 9.80231 61.6708 10.5569Z" fill="#182E57"/>
</g>
<path id="Vector_15" d="M15.8371 6.33373C15.6497 6.46055 15.0753 5.55377 13.6331 5.25574C12.9338 5.1099 12.041 5.12892 11.2169 5.4967C10.399 5.85815 9.63102 6.62542 9.15027 7.61463C8.66328 8.61018 8.48221 9.69451 8.54465 10.6837C8.5946 11.6793 8.84434 12.5734 9.10032 13.3153C9.6435 14.7991 10.1804 15.6805 10.0056 15.8137C9.86827 15.9278 9.03164 15.262 8.18253 13.7401C7.7767 12.9792 7.37712 11.99 7.23351 10.7979C7.07743 9.61207 7.25225 8.22972 7.87035 6.9615C8.4947 5.69962 9.53736 4.68504 10.7299 4.25385C11.9224 3.82266 13.0712 3.94314 13.9203 4.27287C14.7819 4.60895 15.3438 5.1416 15.6123 5.56646C15.887 5.99765 15.912 6.28934 15.8371 6.33373Z" fill="#466398"/>
<path id="Vector_16" d="M24.0539 6.08008C23.8853 6.23226 23.1611 5.40792 21.7126 4.79283C20.9946 4.4948 20.0768 4.28555 19.1278 4.44407C18.1788 4.58992 17.1548 5.10355 16.5305 5.97228C15.9061 6.82833 15.775 7.9824 15.8 9.04137C15.8374 10.113 15.9623 11.1212 16.1184 11.9202C16.4306 13.5309 17.005 14.4123 16.8426 14.5454C16.7677 14.6025 16.518 14.463 16.1871 14.0762C15.8562 13.6957 15.4628 13.0553 15.1507 12.1992C14.8447 11.3368 14.6075 10.3159 14.4888 9.11746C14.4389 8.51506 14.4264 7.86192 14.545 7.1644C14.6637 6.47322 14.9134 5.744 15.3754 5.10989C16.2995 3.84167 17.7042 3.22024 18.9654 3.11244C20.2578 2.9983 21.3692 3.39779 22.1559 3.87338C22.955 4.3553 23.4545 4.91331 23.748 5.32549C24.0352 5.744 24.1226 6.02301 24.0476 6.08008H24.0539Z" fill="#466398"/>
<path id="Vector_17" d="M33.6124 4.58359C33.4626 4.76748 32.6572 4.05728 31.1837 3.79095C30.4532 3.66413 29.5542 3.68316 28.6239 3.96851C27.6998 4.25385 26.7259 4.79919 25.9829 5.61719C25.2274 6.42885 24.7779 7.45611 24.5344 8.41995C24.3034 9.39648 24.2784 10.3286 24.3596 11.1022C24.5157 12.6621 24.9964 13.5879 24.8029 13.7021C24.678 13.8035 23.8351 13.0299 23.3668 11.2861C23.1421 10.4237 23.0484 9.33307 23.2482 8.14729C23.4605 6.96784 23.9662 5.67426 24.9402 4.62798C25.9017 3.57536 27.1254 2.94759 28.293 2.67492C29.4667 2.40225 30.5843 2.50371 31.4397 2.80174C32.3013 3.09343 32.8819 3.56268 33.2253 3.90509C33.5562 4.27922 33.6811 4.52018 33.6187 4.58993L33.6124 4.58359Z" fill="#466398"/>
<path id="Vector_18" d="M42.8278 4.22849C42.653 4.39336 41.91 3.54365 40.3429 3.09977C39.5749 2.87784 38.6072 2.77638 37.5957 2.96027C36.5905 3.1505 35.5416 3.66413 34.8236 4.55189C34.1056 5.45866 33.706 6.60006 33.5499 7.66536C33.3876 8.73701 33.4313 9.73256 33.5749 10.5506C33.8559 12.1992 34.5177 13.068 34.3491 13.2202C34.2804 13.2836 34.0244 13.1377 33.6623 12.7573C33.3127 12.3705 32.8944 11.711 32.5947 10.8105C32.3012 9.91011 32.1327 8.77505 32.245 7.51318C32.3512 6.25764 32.7633 4.84992 33.7247 3.63877C34.7112 2.41494 36.1347 1.79985 37.3959 1.65401C38.6758 1.50182 39.8246 1.74912 40.6862 2.14861C41.5603 2.53542 42.1472 3.06807 42.4656 3.48024C42.7966 3.89241 42.884 4.1841 42.8153 4.23483L42.8278 4.22849Z" fill="#466398"/>
<path id="Vector_19" d="M52.5368 3.31537C52.3744 3.5056 51.5441 2.70662 49.927 2.31348C49.1341 2.10422 48.1413 1.99642 47.1049 2.19934C46.0685 2.39591 45.0071 2.91588 44.2204 3.80363C43.4213 4.6787 43.0279 5.8201 42.9031 6.90443C42.747 8.02046 42.7345 9.08576 42.7782 9.92913C42.8281 10.7852 42.9905 11.4383 43.1778 11.8505C43.3588 12.2627 43.5524 12.4656 43.4899 12.567C43.4525 12.6431 43.1153 12.5924 42.722 12.1739C42.3224 11.7617 41.9728 11.0135 41.7792 10.075C41.5919 9.13015 41.4983 8.0268 41.5919 6.77127C41.6544 5.49036 42.1039 3.99387 43.1528 2.83345C44.1955 1.66034 45.619 1.03892 46.8989 0.880389C48.1913 0.71552 49.3588 0.962823 50.2392 1.33695C50.4639 1.41304 50.67 1.52084 50.851 1.63498C51.0383 1.74278 51.2194 1.83789 51.3692 1.94569C51.6627 2.18665 51.9249 2.37689 52.0997 2.5798C52.4494 2.99197 52.593 3.23928 52.5243 3.30903L52.5368 3.31537Z" fill="#466398"/>
<path id="Vector_20" d="M61.9456 3.11246C61.827 3.30269 60.8905 2.7637 59.3234 2.32616C58.5429 2.11056 57.5939 1.93301 56.5825 2.00277C55.571 2.05984 54.5221 2.42128 53.6792 3.18221C52.8051 3.96216 52.1808 4.94503 51.8062 5.91522C51.4191 6.89175 51.263 7.84291 51.2318 8.65457C51.1694 10.2779 51.5565 11.2925 51.3442 11.3876C51.2068 11.4764 50.4389 10.5569 50.2203 8.69262C50.1142 7.77316 50.1829 6.64445 50.5637 5.465C50.9383 4.28556 51.6501 3.05539 52.7365 2.09154C53.2921 1.60328 53.9352 1.22915 54.5908 0.994532C55.2526 0.75357 55.9207 0.671136 56.5388 0.664795C57.7875 0.664795 58.8426 0.994532 59.6605 1.35597C61.3025 2.11056 62.0455 2.97295 61.9456 3.11246Z" fill="#466398"/>
<path id="Vector_21" d="M71.7854 7.36099C71.5544 7.38636 71.4982 6.04204 70.3057 4.53286C69.7125 3.7973 68.8384 3.04905 67.7084 2.64322C66.597 2.23105 65.211 2.23739 63.9061 2.71931C62.6012 3.21392 61.5335 4.10801 60.9092 5.14795C60.2599 6.18789 59.9914 7.32294 59.904 8.27411C59.7604 10.2145 60.3161 11.413 60.1038 11.5081C60.0226 11.5461 59.7791 11.3115 59.5044 10.7662C59.2297 10.2272 58.9487 9.37112 58.8925 8.26143C58.8488 7.15808 59.0424 5.7884 59.7729 4.46311C60.4846 3.13148 61.802 1.95838 63.4128 1.35597C65.0237 0.753571 66.7843 0.785276 68.1829 1.39402C69.5814 1.98374 70.5492 2.99198 71.1298 3.9368C71.7104 4.89431 71.9227 5.79474 71.9477 6.40349C71.9789 7.01857 71.8665 7.34831 71.7791 7.35465L71.7854 7.36099Z" fill="#466398"/>
<path id="Vector_22" d="M72.4847 21.4889C72.491 21.5777 71.5045 21.7172 69.7064 21.8884C67.9145 22.066 65.311 22.2816 62.1018 22.5162C55.6772 22.9918 46.7927 23.5688 36.9842 24.1205C27.1757 24.6785 18.2912 25.1097 11.8541 25.357C8.63873 25.4775 6.02895 25.5726 4.22458 25.5789C2.43894 25.5789 1.50866 25.9467 1.4712 25.858C1.42749 25.7945 2.35777 25.2429 4.19336 25.0907C5.99149 24.9385 8.58254 24.7039 11.7979 24.4756C18.2225 24 27.0945 23.423 36.903 22.8713C46.7053 22.3133 55.5961 21.8821 62.0394 21.6348C65.261 21.508 67.8708 21.4319 69.6752 21.4002C71.4795 21.3748 72.4847 21.4002 72.491 21.4826L72.4847 21.4889Z" fill="#E4B93A"/>
<g id="Group_6">
<g id="Group_7">
<path id="Vector_23" d="M7.75171 45.2553C7.74547 45.3124 7.54568 45.3695 7.20853 45.2363C6.87762 45.1032 6.45306 44.7481 6.20332 44.1457C5.94734 43.5496 5.91612 42.795 5.90364 42.0658C5.90364 41.6917 5.89115 41.2985 5.89115 40.8927C5.90364 40.4742 5.84745 40.1064 5.95358 39.5293C6.01602 39.244 6.17835 38.9523 6.38439 38.7557C6.59042 38.5528 6.82143 38.4196 7.0462 38.3245C7.49573 38.1406 7.92029 38.0899 8.2949 38.0582C9.04412 37.9885 9.71841 37.9758 10.2866 37.9948C11.4229 38.0392 12.1097 38.2104 12.1034 38.3372C12.1034 38.4767 11.4042 38.5465 10.3178 38.6733C9.7746 38.7367 9.12528 38.8191 8.41352 38.9333C7.72049 39.0284 6.96503 39.2503 6.89011 39.7513C6.82767 40.0239 6.85265 40.5059 6.83392 40.899C6.82143 41.3048 6.80894 41.698 6.79646 42.0721C6.759 42.8267 6.73402 43.4418 6.85889 43.9237C6.97127 44.393 7.22101 44.729 7.42081 44.9193C7.62684 45.1095 7.78293 45.1856 7.77044 45.2553H7.75171Z" fill="#567A98"/>
<path id="Vector_24" d="M10.6364 38.407C10.6052 38.3562 10.7675 38.166 11.1858 38.0962C11.5791 38.0328 12.2847 38.128 12.7904 38.8064C13.0401 39.1616 13.115 39.6054 13.165 39.9986C13.2087 40.3854 13.2586 40.8039 13.3148 41.2414C13.3585 41.6853 13.4085 42.1419 13.4522 42.6238C13.4834 43.1184 13.5084 43.6828 13.2899 44.2915C13.0776 44.9066 12.5157 45.3822 11.9787 45.5534C11.4418 45.7373 10.9361 45.7499 10.4865 45.7436C9.59995 45.7119 8.83824 45.6548 8.17643 45.6041C7.83928 45.5724 7.50838 45.5217 7.22742 45.3948C6.94646 45.2744 6.74043 45.0905 6.61556 44.9129C6.36582 44.5388 6.44698 44.2661 6.50317 44.2725C6.57185 44.2598 6.63429 44.4627 6.88403 44.6529C7.13377 44.8559 7.55208 44.9573 8.18892 44.9129C8.832 44.8812 9.63741 44.8622 10.474 44.8495C11.2982 44.8305 12.1598 44.6529 12.397 43.9427C12.653 43.2198 12.4532 42.1799 12.4345 41.3112C12.4158 40.8736 12.3908 40.4551 12.3721 40.062C12.3596 39.6815 12.3284 39.3771 12.2097 39.1679C11.9725 38.7113 11.4917 38.5148 11.1796 38.4704C10.8549 38.4196 10.6551 38.4704 10.6239 38.407H10.6364Z" fill="#567A98"/>
</g>
<g id="Group_8">
<path id="Vector_25" d="M8.27613 54.4753C8.26988 54.5324 8.07009 54.5895 7.73294 54.4563C7.40204 54.3231 6.97748 53.968 6.72774 53.3656C6.47175 52.7696 6.44054 52.015 6.42805 51.2857C6.42805 50.9116 6.41556 50.5185 6.41556 50.1126C6.42805 49.6941 6.37186 49.3263 6.478 48.7493C6.54043 48.464 6.70276 48.1723 6.9088 47.9757C7.11483 47.7728 7.34584 47.6396 7.57061 47.5445C8.02014 47.3606 8.4447 47.3099 8.81931 47.2782C9.56853 47.2084 10.2428 47.1957 10.811 47.2148C11.9473 47.2592 12.6341 47.4304 12.6278 47.5572C12.6278 47.6967 11.9286 47.7664 10.8422 47.8933C10.299 47.9567 9.64969 48.0391 8.93794 48.1532C8.24491 48.2484 7.48944 48.4703 7.41452 48.9712C7.35209 49.2439 7.37706 49.7258 7.35833 50.119C7.34584 50.5248 7.33336 50.918 7.32087 51.2921C7.28341 52.0467 7.25844 52.6618 7.38331 53.1437C7.49569 53.6129 7.74543 53.949 7.94522 54.1392C8.15126 54.3295 8.30734 54.4056 8.29486 54.4753H8.27613Z" fill="#879CAE"/>
<path id="Vector_26" d="M11.1666 47.6333C11.1354 47.5825 11.2978 47.3923 11.7161 47.3226C12.1094 47.2592 12.8149 47.3543 13.3206 48.0328C13.5704 48.3879 13.6453 48.8317 13.6953 49.2249C13.739 49.6117 13.7889 50.0302 13.8451 50.4677C13.8888 50.9053 13.9388 51.3682 13.9825 51.8501C14.0137 52.3447 14.0387 52.9091 13.8201 53.5178C13.6078 54.1329 13.0459 54.6085 12.509 54.7797C11.9721 54.9636 11.4663 54.9763 11.0168 54.9699C10.1302 54.9382 9.36851 54.8811 8.7067 54.8304C8.36956 54.7987 8.03865 54.748 7.75769 54.6212C7.47674 54.5007 7.2707 54.3168 7.14583 54.1392C6.89609 53.7651 6.97726 53.4924 7.03345 53.4988C7.10213 53.4861 7.16456 53.689 7.4143 53.8793C7.66404 54.0822 8.08235 54.1836 8.71919 54.1392C9.36227 54.1075 10.1677 54.0885 11.0043 54.0758C11.8285 54.0568 12.6901 53.8793 12.9273 53.1691C13.1833 52.4462 12.9835 51.4062 12.9648 50.5375C12.946 50.1 12.9211 49.6814 12.9023 49.2883C12.8898 48.9078 12.8586 48.6035 12.74 48.3942C12.5028 47.9376 12.022 47.7411 11.7098 47.6967C11.3852 47.646 11.1854 47.6967 11.1542 47.6333H11.1666Z" fill="#879CAE"/>
</g>
<g id="Group_9">
<path id="Vector_27" d="M7.2898 36.4032C7.28355 36.4602 7.08376 36.5173 6.74661 36.3841C6.41571 36.251 5.99115 35.8959 5.74141 35.2935C5.48543 34.6974 5.45421 33.9428 5.44172 33.2136C5.44172 32.8395 5.42924 32.4463 5.42924 32.0405C5.44172 31.622 5.38553 31.2542 5.49167 30.6772C5.55411 30.3918 5.71644 30.1001 5.92247 29.9036C6.12851 29.7006 6.35952 29.5675 6.58428 29.4724C7.03381 29.2885 7.45837 29.2377 7.83298 29.206C8.5822 29.1363 9.2565 29.1236 9.82466 29.1426C10.961 29.187 11.6478 29.3582 11.6415 29.485C11.6415 29.6245 10.9422 29.6943 9.85587 29.8211C9.31269 29.8845 8.66337 29.967 7.95161 30.0811C7.25858 30.1762 6.50312 30.3982 6.42819 30.8991C6.36576 31.1718 6.39073 31.6537 6.372 32.0468C6.35952 32.4527 6.34703 32.8458 6.33454 33.2199C6.29708 33.9745 6.27211 34.5896 6.39698 35.0715C6.50936 35.5408 6.7591 35.8769 6.95889 36.0671C7.16493 36.2573 7.32101 36.3334 7.30853 36.4032H7.2898Z" fill="#879CAE"/>
<path id="Vector_28" d="M10.1803 29.5548C10.1491 29.5041 10.3114 29.3138 10.7297 29.2441C11.1231 29.1807 11.8286 29.2758 12.3343 29.9543C12.5841 30.3094 12.659 30.7533 12.7089 31.1464C12.7526 31.5332 12.8026 31.9517 12.8588 32.3893C12.9025 32.8268 12.9524 33.2897 12.9961 33.7716C13.0273 34.2662 13.0523 34.8306 12.8338 35.4393C12.6215 36.0544 12.0596 36.53 11.5227 36.7012C10.9857 36.8851 10.48 36.8978 10.0305 36.8914C9.14389 36.8597 8.38219 36.8027 7.72038 36.7519C7.38323 36.7202 7.05232 36.6695 6.77136 36.5427C6.49041 36.4222 6.28437 36.2383 6.1595 36.0607C5.90976 35.6866 5.99093 35.414 6.04712 35.4203C6.1158 35.4076 6.17823 35.6105 6.42797 35.8008C6.67771 36.0037 7.09603 36.1051 7.73286 36.0607C8.37594 36.029 9.18135 36.01 10.018 35.9973C10.8421 35.9783 11.7037 35.8008 11.941 35.0906C12.197 34.3677 11.9972 33.3277 11.9784 32.459C11.9597 32.0215 11.9347 31.603 11.916 31.2098C11.9035 30.8293 11.8723 30.525 11.7537 30.3157C11.5164 29.8592 11.0357 29.6626 10.7235 29.6182C10.3988 29.5675 10.199 29.6182 10.1678 29.5548H10.1803Z" fill="#879CAE"/>
</g>
<g id="Group_10">
<path id="Vector_29" d="M16.7361 45.0588C16.7298 45.1159 16.5301 45.1729 16.1929 45.0398C15.862 44.9066 15.4374 44.5515 15.1877 43.9491C14.9317 43.353 14.9005 42.5984 14.888 41.8692C14.888 41.4951 14.8755 41.1019 14.8755 40.6961C14.888 40.2776 14.8318 39.9098 14.938 39.3328C15.0004 39.0474 15.1627 38.7557 15.3688 38.5592C15.5748 38.3562 15.8058 38.2231 16.0306 38.128C16.4801 37.9441 16.9047 37.8933 17.2793 37.8616C18.0285 37.7919 18.7028 37.7792 19.2709 37.7982C20.4073 37.8426 21.094 38.0138 21.0878 38.1406C21.0878 38.2801 20.3885 38.3499 19.3022 38.4767C18.759 38.5401 18.1097 38.6226 17.3979 38.7367C16.7049 38.8318 15.9494 39.0538 15.8745 39.5547C15.812 39.8274 15.837 40.3093 15.8183 40.7024C15.8058 41.1083 15.7933 41.5014 15.7808 41.8755C15.7434 42.6301 15.7184 43.2452 15.8433 43.7272C15.9556 44.1964 16.2054 44.5325 16.4052 44.7227C16.6112 44.9129 16.7673 44.989 16.7548 45.0588H16.7361Z" fill="#879CAE"/>
<path id="Vector_30" d="M19.6266 38.2167C19.5954 38.166 19.7577 37.9758 20.176 37.906C20.5694 37.8426 21.2749 37.9377 21.7806 38.6162C22.0303 38.9713 22.1053 39.4152 22.1552 39.8084C22.1989 40.1952 22.2489 40.6137 22.3051 41.0512C22.3488 41.4887 22.3987 41.9516 22.4424 42.4336C22.4736 42.9282 22.4986 43.4925 22.2801 44.1013C22.0678 44.7164 21.5059 45.1919 20.969 45.3632C20.432 45.547 19.9263 45.5597 19.4768 45.5534C18.5902 45.5217 17.8285 45.4646 17.1667 45.4139C16.8295 45.3822 16.4986 45.3314 16.2177 45.2046C15.9367 45.0841 15.7307 44.9003 15.6058 44.7227C15.3561 44.3486 15.4372 44.0759 15.4934 44.0823C15.5621 44.0696 15.6245 44.2725 15.8743 44.4627C16.124 44.6656 16.5423 44.7671 17.1792 44.7227C17.8222 44.691 18.6276 44.672 19.4643 44.6593C20.2884 44.6403 21.15 44.4627 21.3873 43.7525C21.6433 43.0296 21.4435 41.9897 21.4247 41.121C21.406 40.6834 21.381 40.2649 21.3623 39.8718C21.3498 39.4913 21.3186 39.1869 21.2 38.9777C20.9627 38.5211 20.482 38.3245 20.1698 38.2802C19.8451 38.2294 19.6453 38.2802 19.6141 38.2167H19.6266Z" fill="#879CAE"/>
</g>
<g id="Group_11">
<path id="Vector_31" d="M17.2605 54.2851C17.2543 54.3421 17.0545 54.3992 16.7173 54.266C16.3864 54.1329 15.9619 53.7778 15.7121 53.1754C15.4561 52.5793 15.4249 51.8247 15.4124 51.0955C15.4124 50.7214 15.3999 50.3282 15.3999 49.9224C15.4124 49.5039 15.3562 49.1361 15.4624 48.5591C15.5248 48.2737 15.6871 47.982 15.8932 47.7854C16.0992 47.5825 16.3302 47.4494 16.555 47.3543C17.0045 47.1704 17.4291 47.1196 17.8037 47.0879C18.5529 47.0182 19.2272 47.0055 19.7954 47.0245C20.9317 47.0689 21.6185 47.2401 21.6122 47.3669C21.6122 47.5064 20.9129 47.5762 19.8266 47.703C19.2834 47.7664 18.6341 47.8489 17.9223 47.963C17.2293 48.0581 16.4738 48.2801 16.3989 48.781C16.3365 49.0537 16.3614 49.5356 16.3427 49.9287C16.3302 50.3346 16.3177 50.7277 16.3052 51.1018C16.2678 51.8564 16.2428 52.4715 16.3677 52.9534C16.4801 53.4227 16.7298 53.7588 16.9296 53.949C17.1356 54.1392 17.2917 54.2153 17.2792 54.2851H17.2605Z" fill="#879CAE"/>
<path id="Vector_32" d="M20.151 47.4367C20.1198 47.386 20.2821 47.1957 20.7004 47.126C21.0938 47.0626 21.7993 47.1577 22.305 47.8362C22.5548 48.1913 22.6297 48.6351 22.6796 49.0283C22.7233 49.4151 22.7733 49.8336 22.8295 50.2712C22.8732 50.715 22.9231 51.1716 22.9668 51.6535C22.9981 52.1481 23.023 52.7125 22.8045 53.3212C22.5922 53.9363 22.0303 54.4119 21.4934 54.5831C20.9564 54.767 20.4507 54.7797 20.0012 54.7733C19.1146 54.7416 18.3529 54.6846 17.6911 54.6338C17.3539 54.6021 17.023 54.5514 16.7421 54.4246C16.4611 54.3041 16.2551 54.1202 16.1302 53.9426C15.8805 53.5685 15.9616 53.2959 16.0178 53.3022C16.0865 53.2895 16.1489 53.4924 16.3987 53.6827C16.6484 53.8856 17.0667 53.987 17.7036 53.9426C18.3466 53.9109 19.1521 53.8919 19.9887 53.8792C20.8128 53.8602 21.6744 53.6827 21.9117 52.9725C22.1677 52.2496 21.9679 51.2096 21.9491 50.3409C21.9304 49.9034 21.9054 49.4849 21.8867 49.0917C21.8742 48.7112 21.843 48.4069 21.7244 48.1976C21.4871 47.7411 21.0064 47.5445 20.6942 47.5001C20.3695 47.4494 20.1697 47.5001 20.1385 47.4367H20.151Z" fill="#879CAE"/>
</g>
<g id="Group_12">
<path id="Vector_33" d="M16.2805 36.2066C16.2743 36.2637 16.0745 36.3207 15.7373 36.1876C15.4064 36.0544 14.9819 35.6993 14.7321 35.0969C14.4761 34.5009 14.4449 33.7463 14.4324 33.017C14.4324 32.6429 14.42 32.2498 14.42 31.8439C14.4324 31.4254 14.3763 31.0576 14.4824 30.4806C14.5448 30.1953 14.7072 29.9036 14.9132 29.707C15.1192 29.5041 15.3502 29.3709 15.575 29.2758C16.0245 29.0919 16.4491 29.0412 16.8237 29.0095C17.5729 28.9397 18.2472 28.927 18.8154 28.9461C19.9517 28.9904 20.6385 29.1617 20.6322 29.2885C20.6322 29.428 19.933 29.4977 18.8466 29.6246C18.3034 29.688 17.6541 29.7704 16.9423 29.8845C16.2493 29.9797 15.4938 30.2016 15.4189 30.7025C15.3565 30.9752 15.3815 31.4571 15.3627 31.8503C15.3502 32.2561 15.3378 32.6493 15.3253 33.0234C15.2878 33.778 15.2628 34.3931 15.3877 34.875C15.5001 35.3442 15.7498 35.6803 15.9496 35.8705C16.1556 36.0608 16.3117 36.1369 16.2993 36.2066H16.2805Z" fill="#879CAE"/>
<path id="Vector_34" d="M19.1652 29.3646C19.134 29.3138 19.2963 29.1236 19.7146 29.0539C20.1079 28.9904 20.8135 29.0856 21.3192 29.7641C21.5689 30.1192 21.6438 30.563 21.6938 30.9562C21.7375 31.343 21.7874 31.7615 21.8436 32.199C21.8873 32.6429 21.9373 33.0995 21.981 33.5814C22.0122 34.076 22.0372 34.6404 21.8187 35.2491C21.6064 35.8642 21.0445 36.3398 20.5075 36.511C19.9706 36.6949 19.4649 36.7076 19.0153 36.7012C18.1288 36.6695 17.367 36.6124 16.7052 36.5617C16.3681 36.53 16.0372 36.4793 15.7562 36.3525C15.4753 36.232 15.2692 36.0481 15.1444 35.8705C14.8946 35.4964 14.9758 35.2237 15.032 35.2301C15.1007 35.2174 15.1631 35.4203 15.4128 35.6105C15.6626 35.8135 16.0809 35.9149 16.7177 35.8705C17.3608 35.8388 18.1662 35.8198 19.0028 35.8071C19.827 35.7881 20.6886 35.6105 20.9258 34.9003C21.1818 34.1775 20.982 33.1375 20.9633 32.2688C20.9446 31.8313 20.9196 31.4127 20.9009 31.0196C20.8884 30.6391 20.8572 30.3348 20.7385 30.1255C20.5013 29.6689 20.0205 29.4724 19.7084 29.428C19.3837 29.3773 19.1839 29.428 19.1527 29.3646H19.1652Z" fill="#879CAE"/>
</g>
<g id="Group_13">
<path id="Vector_35" d="M26.1389 44.8622C26.1327 44.9193 25.9329 44.9764 25.5957 44.8432C25.2648 44.71 24.8403 44.3549 24.5905 43.7525C24.3345 43.1565 24.3033 42.4019 24.2908 41.6726C24.2908 41.2985 24.2784 40.9054 24.2784 40.4995C24.2908 40.081 24.2347 39.7132 24.3408 39.1362C24.4032 38.8509 24.5656 38.5592 24.7716 38.3626C24.9776 38.1597 25.2086 38.0265 25.4334 37.9314C25.8829 37.7475 26.3075 37.6968 26.6821 37.6651C27.4313 37.5953 28.1056 37.5826 28.6738 37.6017C29.8101 37.6461 30.4969 37.8173 30.4906 37.9441C30.4906 38.0836 29.7914 38.1533 28.705 38.2802C28.1618 38.3436 27.5125 38.426 26.8007 38.5401C26.1077 38.6353 25.3522 38.8572 25.2773 39.3581C25.2149 39.6308 25.2399 40.1127 25.2211 40.5059C25.2086 40.9117 25.1961 41.3049 25.1837 41.679C25.1462 42.4336 25.1212 43.0487 25.2461 43.5306C25.3585 43.9998 25.6082 44.3359 25.808 44.5261C26.014 44.7164 26.1701 44.7925 26.1576 44.8622H26.1389Z" fill="#879CAE"/>
<path id="Vector_36" d="M29.0294 38.0202C28.9982 37.9695 29.1605 37.7792 29.5789 37.7095C29.9722 37.6461 30.6777 37.7412 31.1834 38.4197C31.4332 38.7684 31.5081 39.2186 31.5581 39.6118C31.6018 39.9986 31.6517 40.4171 31.7079 40.8546C31.7516 41.2985 31.8015 41.7551 31.8453 42.237C31.8765 42.7316 31.9014 43.296 31.6829 43.9047C31.4706 44.5198 30.9087 44.9954 30.3718 45.1666C29.8348 45.3505 29.3291 45.3632 28.8796 45.3568C27.993 45.3251 27.2313 45.2681 26.5695 45.2173C26.2323 45.1856 25.9014 45.1349 25.6205 45.0081C25.3395 44.8876 25.1335 44.7037 25.0086 44.5261C24.7589 44.152 24.84 43.8794 24.8962 43.8857C24.9649 43.873 25.0274 44.0759 25.2771 44.2662C25.5268 44.4691 25.9451 44.5705 26.582 44.5261C27.2251 44.4944 28.0305 44.4754 28.8671 44.4627C29.6912 44.4437 30.5528 44.2662 30.7901 43.556C31.0461 42.8331 30.8463 41.7931 30.8276 40.9244C30.8088 40.4869 30.7839 40.0684 30.7651 39.6752C30.7526 39.2947 30.7214 38.9904 30.6028 38.7811C30.3655 38.3246 29.8848 38.128 29.5726 38.0836C29.248 38.0329 29.0482 38.0836 29.0169 38.0202H29.0294Z" fill="#879CAE"/>
</g>
<g id="Group_14">
<path id="Vector_37" d="M26.6697 54.0885C26.6634 54.1456 26.4636 54.2026 26.1265 54.0695C25.7956 53.9363 25.371 53.5812 25.1213 52.9788C24.8653 52.3827 24.8341 51.6282 24.8216 50.8989C24.8216 50.5248 24.8091 50.1317 24.8091 49.7258C24.8216 49.3073 24.7654 48.9395 24.8716 48.3625C24.934 48.0771 25.0963 47.7855 25.3024 47.5889C25.5084 47.386 25.7394 47.2528 25.9642 47.1577C26.4137 46.9738 26.8383 46.9231 27.2129 46.8914C27.9621 46.8216 28.6364 46.8089 29.2045 46.828C30.3409 46.8723 31.0276 47.0435 31.0214 47.1704C31.0214 47.3099 30.3221 47.3796 29.2358 47.5064C28.6926 47.5699 28.0433 47.6523 27.3315 47.7664C26.6385 47.8615 25.883 48.0835 25.8081 48.5844C25.7456 48.8571 25.7706 49.339 25.7519 49.7322C25.7394 50.138 25.7269 50.5312 25.7144 50.9053C25.677 51.6599 25.652 52.275 25.7769 52.7569C25.8892 53.2261 26.139 53.5622 26.3388 53.7524C26.5448 53.9427 26.7009 54.0188 26.6884 54.0885H26.6697Z" fill="#879CAE"/>
<path id="Vector_38" d="M29.5543 47.2465C29.5231 47.1957 29.6855 47.0055 30.1038 46.9358C30.4971 46.8723 31.2026 46.9675 31.7083 47.646C31.9581 48.0011 32.033 48.4449 32.083 48.8381C32.1267 49.2249 32.1766 49.6434 32.2328 50.0809C32.2765 50.5248 32.3265 50.9814 32.3702 51.4633C32.4014 51.9579 32.4263 52.5223 32.2078 53.131C31.9955 53.7461 31.4336 54.2217 30.8967 54.3929C30.3597 54.5768 29.854 54.5895 29.4045 54.5831C28.5179 54.5514 27.7562 54.4943 27.0944 54.4436C26.7573 54.4119 26.4263 54.3612 26.1454 54.2344C25.8644 54.1139 25.6584 53.93 25.5335 53.7524C25.2838 53.3783 25.365 53.1056 25.4211 53.112C25.4898 53.0993 25.5523 53.3022 25.802 53.4924C26.0517 53.6954 26.4701 53.7968 27.1069 53.7524C27.75 53.7207 28.5554 53.7017 29.392 53.689C30.2161 53.67 31.0777 53.4924 31.315 52.7822C31.571 52.0594 31.3712 51.0194 31.3525 50.1507C31.3337 49.7132 31.3088 49.2946 31.29 48.9015C31.2775 48.521 31.2463 48.2167 31.1277 48.0074C30.8904 47.5508 30.4097 47.3543 30.0975 47.3099C29.7729 47.2591 29.5731 47.3099 29.5419 47.2465H29.5543Z" fill="#879CAE"/>
</g>
<g id="Group_15">
<path id="Vector_39" d="M25.6834 36.01C25.6771 36.0671 25.4773 36.1242 25.1402 35.991C24.8093 35.8579 24.3847 35.5028 24.135 34.9004C23.879 34.3043 23.8478 33.5497 23.8353 32.8205C23.8353 32.4463 23.8228 32.0532 23.8228 31.6474C23.8353 31.2289 23.7791 30.8611 23.8852 30.284C23.9477 29.9987 24.11 29.707 24.316 29.5104C24.5221 29.3075 24.7531 29.1743 24.9778 29.0792C25.4274 28.8953 25.8519 28.8446 26.2265 28.8129C26.9758 28.7431 27.6501 28.7305 28.2182 28.7495C29.3483 28.7939 30.0413 28.9651 30.0351 29.0919C30.0351 29.2314 29.3358 29.3012 28.2494 29.428C27.7062 29.4914 27.0569 29.5738 26.3452 29.688C25.6521 29.7831 24.8967 30.005 24.8218 30.506C24.7593 30.7786 24.7843 31.2606 24.7656 31.6537C24.7531 32.0595 24.7406 32.4527 24.7281 32.8268C24.6906 33.5814 24.6657 34.1965 24.7905 34.6784C24.9029 35.1477 25.1527 35.4837 25.3524 35.674C25.5585 35.8642 25.7146 35.9403 25.7021 36.01H25.6834Z" fill="#879CAE"/>
<path id="Vector_40" d="M28.5739 29.168C28.5427 29.1173 28.705 28.927 29.1233 28.8573C29.5166 28.7939 30.2222 28.889 30.7279 29.5675C30.9776 29.9226 31.0525 30.3665 31.1025 30.7596C31.1462 31.1464 31.1961 31.5649 31.2523 32.0025C31.296 32.44 31.346 32.9029 31.3897 33.3848C31.4209 33.8794 31.4459 34.4438 31.2274 35.0525C31.0151 35.6676 30.4532 36.1432 29.9162 36.3144C29.3793 36.4983 28.8736 36.511 28.424 36.5047C27.5374 36.4729 26.7757 36.4159 26.1139 36.3651C25.7768 36.3334 25.4459 36.2827 25.1649 36.1559C24.884 36.0354 24.6779 35.8515 24.5531 35.674C24.3033 35.2998 24.3845 35.0272 24.4407 35.0335C24.5094 35.0208 24.5718 35.2238 24.8215 35.414C25.0713 35.6169 25.4896 35.7184 26.1264 35.674C26.7695 35.6423 27.5749 35.6232 28.4115 35.6106C29.2357 35.5915 30.0973 35.414 30.3345 34.7038C30.5905 33.9809 30.3907 32.941 30.372 32.0722C30.3533 31.6347 30.3283 31.2162 30.3096 30.823C30.2971 30.4426 30.2659 30.1382 30.1472 29.9289C29.91 29.4724 29.4292 29.2758 29.1171 29.2314C28.7924 29.1807 28.5926 29.2314 28.5614 29.168H28.5739Z" fill="#879CAE"/>
</g>
<g id="Group_16">
<path id="Vector_41" d="M35.3108 44.672C35.3046 44.729 35.1048 44.7861 34.7676 44.6529C34.4367 44.5198 34.0121 44.1647 33.7624 43.5623C33.5064 42.9662 33.4752 42.2116 33.4627 41.4824C33.4627 41.1083 33.4502 40.7151 33.4502 40.3093C33.4627 39.8908 33.4065 39.523 33.5127 38.946C33.5751 38.6606 33.7374 38.3689 33.9435 38.1723C34.1495 37.9694 34.3805 37.8363 34.6053 37.7412C35.0548 37.5573 35.4794 37.5065 35.854 37.4748C36.6032 37.4051 37.2775 37.3924 37.8457 37.4114C38.982 37.4558 39.6688 37.627 39.6625 37.7538C39.6625 37.8933 38.9632 37.9631 37.8769 38.0899C37.3337 38.1533 36.6844 38.2358 35.9726 38.3499C35.2796 38.445 34.5241 38.667 34.4492 39.1679C34.3868 39.4406 34.4117 39.9225 34.393 40.3156C34.3805 40.7215 34.368 41.1146 34.3555 41.4887C34.3181 42.2433 34.2931 42.8584 34.418 43.3403C34.5304 43.8096 34.7801 44.1457 34.9799 44.3359C35.1859 44.5261 35.342 44.6022 35.3295 44.672H35.3108Z" fill="#879CAE"/>
<path id="Vector_42" d="M38.2013 37.8236C38.1701 37.7729 38.3324 37.5826 38.7507 37.5129C39.1441 37.4495 39.8496 37.5446 40.3553 38.2231C40.6051 38.5718 40.68 39.0221 40.7299 39.4152C40.7736 39.802 40.8236 40.2205 40.8798 40.6581C40.9235 41.1019 40.9734 41.5585 41.0171 42.0404C41.0483 42.535 41.0733 43.0994 40.8548 43.7081C40.6425 44.3232 40.0806 44.7988 39.5437 44.97C39.0067 45.1539 38.501 45.1666 38.0515 45.1602C37.1649 45.1285 36.4032 45.0715 35.7414 45.0207C35.4042 44.989 35.0733 44.9383 34.7924 44.8115C34.5114 44.691 34.3054 44.5071 34.1805 44.3295C33.9308 43.9554 34.0119 43.6828 34.0681 43.6891C34.1368 43.6764 34.1992 43.8793 34.449 44.0696C34.6987 44.2725 35.117 44.3739 35.7539 44.3295C36.3969 44.2978 37.2023 44.2788 38.039 44.2661C38.8631 44.2471 39.7247 44.0696 39.962 43.3594C40.218 42.6365 40.0182 41.5965 39.9994 40.7278C39.9807 40.2903 39.9557 39.8718 39.937 39.4786C39.9245 39.0981 39.8933 38.7938 39.7747 38.5845C39.5374 38.128 39.0567 37.9314 38.7445 37.887C38.4198 37.8363 38.22 37.887 38.1888 37.8236H38.2013Z" fill="#879CAE"/>
</g>
<g id="Group_17">
<path id="Vector_43" d="M35.8352 53.8983C35.829 53.9553 35.6292 54.0124 35.292 53.8792C34.9611 53.7461 34.5366 53.391 34.2868 52.7886C34.0308 52.1925 33.9996 51.4379 33.9871 50.7087C33.9871 50.3346 33.9746 49.9414 33.9746 49.5356C33.9871 49.1171 33.9309 48.7493 34.0371 48.1722C34.0995 47.8869 34.2618 47.5952 34.4679 47.3986C34.6739 47.1957 34.9049 47.0626 35.1297 46.9674C35.5792 46.7835 36.0038 46.7328 36.3784 46.7011C37.1276 46.6314 37.8019 46.6187 38.3701 46.6377C39.5064 46.6821 40.1932 46.8533 40.1869 46.9801C40.1869 47.1196 39.4877 47.1894 38.4013 47.3162C37.8581 47.3796 37.2088 47.4621 36.497 47.5762C35.804 47.6713 35.0485 47.8932 34.9736 48.3942C34.9112 48.6669 34.9361 49.1488 34.9174 49.5419C34.9049 49.9478 34.8924 50.3409 34.88 50.715C34.8425 51.4696 34.8175 52.0847 34.9424 52.5666C35.0548 53.0359 35.3045 53.3719 35.5043 53.5622C35.7103 53.7524 35.8664 53.8285 35.8539 53.8983H35.8352Z" fill="#879CAE"/>
<path id="Vector_44" d="M38.7257 47.0499C38.6945 46.9991 38.8568 46.8089 39.2752 46.7392C39.6685 46.6757 40.374 46.7709 40.8797 47.4494C41.1295 47.7981 41.2044 48.2483 41.2543 48.6415C41.298 49.0283 41.348 49.4468 41.4042 49.8843C41.4479 50.3282 41.4978 50.7848 41.5415 51.2667C41.5728 51.7613 41.5977 52.3257 41.3792 52.9344C41.1669 53.5495 40.605 54.0251 40.0681 54.1963C39.5311 54.3802 39.0254 54.3929 38.5759 54.3865C37.6893 54.3548 36.9276 54.2977 36.2658 54.247C35.9286 54.2153 35.5977 54.1646 35.3168 54.0378C35.0358 53.9173 34.8298 53.7334 34.7049 53.5558C34.4552 53.1817 34.5363 52.909 34.5925 52.9154C34.6612 52.9027 34.7236 53.1056 34.9734 53.2958C35.2231 53.4988 35.6414 53.6002 36.2783 53.5558C36.9214 53.5241 37.7268 53.5051 38.5634 53.4924C39.3875 53.4734 40.2491 53.2958 40.4864 52.5856C40.7424 51.8628 40.5426 50.8228 40.5239 49.9541C40.5051 49.5166 40.4801 49.098 40.4614 48.7049C40.4489 48.3244 40.4177 48.0201 40.2991 47.8108C40.0618 47.3542 39.5811 47.1577 39.2689 47.1133C38.9442 47.0626 38.7445 47.1133 38.7132 47.0499H38.7257Z" fill="#879CAE"/>
</g>
<g id="Group_18">
<path id="Vector_45" d="M34.8547 35.8198C34.8485 35.8769 34.6487 35.9339 34.3116 35.8008C33.9807 35.6676 33.5561 35.3125 33.3064 34.7101C33.0504 34.114 33.0192 33.3595 33.0067 32.6302C33.0067 32.2561 32.9942 31.863 32.9942 31.4571C33.0067 31.0386 32.9505 30.6708 33.0566 30.0938C33.119 29.8084 33.2814 29.5167 33.4874 29.3202C33.6934 29.1173 33.9245 28.9841 34.1492 28.889C34.5988 28.7051 35.0233 28.6544 35.3979 28.6227C36.1471 28.5529 36.8214 28.5402 37.3896 28.5592C38.5259 28.6036 39.2127 28.7748 39.2065 28.9017C39.2065 29.0412 38.5072 29.1109 37.4208 29.2377C36.8776 29.3012 36.2283 29.3836 35.5166 29.4977C34.8235 29.5928 34.0681 29.8148 33.9931 30.3157C33.9307 30.5884 33.9557 31.0703 33.9369 31.4635C33.9245 31.8693 33.912 32.2624 33.8995 32.6366C33.862 33.3912 33.837 34.0062 33.9619 34.4882C34.0743 34.9574 34.324 35.2935 34.5238 35.4837C34.7299 35.674 34.886 35.75 34.8735 35.8198H34.8547Z" fill="#567A98"/>
<path id="Vector_46" d="M37.7453 28.9714C37.714 28.9207 37.8764 28.7305 38.2947 28.6607C38.688 28.5973 39.3935 28.6924 39.8993 29.3709C40.149 29.7197 40.2239 30.1699 40.2739 30.563C40.3176 30.9498 40.3675 31.3683 40.4237 31.8059C40.4674 32.2498 40.5174 32.7063 40.5611 33.1882C40.5923 33.6828 40.6173 34.2472 40.3987 34.8559C40.1865 35.471 39.6245 35.9466 39.0876 36.1178C38.5507 36.3017 38.0449 36.3144 37.5954 36.3081C36.7088 36.2764 35.9471 36.2193 35.2853 36.1686C34.9482 36.1368 34.6173 36.0861 34.3363 35.9593C34.0553 35.8388 33.8493 35.6549 33.7244 35.4774C33.4747 35.1032 33.5559 34.8306 33.6121 34.8369C33.6807 34.8242 33.7432 35.0272 33.9929 35.2174C34.2427 35.4203 34.661 35.5218 35.2978 35.4774C35.9409 35.4457 36.7463 35.4266 37.5829 35.414C38.4071 35.3949 39.2687 35.2174 39.5059 34.5072C39.7619 33.7843 39.5621 32.7444 39.5434 31.8756C39.5247 31.4381 39.4997 31.0196 39.4809 30.6264C39.4685 30.246 39.4372 29.9416 39.3186 29.7323C39.0814 29.2758 38.6006 29.0792 38.2884 29.0348C37.9638 28.9841 37.764 29.0348 37.7328 28.9714H37.7453Z" fill="#567A98"/>
</g>
<g id="Group_19">
<path id="Vector_47" d="M44.4573 44.4754C44.451 44.5325 44.2512 44.5895 43.9141 44.4564C43.5832 44.3232 43.1586 43.9681 42.9089 43.3657C42.6529 42.7696 42.6217 42.0151 42.6092 41.2858C42.6092 40.9117 42.5967 40.5186 42.5967 40.1127C42.6092 39.6942 42.553 39.3264 42.6592 38.7494C42.7216 38.4641 42.8839 38.1724 43.09 37.9758C43.296 37.7729 43.527 37.6397 43.7518 37.5446C44.2013 37.3607 44.6259 37.31 45.0005 37.2783C45.7497 37.2085 46.424 37.1958 46.9921 37.2149C48.1285 37.2592 48.8152 37.4305 48.809 37.5573C48.809 37.6968 48.1097 37.7665 47.0234 37.8934C46.4802 37.9568 45.8308 38.0392 45.1191 38.1533C44.4261 38.2485 43.6706 38.4704 43.5957 38.9713C43.5332 39.244 43.5582 39.7259 43.5395 40.1191C43.527 40.5249 43.5145 40.9181 43.502 41.2922C43.4646 42.0468 43.4396 42.6619 43.5645 43.1438C43.6768 43.613 43.9266 43.9491 44.1264 44.1393C44.3324 44.3296 44.4885 44.4057 44.476 44.4754H44.4573Z" fill="#879CAE"/>
<path id="Vector_48" d="M47.3478 37.6334C47.3166 37.5826 47.4789 37.3924 47.8972 37.3227C48.2906 37.2592 48.9961 37.3544 49.5018 38.0329C49.7515 38.3816 49.8265 38.8318 49.8764 39.225C49.9201 39.6118 49.9701 40.0303 50.0263 40.4678C50.07 40.9117 50.1199 41.3683 50.1636 41.8502C50.1948 42.3448 50.2198 42.9092 50.0013 43.5179C49.789 44.133 49.2271 44.6086 48.6901 44.7798C48.1532 44.9637 47.6475 44.9764 47.1979 44.97C46.3114 44.9383 45.5497 44.8812 44.8879 44.8305C44.5507 44.7988 44.2198 44.7481 43.9388 44.6213C43.6579 44.5008 43.4519 44.3169 43.327 44.1393C43.0772 43.7652 43.1584 43.4925 43.2146 43.4989C43.2833 43.4862 43.3457 43.6891 43.5954 43.8793C43.8452 44.0823 44.2635 44.1837 44.9003 44.1393C45.5434 44.1076 46.3488 44.0886 47.1855 44.0759C48.0096 44.0569 48.8712 43.8793 49.1085 43.1691C49.3644 42.4463 49.1647 41.4063 49.1459 40.5376C49.1272 40.1001 49.1022 39.6815 49.0835 39.2884C49.071 38.9079 49.0398 38.6036 48.9212 38.3943C48.6839 37.9377 48.2032 37.7412 47.891 37.6968C47.5663 37.6461 47.3665 37.6968 47.3353 37.6334H47.3478Z" fill="#879CAE"/>
</g>
<g id="Group_20">
<path id="Vector_49" d="M44.9817 53.7017C44.9754 53.7588 44.7757 53.8158 44.4385 53.6827C44.1076 53.5495 43.683 53.1944 43.4333 52.592C43.1773 51.9959 43.1461 51.2413 43.1336 50.5121C43.1336 50.138 43.1211 49.7449 43.1211 49.339C43.1336 48.9205 43.0774 48.5527 43.1836 47.9757C43.246 47.6903 43.4083 47.3986 43.6144 47.2021C43.8204 46.9992 44.0514 46.866 44.2762 46.7709C44.7257 46.587 45.1503 46.5363 45.5249 46.5046C46.2741 46.4348 46.9484 46.4221 47.5166 46.4411C48.6529 46.4855 49.3397 46.6567 49.3334 46.7836C49.3334 46.9231 48.6341 46.9928 47.5478 47.1196C47.0046 47.1831 46.3553 47.2655 45.6435 47.3796C44.9505 47.4747 44.195 47.6967 44.1201 48.1976C44.0577 48.4703 44.0826 48.9522 44.0639 49.3454C44.0514 49.7512 44.0389 50.1443 44.0264 50.5185C43.989 51.2731 43.964 51.8881 44.0889 52.3701C44.2013 52.8393 44.451 53.1754 44.6508 53.3656C44.8568 53.5558 45.0129 53.6319 45.0004 53.7017H44.9817Z" fill="#879CAE"/>
<path id="Vector_50" d="M47.8722 46.8597C47.841 46.8089 48.0033 46.6187 48.4216 46.5489C48.815 46.4855 49.5205 46.5806 50.0262 47.2591C50.276 47.6079 50.3509 48.0581 50.4008 48.4513C50.4445 48.8381 50.4945 49.2566 50.5507 49.6941C50.5944 50.1317 50.6443 50.5946 50.688 51.0765C50.7192 51.5711 50.7442 52.1354 50.5257 52.7442C50.3134 53.3593 49.7515 53.8349 49.2146 54.0061C48.6776 54.19 48.1719 54.2026 47.7224 54.1963C46.8358 54.1646 46.0741 54.1075 45.4123 54.0568C45.0751 54.0251 44.7442 53.9744 44.4633 53.8475C44.1823 53.7271 43.9763 53.5432 43.8514 53.3656C43.6017 52.9915 43.6828 52.7188 43.739 52.7252C43.8077 52.7125 43.8701 52.9154 44.1199 53.1056C44.3696 53.3085 44.7879 53.41 45.4248 53.3656C46.0678 53.3339 46.8732 53.3149 47.7099 53.3022C48.534 53.2832 49.3956 53.1056 49.6329 52.3954C49.8889 51.6725 49.6891 50.6326 49.6703 49.7639C49.6516 49.3263 49.6266 48.9078 49.6079 48.5147C49.5954 48.1342 49.5642 47.8298 49.4456 47.6206C49.2083 47.164 48.7276 46.9675 48.4154 46.9231C48.0907 46.8723 47.8909 46.9231 47.8597 46.8597H47.8722Z" fill="#879CAE"/>
</g>
<g id="Group_21">
<path id="Vector_51" d="M44.0017 35.6232C43.9955 35.6803 43.7957 35.7374 43.4585 35.6042C43.1276 35.471 42.7031 35.1159 42.4533 34.5135C42.1973 33.9175 42.1661 33.1629 42.1536 32.4337C42.1536 32.0595 42.1411 31.6664 42.1411 31.2606C42.1536 30.842 42.0974 30.4743 42.2036 29.8972C42.266 29.6119 42.4284 29.3202 42.6344 29.1236C42.8404 28.9207 43.0714 28.7875 43.2962 28.6924C43.7457 28.5085 44.1703 28.4578 44.5449 28.4261C45.2941 28.3563 45.9684 28.3437 46.5366 28.3627C47.6729 28.4071 48.3597 28.5783 48.3534 28.7051C48.3534 28.8446 47.6542 28.9144 46.5678 29.0412C46.0246 29.1046 45.3753 29.187 44.6635 29.3012C43.9705 29.3963 43.215 29.6182 43.1401 30.1192C43.0777 30.3918 43.1026 30.8738 43.0839 31.2669C43.0714 31.6727 43.0589 32.0659 43.0465 32.44C43.009 33.1946 42.984 33.8097 43.1089 34.2916C43.2213 34.7608 43.471 35.0969 43.6708 35.2872C43.8768 35.4774 44.0329 35.5535 44.0204 35.6232H44.0017Z" fill="#879CAE"/>
<path id="Vector_52" d="M46.8922 28.7812C46.861 28.7305 47.0233 28.5402 47.4417 28.4705C47.835 28.4071 48.5405 28.5022 49.0462 29.1807C49.296 29.5294 49.3709 29.9797 49.4208 30.3728C49.4645 30.7596 49.5145 31.1781 49.5707 31.6157C49.6144 32.0595 49.6643 32.5161 49.708 32.998C49.7393 33.4926 49.7642 34.057 49.5457 34.6657C49.3334 35.2808 48.7715 35.7564 48.2346 35.9276C47.6976 36.1115 47.1919 36.1242 46.7424 36.1178C45.8558 36.0861 45.0941 36.0291 44.4323 35.9783C44.0951 35.9466 43.7642 35.8959 43.4833 35.7691C43.2023 35.6486 42.9963 35.4647 42.8714 35.2872C42.6217 34.913 42.7028 34.6404 42.759 34.6467C42.8277 34.634 42.8901 34.8369 43.1399 35.0272C43.3896 35.2301 43.8079 35.3315 44.4448 35.2872C45.0879 35.2555 45.8933 35.2364 46.7299 35.2237C47.554 35.2047 48.4156 35.0272 48.6529 34.317C48.9089 33.5941 48.7091 32.5541 48.6904 31.6854C48.6716 31.2479 48.6467 30.8294 48.6279 30.4362C48.6154 30.0558 48.5842 29.7514 48.4656 29.5421C48.2283 29.0856 47.7476 28.889 47.4354 28.8446C47.1107 28.7939 46.911 28.8446 46.8797 28.7812H46.8922Z" fill="#879CAE"/>
</g>
<g id="Group_22">
<path id="Vector_53" d="M53.4231 44.2788C53.4169 44.3359 53.2171 44.393 52.8799 44.2598C52.549 44.1266 52.1245 43.7715 51.8747 43.1691C51.6187 42.5731 51.5875 41.8185 51.575 41.0892C51.575 40.7151 51.5625 40.322 51.5625 39.9161C51.575 39.4976 51.5188 39.1298 51.625 38.5528C51.6874 38.2675 51.8497 37.9758 52.0558 37.7792C52.2618 37.5763 52.4928 37.4431 52.7176 37.348C53.1671 37.1641 53.5917 37.1134 53.9663 37.0817C54.7155 37.0119 55.3898 36.9992 55.958 37.0183C57.0943 37.0626 57.7811 37.2339 57.7748 37.3607C57.7748 37.5002 57.0755 37.5699 55.9892 37.6968C55.446 37.7602 54.7967 37.8426 54.0849 37.9567C53.3919 38.0519 52.6364 38.2738 52.5615 38.7747C52.4991 39.0474 52.524 39.5293 52.5053 39.9225C52.4928 40.3283 52.4803 40.7215 52.4678 41.0956C52.4304 41.8502 52.4054 42.4653 52.5303 42.9472C52.6427 43.4164 52.8924 43.7525 53.0922 43.9427C53.2982 44.133 53.4543 44.2091 53.4418 44.2788H53.4231Z" fill="#879CAE"/>
<path id="Vector_54" d="M56.3136 37.4368C56.2824 37.386 56.4447 37.1958 56.863 37.1261C57.2564 37.0626 57.9619 37.1578 58.4676 37.8363C58.7174 38.1914 58.7923 38.6352 58.8422 39.0284C58.8859 39.4152 58.9359 39.8337 58.9921 40.2712C59.0358 40.7088 59.0857 41.1717 59.1294 41.6536C59.1607 42.1482 59.1856 42.7126 58.9671 43.3213C58.7548 43.9364 58.1929 44.412 57.656 44.5832C57.119 44.7671 56.6133 44.7798 56.1638 44.7734C55.2772 44.7417 54.5155 44.6846 53.8537 44.6339C53.5165 44.6022 53.1856 44.5515 52.9047 44.4247C52.6237 44.3042 52.4177 44.1203 52.2928 43.9427C52.0431 43.5686 52.1242 43.2959 52.1804 43.3023C52.2491 43.2896 52.3115 43.4925 52.5613 43.6827C52.811 43.8857 53.2293 43.9871 53.8662 43.9427C54.5092 43.911 55.3147 43.892 56.1513 43.8793C56.9754 43.8603 57.837 43.6828 58.0743 42.9725C58.3303 42.2497 58.1305 41.2097 58.1117 40.341C58.093 39.9035 58.068 39.4849 58.0493 39.0918C58.0368 38.7113 58.0056 38.407 57.887 38.1977C57.6497 37.7411 57.169 37.5446 56.8568 37.5002C56.5321 37.4495 56.3323 37.5002 56.3011 37.4368H56.3136Z" fill="#879CAE"/>
</g>
<g id="Group_23">
<path id="Vector_55" d="M53.9475 53.5051C53.9413 53.5622 53.7415 53.6192 53.4043 53.4861C53.0734 53.3529 52.6489 52.9978 52.3991 52.3954C52.1431 51.7993 52.1119 51.0448 52.0994 50.3155C52.0994 49.9414 52.087 49.5483 52.087 49.1424C52.0994 48.7239 52.0432 48.3561 52.1494 47.7791C52.2118 47.4937 52.3742 47.2021 52.5802 47.0055C52.7862 46.8026 53.0172 46.6694 53.242 46.5743C53.6915 46.3904 54.1161 46.3397 54.4907 46.308C55.2399 46.2382 55.9142 46.2255 56.4824 46.2445C57.6187 46.2889 58.3055 46.4601 58.2992 46.587C58.2992 46.7265 57.6 46.7962 56.5136 46.923C55.9704 46.9865 55.3211 47.0689 54.6093 47.183C53.9163 47.2781 53.1608 47.5001 53.0859 48.001C53.0235 48.2737 53.0484 48.7556 53.0297 49.1488C53.0172 49.5546 53.0047 49.9477 52.9923 50.3219C52.9548 51.0765 52.9298 51.6916 53.0547 52.1735C53.1671 52.6427 53.4168 52.9788 53.6166 53.169C53.8226 53.3593 53.9787 53.4354 53.9662 53.5051H53.9475Z" fill="#879CAE"/>
<path id="Vector_56" d="M56.838 46.6631C56.8068 46.6123 56.9691 46.4221 57.3875 46.3523C57.7808 46.2889 58.4863 46.3841 58.992 47.0625C59.2418 47.4113 59.3167 47.8615 59.3666 48.2547C59.4103 48.6415 59.4603 49.06 59.5165 49.4975C59.5602 49.9414 59.6101 50.398 59.6538 50.8799C59.6851 51.3745 59.71 51.9389 59.4915 52.5476C59.2792 53.1627 58.7173 53.6383 58.1804 53.8095C57.6434 53.9934 57.1377 54.006 56.6882 53.9997C55.8016 53.968 55.0399 53.9109 54.3781 53.8602C54.0409 53.8285 53.71 53.7778 53.4291 53.6509C53.1481 53.5305 52.9421 53.3466 52.8172 53.169C52.5675 52.7949 52.6486 52.5222 52.7048 52.5286C52.7735 52.5159 52.8359 52.7188 53.0857 52.909C53.3354 53.112 53.7537 53.2134 54.3906 53.169C55.0337 53.1373 55.8391 53.1183 56.6757 53.1056C57.4998 53.0866 58.3614 52.909 58.5987 52.1988C58.8547 51.4759 58.6549 50.436 58.6362 49.5673C58.6174 49.1297 58.5925 48.7112 58.5737 48.3181C58.5612 47.9376 58.53 47.6332 58.4114 47.424C58.1741 46.9674 57.6934 46.7709 57.3812 46.7265C57.0565 46.6757 56.8568 46.7265 56.8255 46.6631H56.838Z" fill="#879CAE"/>
</g>
<g id="Group_24">
<path id="Vector_57" d="M52.967 35.4267C52.9608 35.4837 52.761 35.5408 52.4239 35.4076C52.093 35.2745 51.6684 34.9194 51.4187 34.317C51.1627 33.7209 51.1315 32.9663 51.119 32.2371C51.119 31.863 51.1065 31.4698 51.1065 31.064C51.119 30.6455 51.0628 30.2777 51.1689 29.7007C51.2314 29.4153 51.3937 29.1236 51.5997 28.927C51.8058 28.7241 52.0368 28.591 52.2615 28.4959C52.7111 28.312 53.1356 28.2612 53.5102 28.2295C54.2594 28.1598 54.9337 28.1471 55.5019 28.1661C56.6382 28.2105 57.325 28.3817 57.3188 28.5085C57.3188 28.648 56.6195 28.7178 55.5331 28.8446C54.9899 28.908 54.3406 28.9905 53.6289 29.1046C52.9358 29.1997 52.1804 29.4217 52.1054 29.9226C52.043 30.1953 52.068 30.6772 52.0492 31.0703C52.0368 31.4762 52.0243 31.8693 52.0118 32.2434C51.9743 32.998 51.9494 33.6131 52.0742 34.095C52.1866 34.5643 52.4363 34.9004 52.6361 35.0906C52.8422 35.2808 52.9983 35.3569 52.9858 35.4267H52.967Z" fill="#879CAE"/>
<path id="Vector_58" d="M55.8576 28.5846C55.8263 28.5339 55.9887 28.3437 56.407 28.2739C56.8003 28.2105 57.5058 28.3056 58.0116 28.9841C58.2613 29.3329 58.3362 29.7831 58.3862 30.1762C58.4299 30.5631 58.4798 30.9816 58.536 31.4191C58.5797 31.863 58.6297 32.3195 58.6734 32.8015C58.7046 33.2961 58.7296 33.8604 58.511 34.4692C58.2988 35.0843 57.7369 35.5598 57.1999 35.731C56.663 35.9149 56.1572 35.9276 55.7077 35.9213C54.8211 35.8896 54.0594 35.8325 53.3976 35.7818C53.0605 35.7501 52.7296 35.6993 52.4486 35.5725C52.1677 35.452 51.9616 35.2681 51.8367 35.0906C51.587 34.7165 51.6682 34.4438 51.7244 34.4501C51.793 34.4375 51.8555 34.6404 52.1052 34.8306C52.355 35.0335 52.7733 35.135 53.4101 35.0906C54.0532 35.0589 54.8586 35.0399 55.6952 35.0272C56.5194 35.0082 57.381 34.8306 57.6182 34.1204C57.8742 33.3975 57.6744 32.3576 57.6557 31.4889C57.637 31.0513 57.612 30.6328 57.5933 30.2397C57.5808 29.8592 57.5495 29.5548 57.4309 29.3456C57.1937 28.889 56.7129 28.6924 56.4007 28.648C56.0761 28.5973 55.8763 28.648 55.8451 28.5846H55.8576Z" fill="#879CAE"/>
</g>
<g id="Group_25">
<path id="Vector_59" d="M62.5071 44.0886C62.5008 44.1457 62.301 44.2027 61.9639 44.0696C61.633 43.9364 61.2084 43.5813 60.9587 42.9789C60.7027 42.3828 60.6715 41.6283 60.659 40.899C60.659 40.5249 60.6465 40.1318 60.6465 39.7259C60.659 39.3074 60.6028 38.9396 60.709 38.3626C60.7714 38.0772 60.9337 37.7855 61.1398 37.589C61.3458 37.3861 61.5768 37.2529 61.8016 37.1578C62.2511 36.9739 62.6757 36.9232 63.0503 36.8915C63.7995 36.8217 64.4738 36.809 65.0419 36.828C66.1783 36.8724 66.865 37.0436 66.8588 37.1705C66.8588 37.31 66.1595 37.3797 65.0732 37.5065C64.53 37.57 63.8807 37.6524 63.1689 37.7665C62.4759 37.8616 61.7204 38.0836 61.6455 38.5845C61.583 38.8572 61.608 39.3391 61.5893 39.7323C61.5768 40.1381 61.5643 40.5312 61.5518 40.9054C61.5144 41.66 61.4894 42.275 61.6143 42.757C61.7266 43.2262 61.9764 43.5623 62.1762 43.7525C62.3822 43.9427 62.5383 44.0188 62.5258 44.0886H62.5071Z" fill="#879CAE"/>
<path id="Vector_60" d="M65.3976 37.2402C65.3664 37.1895 65.5287 36.9992 65.947 36.9295C66.3404 36.8661 67.0459 36.9612 67.5516 37.6397C67.8013 37.9885 67.8763 38.4387 67.9262 38.8318C67.9699 39.2186 68.0199 39.6371 68.0761 40.0747C68.1198 40.5186 68.1697 40.9751 68.2134 41.457C68.2446 41.9516 68.2696 42.516 68.0511 43.1247C67.8388 43.7398 67.2769 44.2154 66.74 44.3866C66.203 44.5705 65.6973 44.5832 65.2478 44.5769C64.3612 44.5452 63.5995 44.4881 62.9377 44.4374C62.6005 44.4056 62.2696 44.3549 61.9887 44.2281C61.7077 44.1076 61.5017 43.9237 61.3768 43.7462C61.127 43.3721 61.2082 43.0994 61.2644 43.1057C61.3331 43.093 61.3955 43.296 61.6453 43.4862C61.895 43.6891 62.3133 43.7906 62.9501 43.7462C63.5932 43.7145 64.3986 43.6954 65.2353 43.6828C66.0594 43.6637 66.921 43.4862 67.1583 42.776C67.4142 42.0531 67.2145 41.0132 67.1957 40.1444C67.177 39.7069 67.152 39.2884 67.1333 38.8952C67.1208 38.5148 67.0896 38.2104 66.971 38.0011C66.7337 37.5446 66.253 37.348 65.9408 37.3036C65.6161 37.2529 65.4163 37.3036 65.3851 37.2402H65.3976Z" fill="#879CAE"/>
</g>
<g id="Group_26">
<path id="Vector_61" d="M63.0315 53.3149C63.0253 53.372 62.8255 53.429 62.4883 53.2959C62.1574 53.1627 61.7328 52.8076 61.4831 52.2052C61.2271 51.6091 61.1959 50.8545 61.1834 50.1253C61.1834 49.7512 61.1709 49.358 61.1709 48.9522C61.1834 48.5337 61.1272 48.1659 61.2334 47.5889C61.2958 47.3035 61.4581 47.0118 61.6642 46.8153C61.8702 46.6123 62.1012 46.4792 62.326 46.3841C62.7755 46.2002 63.2001 46.1494 63.5747 46.1177C64.3239 46.048 64.9982 46.0353 65.5664 46.0543C66.7027 46.0987 67.3895 46.2699 67.3832 46.3968C67.3832 46.5363 66.6839 46.606 65.5976 46.7328C65.0544 46.7962 64.4051 46.8787 63.6933 46.9928C63.0003 47.0879 62.2448 47.3099 62.1699 47.8108C62.1075 48.0835 62.1324 48.5654 62.1137 48.9586C62.1012 49.3644 62.0887 49.7575 62.0762 50.1317C62.0388 50.8862 62.0138 51.5013 62.1387 51.9833C62.2511 52.4525 62.5008 52.7886 62.7006 52.9788C62.9066 53.169 63.0627 53.2451 63.0502 53.3149H63.0315Z" fill="#879CAE"/>
<path id="Vector_62" d="M65.922 46.4665C65.8908 46.4158 66.0531 46.2255 66.4714 46.1558C66.8648 46.0924 67.5703 46.1875 68.076 46.866C68.3258 47.2147 68.4007 47.665 68.4506 48.0581C68.4943 48.4449 68.5443 48.8634 68.6005 49.301C68.6442 49.7385 68.6941 50.2014 68.7378 50.6833C68.769 51.1779 68.794 51.7423 68.5755 52.351C68.3632 52.9661 67.8013 53.4417 67.2644 53.6129C66.7274 53.7968 66.2217 53.8095 65.7722 53.8031C64.8856 53.7714 64.1239 53.7144 63.4621 53.6636C63.1249 53.6319 62.794 53.5812 62.5131 53.4544C62.2321 53.3339 62.0261 53.15 61.9012 52.9725C61.6515 52.5983 61.7326 52.3257 61.7888 52.332C61.8575 52.3193 61.9199 52.5222 62.1697 52.7125C62.4194 52.9154 62.8377 53.0168 63.4746 52.9725C64.1176 52.9408 64.923 52.9217 65.7597 52.9091C66.5838 52.89 67.4454 52.7125 67.6827 52.0023C67.9387 51.2794 67.7389 50.2394 67.7201 49.3707C67.7014 48.9332 67.6764 48.5147 67.6577 48.1215C67.6452 47.7411 67.614 47.4367 67.4954 47.2274C67.2581 46.7709 66.7774 46.5743 66.4652 46.5299C66.1405 46.4792 65.9407 46.5299 65.9095 46.4665H65.922Z" fill="#879CAE"/>
</g>
<g id="Group_27">
<path id="Vector_63" d="M8.72583 63.4987C8.71959 63.5558 8.5198 63.6128 8.18265 63.4797C7.85174 63.3465 7.42719 62.9914 7.17745 62.389C6.92146 61.7929 6.89024 61.0383 6.87776 60.3091C6.87776 59.935 6.86527 59.5418 6.86527 59.136C6.87776 58.7175 6.82157 58.3497 6.92771 57.7727C6.99014 57.4873 7.15247 57.1956 7.35851 56.9991C7.56454 56.7962 7.79555 56.663 8.02032 56.5679C8.46985 56.384 8.89441 56.3333 9.26902 56.3015C10.0182 56.2318 10.6925 56.2191 11.2607 56.2381C12.397 56.2825 13.0838 56.4537 13.0775 56.5806C13.0775 56.7201 12.3783 56.7898 11.2919 56.9166C10.7487 56.98 10.0994 57.0625 9.38764 57.1766C8.69462 57.2717 7.93915 57.4937 7.86423 57.9946C7.80179 58.2673 7.82677 58.7492 7.80804 59.1424C7.79555 59.5482 7.78306 59.9413 7.77058 60.3155C7.73312 61.0701 7.70814 61.6851 7.83301 62.1671C7.9454 62.6363 8.19514 62.9724 8.39493 63.1626C8.60096 63.3528 8.75705 63.4289 8.74456 63.4987H8.72583Z" fill="#879CAE"/>
<path id="Vector_64" d="M11.6105 56.6503C11.5793 56.5996 11.7416 56.4093 12.1599 56.3396C12.5533 56.2762 13.2588 56.3713 13.7645 57.0498C14.0142 57.3986 14.0892 57.8488 14.1391 58.2419C14.1828 58.6287 14.2328 59.0472 14.2889 59.4848C14.3327 59.9223 14.3826 60.3852 14.4263 60.8671C14.4575 61.3617 14.4825 61.9261 14.264 62.5348C14.0517 63.1499 13.4898 63.6255 12.9528 63.7967C12.4159 63.9806 11.9102 63.9933 11.4606 63.9869C10.5741 63.9552 9.81236 63.8982 9.15055 63.8474C8.8134 63.8157 8.4825 63.765 8.20154 63.6382C7.92058 63.5177 7.71455 63.3338 7.58968 63.1563C7.33994 62.7821 7.4211 62.5095 7.47729 62.5158C7.54597 62.5031 7.60841 62.706 7.85815 62.8963C8.10789 63.0992 8.5262 63.2007 9.16304 63.1563C9.80612 63.1246 10.6115 63.1055 11.4482 63.0929C12.2723 63.0738 13.1339 62.8963 13.3712 62.1861C13.6271 61.4632 13.4273 60.4233 13.4086 59.5545C13.3899 59.117 13.3649 58.6985 13.3462 58.3053C13.3337 57.9249 13.3025 57.6205 13.1839 57.4112C12.9466 56.9547 12.4658 56.7581 12.1537 56.7137C11.829 56.663 11.6292 56.7137 11.598 56.6503H11.6105Z" fill="#879CAE"/>
</g>
<g id="Group_28">
<path id="Vector_65" d="M17.7102 63.3021C17.704 63.3592 17.5042 63.4162 17.167 63.2831C16.8361 63.1499 16.4116 62.7948 16.1618 62.1924C15.9058 61.5963 15.8746 60.8418 15.8621 60.1125C15.8621 59.7384 15.8496 59.3453 15.8496 58.9394C15.8621 58.5209 15.8059 58.1531 15.9121 57.5761C15.9745 57.2907 16.1368 56.999 16.3429 56.8025C16.5489 56.5996 16.7799 56.4664 17.0047 56.3713C17.4542 56.1874 17.8788 56.1367 18.2534 56.105C19.0026 56.0352 19.6769 56.0225 20.2451 56.0415C21.3814 56.0859 22.0682 56.2571 22.0619 56.384C22.0619 56.5235 21.3627 56.5932 20.2763 56.72C19.7331 56.7835 19.0838 56.8659 18.372 56.98C17.679 57.0751 16.9235 57.2971 16.8486 57.798C16.7862 58.0707 16.8111 58.5526 16.7924 58.9458C16.7799 59.3516 16.7674 59.7447 16.755 60.1189C16.7175 60.8735 16.6925 61.4885 16.8174 61.9705C16.9298 62.4397 17.1795 62.7758 17.3793 62.966C17.5853 63.1563 17.7414 63.2323 17.7289 63.3021H17.7102Z" fill="#879CAE"/>
<path id="Vector_66" d="M20.6007 56.4601C20.5695 56.4093 20.7318 56.2191 21.1502 56.1493C21.5435 56.0859 22.249 56.1811 22.7547 56.8595C23.0045 57.2147 23.0794 57.6585 23.1293 58.0517C23.173 58.4385 23.223 58.857 23.2792 59.2945C23.3229 59.7321 23.3728 60.195 23.4165 60.6769C23.4478 61.1715 23.4727 61.7358 23.2542 62.3446C23.0419 62.9597 22.48 63.4353 21.9431 63.6065C21.4061 63.7904 20.9004 63.803 20.4509 63.7967C19.5643 63.765 18.8026 63.7079 18.1408 63.6572C17.8036 63.6255 17.4727 63.5748 17.1918 63.4479C16.9108 63.3275 16.7048 63.1436 16.5799 62.966C16.3302 62.5919 16.4113 62.3192 16.4675 62.3256C16.5362 62.3129 16.5986 62.5158 16.8484 62.706C17.0981 62.9089 17.5164 63.0104 18.1533 62.966C18.7964 62.9343 19.6018 62.9153 20.4384 62.9026C21.2625 62.8836 22.1241 62.706 22.3614 61.9958C22.6174 61.2729 22.4176 60.233 22.3989 59.3643C22.3801 58.9267 22.3551 58.5082 22.3364 58.1151C22.3239 57.7346 22.2927 57.4302 22.1741 57.221C21.9368 56.7644 21.4561 56.5679 21.1439 56.5235C20.8192 56.4727 20.6195 56.5235 20.5882 56.4601H20.6007Z" fill="#879CAE"/>
</g>
<g id="Group_29">
<path id="Vector_67" d="M27.113 63.1055C27.1068 63.1626 26.907 63.2197 26.5699 63.0865C26.2389 62.9534 25.8144 62.5982 25.5647 61.9958C25.3087 61.3998 25.2775 60.6452 25.265 59.916C25.265 59.5418 25.2525 59.1487 25.2525 58.7429C25.265 58.3243 25.2088 57.9566 25.3149 57.3795C25.3773 57.0942 25.5397 56.8025 25.7457 56.6059C25.9517 56.403 26.1828 56.2698 26.4075 56.1747C26.8571 55.9908 27.2816 55.9401 27.6562 55.9084C28.4054 55.8386 29.0797 55.826 29.6479 55.845C30.7842 55.8894 31.471 56.0606 31.4648 56.1874C31.4648 56.3269 30.7655 56.3967 29.6791 56.5235C29.1359 56.5869 28.4866 56.6693 27.7749 56.7835C27.0818 56.8786 26.3264 57.1005 26.2514 57.6015C26.189 57.8741 26.214 58.3561 26.1952 58.7492C26.1828 59.155 26.1703 59.5482 26.1578 59.9223C26.1203 60.6769 26.0953 61.292 26.2202 61.7739C26.3326 62.2431 26.5823 62.5792 26.7821 62.7695C26.9882 62.9597 27.1443 63.0358 27.1318 63.1055H27.113Z" fill="#879CAE"/>
<path id="Vector_68" d="M30.0036 56.2635C29.9723 56.2128 30.1347 56.0225 30.553 55.9528C30.9463 55.8894 31.6518 55.9845 32.1576 56.663C32.4073 57.0117 32.4822 57.462 32.5322 57.8551C32.5759 58.2419 32.6258 58.6604 32.682 59.098C32.7257 59.5355 32.7757 59.9984 32.8194 60.4803C32.8506 60.9749 32.8756 61.5393 32.657 62.148C32.4448 62.7631 31.8828 63.2387 31.3459 63.4099C30.809 63.5938 30.3032 63.6065 29.8537 63.6001C28.9671 63.5684 28.2054 63.5114 27.5436 63.4606C27.2065 63.4289 26.8756 63.3782 26.5946 63.2514C26.3136 63.1309 26.1076 62.947 25.9827 62.7695C25.733 62.3953 25.8142 62.1227 25.8704 62.129C25.939 62.1163 26.0015 62.3192 26.2512 62.5095C26.501 62.7124 26.9193 62.8138 27.5561 62.7695C28.1992 62.7378 29.0046 62.7187 29.8412 62.706C30.6654 62.687 31.527 62.5095 31.7642 61.7993C32.0202 61.0764 31.8204 60.0364 31.8017 59.1677C31.783 58.7302 31.758 58.3117 31.7392 57.9185C31.7268 57.5381 31.6955 57.2337 31.5769 57.0244C31.3397 56.5679 30.8589 56.3713 30.5467 56.3269C30.2221 56.2762 30.0223 56.3269 29.9911 56.2635H30.0036Z" fill="#879CAE"/>
</g>
<g id="Group_30">
<path id="Vector_69" d="M36.2844 62.9153C36.2782 62.9724 36.0784 63.0294 35.7412 62.8963C35.4103 62.7631 34.9858 62.408 34.736 61.8056C34.4801 61.2095 34.4488 60.4549 34.4363 59.7257C34.4363 59.3516 34.4239 58.9584 34.4239 58.5526C34.4364 58.1341 34.3802 57.7663 34.4863 57.1893C34.5487 56.9039 34.7111 56.6122 34.9171 56.4157C35.1231 56.2127 35.3541 56.0796 35.5789 55.9845C36.0284 55.8006 36.453 55.7499 36.8276 55.7181C37.5768 55.6484 38.2511 55.6357 38.8193 55.6547C39.9556 55.6991 40.6424 55.8703 40.6361 55.9972C40.6361 56.1367 39.9369 56.2064 38.8505 56.3332C38.3073 56.3966 37.658 56.4791 36.9462 56.5932C36.2532 56.6883 35.4977 56.9103 35.4228 57.4112C35.3604 57.6839 35.3854 58.1658 35.3666 58.559C35.3541 58.9648 35.3417 59.3579 35.3292 59.7321C35.2917 60.4866 35.2667 61.1017 35.3916 61.5837C35.504 62.0529 35.7537 62.389 35.9535 62.5792C36.1596 62.7694 36.3156 62.8455 36.3032 62.9153H36.2844Z" fill="#879CAE"/>
<path id="Vector_70" d="M39.1749 56.0669C39.1437 56.0162 39.3061 55.8259 39.7244 55.7562C40.1177 55.6928 40.8232 55.7879 41.3289 56.4664C41.5787 56.8152 41.6536 57.2654 41.7036 57.6585C41.7473 58.0453 41.7972 58.4638 41.8534 58.9014C41.8971 59.3452 41.9471 59.8018 41.9908 60.2837C42.022 60.7783 42.047 61.3427 41.8284 61.9514C41.6162 62.5665 41.0542 63.0421 40.5173 63.2133C39.9804 63.3972 39.4746 63.4099 39.0251 63.4035C38.1385 63.3718 37.3768 63.3148 36.715 63.264C36.3779 63.2323 36.047 63.1816 35.766 63.0548C35.485 62.9343 35.279 62.7504 35.1541 62.5729C34.9044 62.1987 34.9856 61.9261 35.0417 61.9324C35.1104 61.9197 35.1729 62.1226 35.4226 62.3129C35.6723 62.5158 36.0907 62.6173 36.7275 62.5729C37.3706 62.5412 38.176 62.5221 39.0126 62.5095C39.8368 62.4904 40.6984 62.3129 40.9356 61.6027C41.1916 60.8798 40.9918 59.8399 40.9731 58.9711C40.9543 58.5336 40.9294 58.1151 40.9106 57.7219C40.8981 57.3415 40.8669 57.0371 40.7483 56.8278C40.5111 56.3713 40.0303 56.1747 39.7181 56.1303C39.3935 56.0796 39.1937 56.1303 39.1625 56.0669H39.1749Z" fill="#879CAE"/>
</g>
<g id="Group_31">
<path id="Vector_71" d="M45.4314 62.7187C45.4252 62.7758 45.2254 62.8329 44.8882 62.6997C44.5573 62.5665 44.1328 62.2114 43.883 61.609C43.627 61.013 43.5958 60.2584 43.5833 59.5292C43.5833 59.155 43.5708 58.7619 43.5708 58.3561C43.5833 57.9375 43.5271 57.5698 43.6333 56.9927C43.6957 56.7074 43.858 56.4157 44.0641 56.2191C44.2701 56.0162 44.5011 55.883 44.7259 55.7879C45.1754 55.604 45.6 55.5533 45.9746 55.5216C46.7238 55.4518 47.3981 55.4391 47.9663 55.4582C49.1026 55.5026 49.7894 55.6738 49.7831 55.8006C49.7831 55.9401 49.0838 56.0098 47.9975 56.1367C47.4543 56.2001 46.805 56.2825 46.0932 56.3967C45.4002 56.4918 44.6447 56.7137 44.5698 57.2147C44.5074 57.4873 44.5323 57.9692 44.5136 58.3624C44.5011 58.7682 44.4886 59.1614 44.4761 59.5355C44.4387 60.2901 44.4137 60.9052 44.5386 61.3871C44.651 61.8563 44.9007 62.1924 45.1005 62.3826C45.3065 62.5729 45.4626 62.649 45.4501 62.7187H45.4314Z" fill="#879CAE"/>
<path id="Vector_72" d="M48.3219 55.8767C48.2907 55.826 48.453 55.6357 48.8713 55.566C49.2647 55.5026 49.9702 55.5977 50.4759 56.2762C50.7257 56.6249 50.8006 57.0752 50.8505 57.4683C50.8942 57.8551 50.9442 58.2736 51.0004 58.7112C51.0441 59.1487 51.094 59.6116 51.1377 60.0935C51.1689 60.5881 51.1939 61.1525 50.9754 61.7612C50.7631 62.3763 50.2012 62.8519 49.6643 63.0231C49.1273 63.207 48.6216 63.2197 48.1721 63.2133C47.2855 63.1816 46.5238 63.1246 45.862 63.0738C45.5248 63.0421 45.1939 62.9914 44.913 62.8646C44.632 62.7441 44.426 62.5602 44.3011 62.3826C44.0514 62.0085 44.1325 61.7359 44.1887 61.7422C44.2574 61.7295 44.3198 61.9324 44.5696 62.1227C44.8193 62.3256 45.2376 62.427 45.8745 62.3826C46.5175 62.3509 47.323 62.3319 48.1596 62.3192C48.9837 62.3002 49.8453 62.1227 50.0826 61.4125C50.3386 60.6896 50.1388 59.6496 50.12 58.7809C50.1013 58.3434 50.0763 57.9249 50.0576 57.5317C50.0451 57.1512 50.0139 56.8469 49.8953 56.6376C49.658 56.1811 49.1773 55.9845 48.8651 55.9401C48.5404 55.8894 48.3406 55.9401 48.3094 55.8767H48.3219Z" fill="#879CAE"/>
</g>
<g id="Group_32">
<path id="Vector_73" d="M54.3972 62.5222C54.391 62.5792 54.1912 62.6363 53.854 62.5031C53.5231 62.37 53.0986 62.0149 52.8488 61.4125C52.5928 60.8164 52.5616 60.0618 52.5491 59.3326C52.5491 58.9585 52.5367 58.5653 52.5367 58.1595C52.5491 57.741 52.493 57.3732 52.5991 56.7962C52.6615 56.5108 52.8239 56.2191 53.0299 56.0225C53.2359 55.8196 53.4669 55.6865 53.6917 55.5913C54.1412 55.4075 54.5658 55.3567 54.9404 55.325C55.6896 55.2553 56.3639 55.2426 56.9321 55.2616C58.0684 55.306 58.7552 55.4772 58.7489 55.604C58.7489 55.7435 58.0497 55.8133 56.9633 55.9401C56.4201 56.0035 55.7708 56.086 55.059 56.2001C54.366 56.2952 53.6105 56.5171 53.5356 57.0181C53.4732 57.2908 53.4982 57.7727 53.4794 58.1658C53.4669 58.5717 53.4544 58.9648 53.442 59.3389C53.4045 60.0935 53.3795 60.7086 53.5044 61.1905C53.6168 61.6598 53.8665 61.9958 54.0663 62.1861C54.2723 62.3763 54.4284 62.4524 54.4159 62.5222H54.3972Z" fill="#879CAE"/>
<path id="Vector_74" d="M57.2877 55.6801C57.2565 55.6294 57.4188 55.4392 57.8372 55.3694C58.2305 55.306 58.936 55.4011 59.4417 56.0796C59.6915 56.4347 59.7664 56.8786 59.8164 57.2717C59.8601 57.6585 59.91 58.0771 59.9662 58.5146C60.0099 58.9585 60.0598 59.415 60.1036 59.897C60.1348 60.3916 60.1597 60.9559 59.9412 61.5647C59.7289 62.1797 59.167 62.6553 58.6301 62.8265C58.0931 63.0104 57.5874 63.0231 57.1379 63.0168C56.2513 62.9851 55.4896 62.928 54.8278 62.8773C54.4906 62.8456 54.1597 62.7948 53.8788 62.668C53.5978 62.5475 53.3918 62.3636 53.2669 62.1861C53.0172 61.812 53.0983 61.5393 53.1545 61.5456C53.2232 61.533 53.2857 61.7359 53.5354 61.9261C53.7851 62.129 54.2034 62.2305 54.8403 62.1861C55.4834 62.1544 56.2888 62.1354 57.1254 62.1227C57.9495 62.1037 58.8111 61.9261 59.0484 61.2159C59.3044 60.493 59.1046 59.4531 59.0859 58.5843C59.0671 58.1468 59.0422 57.7283 59.0234 57.3352C59.0109 56.9547 58.9797 56.6503 58.8611 56.4411C58.6238 55.9845 58.1431 55.7879 57.8309 55.7435C57.5063 55.6928 57.3065 55.7435 57.2752 55.6801H57.2877Z" fill="#879CAE"/>
</g>
<g id="Group_33">
<path id="Vector_75" d="M63.4812 62.3319C63.475 62.389 63.2752 62.4461 62.938 62.3129C62.6071 62.1797 62.1826 61.8246 61.9328 61.2222C61.6768 60.6262 61.6456 59.8716 61.6331 59.1423C61.6331 58.7682 61.6206 58.3751 61.6206 57.9692C61.6331 57.5507 61.5769 57.1829 61.6831 56.6059C61.7455 56.3206 61.9078 56.0289 62.1139 55.8323C62.3199 55.6294 62.5509 55.4962 62.7757 55.4011C63.2252 55.2172 63.6498 55.1665 64.0244 55.1348C64.7736 55.065 65.4479 55.0523 66.0161 55.0714C67.1524 55.1157 67.8392 55.287 67.8329 55.4138C67.8329 55.5533 67.1337 55.623 66.0473 55.7499C65.5041 55.8133 64.8548 55.8957 64.143 56.0098C63.45 56.105 62.6945 56.3269 62.6196 56.8278C62.5572 57.1005 62.5821 57.5824 62.5634 57.9756C62.5509 58.3814 62.5384 58.7746 62.526 59.1487C62.4885 59.9033 62.4635 60.5184 62.5884 61.0003C62.7008 61.4695 62.9505 61.8056 63.1503 61.9958C63.3563 62.1861 63.5124 62.2622 63.4999 62.3319H63.4812Z" fill="#879CAE"/>
<path id="Vector_76" d="M66.3717 55.4835C66.3405 55.4328 66.5028 55.2426 66.9211 55.1728C67.3145 55.1094 68.02 55.2045 68.5257 55.883C68.7755 56.2318 68.8504 56.682 68.9003 57.0751C68.944 57.4619 68.994 57.8805 69.0502 58.318C69.0939 58.7619 69.1438 59.2184 69.1875 59.7004C69.2188 60.195 69.2437 60.7593 69.0252 61.3681C68.8129 61.9832 68.251 62.4587 67.7141 62.6299C67.1771 62.8138 66.6714 62.8265 66.2219 62.8202C65.3353 62.7885 64.5736 62.7314 63.9118 62.6807C63.5746 62.649 63.2437 62.5982 62.9628 62.4714C62.6818 62.3509 62.4758 62.167 62.3509 61.9895C62.1012 61.6154 62.1823 61.3427 62.2385 61.349C62.3072 61.3364 62.3696 61.5393 62.6194 61.7295C62.8691 61.9324 63.2874 62.0339 63.9243 61.9895C64.5674 61.9578 65.3728 61.9388 66.2094 61.9261C67.0335 61.9071 67.8951 61.7295 68.1324 61.0193C68.3884 60.2964 68.1886 59.2565 68.1698 58.3877C68.1511 57.9502 68.1261 57.5317 68.1074 57.1386C68.0949 56.7581 68.0637 56.4537 67.9451 56.2445C67.7078 55.7879 67.2271 55.5913 66.9149 55.5469C66.5902 55.4962 66.3905 55.5469 66.3592 55.4835H66.3717Z" fill="#879CAE"/>
</g>
<g id="Group_34">
<path id="Vector_77" d="M62.0515 35.2364C62.0453 35.2935 61.8455 35.3506 61.5083 35.2174C61.1774 35.0842 60.7529 34.7291 60.5031 34.1267C60.2471 33.5307 60.2159 32.7761 60.2034 32.0469C60.2034 31.6727 60.191 31.2796 60.191 30.8738C60.2034 30.4552 60.1472 30.0875 60.2534 29.5104C60.3158 29.2251 60.4782 28.9334 60.6842 28.7368C60.8902 28.5339 61.1212 28.4007 61.346 28.3056C61.7955 28.1217 62.2201 28.071 62.5947 28.0393C63.3439 27.9695 64.0182 27.9568 64.5864 27.9759C65.7227 28.0203 66.4095 28.1915 66.4032 28.3183C66.4032 28.4578 65.704 28.5275 64.6176 28.6544C64.0744 28.7178 63.4251 28.8002 62.7133 28.9144C62.0203 29.0095 61.2648 29.2314 61.1899 29.7324C61.1275 30.005 61.1525 30.4869 61.1337 30.8801C61.1212 31.2859 61.1088 31.6791 61.0963 32.0532C61.0588 32.8078 61.0338 33.4229 61.1587 33.9048C61.2711 34.374 61.5208 34.7101 61.7206 34.9003C61.9266 35.0906 62.0827 35.1667 62.0702 35.2364H62.0515Z" fill="#879CAE"/>
<path id="Vector_78" d="M64.9362 28.388C64.905 28.3373 65.0673 28.1471 65.4856 28.0773C65.8789 28.0139 66.5845 28.109 67.0902 28.7875C67.3399 29.1363 67.4148 29.5865 67.4648 29.9797C67.5085 30.3665 67.5584 30.785 67.6146 31.2225C67.6583 31.66 67.7083 32.1229 67.752 32.6049C67.7832 33.0995 67.8082 33.6638 67.5897 34.2726C67.3774 34.8877 66.8155 35.3632 66.2785 35.5345C65.7416 35.7183 65.2359 35.731 64.7863 35.7247C63.8998 35.693 63.138 35.6359 62.4762 35.5852C62.1391 35.5535 61.8082 35.5027 61.5272 35.3759C61.2463 35.2554 61.0402 35.0716 60.9154 34.894C60.6656 34.5199 60.7468 34.2472 60.803 34.2536C60.8717 34.2409 60.9341 34.4438 61.1838 34.634C61.4336 34.8369 61.8519 34.9384 62.4887 34.894C63.1318 34.8623 63.9372 34.8433 64.7738 34.8306C65.598 34.8116 66.4596 34.634 66.6968 33.9238C66.9528 33.2009 66.753 32.161 66.7343 31.2923C66.7156 30.8547 66.6906 30.4362 66.6719 30.0431C66.6594 29.6626 66.6282 29.3582 66.5095 29.149C66.2723 28.6924 65.7915 28.4958 65.4794 28.4514C65.1547 28.4007 64.9549 28.4514 64.9237 28.388H64.9362Z" fill="#879CAE"/>
</g>
</g>
<path id="Vector_79" d="M72.9218 64.545C72.9218 64.545 73.0029 64.545 73.0841 64.6654C73.1278 64.7225 73.1403 64.862 73.0591 64.9445C72.9967 65.0396 72.8968 65.1093 72.7906 65.1727C72.3411 65.42 71.6418 65.6103 70.7365 65.7815C69.8312 65.9527 68.7136 66.1049 67.415 66.2254C66.1039 66.3458 64.6366 66.3902 63.0008 66.479C59.7355 66.6566 55.8458 66.7834 51.5253 66.9229C47.2048 67.056 42.4535 67.2082 37.4774 67.316C27.5191 67.576 18.4785 67.7345 11.9415 67.5443C8.66994 67.4619 6.02894 67.3097 4.1996 67.1765C3.27556 67.1131 2.53259 66.8658 2.15173 66.5107C1.76464 66.1619 1.73342 65.8576 1.75215 65.8576C1.78961 65.8322 1.88326 66.0922 2.26412 66.3522C2.63873 66.6122 3.31927 66.7897 4.21833 66.7961C6.04143 66.8151 8.68867 66.8595 11.9478 66.8595C18.4785 66.8785 27.4878 66.6122 37.4587 66.3522C47.4233 66.1366 56.4452 65.94 62.9821 65.7942C64.6117 65.7498 66.1039 65.7498 67.3838 65.68C68.6762 65.6103 69.7875 65.5152 70.6866 65.401C71.5857 65.2869 72.2849 65.1601 72.7095 64.9888C72.928 64.9064 73.0404 64.7923 72.9967 64.6972C72.9655 64.5957 72.903 64.5513 72.9218 64.5323V64.545Z" fill="#B0BBC0"/>
<path id="Vector_80" d="M3.61874 66.98C3.61874 66.98 3.50011 67.1195 3.18794 67.1195C2.88825 67.1195 2.41375 66.9483 2.06411 66.46C1.70823 65.9654 1.62082 65.2235 1.59585 64.4689C1.56463 63.708 1.52717 62.8392 1.48971 61.8817C1.35235 58.0517 1.22748 52.7632 1.15256 46.9231C1.07764 41.0829 1.05891 35.7945 1.09637 31.9644C1.13383 28.1344 1.22124 25.7628 1.35235 25.7628C1.48346 25.7628 1.63331 28.1281 1.77066 31.9581C1.90802 35.7881 2.03289 41.0766 2.10781 46.9104C2.18274 52.7505 2.20147 58.039 2.16401 61.8754C2.15152 62.8329 2.13903 63.7016 2.12654 64.4625C2.10157 65.2171 2.13903 65.8386 2.37628 66.2571C2.61354 66.6692 2.96942 66.8722 3.21291 66.9229C3.46265 66.98 3.60625 66.9356 3.61874 66.9736V66.98Z" fill="#B0BBC0"/>
<g id="Group_35">
<path id="Vector_81" d="M52.4552 20.5378C52.4552 20.5378 52.4052 20.5378 52.374 20.5378C52.3428 20.5378 52.3178 20.5378 52.2991 20.5188C52.2866 20.5188 52.2679 20.5188 52.2554 20.5061C52.2429 20.4934 52.2242 20.487 52.2117 20.4807C52.1118 20.411 52.0181 20.2968 51.9182 20.1319C51.8184 19.9671 51.7309 19.7895 51.6435 19.6056C51.5561 19.4217 51.475 19.2315 51.4063 19.0476C51.3314 18.8637 51.2752 18.7115 51.2252 18.5974C51.2002 18.5467 51.169 18.4959 51.1378 18.4325L50.7257 18.4706C50.6196 18.4833 50.4947 18.4833 50.3511 18.4706C50.2138 18.4579 50.0889 18.4706 49.9828 18.4896C49.708 18.5403 49.4521 18.5657 49.2211 18.5657C48.99 18.5657 48.759 18.5657 48.5343 18.5657C48.4968 18.6989 48.4531 18.8764 48.3907 19.0857C48.3345 19.2949 48.272 19.5105 48.2034 19.7325C48.1347 19.9544 48.066 20.1637 47.9911 20.3602C47.9162 20.5631 47.8475 20.7153 47.7851 20.8358C47.7414 20.8358 47.6852 20.8358 47.6165 20.8485C47.5478 20.8485 47.4791 20.8548 47.4042 20.8612C47.3293 20.8612 47.2606 20.8675 47.1919 20.8675C47.1232 20.8675 47.0671 20.8675 47.0233 20.8485C46.9921 20.8041 46.9672 20.7787 46.9422 20.7724C46.9172 20.7597 46.8985 20.7534 46.886 20.747C46.8735 20.7407 46.861 20.7343 46.8548 20.7217C46.8485 20.709 46.8423 20.69 46.8423 20.6519C46.8423 20.6329 46.8423 20.6012 46.8423 20.5631C46.8423 20.5251 46.8548 20.487 46.861 20.4427C46.8673 20.3983 46.8735 20.3539 46.8797 20.3222C46.8797 20.2841 46.8797 20.2588 46.8797 20.2461C46.8922 20.1319 46.9172 20.0115 46.9484 19.8846C46.9796 19.7578 47.0046 19.6373 47.0358 19.5232C47.0608 19.371 47.0983 19.2252 47.1482 19.073C47.1982 18.9208 47.2419 18.7686 47.2918 18.6228C47.3792 18.3564 47.4666 18.0965 47.5478 17.8301C47.629 17.5638 47.7164 17.3038 47.8038 17.0375C47.9661 16.5492 48.1284 16.061 48.2908 15.5727C48.4531 15.0844 48.6279 14.6025 48.809 14.1269C48.8714 13.9621 48.9463 13.8099 49.0338 13.6831C49.0899 13.6006 49.1461 13.5245 49.2148 13.4548C49.2835 13.385 49.3459 13.3153 49.4021 13.2392C49.4521 13.2202 49.4958 13.2011 49.5332 13.1694C49.5707 13.1441 49.6082 13.106 49.6394 13.068L49.758 13.0363H49.7455C49.8891 13.0299 50.014 13.0363 50.1139 13.0743C50.2138 13.1124 50.3012 13.1504 50.3699 13.2011C50.4385 13.2519 50.4947 13.3089 50.5384 13.366C50.5821 13.4231 50.6196 13.4675 50.6508 13.5055C50.757 13.8035 50.8506 14.1016 50.938 14.3933C51.0254 14.6849 51.1253 14.9893 51.2315 15.2937C51.425 15.858 51.6248 16.4161 51.8308 16.9614C52.0369 17.5067 52.2616 18.0584 52.4989 18.6037C52.605 18.8574 52.7174 19.1047 52.8173 19.352C52.9235 19.5993 53.0296 19.8403 53.1482 20.0749L52.9422 20.2778C52.9422 20.2778 52.8985 20.3032 52.8548 20.3285C52.8111 20.3539 52.7549 20.3792 52.6987 20.411C52.6425 20.4427 52.5863 20.468 52.5426 20.4997C52.4926 20.5314 52.4677 20.5441 52.4552 20.5568V20.5378ZM50.7694 17.3482C50.7133 17.1643 50.6758 17.0248 50.6383 16.917C50.6071 16.8092 50.5759 16.7141 50.5509 16.6253C50.5259 16.5365 50.4947 16.4414 50.4573 16.3336C50.4198 16.2258 50.3761 16.0863 50.3137 15.9024L50.0514 15.1605C50.0202 15.0654 49.9828 14.9513 49.9391 14.8181C49.9016 14.6849 49.8579 14.5645 49.8142 14.463C49.7143 14.723 49.6206 14.9703 49.5395 15.2113C49.4583 15.4522 49.3834 15.6932 49.3085 15.9278C49.2335 16.1624 49.1649 16.4034 49.0962 16.6507C49.0275 16.898 48.9588 17.1516 48.8902 17.4243C48.9463 17.437 48.99 17.4433 49.0088 17.4497C49.0837 17.4623 49.1961 17.4687 49.3522 17.475C49.5083 17.475 49.6768 17.4814 49.8579 17.4877C50.039 17.4877 50.2075 17.4877 50.3761 17.475C50.5447 17.4623 50.6695 17.4497 50.757 17.4306V17.3419L50.7694 17.3482Z" fill="white"/>
<path id="Vector_82" d="M54.5969 16.4858C54.6219 16.4478 54.6906 16.3844 54.7967 16.2956C54.9029 16.2068 54.9965 16.1307 55.0902 16.0673C55.2525 15.9595 55.4024 15.8961 55.546 15.8644C55.6896 15.8327 55.8456 15.7946 56.0205 15.7502H56.0517C56.3014 15.7946 56.5137 15.839 56.6948 15.8897C56.8696 15.9405 57.0631 16.0546 57.2629 16.2448C57.6563 16.6126 57.8685 17.0629 57.8935 17.5828C57.9185 17.9823 57.856 18.3247 57.7062 18.6164C57.5564 18.9081 57.3441 19.1871 57.0694 19.4534C56.9507 19.5612 56.8071 19.6754 56.6323 19.7959C56.4575 19.9163 56.2764 20.0115 56.0829 20.0876C55.8893 20.1636 55.6958 20.2144 55.5085 20.2461C55.3149 20.2714 55.1401 20.2461 54.9715 20.1763C54.9154 20.1763 54.8654 20.1636 54.8342 20.1319C54.7967 20.1002 54.753 20.0749 54.6968 20.0749C54.7093 20.3158 54.7218 20.5631 54.728 20.8104C54.7343 21.0577 54.7343 21.305 54.7343 21.546L54.8217 22.5416C54.7405 22.5669 54.6843 22.5923 54.6406 22.6113C54.5969 22.6303 54.5595 22.643 54.5158 22.6494C54.4783 22.6494 54.4346 22.6557 54.3847 22.6494C54.3347 22.6494 54.2785 22.6303 54.2036 22.605C54.1911 22.5986 54.1474 22.5859 54.0787 22.5669C54.01 22.5479 53.9726 22.5352 53.9601 22.5289C53.9351 22.5098 53.9226 22.4655 53.9226 22.4084L53.6604 17.716C53.6542 17.5765 53.6479 17.4623 53.6417 17.3736C53.6417 17.2848 53.6292 17.2024 53.623 17.1263C53.6167 17.0502 53.6105 16.9677 53.6042 16.879C53.6042 16.7902 53.5917 16.676 53.5855 16.5365C53.5855 16.4541 53.573 16.359 53.5543 16.2512C53.5355 16.1434 53.5293 16.0483 53.5355 15.9658C53.5543 15.9595 53.598 15.9405 53.6604 15.9215C53.7228 15.9024 53.7978 15.8771 53.8852 15.858C53.9726 15.839 54.0787 15.82 54.1911 15.8073C54.3097 15.7946 54.4284 15.7883 54.5532 15.7946C54.5532 15.8834 54.5532 15.9532 54.5532 16.0039C54.5532 16.0546 54.547 16.1053 54.547 16.1497C54.547 16.1941 54.547 16.2448 54.5532 16.2956C54.5595 16.3463 54.5782 16.4097 54.6032 16.4922L54.5969 16.4858ZM54.6906 19.1871C54.9154 19.2949 55.1651 19.3013 55.4336 19.2125C55.6334 19.1491 55.8269 19.073 56.0142 18.9842C56.2015 18.8954 56.3701 18.7876 56.5074 18.6608C56.651 18.534 56.7634 18.3818 56.8446 18.2042C56.9258 18.0267 56.957 17.8111 56.9445 17.5575C56.932 17.2911 56.8259 17.1009 56.6386 16.9804C56.4513 16.8599 56.2327 16.7965 55.9892 16.7902C55.7457 16.7838 55.5022 16.8219 55.2587 16.917C55.0152 17.0058 54.8342 17.1263 54.7093 17.2784C54.6594 17.3355 54.6344 17.4497 54.6219 17.6272C54.6094 17.8048 54.6032 18.0013 54.6094 18.2042C54.6094 18.4135 54.6219 18.6101 54.6406 18.794C54.6594 18.9842 54.6719 19.111 54.6843 19.1871H54.6906Z" fill="white"/>
<path id="Vector_83" d="M61.8703 16.0863C61.8142 16.099 61.758 16.099 61.708 16.099C61.6581 16.099 61.6081 16.099 61.5582 16.099C61.5457 16.0927 61.5145 16.0927 61.477 16.099C61.4395 16.099 61.4083 16.1053 61.3958 16.1117C61.2023 16.1751 61.0275 16.2639 60.8651 16.3844C60.7028 16.5048 60.5592 16.638 60.4343 16.7902C60.3095 16.9424 60.1971 17.1009 60.1034 17.2658C60.0098 17.4306 59.9349 17.5828 59.8787 17.7287C59.8849 17.8555 59.8974 18.0204 59.9099 18.2296C59.9224 18.4389 59.9411 18.6481 59.9536 18.8637C59.9661 19.0793 59.9723 19.2886 59.9786 19.4852C59.9786 19.6817 59.9786 19.8339 59.9598 19.9481C59.9474 20.0178 59.9036 20.0622 59.8225 20.0939C59.7413 20.1256 59.6477 20.1446 59.5478 20.151C59.4479 20.1636 59.3417 20.1636 59.2418 20.1636C59.1419 20.1636 59.0608 20.1636 59.0108 20.1573C58.9734 19.4408 58.9359 18.7306 58.9109 18.0267C58.8797 17.3228 58.8485 16.6126 58.811 15.8961C58.811 15.8137 58.811 15.7312 58.811 15.6488C58.811 15.5664 58.811 15.4776 58.8173 15.3888C58.8797 15.3888 58.9609 15.3761 59.0545 15.3508C59.1482 15.3317 59.2231 15.3254 59.2855 15.3381C59.373 15.3571 59.4541 15.3888 59.529 15.4395C59.604 15.4903 59.6726 15.579 59.7476 15.6995C59.7725 15.7946 59.7913 15.8961 59.7975 15.9976C59.7975 16.099 59.81 16.2005 59.8225 16.2956H59.835C59.9286 16.1941 60.0348 16.08 60.1409 15.9532C60.247 15.8263 60.3782 15.7185 60.5342 15.6171C60.6903 15.5156 60.8714 15.4395 61.0899 15.3825C61.3084 15.3254 61.5707 15.3127 61.8891 15.3508C61.9265 15.3761 61.9515 15.4269 61.964 15.4966C61.9765 15.5664 61.9765 15.6424 61.9702 15.7185C61.964 15.7946 61.9515 15.8707 61.939 15.9405C61.9265 16.0102 61.9141 16.061 61.8953 16.0927L61.8703 16.0863Z" fill="white"/>
<path id="Vector_84" d="M63.3689 13.626C63.5125 13.6894 63.6062 13.7845 63.6624 13.9113C63.7186 14.0318 63.7311 14.1587 63.7123 14.2918C63.6874 14.425 63.6374 14.5391 63.55 14.6469C63.4626 14.7547 63.3565 14.8181 63.2191 14.8498C63.0255 14.8879 62.8632 14.8625 62.7384 14.7737C62.6135 14.6786 62.5323 14.5645 62.5011 14.4186C62.4699 14.2791 62.4824 14.1269 62.5386 13.9748C62.601 13.8226 62.7196 13.6958 62.9069 13.6006C63.0068 13.5499 63.0942 13.5372 63.1692 13.5562C63.2441 13.5753 63.3128 13.6006 63.3689 13.626ZM62.7758 16.2702C62.7758 16.2068 62.7758 16.1117 62.7758 15.9976C62.7758 15.8834 62.7758 15.801 62.7821 15.7566C62.8258 15.7566 62.9007 15.7439 63.0131 15.7186C63.1254 15.6995 63.2004 15.6932 63.2503 15.7059C63.3252 15.7059 63.3939 15.7186 63.4688 15.7376C63.5438 15.7566 63.6062 15.7693 63.6686 15.7693C63.6874 15.8327 63.7061 15.9659 63.7248 16.1624C63.7436 16.359 63.7623 16.5873 63.7748 16.8409C63.7873 17.1009 63.7997 17.3736 63.8122 17.6653C63.8247 17.957 63.8372 18.236 63.8434 18.496C63.8497 18.7559 63.8559 18.9906 63.8622 19.1808C63.8622 19.3774 63.8622 19.5105 63.8622 19.5739C63.8622 19.6437 63.8122 19.6881 63.7248 19.7198C63.6374 19.7515 63.5375 19.7705 63.4251 19.7832C63.319 19.7959 63.2129 19.7959 63.1067 19.7895C63.0068 19.7895 62.9381 19.7832 62.9069 19.7895C62.9069 19.7261 62.9007 19.5993 62.8944 19.4154C62.8882 19.2315 62.882 19.0223 62.8757 18.775C62.8695 18.534 62.8632 18.274 62.8507 18.0077C62.8382 17.7414 62.832 17.4814 62.8258 17.2404C62.8258 16.9995 62.8133 16.7902 62.8008 16.6127C62.7883 16.4351 62.7821 16.3146 62.7821 16.2576L62.7758 16.2702Z" fill="white"/>
<path id="Vector_85" d="M65.1482 19.5549C65.1295 19.4471 65.1108 19.314 65.0983 19.1681C65.0858 19.0223 65.0795 18.8701 65.0733 18.7115C65.0733 18.5594 65.0608 18.4072 65.0608 18.255C65.0608 18.1091 65.0483 17.976 65.0358 17.8682C65.0171 17.6462 64.9984 17.4687 64.9921 17.3355C64.9796 17.2024 64.9734 17.0692 64.9672 16.9487C64.9609 16.8282 64.9547 16.6951 64.9484 16.5619C64.9484 16.4224 64.9359 16.2449 64.9234 16.0229L64.8735 14.9703C64.8548 14.5518 64.8485 14.1269 64.8423 13.7021C64.8423 13.2772 64.8485 12.8524 64.886 12.4275C64.9796 12.3895 65.0733 12.3451 65.1732 12.2753C65.2668 12.2753 65.348 12.2627 65.4167 12.2563C65.4854 12.25 65.5603 12.2817 65.6352 12.3514C65.6789 12.4592 65.7039 12.567 65.7101 12.6685C65.7413 13.2709 65.7726 13.8733 65.7975 14.4757C65.8225 15.0718 65.8475 15.6742 65.8787 16.2702C65.9099 16.7775 65.9411 17.2848 65.9724 17.7857C66.0098 18.2867 66.041 18.794 66.066 19.3013C66.0723 19.4218 66.066 19.5042 66.0348 19.5613C66.0098 19.6183 65.9661 19.6564 65.9162 19.6691C65.86 19.6817 65.7975 19.6881 65.7289 19.6817C65.6602 19.6754 65.5853 19.6691 65.5166 19.6564C65.4479 19.6437 65.3855 19.6373 65.3168 19.6373C65.2481 19.6373 65.1919 19.612 65.1482 19.5549Z" fill="white"/>
</g>
<g id="Group_36" style="mix-blend-mode:multiply" opacity="0.5">
<path id="Vector_86" d="M73.5211 62.9661C73.0591 44.8813 72.5971 26.7965 72.135 8.71799C72.1163 8.0395 72.0414 7.2532 71.4732 6.89176C71.1174 6.66982 70.6678 6.6825 70.2495 6.71421C66.9467 6.92347 71.7917 6.70153 68.5825 6.92347C67.3338 18.553 68.1018 18.4516 68.7136 30.0938C70.1434 57.1893 62.2453 61.1271 58.493 62.9343C53.4483 65.3566 1.83952 66.0288 2.71361 66.6819C3.29426 67.1195 4.06845 67.1639 4.78645 67.1892C26.7074 67.9819 48.6782 67.5253 70.5492 65.8195C71.5669 65.7435 72.7469 65.5596 73.2464 64.6591C73.5274 64.1582 73.5211 63.5494 73.5024 62.9724L73.5211 62.9661Z" fill="#DCECFF"/>
</g>
</g>
</g>
</g>
</g>
<defs>
<clipPath id="clip0_208_309">
<rect width="84" height="67" fill="white" transform="translate(0.927734 0.664795)"/>
</clipPath>
</defs>
</svg>
