<svg width="139" height="111" viewBox="0 0 139 111" fill="none" xmlns="http://www.w3.org/2000/svg">
<g filter="url(#filter0_d_537_1907)">
<path d="M40.8369 25C35.3141 25 30.8369 29.4772 30.8369 35V66C30.8369 71.5228 35.3141 76 40.8369 76H48.9605C54.4833 76 58.6206 70.9795 62.1433 66.726C64.1119 64.3488 66.8324 62.8781 69.8369 62.8781C72.8414 62.8781 75.5619 64.3488 77.5306 66.726C81.0532 70.9795 85.1905 76 90.7134 76H98.8369C104.36 76 108.837 71.5228 108.837 66V35C108.837 29.4772 104.36 25 98.8369 25H40.8369Z" fill="white"/>
</g>
<defs>
<filter id="filter0_d_537_1907" x="0.836914" y="0" width="138" height="111" filterUnits="userSpaceOnUse" color-interpolation-filters="sRGB">
<feFlood flood-opacity="0" result="BackgroundImageFix"/>
<feColorMatrix in="SourceAlpha" type="matrix" values="0 0 0 0 0 0 0 0 0 0 0 0 0 0 0 0 0 0 127 0" result="hardAlpha"/>
<feOffset dy="5"/>
<feGaussianBlur stdDeviation="15"/>
<feColorMatrix type="matrix" values="0 0 0 0 0 0 0 0 0 0.6 0 0 0 0 0.87451 0 0 0 0.2 0"/>
<feBlend mode="normal" in2="BackgroundImageFix" result="effect1_dropShadow_537_1907"/>
<feBlend mode="normal" in="SourceGraphic" in2="effect1_dropShadow_537_1907" result="shape"/>
</filter>
</defs>
</svg>
