<svg width="343" height="244" viewBox="0 0 343 244" fill="none" xmlns="http://www.w3.org/2000/svg">
<g filter="url(#filter0_d_437_2736)">
<path d="M70.9512 40.4199C59.9055 40.4199 50.9512 49.3742 50.9512 60.4199V163.937C50.9512 174.983 59.9055 183.937 70.9512 183.937H117.885C128.931 183.937 137.414 174.421 142.771 164.761C148.671 154.119 159.335 147.012 171.506 147.012C183.677 147.012 194.34 154.119 200.241 164.761C205.598 174.421 214.081 183.937 225.127 183.937H272.061C283.106 183.937 292.061 174.983 292.061 163.937V60.4199C292.061 49.3742 283.106 40.4199 272.061 40.4199H70.9512Z" fill="white"/>
</g>
<defs>
<filter id="filter0_d_437_2736" x="0.951172" y="0.419922" width="341.109" height="243.518" filterUnits="userSpaceOnUse" color-interpolation-filters="sRGB">
<feFlood flood-opacity="0" result="BackgroundImageFix"/>
<feColorMatrix in="SourceAlpha" type="matrix" values="0 0 0 0 0 0 0 0 0 0 0 0 0 0 0 0 0 0 127 0" result="hardAlpha"/>
<feOffset dy="10"/>
<feGaussianBlur stdDeviation="25"/>
<feColorMatrix type="matrix" values="0 0 0 0 0 0 0 0 0 0.6 0 0 0 0 0.87451 0 0 0 0.3 0"/>
<feBlend mode="normal" in2="BackgroundImageFix" result="effect1_dropShadow_437_2736"/>
<feBlend mode="normal" in="SourceGraphic" in2="effect1_dropShadow_437_2736" result="shape"/>
</filter>
</defs>
</svg>
