<svg width="73" height="80" viewBox="0 0 73 80" fill="none" xmlns="http://www.w3.org/2000/svg">
<g clip-path="url(#clip0_213_981)">
<path d="M40.9703 42.5067C39.2816 41.6811 37.2433 42.3798 36.4182 44.0588L29.7861 57.41C28.9611 59.0891 29.6468 61.1163 31.3329 61.9315L42.7664 67.5092L52.4012 48.074L40.9676 42.4963L40.9703 42.5067Z" fill="#59B2FF"/>
<path d="M59.6741 71.989L66.2931 58.63C67.1286 56.9483 66.4324 54.9237 64.7463 54.1086L52.3934 48.0872L42.7586 67.5223L55.1116 73.5437C56.7977 74.3589 58.8386 73.6707 59.6636 71.9917L59.6741 71.989Z" fill="#40A6FF"/>
<path d="M41.8903 45.9713L39.0703 44.5966L37.679 47.4049L40.499 48.7796L41.8903 45.9713Z" fill="#2A6AF9"/>
<path d="M43.2713 46.6487L42.6714 47.859L53.7558 53.2648L54.3557 52.0544L43.2713 46.6487Z" fill="#666666"/>
<path d="M42.2154 48.7673L41.9131 49.3773L52.9975 54.7831L53.2998 54.173L42.2154 48.7673Z" fill="#666666"/>
<path d="M32.0125 57.7617L31.5806 58.6331L38.8243 62.1659L39.2562 61.2944L32.0125 57.7617Z" fill="#FFE062"/>
<path d="M31.4134 58.986L30.9814 59.8575L42.5228 65.4861L42.9547 64.6146L31.4134 58.986Z" fill="#FFE062"/>
<path d="M34.9969 54.0546C34.9969 54.0546 34.9209 54.1074 34.8895 54.1599L34.7355 54.4773L34.6722 54.449L35.3224 53.1372L34.785 52.874C34.785 52.874 34.6875 52.8433 34.6455 52.854C34.593 52.8675 34.5563 52.8991 34.5354 52.9489C34.5145 52.9987 34.5042 53.0459 34.528 53.0954C34.5387 53.1372 34.5809 53.1709 34.6336 53.2019L34.8496 53.3025L34.364 54.2941L34.148 54.1936C34.148 54.1936 34.0506 54.1628 34.0085 54.1736C33.956 54.187 33.9193 54.2186 33.8984 54.2684C33.8776 54.3183 33.8777 54.3627 33.8911 54.4149C33.9017 54.4567 33.9439 54.4904 33.9966 54.5214L34.7501 54.8852C34.7501 54.8852 34.8475 54.9159 34.8895 54.9051C34.9421 54.8917 34.9788 54.8601 34.9996 54.8103L35.2346 54.3276C35.2346 54.3276 35.2658 54.2306 35.2551 54.1888C35.2311 54.0949 35.1152 54.0355 35.0233 54.0701L34.9969 54.0546Z" fill="#FFE062"/>
<path d="M36.9057 53.9008L36.2418 53.5809C36.2418 53.5809 36.1444 53.5502 36.1024 53.5609C36.0498 53.5743 36.0131 53.6059 35.9923 53.6558C35.9714 53.7056 35.961 53.7527 35.9849 53.8023C35.9956 53.844 36.0378 53.8777 36.0905 53.9088L36.6911 54.2003L36.5293 54.5308L36.0182 54.2832C35.9418 54.2471 35.8734 54.2423 35.792 54.2742C35.7184 54.293 35.666 54.3509 35.6268 54.4165L35.2744 55.1406L36.1964 55.5947C36.1964 55.5947 36.2938 55.6254 36.3359 55.6147C36.3884 55.6013 36.4251 55.5696 36.446 55.5198C36.4669 55.47 36.4772 55.4229 36.4534 55.3733C36.4427 55.3316 36.4005 55.2979 36.3478 55.2668L35.7471 54.9753L35.909 54.6448L36.4201 54.8924C36.4965 54.9285 36.5649 54.9333 36.6358 54.9041C36.7094 54.8853 36.7723 54.8247 36.801 54.7618L37.0307 54.3026C37.0673 54.2265 37.0723 54.1585 37.0405 54.0777C37.0218 54.0046 36.9637 53.9527 36.8979 53.9139L36.9057 53.9008Z" fill="#FFE062"/>
<path d="M38.3495 54.5998L37.6856 54.28C37.6856 54.28 37.5882 54.2492 37.5461 54.26C37.4936 54.2734 37.4569 54.305 37.436 54.3548C37.4152 54.4046 37.4048 54.4518 37.4286 54.5013C37.4393 54.5431 37.4815 54.5768 37.5342 54.6078L38.1349 54.8993L37.986 55.1932C37.986 55.1932 37.9782 55.2063 37.9677 55.209C37.9572 55.2117 37.9467 55.2144 37.9361 55.2171L37.5647 55.0339C37.5647 55.0339 37.4673 55.0031 37.4147 55.0165C37.3622 55.03 37.3255 55.0616 37.3046 55.1114C37.2759 55.1744 37.2787 55.2293 37.2972 55.2579C37.3079 55.2997 37.3501 55.3334 37.4028 55.3644L37.7743 55.5476C37.7743 55.5476 37.7769 55.558 37.7901 55.5658C37.7928 55.5762 37.7955 55.5867 37.7981 55.5971L37.6493 55.891L37.0591 55.5968C37.0591 55.5968 36.9617 55.5661 36.9197 55.5768C36.8671 55.5902 36.8304 55.6218 36.8096 55.6717C36.7887 55.7215 36.7889 55.7659 36.8022 55.8182C36.8129 55.8599 36.8551 55.8936 36.9078 55.9247L37.5716 56.2445C37.648 56.2806 37.7164 56.2854 37.7978 56.2535C37.8714 56.2347 37.9343 56.1741 37.963 56.1112L38.1406 55.7544C38.1406 55.7544 38.1744 55.6679 38.1743 55.6234C38.1663 55.5921 38.1793 55.5554 38.1713 55.5241C38.2028 55.516 38.2185 55.4898 38.2474 55.4713C38.2841 55.4396 38.3076 55.4003 38.3311 55.3609L38.5087 55.0041C38.5452 54.928 38.5503 54.86 38.5184 54.7791C38.4997 54.706 38.439 54.6437 38.3758 54.6153L38.3495 54.5998Z" fill="#FFE062"/>
<path d="M39.4965 56.1978L39.7393 55.702C39.7393 55.702 39.7705 55.605 39.7571 55.5528C39.7305 55.4484 39.6067 55.4021 39.5148 55.4367C39.4727 55.4475 39.4387 55.4895 39.4073 55.542L39.1619 56.0274L38.9063 55.9036L39.2222 55.2556C39.2222 55.2556 39.2534 55.1587 39.2401 55.1065C39.2134 55.002 39.0897 54.9558 39.0082 54.9877C38.9662 54.9984 38.9322 55.0405 38.9008 55.093L38.4204 56.0611L38.9973 56.3475L38.8433 56.665C38.8433 56.665 38.8121 56.7619 38.8228 56.8037C38.8361 56.8559 38.8678 56.8923 38.9178 56.9129C38.9679 56.9335 39.0152 56.9436 39.0651 56.9198C39.1072 56.909 39.1412 56.867 39.1726 56.8144L39.3344 56.4839C39.3344 56.4839 39.3765 56.4732 39.3975 56.4678C39.4395 56.457 39.4762 56.4254 39.4971 56.3756C39.5206 56.3362 39.5178 56.2813 39.5071 56.2396C39.5018 56.2187 39.4965 56.1978 39.4701 56.1823L39.4965 56.1978Z" fill="#FFE062"/>
<path d="M41.8837 56.7337C41.8837 56.7337 41.9811 56.7644 42.0231 56.7537C42.0757 56.7403 42.1124 56.7087 42.1333 56.6588C42.1541 56.609 42.1645 56.5619 42.1406 56.5124C42.13 56.4706 42.0878 56.4369 42.035 56.4058L41.3053 56.0472L40.817 57.0284L41.394 57.3149L41.2321 57.6454L40.8475 57.4544L40.7234 57.3193C40.7234 57.3193 40.7075 57.3011 40.6944 57.2933C40.639 57.2519 40.5811 57.2444 40.518 57.2605C40.476 57.2713 40.4393 57.3029 40.4184 57.3527C40.4054 57.3894 40.3924 57.4261 40.4031 57.4679C40.4111 57.4992 40.4217 57.5409 40.4508 57.5669L40.5775 57.7125C40.5775 57.7125 40.6092 57.7489 40.6356 57.7644C40.6514 57.7826 40.6778 57.7981 40.7014 57.8032L41.1361 58.0147C41.2125 58.0509 41.2809 58.0556 41.3623 58.0237C41.4359 58.0049 41.4988 57.9444 41.5275 57.8814L41.7573 57.4223C41.7938 57.3462 41.7988 57.2782 41.767 57.1973C41.7483 57.1242 41.6876 57.0619 41.6244 57.0335L41.3056 56.8814L41.4675 56.5508L41.8758 56.7468L41.8837 56.7337Z" fill="#FFE062"/>
<path d="M42.9715 57.8797L42.4841 57.6371L42.7347 57.1282C42.7347 57.1282 42.7768 57.1174 42.8083 57.1094C42.8503 57.0986 42.887 57.067 42.9079 57.0172C42.9288 56.9674 42.9286 56.9229 42.9153 56.8707C42.9046 56.8289 42.8624 56.7952 42.8097 56.7642L42.7201 56.7203C42.7201 56.7203 42.6227 56.6896 42.5728 56.7135C42.5308 56.7242 42.4967 56.7663 42.4654 56.8188L41.8726 58.0046C41.8282 58.0938 41.8259 58.1723 41.8446 58.2454C41.8632 58.3185 41.9239 58.3808 42.0135 58.4247L42.551 58.6879C42.6405 58.7317 42.7221 58.7443 42.793 58.715C42.8666 58.6962 42.9295 58.6357 42.9739 58.5465L43.0992 58.292C43.1436 58.2028 43.1459 58.1243 43.1273 58.0512C43.1086 57.9781 43.0479 57.9158 42.9583 57.8719L42.9715 57.8797ZM42.7701 58.187L42.6891 58.3522L42.2413 58.1329L42.3222 57.9677L42.7701 58.187Z" fill="#FFE062"/>
<path d="M44.0349 57.4412C44.0349 57.4412 43.9588 57.494 43.9274 57.5465L43.8987 57.6094C43.8987 57.6094 43.8675 57.7064 43.8782 57.7482C43.8995 57.8317 44.0049 57.8938 44.0995 57.8696C44.1205 57.8642 44.1415 57.8589 44.1599 57.8431L44.6314 58.0674L44.5061 58.3219L44.0647 58.4347C44.0647 58.4347 43.9911 58.4535 43.9728 58.4693C43.9518 58.4746 43.9388 58.5113 43.9231 58.5376L43.6854 59.0098C43.6854 59.0098 43.6542 59.1068 43.6649 59.1486C43.6782 59.2008 43.7099 59.2372 43.76 59.2578C43.81 59.2784 43.8547 59.2781 43.9073 59.2646C43.9493 59.2539 43.9833 59.2118 44.0147 59.1593L44.2131 58.7527L44.6545 58.64C44.6545 58.64 44.7281 58.6212 44.7438 58.5949C44.7621 58.5791 44.7778 58.5528 44.7935 58.5266L45.1199 57.8759L44.1873 57.4245C44.1873 57.4245 44.0899 57.3938 44.04 57.4176L44.0349 57.4412Z" fill="#FFE062"/>
<path d="M46.0346 59.1773L46.2774 58.6815C46.2774 58.6815 46.3086 58.5845 46.2953 58.5323C46.2819 58.4801 46.2502 58.4437 46.2002 58.4231L45.8155 58.2322C45.8155 58.2322 45.7181 58.2014 45.6682 58.2253C45.6262 58.236 45.5922 58.2781 45.5608 58.3306L45.318 58.8264C45.318 58.8264 45.2049 58.8219 45.1523 58.8354C45.0788 58.8542 45.029 58.9225 44.9925 58.9986L44.7862 59.4183C44.7419 59.5075 44.729 59.5887 44.7582 59.6591C44.7768 59.7322 44.8376 59.7945 44.9271 59.8384L45.4646 60.1015C45.5541 60.1454 45.6357 60.1579 45.7066 60.1287C45.7802 60.1099 45.8431 60.0494 45.8875 59.9601L46.0937 59.5404C46.1303 59.4643 46.1431 59.3832 46.1245 59.3101C46.1111 59.2579 46.0768 59.211 46.0346 59.1773ZM45.6604 58.9837L45.8223 58.6531L45.875 58.6842L45.7131 59.0147L45.6604 58.9837ZM45.7514 59.4276L45.5896 59.7582L45.1417 59.5389L45.3036 59.2083L45.7514 59.4276Z" fill="#FFE062"/>
<path d="M48.4422 59.5301L47.9048 59.2669C47.8152 59.2231 47.7363 59.221 47.6627 59.2398C47.5892 59.2586 47.5263 59.3191 47.4819 59.4083L47.3565 59.6628C47.3122 59.752 47.3098 59.8305 47.3285 59.9036C47.3471 59.9767 47.4079 60.039 47.4974 60.0829L47.9848 60.3254L47.7342 60.8344C47.7342 60.8344 47.6921 60.8451 47.6606 60.8532C47.6186 60.8639 47.5819 60.8955 47.561 60.9454C47.5401 60.9952 47.5403 61.0396 47.5536 61.0919C47.5643 61.1336 47.6065 61.1673 47.6592 61.1984L47.7488 61.2422C47.7488 61.2422 47.8435 61.2625 47.8856 61.2518C47.9381 61.2384 47.9616 61.199 47.993 61.1465L48.5752 59.9633C48.6196 59.8741 48.622 59.7956 48.6033 59.7225C48.5846 59.6494 48.5239 59.5871 48.4344 59.5432L48.4422 59.5301ZM48.2408 59.8374L48.1599 60.0026L47.712 59.7833L47.7929 59.6181L48.2408 59.8374Z" fill="#EEAE00"/>
<path d="M49.4603 61.1054C49.4603 61.1054 49.3842 61.1582 49.3529 61.2107L49.1988 61.5281L49.1356 61.4998L49.7858 60.188L49.2483 59.9248C49.2483 59.9248 49.1509 59.8941 49.1089 59.9048C49.0563 59.9183 49.0196 59.9499 48.9988 59.9997C48.9779 60.0495 48.9676 60.0967 48.9914 60.1462C49.0021 60.1879 49.0443 60.2217 49.097 60.2527L49.313 60.3532L48.8274 61.3449L48.6114 61.2443C48.6114 61.2443 48.514 61.2136 48.4719 61.2244C48.4194 61.2378 48.3827 61.2694 48.3618 61.3192C48.3409 61.369 48.3411 61.4135 48.3544 61.4657C48.3651 61.5075 48.4073 61.5412 48.46 61.5722L49.2029 61.9386C49.2029 61.9386 49.3004 61.9693 49.3424 61.9586C49.3949 61.9452 49.4317 61.9136 49.4525 61.8637L49.6875 61.381C49.6875 61.381 49.7187 61.2841 49.708 61.2423C49.684 61.1483 49.5681 61.089 49.4762 61.1236L49.4603 61.1054Z" fill="#EEAE00"/>
<path d="M51.332 60.9387L50.7945 60.6755C50.7049 60.6317 50.6234 60.6191 50.5525 60.6484C50.4789 60.6672 50.416 60.7277 50.3716 60.8169L49.8416 61.8978C49.7972 61.987 49.7949 62.0655 49.8135 62.1386C49.8322 62.2116 49.8929 62.274 49.9825 62.3179L50.5199 62.581C50.6095 62.6249 50.6911 62.6374 50.762 62.6082C50.8355 62.5894 50.8984 62.5288 50.9428 62.4396L51.4728 61.3588C51.5172 61.2696 51.5196 61.1911 51.5009 61.118C51.4822 61.0449 51.4215 60.9826 51.332 60.9387ZM51.1305 61.246L50.6449 62.2376L50.1971 62.0183L50.6827 61.0267L51.1305 61.246Z" fill="#EEAE00"/>
<path d="M52.955 61.8144C52.9363 61.7413 52.8756 61.6789 52.786 61.6351L52.2486 61.3719C52.159 61.3281 52.0775 61.3155 52.0066 61.3448C51.933 61.3636 51.8701 61.4241 51.8257 61.5133L51.2957 62.5942C51.2513 62.6834 51.249 62.7618 51.2676 62.8349C51.2863 62.908 51.347 62.9704 51.4366 63.0142L51.974 63.2774C52.0636 63.3213 52.1452 63.3338 52.2161 63.3046C52.2896 63.2858 52.3525 63.2252 52.3969 63.136L52.9269 62.0552C52.9713 61.966 52.9842 61.8848 52.955 61.8144ZM52.5846 61.9424L52.099 62.934L51.6512 62.7147L52.1368 61.7231L52.5846 61.9424Z" fill="#EEAE00"/>
<path d="M54.7552 63.6904C54.7552 63.6904 54.6792 63.7433 54.6478 63.7958L54.4938 64.1132L54.4305 64.0848L55.0807 62.7731L54.5433 62.5099C54.5433 62.5099 54.4458 62.4792 54.4038 62.4899C54.3513 62.5033 54.3146 62.535 54.2937 62.5848C54.2728 62.6346 54.2625 62.6817 54.2863 62.7313C54.297 62.773 54.3392 62.8067 54.3919 62.8378L54.6079 62.9383L54.1223 63.93L53.9063 63.8294C53.9063 63.8294 53.8089 63.7987 53.7668 63.8094C53.7143 63.8229 53.6776 63.8545 53.6567 63.9043C53.6359 63.9541 53.636 63.9986 53.6494 64.0508C53.66 64.0926 53.7022 64.1263 53.7549 64.1573L54.5084 64.521C54.5084 64.521 54.6058 64.5517 54.6478 64.541C54.7004 64.5276 54.7371 64.496 54.7579 64.4461L54.9929 63.9634C54.9929 63.9634 55.0241 63.8665 55.0134 63.8247C54.9894 63.7307 54.8735 63.6714 54.7816 63.706L54.7552 63.6904Z" fill="#EEAE00"/>
<path d="M56.6508 63.5288L55.9869 63.209C55.9869 63.209 55.8895 63.1782 55.8475 63.189C55.7949 63.2024 55.7582 63.234 55.7374 63.2838C55.7165 63.3337 55.7062 63.3808 55.73 63.4303C55.7407 63.4721 55.7829 63.5058 55.8356 63.5368L56.4362 63.8284L56.2744 64.1589L55.7633 63.9113C55.6869 63.8752 55.6185 63.8704 55.5371 63.9023C55.4635 63.9211 55.4111 63.979 55.3719 64.0446L55.0195 64.7687L55.9415 65.2228C55.9415 65.2228 56.039 65.2535 56.081 65.2428C56.1336 65.2293 56.1703 65.1977 56.1911 65.1479C56.212 65.0981 56.2118 65.0536 56.1985 65.0014C56.1878 64.9596 56.1456 64.9259 56.0929 64.8949L55.4923 64.6034L55.6541 64.2728L56.1652 64.5205C56.2416 64.5566 56.31 64.5614 56.3809 64.5321C56.4545 64.5133 56.5174 64.4528 56.5461 64.3898L56.7759 63.9307C56.8124 63.8546 56.8174 63.7866 56.7856 63.7058C56.7669 63.6327 56.7089 63.5807 56.643 63.542L56.6508 63.5288Z" fill="#EEAE00"/>
<path d="M58.0975 64.2384L57.4336 63.9185C57.4336 63.9185 57.3362 63.8878 57.2942 63.8985C57.2416 63.9119 57.2049 63.9436 57.1841 63.9934C57.1632 64.0432 57.1528 64.0903 57.1767 64.1399C57.1874 64.1816 57.2296 64.2153 57.2823 64.2464L57.8829 64.5379L57.7341 64.8317C57.7341 64.8317 57.7262 64.8449 57.7157 64.8476C57.7052 64.8502 57.6947 64.8529 57.6842 64.8556L57.3127 64.6724C57.3127 64.6724 57.2153 64.6417 57.1628 64.6551C57.1102 64.6685 57.0735 64.7001 57.0526 64.75C57.0239 64.8129 57.0373 64.8651 57.0453 64.8964C57.0559 64.9382 57.0981 64.9719 57.1509 65.003L57.5223 65.1862C57.5223 65.1862 57.525 65.1966 57.5382 65.2044C57.5408 65.2148 57.5435 65.2252 57.5462 65.2357L57.3973 65.5295L56.8072 65.2353C56.8072 65.2353 56.7098 65.2046 56.6677 65.2154C56.6152 65.2288 56.5785 65.2604 56.5576 65.3102C56.5367 65.36 56.5369 65.4045 56.5502 65.4567C56.5609 65.4985 56.6031 65.5322 56.6558 65.5632L57.3197 65.8831C57.3961 65.9192 57.4645 65.924 57.5459 65.892C57.6195 65.8732 57.6824 65.8127 57.7111 65.7497L57.8886 65.3929C57.8886 65.3929 57.9225 65.3064 57.9328 65.2593C57.9248 65.2279 57.9379 65.1913 57.9299 65.1599C57.9614 65.1519 57.9771 65.1256 58.0059 65.1071C58.0426 65.0755 58.0662 65.0361 58.0897 64.9967L58.2646 64.6295C58.3011 64.5534 58.3061 64.4854 58.2743 64.4045C58.2556 64.3314 58.1949 64.2691 58.1317 64.2407L58.0975 64.2384Z" fill="#EEAE00"/>
<path d="M59.2445 65.8363L59.4873 65.3405C59.4873 65.3405 59.5185 65.2436 59.5052 65.1913C59.4785 65.0869 59.3548 65.0407 59.2628 65.0753C59.2208 65.086 59.1868 65.1281 59.1554 65.1806L58.9099 65.666L58.6544 65.5422L58.9703 64.8942C58.9703 64.8942 59.0015 64.7972 58.9881 64.745C58.9615 64.6406 58.8377 64.5943 58.7563 64.6263C58.7143 64.637 58.6802 64.6791 58.6488 64.7316L58.1684 65.6996L58.7454 65.9861L58.5913 66.3035C58.5913 66.3035 58.5601 66.4005 58.5708 66.4422C58.5841 66.4944 58.6158 66.5308 58.6659 66.5514C58.7159 66.572 58.7633 66.5822 58.8132 66.5583C58.8552 66.5476 58.8892 66.5055 58.9206 66.453L59.0825 66.1224C59.0825 66.1224 59.1245 66.1117 59.1455 66.1063C59.1876 66.0956 59.2243 66.064 59.2452 66.0142C59.2687 65.9748 59.2659 65.9199 59.2552 65.8781C59.2498 65.8572 59.2445 65.8363 59.2182 65.8208L59.2445 65.8363Z" fill="#EEAE00"/>
<path d="M37.4086 49.69C36.8448 49.4113 36.1672 49.6512 35.8957 50.2099L35.5197 50.9734C35.2482 51.5321 35.4768 52.2079 36.0379 52.4761L37.0996 52.9947L38.4808 50.2059L37.4191 49.6873L37.4086 49.69Z" fill="#FFE062"/>
<path d="M39.7273 53.0244L40.1033 52.2609C40.3853 51.6995 40.1462 51.0264 39.5851 50.7582L38.4707 50.2086L37.0895 52.9974L38.2039 53.547C38.7677 53.8257 39.4453 53.5858 39.7168 53.027L39.7273 53.0244Z" fill="#EEAE00"/>
<path d="M33.8329 24.7751C31.9701 24.5391 30.2653 25.8421 30.0221 27.6951L28.0736 42.464C27.8304 44.317 29.1356 46.0081 30.9984 46.2441L43.6459 47.8522L46.4699 26.3859L33.8329 24.7751Z" fill="#FF7F2C"/>
<path d="M61.1223 46.6696L63.0629 31.9138C63.3061 30.0608 62.0009 28.3697 60.1381 28.1337L46.4829 26.3937L43.6589 47.86L57.3142 49.6C59.177 49.8361 60.8817 48.533 61.1249 46.68L61.1223 46.6696Z" fill="#FF6604"/>
<path d="M35.8439 27.7594L32.7261 27.363L32.3178 30.4645L35.4357 30.8608L35.8439 27.7594Z" fill="#F2F2F2"/>
<path d="M37.3613 27.9545L37.1851 29.2913L49.4412 30.8513L49.6174 29.5145L37.3613 27.9545Z" fill="#666666"/>
<path d="M37.0488 30.2994L36.96 30.9732L49.2161 32.5332L49.3049 31.8595L37.0488 30.2994Z" fill="#666666"/>
<path d="M30.2934 42.0783L30.1665 43.0408L38.176 44.0603L38.3029 43.0978L30.2934 42.0783Z" fill="#FFE062"/>
<path d="M30.1142 43.4333L29.9873 44.3958L42.7488 46.0202L42.8756 45.0577L30.1142 43.4333Z" fill="#FFE062"/>
<path d="M31.9273 37.6087C31.9273 37.6087 31.8671 37.6797 31.8594 37.7373L31.8159 38.0932L31.7475 38.0885L31.937 36.6385L31.3476 36.5666C31.3476 36.5666 31.2477 36.5699 31.211 36.6015C31.1638 36.6358 31.1403 36.6752 31.1299 36.7223C31.1222 36.7799 31.1329 36.8217 31.1646 36.8581C31.1963 36.8945 31.2358 36.9177 31.2937 36.9252L31.5252 36.9551L31.3792 38.0491L31.1477 38.0192C31.1477 38.0192 31.0478 38.0225 31.0111 38.0541C30.9744 38.0857 30.9403 38.1278 30.93 38.1749C30.9223 38.2325 30.933 38.2743 30.9646 38.3107C30.9963 38.3471 31.0359 38.3704 31.0937 38.3778L31.9251 38.4769C31.9251 38.4769 32.0251 38.4736 32.0618 38.442C32.0985 38.4104 32.1325 38.3683 32.1429 38.3212L32.2093 37.7925C32.2093 37.7925 32.2064 37.6932 32.1747 37.6568C32.1191 37.5709 31.9929 37.5586 31.9089 37.6245L31.9273 37.6087Z" fill="#FFE062"/>
<path d="M33.6733 36.8624L32.9445 36.7704C32.9445 36.7704 32.8446 36.7737 32.8079 36.8053C32.7712 36.837 32.7371 36.879 32.7268 36.9262C32.7191 36.9837 32.7298 37.0255 32.7614 37.0619C32.7931 37.0983 32.8327 37.1216 32.8905 37.129L33.551 37.2162L33.4997 37.5852L32.934 37.5184C32.8524 37.5058 32.7789 37.5246 32.7133 37.5748C32.6477 37.6249 32.6085 37.6905 32.6062 37.769L32.4959 38.5646L33.5142 38.6939C33.5142 38.6939 33.6141 38.6906 33.6508 38.659C33.6875 38.6273 33.7215 38.5853 33.7319 38.5381C33.7422 38.491 33.7289 38.4388 33.6972 38.4024C33.6655 38.366 33.626 38.3427 33.5681 38.3353L32.9077 38.2481L32.959 37.8791L33.5246 37.9459C33.6062 37.9585 33.6798 37.9397 33.7453 37.8896C33.8109 37.8394 33.8501 37.7738 33.8525 37.6953L33.9243 37.1876C33.9372 37.1064 33.9185 37.0333 33.8683 36.9683C33.8181 36.9032 33.7522 36.8645 33.6733 36.8624Z" fill="#FFE062"/>
<path d="M35.2705 37.0662L34.5417 36.9743C34.5417 36.9743 34.4418 36.9776 34.4051 37.0092C34.3684 37.0408 34.3343 37.0829 34.324 37.13C34.3163 37.1876 34.327 37.2294 34.3587 37.2658C34.3903 37.3022 34.4299 37.3254 34.4878 37.3329L35.1482 37.42L35.1099 37.7524C35.1099 37.7524 35.1126 37.7628 35.0942 37.7786C35.0837 37.7813 35.0732 37.784 35.0627 37.7867L34.6575 37.7345C34.6575 37.7345 34.5576 37.7377 34.5209 37.7694C34.4842 37.801 34.4606 37.8404 34.4503 37.8875C34.4453 37.9555 34.4665 37.9946 34.485 38.0233C34.5167 38.0597 34.5562 38.0829 34.6141 38.0904L35.0193 38.1426C35.0193 38.1426 35.0298 38.1399 35.0456 38.1581C35.0483 38.1686 35.0509 38.179 35.0536 38.1895L35.0154 38.5218L34.3549 38.4347C34.3549 38.4347 34.255 38.4379 34.2183 38.4696C34.1816 38.5012 34.1476 38.5432 34.1372 38.5904C34.1295 38.648 34.1402 38.6897 34.1719 38.7261C34.2036 38.7625 34.2431 38.7858 34.301 38.7933L35.0298 38.8852C35.1114 38.8977 35.1849 38.8789 35.2505 38.8288C35.3161 38.7787 35.3553 38.7131 35.3576 38.6346L35.4114 38.2315C35.4114 38.2315 35.4111 38.1426 35.4083 38.0877C35.4003 38.0564 35.3923 38.0251 35.3843 37.9938C35.4 37.9675 35.4156 37.9413 35.4313 37.915C35.4549 37.8756 35.4652 37.8285 35.4756 37.7813L35.5293 37.3783C35.5422 37.2971 35.5235 37.2241 35.4733 37.159C35.4231 37.094 35.3573 37.0552 35.2783 37.0531L35.2705 37.0662Z" fill="#FFE062"/>
<path d="M36.8812 38.2009L36.9529 37.6487C36.9529 37.6487 36.9499 37.5493 36.9156 37.5025C36.86 37.4166 36.7232 37.407 36.6498 37.4702C36.6131 37.5019 36.5896 37.5412 36.5819 37.5988L36.5154 38.1275L36.2365 38.0875L36.3339 37.373C36.3339 37.373 36.3309 37.2736 36.2992 37.2372C36.2437 37.1513 36.1069 37.1417 36.0335 37.205C35.9968 37.2366 35.9733 37.276 35.9656 37.3336L35.8248 38.404L36.4615 38.4861L36.4154 38.8316C36.4154 38.8316 36.4184 38.9309 36.4501 38.9673C36.4817 39.0037 36.5239 39.0374 36.5713 39.0476C36.6187 39.0577 36.6712 39.0443 36.7079 39.0127C36.7446 38.981 36.7682 38.9417 36.7759 38.8841L36.8271 38.515C36.8271 38.515 36.8692 38.5043 36.8875 38.4885C36.9242 38.4569 36.9478 38.4175 36.9581 38.3703C36.9685 38.3232 36.9551 38.271 36.9234 38.2346C36.9181 38.2137 36.8917 38.1982 36.8681 38.1931L36.8812 38.2009Z" fill="#FFE062"/>
<path d="M39.3131 37.9468C39.3131 37.9468 39.413 37.9435 39.4497 37.9119C39.4864 37.8803 39.5205 37.8382 39.5308 37.7911C39.5385 37.7335 39.5278 37.6917 39.4962 37.6554C39.4645 37.619 39.4249 37.5957 39.3671 37.5882L38.5567 37.4838L38.4185 38.5646L39.0553 38.6467L39.004 39.0158L38.5856 38.9558L38.4275 38.8627C38.4275 38.8627 38.4011 38.8472 38.388 38.8394C38.3142 38.8137 38.2617 38.8272 38.2145 38.8615C38.1778 38.8931 38.1542 38.9325 38.1439 38.9796C38.1414 39.0136 38.1415 39.0581 38.1705 39.084C38.1786 39.1154 38.2181 39.1386 38.2471 39.1646L38.4157 39.255C38.4157 39.255 38.4658 39.2756 38.479 39.2833C38.5026 39.2884 38.529 39.3039 38.55 39.2986L39.0368 39.3633C39.1183 39.3759 39.1919 39.3571 39.2575 39.3069C39.323 39.2568 39.3623 39.1912 39.3646 39.1127L39.4364 38.605C39.4493 38.5238 39.4306 38.4507 39.3804 38.3857C39.3302 38.3206 39.2643 38.2819 39.1854 38.2798L38.8381 38.235L38.8894 37.8659L39.3288 37.9206L39.3131 37.9468Z" fill="#FFE062"/>
<path d="M40.7203 38.6775L40.1756 38.6053L40.2551 38.04C40.2551 38.04 40.2972 38.0292 40.3155 38.0134C40.3522 37.9818 40.3758 37.9424 40.3861 37.8953C40.3965 37.8481 40.3831 37.7959 40.3514 37.7595C40.3198 37.7231 40.2802 37.6998 40.2223 37.6924L40.1303 37.6825C40.1303 37.6825 40.0303 37.6858 39.9936 37.7174C39.9569 37.7491 39.9334 37.7884 39.9257 37.846L39.7568 39.1572C39.7466 39.2488 39.7575 39.335 39.8182 39.3974C39.8684 39.4624 39.9448 39.4985 40.0369 39.5084L40.6262 39.5803C40.7183 39.5901 40.805 39.5791 40.8679 39.5186C40.9335 39.4684 40.97 39.3924 40.9802 39.3008L41.0213 39.0233C41.0315 38.9317 41.0207 38.8455 40.96 38.7832C40.9098 38.7181 40.8334 38.682 40.7413 38.6722L40.7203 38.6775ZM40.6216 39.0364L40.6012 39.2196L40.104 39.1575L40.1244 38.9743L40.6216 39.0364Z" fill="#FFE062"/>
<path d="M41.5798 37.924C41.5798 37.924 41.5196 37.995 41.5119 38.0526L41.5069 38.1206C41.5069 38.1206 41.5099 38.2199 41.5416 38.2563C41.5944 38.3318 41.7129 38.3572 41.7889 38.3044C41.81 38.299 41.8256 38.2727 41.8335 38.2596L42.3544 38.3268L42.316 38.6147L41.933 38.8682C41.933 38.8682 41.8674 38.9184 41.8596 38.9315C41.8439 38.9577 41.8387 38.9813 41.8362 39.0153L41.767 39.5335C41.767 39.5335 41.77 39.6329 41.8017 39.6693C41.8334 39.7057 41.8756 39.7394 41.923 39.7495C41.9703 39.7597 42.0229 39.7463 42.0596 39.7146C42.0963 39.683 42.1198 39.6436 42.1275 39.586L42.1811 39.1385L42.5642 38.885C42.5642 38.885 42.6193 38.8375 42.6376 38.8217C42.6533 38.7955 42.6585 38.7719 42.661 38.7379L42.7584 38.0234L41.727 37.8864C41.727 37.8864 41.627 37.8897 41.5903 37.9213L41.5798 37.924Z" fill="#FFE062"/>
<path d="M44.0426 38.9301L44.1169 38.3883C44.1169 38.3883 44.1139 38.2889 44.0822 38.2525C44.0505 38.2162 44.0083 38.1824 43.961 38.1723L43.5321 38.115C43.5321 38.115 43.4322 38.1183 43.3955 38.1499C43.3588 38.1815 43.3352 38.2209 43.3275 38.2785L43.2532 38.8202C43.2007 38.8337 43.1376 38.8498 43.1009 38.8814C43.0458 38.9288 43.0093 39.0049 42.9964 39.0861L42.935 39.5467C42.9248 39.6383 42.9356 39.7245 42.9963 39.7869C43.0465 39.8519 43.1229 39.888 43.215 39.8979L43.8043 39.9698C43.8964 39.9796 43.9832 39.9686 44.0461 39.908C44.1116 39.8579 44.1482 39.7818 44.1584 39.6903L44.2198 39.2296C44.23 39.138 44.2114 39.0649 44.1743 39.0077C44.14 38.9608 44.0978 38.9271 44.0477 38.9065L44.0426 38.9301ZM43.6215 38.8596L43.6728 38.4906L43.7307 38.4981L43.6794 38.8671L43.6215 38.8596ZM43.857 39.2556L43.8057 39.6246L43.3085 39.5625L43.3597 39.1935L43.857 39.2556Z" fill="#FFE062"/>
<path d="M46.4367 38.4854L45.8473 38.4135C45.7553 38.4036 45.6685 38.4146 45.6056 38.4752C45.54 38.5253 45.5035 38.6014 45.4933 38.693L45.4522 38.9704C45.442 39.062 45.4529 39.1483 45.5136 39.2106C45.5638 39.2756 45.6402 39.3118 45.7322 39.3216L46.2769 39.3938L46.1974 39.9592C46.1974 39.9592 46.1553 39.9699 46.1265 39.9884C46.0898 40.02 46.0662 40.0594 46.0664 40.1039C46.0587 40.1614 46.0694 40.2032 46.1011 40.2396C46.1328 40.276 46.1723 40.2993 46.2302 40.3067L46.3223 40.3166C46.3223 40.3166 46.4222 40.3133 46.4589 40.2817C46.4956 40.2501 46.5191 40.2107 46.5268 40.1531L46.6957 38.8419C46.7059 38.7503 46.6951 38.6641 46.6343 38.6018C46.5841 38.5367 46.5078 38.5006 46.4157 38.4908L46.4367 38.4854ZM46.3354 38.8338L46.315 39.017L45.8177 38.9549L45.8381 38.7718L46.3354 38.8338Z" fill="#EEAE00"/>
<path d="M47.9082 39.6445C47.9082 39.6445 47.848 39.7155 47.8403 39.7731L47.7969 40.129L47.7285 40.1242L47.9179 38.6743L47.3286 38.6024C47.3286 38.6024 47.2287 38.6057 47.192 38.6373C47.1552 38.6689 47.1212 38.711 47.1109 38.7581C47.1032 38.8157 47.1138 38.8574 47.1455 38.8938C47.1772 38.9302 47.2168 38.9535 47.2746 38.961L47.5062 38.9908L47.3602 40.0848L47.1286 40.055C47.1286 40.055 47.0287 40.0583 46.992 40.0899C46.9553 40.1215 46.9213 40.1636 46.9109 40.2107C46.9032 40.2683 46.9139 40.3101 46.9456 40.3465C46.9773 40.3829 47.0168 40.4061 47.0747 40.4136L47.9061 40.5127C47.9061 40.5127 48.006 40.5094 48.0427 40.4778C48.0794 40.4462 48.1135 40.4041 48.1238 40.357L48.1903 39.8283C48.1903 39.8283 48.1873 39.7289 48.1556 39.6926C48.1001 39.6066 47.9738 39.5944 47.8899 39.6603L47.9082 39.6445Z" fill="#EEAE00"/>
<path d="M49.6414 38.8904L49.0521 38.8185C48.96 38.8086 48.8732 38.8196 48.8103 38.8802C48.7448 38.9303 48.7082 39.0064 48.698 39.098L48.5418 40.2836C48.5316 40.3752 48.5425 40.4614 48.6032 40.5237C48.6534 40.5888 48.7193 40.6276 48.8219 40.6347L49.4112 40.7067C49.5033 40.7165 49.59 40.7055 49.6529 40.6449C49.7185 40.5948 49.7551 40.5187 49.7652 40.4271L49.9214 39.2415C49.9316 39.15 49.9208 39.0637 49.8601 39.0014C49.8099 38.9363 49.7335 38.9002 49.6414 38.8904ZM49.5428 39.2493L49.3968 40.3433L48.8995 40.2812L49.0455 39.1872L49.5428 39.2493Z" fill="#EEAE00"/>
<path d="M51.4572 39.2052C51.407 39.1402 51.3307 39.1041 51.2386 39.0942L50.6492 39.0223C50.5571 39.0125 50.4704 39.0235 50.4075 39.0841C50.3446 39.1446 50.3054 39.2103 50.2952 39.3018L50.139 40.4874C50.1288 40.579 50.1396 40.6652 50.2004 40.7276C50.2506 40.7926 50.3269 40.8287 50.419 40.8386L51.0084 40.9105C51.1005 40.9204 51.1872 40.9093 51.2501 40.8488C51.3157 40.7987 51.3522 40.7226 51.3624 40.631L51.5186 39.4454C51.5288 39.3538 51.518 39.2676 51.4572 39.2052ZM51.1478 39.44L51.0018 40.534L50.5045 40.4719L50.6505 39.3779L51.1478 39.44Z" fill="#EEAE00"/>
<path d="M53.7652 40.3954C53.7652 40.3954 53.7049 40.4664 53.6973 40.524L53.6538 40.8799L53.5854 40.8751L53.7749 39.4252L53.1855 39.3533C53.1855 39.3533 53.0856 39.3566 53.0489 39.3882C53.0122 39.4198 52.9781 39.4619 52.9678 39.509C52.9601 39.5666 52.9708 39.6084 53.0025 39.6448C53.0342 39.6812 53.0737 39.7044 53.1316 39.7119L53.3631 39.7417L53.2171 40.8357L52.9856 40.8059C52.9856 40.8059 52.8857 40.8092 52.8489 40.8408C52.8122 40.8724 52.7782 40.9145 52.7679 40.9616C52.7602 41.0192 52.7708 41.061 52.8025 41.0974C52.8342 41.1338 52.8737 41.157 52.9316 41.1645L53.763 41.2636C53.763 41.2636 53.8629 41.2603 53.8997 41.2287C53.9364 41.1971 53.9704 41.155 53.9807 41.1079L54.0472 40.5792C54.0472 40.5792 54.0443 40.4799 54.0126 40.4435C53.957 40.3575 53.8308 40.3453 53.7468 40.4112L53.7652 40.3954Z" fill="#EEAE00"/>
<path d="M55.519 39.6359L54.7902 39.544C54.7902 39.544 54.6903 39.5473 54.6536 39.5789C54.6169 39.6105 54.5828 39.6526 54.5725 39.6997C54.5648 39.7573 54.5755 39.7991 54.6071 39.8355C54.6388 39.8719 54.6784 39.8951 54.7363 39.9026L55.3967 39.9898L55.3454 40.3588L54.7797 40.2919C54.6981 40.2794 54.6246 40.2982 54.559 40.3483C54.4934 40.3984 54.4542 40.4641 54.4519 40.5425L54.3416 41.3382L55.3599 41.4674C55.3599 41.4674 55.4598 41.4642 55.4965 41.4325C55.5332 41.4009 55.5672 41.3588 55.5776 41.3117C55.5853 41.2541 55.5746 41.2124 55.5429 41.176C55.5112 41.1396 55.4717 41.1163 55.4138 41.1088L54.7534 41.0217L54.8047 40.6526L55.3703 40.7195C55.4519 40.732 55.5255 40.7132 55.591 40.6631C55.6566 40.613 55.6958 40.5474 55.6982 40.4689L55.77 39.9611C55.7829 39.88 55.7642 39.8069 55.714 39.7418C55.6638 39.6768 55.5979 39.638 55.519 39.6359Z" fill="#EEAE00"/>
<path d="M57.1162 39.8398L56.3874 39.7479C56.3874 39.7479 56.2875 39.7511 56.2508 39.7828C56.2141 39.8144 56.18 39.8564 56.1697 39.9036C56.162 39.9612 56.1727 40.0029 56.2044 40.0393C56.236 40.0757 56.2756 40.099 56.3335 40.1065L56.9939 40.1936L56.9556 40.5259C56.9556 40.5259 56.9583 40.5364 56.9399 40.5522C56.9294 40.5549 56.9189 40.5576 56.9084 40.5603L56.5032 40.508C56.5032 40.508 56.4033 40.5113 56.3666 40.5429C56.3299 40.5745 56.2958 40.6166 56.296 40.6611C56.291 40.7291 56.3148 40.7786 56.3307 40.7968C56.3624 40.8332 56.4019 40.8565 56.4598 40.8639L56.865 40.9162C56.865 40.9162 56.8755 40.9135 56.8913 40.9317C56.894 40.9421 56.8966 40.9526 56.8993 40.963L56.8611 41.2954L56.2007 41.2082C56.2007 41.2082 56.1007 41.2115 56.064 41.2431C56.0273 41.2747 55.9933 41.3168 55.9829 41.3639C55.9752 41.4215 55.9859 41.4633 56.0176 41.4997C56.0493 41.5361 56.0888 41.5594 56.1467 41.5668L56.8755 41.6587C56.9571 41.6713 57.0306 41.6525 57.0857 41.6051C57.1513 41.5549 57.1905 41.4893 57.1928 41.4108L57.2466 41.0078C57.2466 41.0078 57.2463 40.9189 57.2435 40.864C57.2355 40.8327 57.2275 40.8013 57.2195 40.77C57.2352 40.7438 57.2508 40.7175 57.2665 40.6912C57.2901 40.6519 57.3004 40.6047 57.3108 40.5576L57.3645 40.1545C57.3774 40.0734 57.3587 40.0003 57.3085 39.9353C57.2583 39.8702 57.1924 39.8314 57.1135 39.8293L57.1162 39.8398Z" fill="#EEAE00"/>
<path d="M58.7194 40.9876L58.791 40.4353C58.791 40.4353 58.7881 40.336 58.7537 40.2892C58.6982 40.2032 58.5614 40.1937 58.488 40.2569C58.4513 40.2885 58.4277 40.3279 58.4201 40.3855L58.3431 40.9168L58.0642 40.8769L58.1615 40.1623C58.1615 40.1623 58.1585 40.063 58.1269 40.0266C58.0713 39.9407 57.9345 39.9311 57.8611 39.9944C57.8244 40.026 57.8009 40.0654 57.7932 40.1229L57.6524 41.1934L58.2891 41.2754L58.243 41.6209C58.243 41.6209 58.246 41.7203 58.2777 41.7567C58.3094 41.7931 58.3516 41.8268 58.3989 41.8369C58.4463 41.8471 58.4989 41.8337 58.5356 41.802C58.5723 41.7704 58.5958 41.731 58.6035 41.6735L58.6548 41.3044C58.6548 41.3044 58.6968 41.2937 58.7152 41.2779C58.7519 41.2462 58.7754 41.2069 58.7857 41.1597C58.7961 41.1126 58.7828 41.0604 58.7511 41.024C58.7457 41.0031 58.7194 40.9876 58.6957 40.9825L58.7194 40.9876Z" fill="#EEAE00"/>
<path d="M32.7831 32.7184C32.1596 32.6441 31.5983 33.0766 31.5111 33.6996L31.4011 34.5397C31.3244 35.1599 31.7577 35.7167 32.3734 35.8041L33.5547 35.9584L33.9566 32.8858L32.7753 32.7315L32.7831 32.7184Z" fill="#FFE062"/>
<path d="M36.0739 35.1258L36.184 34.2857C36.2607 33.6655 35.8274 33.1087 35.2117 33.0213L33.9724 32.8595L33.5705 35.9321L34.8098 36.0939C35.4333 36.1682 35.9946 35.7356 36.0844 35.1232L36.0739 35.1258Z" fill="#EEAE00"/>
</g>
<path d="M36.8696 73.7162C36.8696 73.7162 19.1592 74.5906 4.35716 73.524C2.42241 73.3813 0.673699 72.91 0.673699 69.5738C0.655096 52.0743 0.0721906 30.8541 0.822526 6.37824C0.884537 4.29466 1.88292 1.42975 4.81605 0.846842C9.96298 -0.176343 32.5288 0.0468975 36.0201 0.902652C40.3547 1.96304 40.4539 5.24964 40.5345 7.33321C41.1918 24.2995 40.3919 69.9335 40.3919 69.9335C40.3919 72.0171 38.8044 73.7224 36.8634 73.7224L36.8696 73.7162Z" fill="#182E57"/>
<path d="M6.17453 9.32369C9.8766 8.41213 12.9089 8.58576 16.6854 8.62297C20.8216 8.62297 29.6086 8.11447 33.7137 8.58576C35.3818 8.77799 37.0685 9.23068 37.2297 12.1638C37.6576 12.8025 37.701 15.4752 37.7568 19.0222C38.0049 35.3808 36.9817 45.7987 37.2483 61.0534C37.2731 62.4611 37.0003 64.0424 35.8903 64.9167C35.0841 65.5554 33.9803 65.6423 32.951 65.6981C27.68 65.9895 22.6881 65.7105 17.4048 65.6981C14.7259 65.6919 12.0532 65.605 9.38051 65.4004C6.67682 65.1958 4.56224 65.0842 4.23358 62.1386C3.7499 57.7544 2.99956 13.7823 4.47543 10.9112C4.66766 10.5391 5.75286 9.42911 6.16833 9.32369H6.17453Z" fill="#DCECFF"/>
<path d="M18.9856 21.6949C18.7934 21.1182 18.3717 21.0624 17.8942 21.2236C17.1749 21.4717 16.3563 22.2592 15.9842 22.5135C15.6742 22.7243 14.9859 23.5242 14.558 24.0451C14.2231 24.4482 14.0557 24.9691 14.1239 25.49C14.2045 26.0853 14.4836 26.6248 15.0975 26.2589C15.1719 26.2155 15.2401 26.2031 15.3083 26.2093C15.7672 25.8559 16.4369 25.335 16.4307 25.366C16.2633 27.2263 16.0897 29.0866 15.9222 30.9532C15.8602 31.6167 15.8168 32.3422 16.1765 32.9065C16.6478 33.6507 17.9438 33.415 18.4523 32.8135C18.4523 32.8135 18.6879 30.1842 18.6259 28.9874C18.5577 27.7348 18.6879 26.476 18.7872 25.2295C18.8678 24.2684 19.2956 22.6375 18.9856 21.7073V21.6949Z" fill="#FF6604"/>
<path d="M11.3584 44.0623C11.346 44.3104 10.974 44.4716 10.6391 44.4778C10.2857 44.5026 9.89499 44.36 9.87638 44.1119C9.85778 43.8701 10.1306 43.6282 10.5957 43.5972C11.0732 43.5848 11.3709 43.8267 11.3584 44.0623Z" fill="#6482B2"/>
<path d="M11.3584 47.3923C11.346 47.6404 10.974 47.8016 10.6391 47.8078C10.2857 47.8326 9.89499 47.69 9.87638 47.4419C9.85778 47.2001 10.1306 46.9583 10.5957 46.9272C11.0732 46.9148 11.3709 47.1567 11.3584 47.3923Z" fill="#6482B2"/>
<path d="M11.3578 51.4788C11.3454 51.7269 10.9733 51.8881 10.6323 51.8943C10.2788 51.9191 9.88815 51.7765 9.86955 51.5284C9.85094 51.2866 10.1238 51.0447 10.5889 51.0137C11.0664 51.0013 11.364 51.2432 11.3516 51.4788H11.3578Z" fill="#6482B2"/>
<path d="M11.3578 55.1685C11.3454 55.4166 10.9733 55.5778 10.6323 55.584C10.2788 55.6088 9.88815 55.4662 9.86955 55.2181C9.85094 54.9763 10.1238 54.7344 10.5889 54.7034C11.0664 54.691 11.364 54.9329 11.3516 55.1685H11.3578Z" fill="#6482B2"/>
<path d="M30.4953 43.9507C30.4953 44.1987 26.6506 44.391 21.9129 44.391C17.1753 44.391 13.3306 44.1925 13.3306 43.9507C13.3306 43.7088 17.1753 43.5104 21.9129 43.5104C26.6506 43.5104 30.4953 43.7088 30.4953 43.9507Z" fill="#6482B2"/>
<path d="M30.1974 47.4047C30.1974 47.6528 26.5511 47.845 22.0553 47.845C17.5595 47.845 13.9194 47.6466 13.9194 47.4047C13.9194 47.1629 17.5657 46.9644 22.0553 46.9644C26.5449 46.9644 30.1974 47.1629 30.1974 47.4047Z" fill="#6482B2"/>
<path d="M30.5937 51.051C30.5937 51.299 26.7924 51.4912 22.1106 51.4912C17.4287 51.4912 13.6274 51.2928 13.6274 51.051C13.6274 50.8091 17.4287 50.6107 22.1106 50.6107C26.7924 50.6107 30.5937 50.8091 30.5937 51.051Z" fill="#6482B2"/>
<path d="M30.3152 54.8275C30.3462 54.9577 29.416 55.1933 27.9278 55.3111C26.4395 55.4476 24.3869 55.5282 22.1235 55.5468C17.5905 55.584 13.9256 55.398 13.9194 55.1747C13.9132 54.9081 17.5905 54.6972 22.1111 54.66C24.3745 54.6414 26.4209 54.66 27.903 54.6786C29.3912 54.722 30.278 54.7096 30.309 54.8212L30.3152 54.8275Z" fill="#6482B2"/>
<path d="M22.4955 21.4159C21.6645 21.6453 21.0506 22.1414 21.0754 23.0778C21.0816 23.4126 21.1809 23.7723 21.4475 23.9707C21.8258 24.256 22.3653 24.1195 22.7931 23.9149C22.7931 23.9149 23.0164 23.27 24.0396 23.0715C24.7713 22.9289 25.6767 23.2204 25.8813 23.9335C26.0859 24.6466 25.5154 25.3474 24.8953 25.7504C24.4488 26.0357 23.8659 25.4838 23.5683 25.9179C23.2706 26.3581 23.345 27.0961 23.8473 27.2573C24.5295 27.4681 25.3728 27.2573 25.9433 27.6852C26.1231 27.8216 26.1914 28.0573 26.2162 28.2805C26.303 29.0494 25.9619 29.8494 25.348 30.3145C24.7341 30.7857 23.8783 30.9098 23.159 30.6307C22.9482 30.5501 22.7497 30.4385 22.5265 30.4013C21.8568 30.2897 21.2491 30.9966 21.3049 31.6725C21.3607 32.3484 21.9312 32.8941 22.5761 33.105C23.221 33.3158 23.9155 33.2538 24.5853 33.1298C25.3108 32.9933 26.0301 32.7825 26.644 32.3794C27.63 31.7345 28.2749 30.6121 28.3431 29.4401C28.4052 28.2681 27.8843 27.0775 26.9789 26.3333C28.6036 24.7459 28.0889 22.3708 25.9743 21.6081C25.1248 21.3042 23.6179 21.1058 22.4955 21.4159Z" fill="#FF6604"/>
<path d="M25.3545 3.88528C25.2987 3.81087 25.2429 3.74886 25.1933 3.72405C24.9886 3.61864 24.7592 3.54422 24.505 3.49461C23.5438 3.29618 22.3036 3.4264 21.4664 3.414C20.065 3.4016 18.8743 3.30238 17.4791 3.38299C16.921 3.414 15.6001 3.46981 15.1723 3.9659C14.5832 4.65422 15.0296 5.13171 15.625 5.36735C16.9892 5.91305 23.2771 5.94406 24.5236 5.60299C25.4537 5.34875 26.0676 4.85886 25.3545 3.88528Z" fill="#40A6FF"/>
<g opacity="0.72">
<path d="M13.1132 1.20011C10.918 1.02028 8.69182 1.1505 6.53384 1.58458C5.43004 1.80782 4.26423 2.14888 3.5511 3.01704C2.98059 3.70537 2.78216 4.61693 2.64573 5.49749C2.37909 7.18419 2.26747 8.8895 2.31087 10.5948C2.31707 10.8801 2.39149 11.2459 2.67054 11.3017C2.91858 11.3513 3.12322 11.1095 3.24724 10.8863C3.95417 9.61503 4.06579 8.08336 4.78512 6.81833C5.64087 5.31146 7.24696 4.36889 8.89026 3.81078C10.5336 3.25268 12.797 3.3519 13.2745 2.66358C13.2745 2.66358 14.1054 1.56598 13.0202 1.31173L13.1132 1.19391V1.20011Z" fill="#2B4E78"/>
</g>
<path d="M6.11176 9.32371C6.11176 9.32371 5.57846 9.62136 4.84053 10.5019C4.74751 10.6073 4.65449 10.7314 4.57388 10.8554C4.48706 10.967 4.46846 11.1406 4.41265 11.2957C4.34444 11.6367 4.28243 12.015 4.24522 12.4305C4.1522 13.2614 4.09639 14.235 4.05299 15.3264C3.86695 19.692 3.83595 26.0295 3.89796 33.8553C3.92896 37.7682 3.99097 42.0532 4.08399 46.6544C4.19561 51.2495 4.27623 56.1794 4.56148 61.3201C4.60488 61.965 4.65449 62.5727 4.86533 63.106C5.06997 63.6393 5.41723 64.0672 5.92572 64.3214C6.42801 64.5943 7.04813 64.7121 7.68684 64.7989C8.32556 64.8795 9.00148 64.9229 9.6712 64.9725C12.3625 65.1648 15.1096 65.233 17.9187 65.233C20.734 65.2702 23.5989 65.3136 26.501 65.3508C27.9521 65.357 29.4094 65.3508 30.8728 65.3012C31.6046 65.2764 32.3425 65.2454 33.0742 65.202C33.7936 65.1586 34.4943 65.0718 35.0586 64.7865C35.6229 64.5137 36.0074 64.0114 36.2368 63.3913C36.4662 62.7711 36.5531 62.0642 36.6027 61.3511C36.6833 59.8938 36.7453 58.4304 36.8011 56.9793C36.9003 54.0772 36.9561 51.2185 37.0057 48.4094C37.0988 42.7849 37.1298 37.359 37.1732 32.1872C37.2166 27.0155 37.2538 22.098 37.3344 17.4968C37.3468 16.3558 37.3282 15.2396 37.198 14.1668C37.0677 13.094 36.8321 12.0522 36.367 11.1716C35.9081 10.2911 35.1764 9.61516 34.271 9.34231C34.0416 9.2927 33.8122 9.24309 33.5827 9.19348C33.3471 9.15628 33.0928 9.13767 32.8448 9.11287C32.3487 9.06946 31.865 9.03225 31.3751 9.00745C27.487 8.80901 23.9462 8.85242 20.8394 8.85242C19.2829 8.85242 17.8381 8.86482 16.5048 8.85242C15.1716 8.82142 13.9562 8.78421 12.8648 8.77801C10.682 8.7532 8.99528 8.89583 7.86047 9.06946C6.72567 9.23689 6.13036 9.36712 6.12416 9.32991C6.12416 9.3113 6.26679 9.2617 6.54584 9.18108C6.83109 9.10047 7.25896 8.98885 7.82327 8.87723C8.95807 8.64158 10.6634 8.43695 12.8586 8.40594C13.9562 8.38734 15.1778 8.39974 16.5048 8.39974C17.8319 8.37494 19.2767 8.35013 20.8332 8.32533C23.94 8.27572 27.4808 8.1827 31.4123 8.33773C31.9022 8.35633 32.4045 8.39354 32.9068 8.43075C33.161 8.45555 33.4091 8.46795 33.6695 8.50516C33.9362 8.56097 34.2028 8.61678 34.4757 8.66639C35.5609 8.97024 36.4848 9.8136 37.0119 10.8182C37.5514 11.8228 37.8119 12.9452 37.9545 14.0676C38.0971 15.1962 38.1281 16.3434 38.1219 17.503C38.0971 22.1042 38.0785 27.0155 38.0475 32.1872C38.0289 37.359 38.0103 42.7911 37.9359 48.4218C37.8987 51.2371 37.8429 54.102 37.7499 57.0103C37.7003 58.4676 37.6382 59.9248 37.5576 61.4131C37.5018 62.1634 37.4212 62.9448 37.136 63.7199C36.8631 64.4889 36.2926 65.2578 35.4927 65.6361C34.7113 66.0267 33.8928 66.1012 33.1424 66.1508C32.3921 66.1942 31.6542 66.2252 30.91 66.25C29.428 66.2996 27.9583 66.3058 26.501 66.2934C23.5927 66.25 20.734 66.2066 17.9187 66.1632C15.1034 66.1632 12.3191 66.0763 9.60919 65.8779C8.93327 65.8221 8.25734 65.7787 7.56902 65.6919C6.8869 65.5989 6.17377 65.4686 5.50405 65.109C4.82192 64.7741 4.27623 64.1106 4.03438 63.4161C3.76773 62.7215 3.73053 62.0146 3.68712 61.3697C3.42047 56.1732 3.37086 51.2681 3.29645 46.6606C3.23444 42.0594 3.21583 37.7682 3.22824 33.8491C3.25304 26.0171 3.38326 19.6734 3.68712 15.2954C3.76153 14.1978 3.84835 13.2304 3.97237 12.3871C4.02818 11.9654 4.10259 11.5809 4.19561 11.2275C4.27002 11.0538 4.29483 10.874 4.41265 10.7314C4.51187 10.5949 4.61729 10.4771 4.71651 10.3717C5.51025 9.51594 6.11176 9.2555 6.13036 9.31751L6.11176 9.32371Z" fill="#6482B2"/>
<g style="mix-blend-mode:lighten" opacity="0.4">
<path d="M18.6816 9.70195C14.1486 9.57793 11.2341 9.79497 7.81105 10.2042C7.40178 10.2539 7.14133 10.4461 6.78167 10.7003C5.95692 11.2708 5.77089 11.6801 5.64686 12.8459C5.18798 17.1371 5.16318 22.2344 5.08876 26.5628C5.05156 28.8572 5.08876 31.1702 5.49804 33.4088C5.60346 33.9855 5.8205 34.6615 6.29178 34.7421C6.65145 34.8041 6.9739 34.4754 7.22815 34.153C7.92888 33.2724 8.54899 32.305 9.1691 31.3315C12.127 26.693 15.0788 22.0608 18.0367 17.4223C18.694 16.393 19.3451 15.3636 19.959 14.297C20.3621 13.5901 20.7466 12.8583 20.9636 12.0398C21.3295 10.6445 20.2009 9.75156 18.6878 9.70815L18.6816 9.70195Z" fill="white"/>
</g>
<path d="M12.0772 34.5684C12.0896 34.618 12.102 34.6738 12.1206 34.7358C12.133 34.7978 12.1516 34.8536 12.1702 34.9032C12.2508 35.1203 12.319 35.3187 12.3749 35.4923C12.4307 35.666 12.5051 35.8582 12.5981 36.0753C12.6787 36.2861 12.7593 36.4907 12.8399 36.6954C12.9206 36.9 13.0074 37.1046 13.0942 37.3093C13.1066 37.3217 13.1128 37.3465 13.1252 37.3775C13.1314 37.4085 13.1438 37.4457 13.1624 37.4829C13.1748 37.5263 13.1934 37.5697 13.212 37.6193C13.2244 37.5697 13.243 37.5201 13.2616 37.4705C13.274 37.4333 13.2864 37.3961 13.2988 37.3589C13.3112 37.3217 13.3236 37.3031 13.3298 37.2907C13.4352 37.024 13.5469 36.7574 13.6461 36.4969C13.7515 36.2365 13.8631 35.976 13.9747 35.7094C14.0554 35.5358 14.1298 35.3621 14.2042 35.1947C14.2786 35.0211 14.353 34.8536 14.4274 34.68C14.4708 34.587 14.5018 34.5064 14.5266 34.432C14.5514 34.3637 14.5887 34.2831 14.6383 34.1839C14.6817 34.1529 14.7375 34.1405 14.8119 34.1405C14.8863 34.1405 14.9545 34.1405 15.0289 34.1653C15.1033 34.1839 15.1654 34.2087 15.2274 34.2397C15.2894 34.2707 15.3266 34.3079 15.339 34.3513C15.37 34.3637 15.3762 34.3947 15.37 34.4444C15.37 34.463 15.37 34.4816 15.37 34.5064C15.37 34.5312 15.37 34.5498 15.37 34.5684C15.37 34.6676 15.3576 34.7482 15.3576 34.8164C15.3576 34.8846 15.3514 34.9466 15.3452 35.0025C15.3452 35.0583 15.3452 35.1265 15.3452 35.1947C15.3452 35.2629 15.3452 35.3435 15.3514 35.4427C15.3514 35.4737 15.3514 35.5172 15.3514 35.5792C15.3514 35.6412 15.3514 35.7032 15.3514 35.7714C15.3514 35.8396 15.3514 35.9016 15.3514 35.9636C15.3514 36.0256 15.3514 36.0753 15.3514 36.1001C15.3638 36.4163 15.3886 36.7388 15.4196 37.0674C15.4506 37.3899 15.4816 37.7185 15.5064 38.041C15.5126 38.1526 15.525 38.2518 15.5312 38.3263C15.5374 38.4069 15.5436 38.4999 15.556 38.6115C15.5622 38.6921 15.5746 38.7727 15.5932 38.8596C15.6056 38.9464 15.6118 39.027 15.6118 39.1138C15.5808 39.1262 15.5436 39.1386 15.5126 39.151C15.4816 39.1634 15.4444 39.1696 15.4072 39.182C15.308 39.2006 15.2336 39.2068 15.1716 39.2068C15.1095 39.2068 15.0537 39.2068 14.9917 39.1944C14.9111 38.996 14.8677 38.7851 14.8615 38.5681C14.8491 38.3511 14.8367 38.1402 14.8119 37.9294C14.8119 37.8984 14.7995 37.8178 14.7933 37.6937C14.7871 37.5697 14.7809 37.4333 14.7685 37.2907C14.7561 37.148 14.7499 37.0178 14.7437 36.8938C14.7375 36.7698 14.7313 36.6892 14.7189 36.652C14.7189 36.6085 14.7189 36.5651 14.7189 36.5279C14.7189 36.4845 14.7065 36.4473 14.7065 36.4101C14.6941 36.3233 14.6941 36.2117 14.6941 36.0691C14.6941 35.9264 14.6941 35.79 14.6817 35.666C14.6569 35.7156 14.6445 35.7528 14.6383 35.79C14.6321 35.8272 14.6259 35.8644 14.6135 35.9016C14.6011 35.9388 14.6011 35.9698 14.6011 35.9946C14.5887 36.0256 14.5825 36.0442 14.5825 36.0566C14.4708 36.3915 14.3468 36.7016 14.2228 36.993C14.0926 37.2845 13.9623 37.5945 13.8197 37.917C13.8073 37.9294 13.7887 37.9728 13.7639 38.0472C13.7329 38.1216 13.7019 38.196 13.6647 38.2829C13.6275 38.3635 13.5965 38.4379 13.5655 38.4999C13.5345 38.5681 13.5159 38.6053 13.5035 38.6177C13.4911 38.6177 13.4787 38.6239 13.4662 38.6239C13.4538 38.6239 13.429 38.6239 13.4042 38.6363C13.3732 38.6363 13.3484 38.6425 13.3112 38.6487C13.2802 38.6487 13.243 38.6549 13.212 38.6673C13.1438 38.6735 13.088 38.6859 13.0384 38.6921C12.9888 38.6983 12.9578 38.6921 12.9516 38.6921C12.9206 38.6611 12.8957 38.6115 12.8585 38.5433C12.8275 38.4751 12.7903 38.4069 12.7593 38.3325C12.7221 38.2518 12.6911 38.1774 12.6663 38.1092C12.6415 38.041 12.6167 37.9914 12.5981 37.9542C12.5609 37.886 12.5113 37.7682 12.4493 37.6007C12.3873 37.4395 12.3252 37.2535 12.2508 37.055C12.1826 36.8566 12.1144 36.652 12.0462 36.4473C11.9718 36.2365 11.9036 36.038 11.8416 35.8458C11.8354 36.0008 11.823 36.1621 11.8106 36.3295C11.7981 36.4969 11.7857 36.6582 11.7795 36.807C11.7671 36.9558 11.7609 37.086 11.7547 37.1977C11.7485 37.3093 11.7423 37.3899 11.7423 37.4333C11.7423 37.5945 11.7299 37.7496 11.7113 37.9108C11.6989 38.072 11.6865 38.2332 11.6741 38.3945C11.6741 38.4627 11.6741 38.5247 11.6741 38.5867C11.6741 38.6487 11.6741 38.7169 11.6741 38.7789C11.6741 38.8161 11.6679 38.8534 11.6679 38.8906V38.9898C11.6679 38.9898 11.6617 39.0456 11.6555 39.0766C11.6555 39.1076 11.6555 39.1324 11.6431 39.151C11.6183 39.151 11.5873 39.151 11.5501 39.1448C11.5129 39.1448 11.4695 39.1324 11.4261 39.1324L11.3083 39.12C11.3083 39.12 11.2711 39.1138 11.2525 39.1138C11.1842 39.1138 11.1346 39.1138 11.085 39.1138C11.0416 39.1138 10.9858 39.1076 10.9176 39.0828C10.9052 38.7975 10.9176 38.5123 10.9362 38.2332C10.9548 37.9542 10.9734 37.6689 10.9858 37.3837C10.9858 37.2597 10.9982 37.1108 11.0106 36.9372C11.023 36.7574 11.0354 36.5713 11.054 36.3729C11.0726 36.1745 11.085 35.9698 11.1036 35.7652C11.1222 35.5606 11.1408 35.3683 11.1656 35.1823C11.1842 35.0025 11.209 34.835 11.2338 34.6924C11.2587 34.5498 11.2835 34.4382 11.3021 34.3637C11.3331 34.3389 11.3827 34.3265 11.4509 34.3203C11.5191 34.3141 11.5811 34.3141 11.6493 34.3141C11.7175 34.3141 11.7795 34.3203 11.8354 34.3265C11.8912 34.3327 11.9284 34.3389 11.947 34.3451C11.978 34.3699 11.9966 34.4009 12.0152 34.4444C12.0338 34.4878 12.0462 34.5312 12.0586 34.587L12.0772 34.5684Z" fill="#40A6FF"/>
<path d="M17.5037 36.0194C17.6463 36.007 17.789 36.0194 17.9378 36.0504C18.0866 36.0815 18.2168 36.1373 18.3409 36.2179C18.5393 36.3543 18.6943 36.5217 18.7997 36.7202C18.9052 36.9186 18.961 37.1294 18.9672 37.3465C18.9734 37.5635 18.9424 37.7806 18.8741 37.9976C18.7997 38.2146 18.6943 38.4069 18.5517 38.5743C18.4091 38.7417 18.2354 38.8782 18.0246 38.9774C17.8138 39.0766 17.5843 39.12 17.3177 39.1076C17.2122 39.1076 17.1068 39.0828 17.0014 39.0456C16.7844 38.9712 16.6045 38.8658 16.4619 38.7355C16.3193 38.6053 16.2077 38.4503 16.1333 38.2767C16.0588 38.103 16.0154 37.9232 16.0092 37.7372C16.003 37.5449 16.0278 37.3589 16.0836 37.1791C16.1395 36.9992 16.2325 36.8256 16.3565 36.6644C16.4805 36.5031 16.6293 36.3667 16.8216 36.2551C16.8712 36.2241 16.9332 36.1869 16.9952 36.1559C17.0572 36.1187 17.1254 36.0939 17.1874 36.0691C17.2371 36.0505 17.2929 36.038 17.3487 36.0318C17.4045 36.0256 17.4541 36.0194 17.5037 36.0132V36.0194ZM18.3595 37.3651C18.3595 37.2163 18.3284 37.086 18.2602 36.9682C18.192 36.8566 18.1114 36.7636 18.006 36.6954C17.9006 36.6272 17.7828 36.5899 17.6525 36.5775C17.5223 36.5651 17.3921 36.5775 17.2681 36.6334C17.144 36.683 17.0262 36.7698 16.9146 36.8876C16.8092 37.0054 16.7224 37.1605 16.6603 37.3589C16.6479 37.4085 16.6293 37.4519 16.6169 37.4953C16.6045 37.5387 16.5983 37.5883 16.5983 37.6317C16.5983 37.7248 16.6045 37.8178 16.6169 37.9108C16.6293 38.0038 16.6603 38.0844 16.71 38.165C16.7968 38.3077 16.927 38.4007 17.1068 38.4441C17.2867 38.4813 17.4727 38.4689 17.6587 38.4007C17.8448 38.3325 18.0122 38.2146 18.1486 38.041C18.2912 37.8674 18.3595 37.6441 18.3595 37.3651Z" fill="#40A6FF"/>
<path d="M21.8068 38.9711C21.7758 38.9711 21.7386 38.9835 21.7076 38.9835C21.6766 38.9835 21.6456 38.9959 21.6146 39.0021C21.4906 39.0393 21.3727 39.0269 21.2611 38.9649C21.2735 38.6301 21.2859 38.3014 21.3045 37.9603C21.3045 37.8611 21.3045 37.7619 21.3045 37.6565C21.3045 37.5511 21.2921 37.4518 21.2797 37.3526C21.2425 37.1232 21.1681 36.9744 21.0565 36.8999C20.9449 36.8255 20.827 36.8069 20.703 36.8379C20.579 36.8689 20.4612 36.9372 20.3558 37.0426C20.2503 37.148 20.1821 37.2596 20.1573 37.3836C20.1015 37.6193 20.0705 37.8611 20.0643 38.1092C20.0581 38.351 20.0519 38.5929 20.0519 38.8347V39.0021C20.0147 39.0021 19.9651 39.0021 19.9093 39.0083C19.8535 39.0083 19.7977 39.0145 19.7418 39.0145C19.686 39.0145 19.6364 39.0083 19.593 38.9897C19.5496 38.9711 19.5186 38.9463 19.5 38.9029V38.6425C19.5 38.506 19.5 38.3386 19.5 38.1526C19.5 37.9665 19.5 37.7681 19.5 37.5573C19.5 37.3464 19.5 37.1542 19.5 36.9744C19.5 36.7945 19.5062 36.6457 19.5124 36.5217C19.5186 36.3977 19.531 36.3294 19.5434 36.317C19.5434 36.3108 19.562 36.2984 19.5868 36.2984C19.6116 36.2984 19.6364 36.2922 19.6612 36.286C19.6922 36.286 19.717 36.286 19.7356 36.286C19.7542 36.286 19.7791 36.286 19.7915 36.2798C19.8163 36.2612 19.8473 36.255 19.8845 36.2674C19.9217 36.2798 19.9527 36.2798 19.9775 36.2798C20.0023 36.348 20.0209 36.4163 20.0271 36.4969C20.0395 36.5713 20.0457 36.6519 20.0457 36.7325C20.1697 36.5961 20.3061 36.4783 20.4674 36.3791C20.6286 36.2798 20.7898 36.2178 20.9511 36.1992C21.1123 36.1806 21.2673 36.2054 21.4099 36.286C21.5526 36.3667 21.6704 36.5155 21.7634 36.7449C21.8502 36.962 21.8998 37.1976 21.906 37.4394C21.9122 37.6813 21.9122 37.9231 21.906 38.1526C21.906 38.2022 21.906 38.2642 21.906 38.3386C21.906 38.413 21.8998 38.4936 21.8874 38.5742C21.875 38.6549 21.8688 38.7293 21.8502 38.8037C21.8378 38.8781 21.8192 38.9401 21.7944 38.9773L21.8068 38.9711Z" fill="#40A6FF"/>
<path d="M25.0756 38.8657C25.0756 38.8657 25.026 38.8905 24.9888 38.8967C24.9578 38.9029 24.9268 38.9091 24.902 38.9215C24.7904 38.9525 24.7098 38.9649 24.654 38.9711C24.6043 38.9711 24.5671 38.9711 24.5485 38.9401C24.5299 38.9153 24.5175 38.8719 24.5175 38.8161C24.5175 38.7603 24.5175 38.6797 24.5051 38.5867C24.4617 38.6177 24.4245 38.6487 24.3935 38.6735C24.3625 38.6983 24.3315 38.7169 24.3005 38.7355C24.2695 38.7541 24.2385 38.7727 24.2013 38.7913C24.1641 38.8099 24.1269 38.8223 24.0772 38.8409C24.0586 38.8533 24.0338 38.8595 24.0028 38.8657C23.9718 38.8719 23.9346 38.8781 23.9036 38.8905C23.8726 38.9029 23.8354 38.9091 23.7982 38.9153C23.761 38.9215 23.7362 38.9277 23.7176 38.9339C23.637 38.9587 23.5626 38.9649 23.4819 38.9525C23.4075 38.9463 23.3269 38.9277 23.2463 38.9091C22.9797 38.8409 22.7812 38.7169 22.6448 38.5371C22.5084 38.3572 22.434 38.1464 22.4153 37.9169C22.3967 37.6875 22.4278 37.4581 22.5146 37.2224C22.6014 36.9868 22.7316 36.7821 22.9114 36.6147C23.0603 36.4721 23.2277 36.3605 23.4075 36.2737C23.5874 36.1868 23.7858 36.1434 23.9904 36.1434H24.1083C24.1517 36.1434 24.1889 36.1434 24.2199 36.1558C24.2881 36.1682 24.3377 36.1806 24.3687 36.193C24.4059 36.2054 24.4555 36.224 24.5175 36.2488C24.5423 36.1434 24.5485 36.0318 24.5361 35.9202C24.5237 35.8086 24.5237 35.7032 24.5299 35.5915C24.5299 35.4365 24.5361 35.2815 24.5361 35.1202C24.5361 34.959 24.5485 34.804 24.5733 34.6552C24.5857 34.6056 24.5857 34.5559 24.5919 34.5125C24.5919 34.4691 24.5919 34.4195 24.5795 34.3699H24.8586L25.026 34.3637C25.0446 34.3637 25.0632 34.3637 25.0818 34.3699C25.1004 34.4567 25.1128 34.5993 25.119 34.8102C25.119 35.021 25.119 35.2443 25.119 35.4861C25.119 35.728 25.1066 35.9574 25.1066 36.1806C25.1066 36.4039 25.1004 36.5713 25.1004 36.6829C25.1004 36.8628 25.1004 37.0426 25.1128 37.2286C25.119 37.4147 25.1252 37.6007 25.1314 37.7867C25.1314 37.979 25.1314 38.165 25.1314 38.3448C25.1252 38.5247 25.1066 38.7045 25.0818 38.8719L25.0756 38.8657ZM24.4803 36.7945C24.4183 36.7511 24.3563 36.7263 24.2943 36.7201C24.2323 36.7139 24.1641 36.7077 24.0959 36.7139C23.9656 36.7263 23.8354 36.7511 23.7114 36.8007C23.5874 36.8504 23.4757 36.9124 23.3765 36.9992C23.2773 37.086 23.1967 37.1852 23.1285 37.2968C23.0665 37.4085 23.0293 37.5387 23.0169 37.6751C23.0045 37.7557 23.0107 37.8301 23.0231 37.8983C23.0355 37.9666 23.0665 38.0348 23.1161 38.0968C23.1967 38.2084 23.3021 38.2766 23.4323 38.3014C23.4819 38.3138 23.5564 38.3138 23.6618 38.3076C23.7672 38.3076 23.8788 38.289 23.9904 38.2642C24.1021 38.2394 24.2075 38.2084 24.3005 38.1588C24.3935 38.1092 24.4493 38.0534 24.4679 37.9852C24.4803 37.9232 24.4927 37.8425 24.5051 37.7371C24.5175 37.6317 24.5237 37.5263 24.5237 37.4085C24.5237 37.2968 24.5237 37.1852 24.5175 37.0736C24.5113 36.9682 24.4989 36.8752 24.4803 36.8007V36.7945Z" fill="#40A6FF"/>
<path d="M27.9026 36.4039C27.9894 36.5279 28.0452 36.6706 28.0762 36.8442C28.1072 37.0178 28.1258 37.1977 28.1258 37.3899C28.1258 37.5821 28.1258 37.7682 28.1134 37.948C28.101 38.134 28.0948 38.2953 28.0886 38.4379H28.0824C28.0824 38.5433 28.0824 38.6549 28.07 38.779C28.0638 38.903 28.0576 39.0022 28.0576 39.0642C27.9894 39.0642 27.9274 39.0766 27.8654 39.089C27.8034 39.1014 27.7413 39.1076 27.6731 39.1076C27.6483 39.058 27.6173 39.0208 27.5739 38.996C27.5305 38.965 27.5057 38.9278 27.5057 38.872C27.4747 38.8782 27.4561 38.8906 27.4313 38.8968C27.4127 38.903 27.3879 38.9092 27.3693 38.9216C27.3507 38.934 27.3197 38.9402 27.2887 38.9526C27.2577 38.965 27.2142 38.9712 27.1646 38.9898C27.0964 39.0022 27.0344 39.0208 26.9724 39.0332C26.9104 39.0456 26.8422 39.0518 26.7802 39.0518C26.7678 39.0518 26.7678 39.0518 26.7678 39.058C26.6189 39.058 26.4701 39.0456 26.3275 39.0146C26.1849 38.9836 26.0546 38.9216 25.9306 38.81C25.7756 38.6797 25.7012 38.5123 25.7012 38.3139V38.196C25.7012 38.072 25.7384 37.9604 25.8128 37.8612C25.8872 37.762 25.9802 37.6814 26.0918 37.6069C26.2035 37.5387 26.3213 37.4767 26.4453 37.4333C26.5693 37.3899 26.6872 37.3589 26.7988 37.3403C26.9042 37.3217 27.0158 37.3093 27.1336 37.3093C27.2515 37.3093 27.3569 37.3031 27.4685 37.2783C27.4685 37.2039 27.4685 37.1233 27.4685 37.0488C27.4685 36.9682 27.4623 36.8938 27.4375 36.8194C27.4065 36.714 27.3569 36.6458 27.2825 36.5962C27.208 36.5527 27.1212 36.5279 27.022 36.5279C26.9228 36.5279 26.8298 36.5403 26.7368 36.5652C26.6437 36.5962 26.5569 36.6334 26.4887 36.6768C26.4081 36.7264 26.3399 36.7884 26.2779 36.8566C26.2159 36.9248 26.1601 36.993 26.1042 37.0612C26.0918 37.0612 26.0794 37.0488 26.0546 37.0302C26.0298 37.0116 25.9988 36.9868 25.9678 36.962C25.9368 36.9372 25.912 36.9124 25.881 36.8876C25.8562 36.8628 25.8376 36.8504 25.8314 36.8504C25.9182 36.6334 26.0484 36.4473 26.2221 36.2985C26.4019 36.1497 26.5879 36.0505 26.7926 35.9946C26.9972 35.945 27.2018 35.945 27.4003 36.0071C27.5987 36.0691 27.7723 36.1993 27.9088 36.3977L27.9026 36.4039ZM27.5119 37.7558C27.5119 37.7558 27.4623 37.7372 27.4251 37.7372C27.3879 37.7372 27.3569 37.7372 27.3321 37.7248C27.208 37.7248 27.0964 37.7372 27.0096 37.762C26.9228 37.7868 26.8174 37.8178 26.6934 37.8612C26.681 37.8612 26.6747 37.8674 26.6561 37.8736C26.6437 37.8736 26.6313 37.8798 26.6189 37.8922C26.5631 37.917 26.5011 37.9542 26.4391 38.01C26.3709 38.0658 26.3337 38.1278 26.3275 38.1898V38.2519C26.3275 38.2519 26.3275 38.2891 26.3399 38.3139C26.3647 38.3821 26.4329 38.4255 26.5569 38.4441C26.6747 38.4627 26.805 38.4689 26.9414 38.4627C27.0778 38.4503 27.2018 38.4317 27.3135 38.4007C27.4251 38.3697 27.4809 38.3325 27.4871 38.2953C27.4995 38.2147 27.4995 38.1278 27.5057 38.0286C27.5057 37.9294 27.5057 37.8426 27.5057 37.762L27.5119 37.7558Z" fill="#40A6FF"/>
<path d="M29.4346 38.8038C29.4222 38.7542 29.3974 38.6984 29.3726 38.6487C29.3416 38.5991 29.3168 38.5495 29.2858 38.4999C29.2486 38.4379 29.2052 38.3511 29.1494 38.2333C29.0936 38.1154 29.0377 37.9852 28.9757 37.8488C28.9137 37.7062 28.8517 37.5573 28.7897 37.4023C28.7277 37.2473 28.6719 37.0985 28.6223 36.9558C28.5727 36.8132 28.5292 36.683 28.492 36.5652C28.4548 36.4473 28.4362 36.3543 28.4238 36.2861C28.4486 36.2861 28.492 36.2799 28.5479 36.2613C28.6099 36.2427 28.6719 36.2303 28.7401 36.2117C28.8083 36.1931 28.8641 36.1807 28.9199 36.1683C28.9757 36.1559 29.0067 36.1559 29.0129 36.1683C29.0191 36.1683 29.0315 36.1993 29.0501 36.2427C29.0625 36.2923 29.0811 36.3419 29.0936 36.3977C29.106 36.4535 29.1184 36.5094 29.1308 36.5652C29.1432 36.6148 29.1494 36.652 29.1556 36.6706C29.2176 36.9062 29.2982 37.1667 29.4098 37.4395C29.5152 37.7186 29.633 37.9604 29.7633 38.1713C29.9245 37.824 30.0671 37.4767 30.1973 37.1233C30.3276 36.7698 30.4702 36.4225 30.619 36.0753C30.6562 36.0567 30.7058 36.0443 30.7679 36.0319C30.8299 36.0195 30.8919 36.0195 30.9539 36.0195C31.0159 36.0195 31.0717 36.0381 31.1213 36.0629C31.1709 36.0877 31.2019 36.1249 31.2143 36.1807C31.1461 36.3915 31.0655 36.5962 30.9725 36.7884C30.8795 36.9806 30.7865 37.1853 30.6934 37.3899C30.526 37.793 30.3586 38.1961 30.1911 38.6053C30.0237 39.0146 29.8253 39.4053 29.5958 39.7835C29.5648 39.8332 29.5276 39.9076 29.478 40.0006C29.4284 40.0936 29.3726 40.1866 29.3168 40.2796C29.261 40.3727 29.2052 40.4657 29.1494 40.5401C29.0936 40.6207 29.0439 40.6765 28.9943 40.7013C28.9013 40.7013 28.8269 40.6765 28.7773 40.6269C28.7277 40.5773 28.6719 40.5215 28.6037 40.4595L28.5354 40.2858C28.6533 40.1804 28.7525 40.0688 28.8269 39.9386C28.9013 39.8084 28.9881 39.6843 29.0749 39.5541C29.0997 39.5231 29.1308 39.4735 29.168 39.4053C29.2052 39.3371 29.2424 39.2689 29.2796 39.1882C29.3168 39.1138 29.3478 39.0394 29.3726 38.9712C29.3974 38.903 29.4222 38.8472 29.4346 38.8038Z" fill="#40A6FF"/>
<path d="M33.5464 5.52235C34.0601 5.52235 34.4765 5.1059 34.4765 4.59219C34.4765 4.07847 34.0601 3.66202 33.5464 3.66202C33.0327 3.66202 32.6162 4.07847 32.6162 4.59219C32.6162 5.1059 33.0327 5.52235 33.5464 5.52235Z" fill="#40A6FF"/>
<defs>
<clipPath id="clip0_213_981">
<rect width="39.6144" height="53.5631" fill="white" transform="translate(21.3618 27.7159) rotate(-14.3287)"/>
</clipPath>
</defs>
</svg>
