<svg width="93" height="76" viewBox="0 0 93 76" fill="none" xmlns="http://www.w3.org/2000/svg">
<g id="Icon box">
<g id="Group">
<g id="OBJECTS">
<g id="Group_2">
<path id="Vector" d="M61.4434 13.2902C53.4408 2.36198 38.5536 -1.71356 25.4313 1.63591C13.9467 4.5614 4.67735 14.0003 1.58227 25.7394C1.18478 27.2551 0.872093 28.1508 0.861493 29.6824C0.840294 31.8182 2.87012 30.4085 2.87012 30.4085C2.87012 30.4085 3.3524 28.1667 3.88768 26.635C5.7956 21.1604 7.07285 18.0547 10.7244 13.7194C16.2362 7.1848 25.0498 2.93966 34.4516 2.74357C46.9856 2.48388 66.3457 12.315 65.6886 34.6695C65.3759 45.2585 60.6432 53.4096 54.5166 58.2854C50.1072 61.7992 44.9823 63.7283 40.2602 64.4756C35.0293 65.3076 27.9593 65.1487 20.9583 61.9529C19.0027 61.0625 17.1902 60.5378 15.3776 59.5998L15.5843 59.3348C16.1302 58.6246 16.6867 57.6229 16.1461 56.9075C15.9182 56.6107 15.5525 56.4623 15.1974 56.3351C13.8195 55.8528 11.0954 55.4182 9.19277 55.2645C8.20171 55.185 7.35904 55.9747 7.35904 56.9658C7.92082 59.5203 8.55149 61.1844 9.25107 63.3997C9.51076 64.2318 9.62205 64.3166 10.788 64.2848C11.4611 64.2689 12.0812 63.8926 12.4892 63.3626L13.6499 61.8575C16.2415 63.2248 19.5539 64.571 22.7867 65.5991C31.4466 68.3444 39.5553 67.8674 45.5759 65.7793C53.1811 63.1453 59.3182 59.0592 63.8072 51.5918C70.7817 39.9852 69.4567 24.2183 61.454 13.2955L61.4434 13.2902Z" fill="#182E57"/>
<path id="Vector_2" d="M34.1653 61.7674C31.3935 61.7674 28.7966 61.407 26.6502 60.7234C15.0701 57.04 9.15553 51.1148 6.88192 40.8968C6.33604 38.4324 6.14525 35.6977 6.29364 32.2741C6.54803 26.3065 8.46656 21.3194 12.3301 16.5708C17.8048 9.83473 25.6962 6.12488 34.5415 6.12488C35.0556 6.12488 35.575 6.13548 36.0944 6.16198C44.6112 6.58066 52.7728 11.0113 57.9295 18.0229C66.7484 30.0111 63.1763 45.4281 55.3379 53.8495C50.8596 58.6564 42.5495 61.7674 34.1706 61.7674H34.1653Z" fill="#40A6FF"/>
<path id="Vector_3" d="M35.9567 10.4972C28.2137 10.1209 20.8311 13.0411 15.6903 19.3691C12.4309 23.3757 10.7721 27.5838 10.5495 32.7405C10.4435 35.2102 10.5124 37.7011 11.0477 40.1178C12.9132 48.502 20.6032 55.6038 29.067 57.0824C38.2515 58.6883 46.6358 56.8121 52.3649 50.6644C59.1645 43.3612 61.3957 30.6576 54.0131 20.6145C49.609 14.6311 43.1644 10.847 35.962 10.4972H35.9567Z" fill="#DCECFF"/>
<g id="Group_3" style="mix-blend-mode:multiply">
<path id="Vector_4" d="M26.841 55.625C23.8731 53.5845 20.5925 50.9823 18.4196 48.1205C14.3176 42.72 13.406 35.5811 14.5454 28.9034C15.6743 22.284 20.5978 17.5088 26.6237 14.9861C32.888 12.3627 40.3343 11.8063 46.6728 14.4615C47.6374 14.8642 48.5807 15.3306 49.4976 15.8394C45.6446 12.6648 40.9861 10.741 35.9513 10.4919C28.2083 10.1156 20.8257 13.0358 15.6849 19.3638C12.4308 23.3704 10.7667 27.5784 10.5441 32.7351C10.4381 35.2049 10.507 37.6958 11.0423 40.1125C12.9078 48.4967 20.5978 55.5985 29.0616 57.0771C29.1517 57.093 29.2418 57.1036 29.3319 57.1195C28.4574 56.6796 27.62 56.1602 26.8357 55.6197L26.841 55.625Z" fill="#DCECFF"/>
</g>
<g id="Group_4">
<path id="Vector_5" d="M33.1376 22.1779C33.445 22.1779 33.6888 25.3472 33.6888 29.2478C33.6888 33.1485 33.4397 36.3178 33.1376 36.3178C32.8355 36.3178 32.5864 33.1538 32.5864 29.2478C32.5864 25.3419 32.8355 22.1779 33.1376 22.1779Z" fill="#C5733A"/>
<path id="Vector_6" d="M44.6432 35.8673C44.6432 36.1747 42.3537 36.4079 39.5448 36.3973C36.7359 36.3867 34.4517 36.127 34.4517 35.8196C34.4517 35.5175 36.7359 35.279 39.5501 35.2896C42.3643 35.3002 44.6485 35.5599 44.6432 35.8673Z" fill="#C5733A"/>
<path id="Vector_7" d="M18.669 35.3267C18.669 35.7348 17.5614 36.0634 16.2046 36.0634C14.8479 36.0634 13.7402 35.7348 13.7402 35.3267C13.7402 34.9186 14.8426 34.59 16.2046 34.59C17.5667 34.59 18.669 34.9186 18.669 35.3267Z" fill="#628BB8"/>
<path id="Vector_8" d="M33.169 17.2491C32.761 17.2809 32.3476 16.2793 32.2416 15.0073C32.1356 13.7354 32.3794 12.6754 32.7875 12.6436C33.1902 12.6118 33.6089 13.6135 33.7096 14.8854C33.8156 16.1574 33.5718 17.2173 33.169 17.2491Z" fill="#628BB8"/>
<path id="Vector_9" d="M34.7806 50.1238C35.1887 50.1238 35.5173 51.2314 35.5173 52.5882C35.5173 53.9449 35.1887 55.0526 34.7806 55.0526C34.3725 55.0526 34.0439 53.9502 34.0439 52.5882C34.0439 51.2261 34.3725 50.1238 34.7806 50.1238Z" fill="#628BB8"/>
<path id="Vector_10" d="M56.1544 34.0124C56.1544 34.4205 55.121 34.749 53.8543 34.749C52.5877 34.749 51.5542 34.4205 51.5542 34.0124C51.5542 33.6043 52.5824 33.2757 53.8543 33.2757C55.1263 33.2757 56.1544 33.6043 56.1544 34.0124Z" fill="#628BB8"/>
<path id="Vector_11" d="M20.6408 43.2128C20.7521 43.5944 20.5666 44.0502 20.0578 44.4954C19.5543 44.9299 19.0138 45.0836 18.6799 44.8663C18.3248 44.6385 18.5103 43.8753 19.0933 43.3824C19.3847 43.128 19.7239 42.9743 20.026 42.9425C20.3281 42.9054 20.5878 43.0114 20.6408 43.2075V43.2128Z" fill="#628BB8"/>
<path id="Vector_12" d="M25.2355 48.1363C25.4634 48.4808 25.3362 48.9631 25.0606 49.3288C24.7744 49.6892 24.3398 49.933 23.953 49.8005C23.5714 49.6733 23.4548 49.0002 23.8947 48.4278C24.3398 47.8554 25.0182 47.7971 25.2355 48.1363Z" fill="#628BB8"/>
<path id="Vector_13" d="M43.965 50.7862C43.5676 50.871 43.1595 50.5742 42.9687 50.1714C42.7567 49.7528 42.9475 49.5355 43.0058 49.1115C43.0429 49.0161 43.1065 48.9366 43.2072 48.8889C43.3079 48.8412 43.4669 48.8465 43.61 48.8995C43.9014 49.0002 44.1558 49.244 44.2936 49.5355C44.5745 50.129 44.3572 50.7014 43.9597 50.7862H43.965Z" fill="#628BB8"/>
<path id="Vector_14" d="M51.8566 45.8733C51.5704 46.1648 50.9715 46.0376 50.5104 45.5924C50.0493 45.1472 49.9062 44.5484 50.1924 44.2516C50.4733 43.9601 51.0775 44.0873 51.5386 44.5378C51.9997 44.9883 52.1428 45.5871 51.8566 45.8786V45.8733Z" fill="#628BB8"/>
<path id="Vector_15" d="M48.8831 21.1657C49.2169 21.3989 49.1269 22.1091 48.6764 22.745C48.2312 23.3863 47.5952 23.7149 47.2613 23.4817C46.9274 23.2485 47.0175 22.5436 47.468 21.9024C47.9132 21.2611 48.5492 20.9325 48.8831 21.1657Z" fill="#628BB8"/>
<path id="Vector_16" d="M42.9688 16.5602C43.2603 16.857 43.4617 17.1167 43.4246 17.8109C43.3981 18.1501 43.2762 18.5105 43.0589 18.7596C42.8416 19.014 42.566 19.0617 42.4123 18.9345C42.1208 18.6377 41.9195 18.378 41.9565 17.689C41.983 17.3498 42.1049 16.9895 42.3222 16.7404C42.5395 16.486 42.8151 16.4383 42.9688 16.5655V16.5602Z" fill="#628BB8"/>
<path id="Vector_17" d="M22.7024 21.7646C22.4056 22.0455 21.7697 21.8494 21.2874 21.33C20.8051 20.8106 20.6514 20.1693 20.9535 19.8884C21.2503 19.6129 21.881 19.809 22.3632 20.323C22.8455 20.8424 22.9939 21.4837 22.6971 21.7646H22.7024Z" fill="#628BB8"/>
<path id="Vector_18" d="M18.6794 27.4194C18.5734 27.5996 18.3773 27.6897 18.1441 27.7268C17.9056 27.7586 17.6248 27.7427 17.2644 27.5784C16.8987 27.4141 16.5754 27.0643 16.5012 26.7622C16.4164 26.4601 16.5118 26.2322 16.6814 26.1316C16.8563 26.0256 17.0789 26.0468 17.2803 26.0733C17.487 26.1051 17.6513 26.1316 17.9003 26.2481C18.1441 26.3647 18.4303 26.5608 18.5893 26.7834C18.7536 27.006 18.7854 27.2445 18.6847 27.4141L18.6794 27.4194Z" fill="#628BB8"/>
<path id="Vector_19" d="M32.7879 33.7898C31.7121 34.0654 31.1026 35.4698 31.6379 36.445C32.1678 37.4202 33.673 37.6692 34.4892 36.9167C35.3053 36.1641 35.1781 34.6431 34.2454 34.0336C33.7949 33.7421 33.0052 33.8057 32.9363 34.3357L32.7879 33.7951V33.7898Z" fill="#BD8300"/>
</g>
<path id="Vector_20" d="M29.1728 11.0431C29.1728 11.0113 29.4431 10.9477 29.973 10.8576C30.503 10.7622 31.2874 10.635 32.3103 10.5555C32.5646 10.5343 32.8349 10.5078 33.1211 10.4813C33.4073 10.4707 33.7041 10.4654 34.0168 10.4548C34.3295 10.4442 34.6528 10.4336 34.992 10.4283C35.3311 10.4389 35.6809 10.4495 36.0466 10.4654C37.5041 10.5078 39.1735 10.6986 40.9701 11.1279C42.7668 11.5571 44.6959 12.2461 46.5985 13.3167C48.5011 14.3872 50.3614 15.8341 52.0414 17.6148C53.7108 19.3955 55.2849 21.4572 56.4826 23.8527C57.6857 26.2323 58.5283 28.914 58.8569 31.7229C59.53 37.3671 58.0726 42.8524 55.5499 47.034C54.2832 49.1327 52.7728 50.9399 51.1245 52.3709C49.4922 53.8177 47.7274 54.8724 46.0526 55.6461C42.6714 57.1831 39.6558 57.57 37.626 57.6919C37.1119 57.729 36.6614 57.729 36.2639 57.7343C35.8717 57.7449 35.5378 57.7343 35.2675 57.7131C34.727 57.6813 34.4461 57.6548 34.4461 57.623C34.4461 57.5435 35.5802 57.5594 37.5942 57.3474C39.5975 57.1195 42.5389 56.6372 45.7823 55.0738C47.3935 54.2841 49.0788 53.24 50.6316 51.8144C52.2004 50.4099 53.6366 48.6504 54.8397 46.6153C57.2405 42.5556 58.6131 37.2611 57.9666 31.8289C57.6486 29.1207 56.8483 26.545 55.6983 24.2448C54.5588 21.9394 53.0431 19.9255 51.4372 18.1819C49.8208 16.4436 48.0454 15.0232 46.2275 13.9632C44.4097 12.898 42.5548 12.1984 40.8164 11.7426C39.0781 11.2816 37.4564 11.0537 36.0201 10.9636C35.6597 10.9371 35.3152 10.9159 34.9814 10.8947C34.6475 10.8947 34.3242 10.8894 34.0168 10.8841C33.7094 10.8841 33.4126 10.8788 33.1317 10.8735C32.8508 10.8841 32.5805 10.8947 32.3315 10.9053C31.3139 10.9265 30.5295 11.0007 29.9942 11.0378C29.459 11.0696 29.1728 11.0749 29.1675 11.0431H29.1728Z" fill="#5F7BAA"/>
<path id="Vector_21" d="M46.6782 54.9254C46.6782 54.9254 46.4874 55.1798 45.9786 55.4766C45.4751 55.7787 44.6484 56.0807 43.5884 56.3457C42.5337 56.616 41.2565 57.0188 39.7355 57.3898C38.9723 57.5753 38.1455 57.7449 37.2552 57.8403C36.8047 57.8986 36.3489 57.888 35.8825 57.9145C35.4108 57.9251 34.9285 57.9781 34.4357 57.9516C32.4535 57.9357 30.2912 57.676 28.0229 57.1354C25.7546 56.5895 23.4121 55.6568 21.1438 54.3371C18.8808 53.0122 16.6972 51.242 14.89 49.0055C13.0775 46.7796 11.6677 44.0873 10.8834 41.1459C10.4329 39.6885 10.2421 38.178 10.1414 36.71C10.046 35.2367 10.0619 33.7898 10.1414 32.3695C10.3004 29.5182 10.9523 26.7676 12.0652 24.3774C14.3176 19.5864 17.8155 16.1521 21.1438 14.0322C24.5091 11.9017 27.6784 11.0802 29.8407 10.7304C30.3866 10.6456 30.8689 10.5767 31.2929 10.5449C31.7169 10.5025 32.072 10.4707 32.3634 10.4707C32.9411 10.4548 33.2432 10.4601 33.2485 10.4919C33.2538 10.5767 32.0402 10.635 29.9096 11.0696C27.8003 11.5201 24.7211 12.421 21.4936 14.5622C19.893 15.6327 18.2607 17.0001 16.7555 18.696C15.2663 20.4025 13.8566 22.4006 12.8178 24.7166C11.7684 27.0273 11.159 29.656 11.0159 32.4172C10.9417 33.8057 10.9311 35.2261 11.0265 36.6517C11.1325 38.0773 11.3074 39.5136 11.7472 40.9127C12.4998 43.7322 13.846 46.3079 15.5737 48.4543C17.3014 50.6061 19.3842 52.3232 21.5625 53.6269C23.746 54.9254 26.009 55.8529 28.2084 56.4146C30.4078 56.9711 32.5171 57.2573 34.4516 57.3156C38.3469 57.5594 41.3572 56.4093 43.5195 56.0065C44.5901 55.7893 45.3956 55.5561 45.9097 55.3176C46.4291 55.0844 46.6676 54.8989 46.6941 54.9307L46.6782 54.9254Z" fill="#5F7BAA"/>
<path id="Vector_22" d="M32.7876 20.6887C32.2152 21.3618 31.717 22.0985 31.3089 22.8828C31.203 23.0895 31.097 23.3174 31.1553 23.5453C31.2718 24.0117 31.9184 24.0541 32.3954 23.9905L33.9535 23.7891C34.2927 23.7467 34.7114 23.6248 34.7591 23.2856C34.7803 23.1425 34.722 23.0047 34.6584 22.8775C34.3139 22.1621 33.8211 21.5208 33.2169 21.0067L32.7929 20.6887H32.7876Z" fill="#BA5814"/>
<path id="Vector_23" d="M45.7346 35.6659C45.0616 35.0936 44.3249 34.5954 43.5405 34.1873C43.3338 34.0813 43.106 33.9753 42.8781 34.0336C42.4117 34.1502 42.3693 34.7968 42.4329 35.2738C42.5018 35.7931 42.5707 36.3125 42.6343 36.8319C42.6767 37.1711 42.7986 37.5898 43.1377 37.6375C43.2808 37.6587 43.4186 37.6004 43.5458 37.5368C44.2613 37.1923 44.9026 36.6994 45.4167 36.0952L45.7346 35.6712V35.6659Z" fill="#BA5814"/>
<path id="Vector_24" d="M23.3169 59.4037C23.3275 59.3772 23.6614 59.4779 24.2709 59.6952C24.5782 59.8012 24.9492 59.9549 25.3997 60.098C25.8555 60.2305 26.3802 60.3789 26.9738 60.5485C27.562 60.7181 28.2404 60.8241 28.9665 60.9884C29.6978 61.1421 30.5087 61.211 31.3673 61.3435C33.1003 61.4759 35.0877 61.6031 37.2713 61.3912C39.4495 61.2057 41.8291 60.8188 44.2829 60.0556C46.7261 59.2765 49.2541 58.1477 51.6072 56.4994C51.9146 56.3139 52.1902 56.0808 52.4711 55.8529C52.752 55.625 53.0381 55.3971 53.3243 55.1692C53.8861 54.6975 54.3896 54.1516 54.9355 53.6376C55.4389 53.0811 55.9212 52.4928 56.4194 51.9098C56.8646 51.2844 57.331 50.6644 57.7656 50.0178C59.4721 47.3944 60.8182 44.4 61.6556 41.1883C62.493 37.9767 62.7792 34.7067 62.5301 31.5904C62.281 28.4741 61.4966 25.5221 60.3201 22.8987C60.0021 22.2575 59.6629 21.6321 59.3449 21.0067L59.1064 20.5403L58.8255 20.1058C58.6347 19.8143 58.4492 19.5281 58.2637 19.2419C58.0782 18.9557 57.8927 18.6748 57.7073 18.3939C57.5218 18.113 57.3045 17.8586 57.1084 17.5936C56.7162 17.0584 56.2816 16.5761 55.8629 16.0832C54.167 14.1594 52.3174 12.6118 50.5207 11.3717C46.9063 8.89669 43.5038 7.68303 41.1348 7.07356C38.7552 6.46408 37.3825 6.34748 37.3931 6.25739C37.3931 6.22559 37.7376 6.24149 38.3895 6.28919C38.7181 6.31039 39.1156 6.35808 39.5873 6.43228C39.8258 6.46938 40.0801 6.50648 40.3504 6.54888C40.6207 6.60717 40.9069 6.66547 41.209 6.72907C42.428 6.98346 43.896 7.40214 45.5442 8.05402C47.1872 8.70589 49.005 9.60686 50.8705 10.8417C52.7255 12.0766 54.644 13.6294 56.4088 15.585C56.8381 16.0832 57.2939 16.5708 57.702 17.1167C57.9086 17.387 58.1365 17.6466 58.3273 17.9328C58.5181 18.219 58.7142 18.5105 58.9103 18.802C59.1064 19.0935 59.3025 19.3903 59.4986 19.6818L59.7954 20.127L60.0498 20.6039C60.3837 21.2452 60.7387 21.8865 61.0726 22.549C62.3075 25.2466 63.1342 28.2939 63.4045 31.5109C63.6748 34.7279 63.3886 38.0986 62.5248 41.4056C61.6609 44.7127 60.2724 47.7972 58.5022 50.4895C58.0464 51.1572 57.5642 51.7932 57.1031 52.4398C56.5837 53.0387 56.0855 53.6429 55.5608 54.2205C54.9885 54.7505 54.4638 55.3229 53.8755 55.8052C53.5787 56.0437 53.2766 56.2769 52.9851 56.51C52.6884 56.7432 52.4022 56.9817 52.0789 57.1725C49.6251 58.8579 47.0123 59.992 44.5002 60.7605C41.9775 61.513 39.5396 61.8681 37.3189 62.0165C35.093 62.1914 33.0685 62.0165 31.309 61.831C30.4345 61.6773 29.6183 61.5766 28.8817 61.3965C28.1503 61.2057 27.4666 61.0732 26.8784 60.8718C26.2901 60.6704 25.7654 60.4902 25.3149 60.3365C24.8697 60.1669 24.504 59.9814 24.2073 59.8489C23.6137 59.5733 23.3116 59.4196 23.3222 59.3878L23.3169 59.4037Z" fill="#466398"/>
<path id="Vector_25" d="M47.6536 9.30475C47.6377 9.33124 47.3038 9.20935 46.6837 8.94966C46.3763 8.81716 45.9948 8.65287 45.5443 8.45678C45.0938 8.26599 44.5479 8.11229 43.949 7.9003C41.5482 7.10533 37.9073 6.26266 33.3759 6.47465C31.1182 6.61775 28.6644 7.02053 26.1258 7.7996C23.5819 8.56807 21.0009 9.81352 18.5418 11.483C17.9005 11.8698 17.3335 12.368 16.7293 12.8291C16.1145 13.2796 15.5633 13.8202 14.9963 14.3554C14.7207 14.6257 14.4133 14.8801 14.1536 15.1716C13.8939 15.4631 13.6289 15.7599 13.3692 16.0567C13.1095 16.3588 12.8339 16.645 12.5795 16.9576C12.3358 17.2756 12.0761 17.5883 11.8429 17.9169C9.90845 20.5138 8.34501 23.5347 7.51824 26.863C7.09426 28.5218 6.86637 30.2071 6.76567 31.8766C6.67028 33.5513 6.65968 35.2154 6.76567 36.8319C6.87167 38.4483 7.08366 40.0224 7.48645 41.5328C7.58184 41.9091 7.67724 42.2907 7.76733 42.6617C7.88393 43.0273 7.99523 43.393 8.11182 43.7587C8.31851 44.4954 8.6259 45.1844 8.88029 45.8839C10.0144 48.6345 11.6203 51.0035 13.454 52.9009C15.2983 54.7982 17.36 56.2079 19.3209 57.3209C21.2924 58.4338 23.2056 59.2023 24.8857 59.8595C25.3097 60.0132 25.723 60.1563 26.1152 60.2994C26.5127 60.4425 26.8837 60.5803 27.2547 60.6704C27.9967 60.8611 28.6909 60.983 29.3216 61.089C30.5777 61.2957 31.5634 61.4229 32.2259 61.513C32.8937 61.6031 33.2434 61.6614 33.2381 61.6932C33.2381 61.725 32.8831 61.725 32.2047 61.6932C31.5316 61.6561 30.5406 61.5872 29.2633 61.4335C28.6273 61.354 27.9172 61.2586 27.1487 61.0837C26.7565 61.0042 26.3643 60.8664 25.9668 60.7393C25.564 60.6068 25.1454 60.4743 24.7108 60.3312C22.9936 59.7164 21.0433 58.9797 19.0082 57.8774C16.9837 56.7803 14.8426 55.3653 12.9134 53.4255C10.9949 51.4858 9.30427 49.032 8.10652 46.2072C7.83623 45.4917 7.51294 44.7816 7.30095 44.0237C7.18436 43.6527 7.06246 43.2764 6.94057 42.8948C6.83987 42.5133 6.74447 42.1264 6.64378 41.7395C6.22509 40.1919 5.9919 38.549 5.87531 36.8955C5.76931 35.2313 5.76931 33.546 5.86471 31.8342C5.9654 30.117 6.1933 28.3734 6.63848 26.651C7.07836 24.9338 7.68254 23.275 8.45101 21.7275C9.21948 20.1799 10.131 18.7384 11.1274 17.4028C11.3712 17.0636 11.6362 16.7457 11.8906 16.4224C12.1503 16.1044 12.4365 15.8023 12.7067 15.4949C12.9823 15.1875 13.2526 14.8854 13.5229 14.5833C13.7932 14.2813 14.1059 14.0269 14.3974 13.746C14.9857 13.2001 15.5527 12.6436 16.194 12.1825C16.8194 11.7056 17.4077 11.1968 18.0701 10.8046C20.6193 9.10335 23.2851 7.8526 25.8979 7.09473C28.5107 6.32626 31.0281 5.94998 33.3388 5.84928C37.9762 5.71148 41.6648 6.67075 44.055 7.57701C44.6539 7.8155 45.1945 8.001 45.6397 8.21829C46.0796 8.44618 46.4505 8.63697 46.7526 8.79066C47.3515 9.10335 47.6589 9.28355 47.643 9.31004L47.6536 9.30475Z" fill="#40A6FF"/>
<path id="Vector_26" d="M34.2447 34.0283C34.2659 33.9912 34.4249 34.0177 34.6422 34.1873C34.8595 34.3516 35.1192 34.6854 35.2411 35.173C35.3577 35.65 35.3471 36.3125 34.9284 36.9061C34.515 37.5102 33.6723 37.8123 32.8933 37.6745C32.1142 37.5526 31.4093 36.9962 31.2132 36.2913C31.0065 35.597 31.2132 34.9663 31.4729 34.5529C31.7485 34.129 32.0983 33.8958 32.358 33.811C32.6177 33.7209 32.7767 33.7474 32.782 33.7898C32.8191 33.8958 32.2467 34.0601 31.9128 34.7967C31.7538 35.1518 31.669 35.6394 31.8333 36.0846C31.987 36.5245 32.4428 36.8796 33.0046 36.975C33.5663 37.0651 34.1175 36.8796 34.3984 36.5086C34.7005 36.1429 34.7747 35.65 34.7376 35.2631C34.6581 34.4576 34.1652 34.1184 34.2394 34.0283H34.2447Z" fill="#B37031"/>
<path id="Vector_27" d="M35.0348 35.3161C34.9235 35.3479 34.791 35.0564 34.4783 34.7597C34.1603 34.4735 33.6038 34.1873 32.9572 34.2244C32.6446 34.2403 32.3637 34.341 32.1729 34.4841C31.9609 34.6219 31.892 34.8392 31.8125 35.0299C31.8019 35.1359 31.7807 35.2313 31.7648 35.3214C31.7542 35.4115 31.7648 35.491 31.7489 35.5599C31.7383 35.6977 31.7065 35.7878 31.6588 35.8037C31.6111 35.8196 31.5475 35.756 31.4733 35.6235C31.4415 35.5546 31.3885 35.4698 31.362 35.3638C31.3408 35.2525 31.3196 35.1253 31.3037 34.9769C31.3249 34.6908 31.3991 34.2827 31.7277 33.9965C32.0298 33.705 32.4697 33.5407 32.9148 33.5142C33.8158 33.4612 34.5631 33.9594 34.8652 34.4417C35.0083 34.6908 35.0878 34.9028 35.0878 35.067C35.0984 35.226 35.0772 35.3108 35.0295 35.3214L35.0348 35.3161Z" fill="#B37031"/>
</g>
</g>
</g>
<g id="Group_5">
<g id="Group_6">
<g id="Group_7">
<path id="Vector_28" d="M72.6166 41.424L38.7767 56.6749C38.1064 56.977 37.8079 57.7653 38.11 58.4356L45.1558 74.0695C45.4579 74.7398 46.2462 75.0383 46.9166 74.7362L80.7565 59.4854C81.4268 59.1833 81.7253 58.395 81.4232 57.7246L74.3773 42.0907C74.0752 41.4204 73.2869 41.1219 72.6166 41.424Z" fill="#ECEFF1"/>
<path id="Vector_29" d="M83.1873 58.3856L91.4279 54.6718C92.0982 54.3697 92.3967 53.5814 92.0946 52.911L85.0488 37.2771C84.7467 36.6068 83.9583 36.3083 83.288 36.6104L75.0474 40.3242C74.3771 40.6263 74.0786 41.4146 74.3807 42.0849L81.4266 57.7189C81.7287 58.3892 82.517 58.6877 83.1873 58.3856Z" fill="#CFD8DC"/>
<path id="Vector_30" d="M72.6181 41.4187L38.7751 56.6715C38.104 56.9739 37.8089 57.7594 38.1077 58.4306L39.9147 62.4392L76.1805 46.0948L74.3735 42.0862C74.0711 41.415 73.2856 41.12 72.6144 41.4187H72.6181Z" fill="#0097A7"/>
<path id="Vector_31" d="M83.2869 36.6098L75.0447 40.3271C74.3735 40.6295 74.0785 41.415 74.3772 42.0862L76.1842 46.0948L86.853 41.286L85.046 37.2773C84.7436 36.6061 83.9581 36.3111 83.2869 36.6098Z" fill="#00838F"/>
<path id="Vector_32" d="M79.6396 47.7322L85.7946 44.959" stroke="#B0BEC5" stroke-miterlimit="10"/>
<path id="Vector_33" d="M80.9634 50.6714L87.1183 47.8982" stroke="#B0BEC5" stroke-miterlimit="10"/>
<path id="Vector_34" d="M81.8193 52.5706L87.9743 49.7974" stroke="#B0BEC5" stroke-miterlimit="10"/>
<path id="Vector_35" d="M82.6748 54.4661L88.8297 51.6929" stroke="#B0BEC5" stroke-miterlimit="10"/>
<path id="Vector_36" d="M42.6548 64.4048L60.4964 56.3617" stroke="#B0BEC5" stroke-miterlimit="10"/>
<path id="Vector_37" d="M43.9785 67.3403L52.8993 63.3206" stroke="#CFD8DC" stroke-miterlimit="10"/>
<path id="Vector_38" d="M54.8501 62.4392L68.6978 56.1994" stroke="#CFD8DC" stroke-miterlimit="10"/>
<path id="Vector_39" d="M44.834 69.2395L57.5606 63.5013" stroke="#CFD8DC" stroke-miterlimit="10"/>
<path id="Vector_40" d="M59.6592 62.5572L77.0066 54.7391" stroke="#CFD8DC" stroke-miterlimit="10"/>
</g>
<path id="Vector_41" d="M48.4834 69.882L45.6895 71.1411L46.4456 72.8188L49.2395 71.5597L48.4834 69.882Z" fill="#0097A7"/>
<path id="Vector_42" d="M52.0532 68.2698L49.2593 69.529L50.0154 71.2067L52.8093 69.9475L52.0532 68.2698Z" fill="#0097A7"/>
<g id="BOARDING PASS">
<path d="M41.0665 60.6251L39.7474 57.6982L40.2763 57.4599C40.426 57.3924 40.5518 57.3624 40.6538 57.3698C40.7559 57.3771 40.8452 57.4215 40.922 57.503C40.9987 57.5845 41.0731 57.7037 41.1452 57.8606L41.1736 57.9238C41.2471 58.0868 41.2915 58.2268 41.3069 58.3439C41.323 58.4594 41.298 58.5594 41.232 58.6438C41.3143 58.64 41.3904 58.6638 41.4602 58.715C41.53 58.7663 41.5944 58.8366 41.6533 58.9261C41.7134 59.015 41.7685 59.115 41.8184 59.2258L41.8462 59.2873C41.9299 59.479 41.9807 59.6436 41.9986 59.7809C42.0176 59.9177 41.9985 60.0337 41.9413 60.1288C41.8836 60.2228 41.7827 60.3023 41.6386 60.3673L41.0665 60.6251ZM41.2856 60.1922L41.4968 60.0971C41.5622 60.0676 41.6054 60.0288 41.6264 59.9806C41.6474 59.9325 41.6471 59.8653 41.6255 59.7789C41.6035 59.6915 41.5602 59.5763 41.4958 59.4333L41.4501 59.3318C41.3686 59.1511 41.2957 59.0279 41.2314 58.9622C41.1666 58.8953 41.0866 58.8834 40.9912 58.9264L40.7617 59.0298L41.2856 60.1922ZM40.6426 58.7654L40.8371 58.6777C40.8837 58.6567 40.9191 58.6347 40.9435 58.6118C40.9673 58.5877 40.9797 58.5561 40.9808 58.5169C40.9829 58.4773 40.9725 58.4246 40.9496 58.3589C40.9266 58.2932 40.8912 58.2072 40.8432 58.1007L40.8065 58.0192C40.7565 57.9084 40.711 57.8295 40.6699 57.7827C40.6288 57.7359 40.5859 57.7118 40.5413 57.7106C40.4979 57.7088 40.4467 57.7212 40.388 57.7477L40.2184 57.8241L40.6426 58.7654Z" fill="white"/>
<path d="M43.157 59.723C43.0106 59.789 42.8803 59.809 42.7659 59.7832C42.6527 59.7569 42.5485 59.6871 42.4535 59.5739C42.3596 59.4601 42.2686 59.3057 42.1807 59.1106L41.5991 57.8201C41.5231 57.6516 41.4738 57.4977 41.4511 57.3586C41.4284 57.2194 41.4442 57.0962 41.4986 56.989C41.553 56.8818 41.6584 56.793 41.8147 56.7225C41.9322 56.6696 42.0371 56.6463 42.1294 56.6527C42.2212 56.6581 42.3035 56.6883 42.3764 56.7435C42.4499 56.7971 42.5174 56.8714 42.5789 56.9664C42.6403 57.0614 42.6996 57.1721 42.7565 57.2985L43.3381 58.5889C43.4261 58.7841 43.4815 58.9545 43.5045 59.1002C43.5286 59.2454 43.513 59.3691 43.4577 59.4714C43.4036 59.5732 43.3033 59.6571 43.157 59.723ZM43.0235 59.427C43.0867 59.3985 43.127 59.359 43.1442 59.3086C43.161 59.257 43.1565 59.1863 43.1307 59.0966C43.105 59.0068 43.0598 58.8904 42.9954 58.7474L42.4033 57.4336C42.3244 57.2585 42.252 57.135 42.1863 57.0632C42.1207 56.9915 42.0412 56.9766 41.9481 57.0185C41.8517 57.062 41.8052 57.1336 41.8088 57.2334C41.8131 57.3315 41.8546 57.4682 41.9336 57.6433L42.5264 58.9588C42.5914 59.1029 42.6489 59.2143 42.6991 59.2931C42.7488 59.3708 42.799 59.4201 42.8499 59.4412C42.9003 59.4612 42.9581 59.4565 43.0235 59.427Z" fill="white"/>
<path d="M44.0067 59.3L43.1317 56.173L43.5458 55.9864L45.3488 58.6952L45.0245 58.8413L44.6895 58.32L44.159 58.5591L44.3343 59.1524L44.0067 59.3ZM44.0714 58.2625L44.5204 58.0601L43.5922 56.6177L43.5872 56.62L44.0714 58.2625Z" fill="white"/>
<path d="M45.6731 58.549L44.354 55.6221L44.9676 55.3456C45.1228 55.2756 45.2501 55.2516 45.3493 55.2736C45.4481 55.2944 45.5336 55.3553 45.6057 55.4562C45.6784 55.5554 45.7525 55.6888 45.828 55.8562C45.9094 56.0369 45.9559 56.1887 45.9672 56.3116C45.9786 56.4346 45.9386 56.5353 45.8473 56.6138C45.9045 56.5987 45.9586 56.6017 46.0094 56.6228C46.0614 56.6434 46.1148 56.688 46.1698 56.7566C46.2247 56.8252 46.2855 56.9232 46.3522 57.0505C46.4196 57.1762 46.4977 57.3377 46.5866 57.5351C46.5951 57.5539 46.6074 57.5811 46.6234 57.6166C46.6393 57.652 46.6574 57.6906 46.6775 57.7322C46.6976 57.7739 46.7174 57.8149 46.737 57.8555C46.7577 57.8955 46.777 57.9308 46.7948 57.9615C46.8121 57.991 46.8268 58.0117 46.8388 58.0237L46.4963 58.1781C46.4873 58.1701 46.4735 58.1496 46.4546 58.1168C46.4358 58.0839 46.4126 58.0397 46.3849 57.9842C46.3572 57.9286 46.3253 57.8623 46.2892 57.7852C46.2526 57.707 46.2126 57.6196 46.1691 57.5232C46.1251 57.4256 46.0772 57.3192 46.0252 57.2039C45.9752 57.093 45.9323 57.011 45.8963 56.9578C45.861 56.9031 45.8206 56.8726 45.7751 56.8664C45.7302 56.8586 45.6685 56.8698 45.59 56.8998L45.3803 56.9803L46.0173 58.3939L45.6731 58.549ZM45.2663 56.7276L45.4858 56.6286C45.549 56.6002 45.5918 56.5662 45.614 56.5268C45.6369 56.4859 45.6377 56.4255 45.6164 56.3457C45.5947 56.2648 45.55 56.1495 45.4826 55.9999L45.4736 55.9799C45.4176 55.8557 45.3693 55.7648 45.3286 55.7071C45.2886 55.6478 45.2469 55.6145 45.2037 55.6074C45.1604 55.6002 45.105 55.6118 45.0373 55.6423L44.8211 55.7397L45.2663 56.7276Z" fill="white"/>
<path d="M47.2363 57.8445L45.9172 54.9176L46.4677 54.6696C46.6207 54.6006 46.7543 54.579 46.8687 54.6049C46.9825 54.6296 47.0834 54.6935 47.1712 54.7967C47.259 54.8998 47.3402 55.034 47.4146 55.1992L47.9956 56.4839C48.0846 56.6813 48.1373 56.8516 48.1539 56.9948C48.171 57.1365 48.1485 57.2567 48.0863 57.3554C48.0252 57.4537 47.9215 57.5357 47.7751 57.6017L47.2363 57.8445ZM47.4537 57.4124L47.63 57.333C47.6921 57.305 47.7376 57.2685 47.7667 57.2234C47.7952 57.1772 47.8027 57.1124 47.7892 57.0291C47.7768 56.9454 47.7388 56.8331 47.6754 56.6923L47.0683 55.3452C46.9854 55.1612 46.9045 55.0396 46.8258 54.9803C46.7466 54.92 46.6577 54.9121 46.559 54.9565L46.3827 55.036L47.4537 57.4124Z" fill="white"/>
<path d="M48.8228 57.1295L47.5037 54.2026L47.848 54.0475L49.167 56.9744L48.8228 57.1295Z" fill="white"/>
<path d="M49.6477 56.7578L48.3286 53.8309L48.588 53.714L50.1644 55.4005L49.748 54.5697L49.2316 53.4239L49.5359 53.2868L50.855 56.2137L50.6022 56.3276L49.04 54.6147L49.3927 55.3441L49.9653 56.6146L49.6477 56.7578Z" fill="white"/>
<path d="M51.8406 55.8035C51.671 55.8799 51.5092 55.8688 51.3554 55.7701C51.2015 55.6714 51.0524 55.4618 50.908 55.1414L50.3548 53.9141C50.2969 53.7855 50.2533 53.6651 50.2241 53.5529C50.1954 53.439 50.1861 53.3339 50.1959 53.2374C50.2058 53.1409 50.2398 53.0549 50.2978 52.9794C50.3569 52.9034 50.4452 52.839 50.5627 52.786C50.6847 52.731 50.7912 52.7084 50.8822 52.718C50.9739 52.7261 51.0558 52.7599 51.128 52.8194C51.2001 52.8789 51.2663 52.9591 51.3265 53.06C51.3866 53.161 51.4457 53.2757 51.5037 53.4043L51.6056 53.6305L51.273 53.7804L51.1014 53.3996C51.0374 53.2577 50.9758 53.1594 50.9165 53.1048C50.8578 53.0485 50.7841 53.0404 50.6954 53.0803C50.6011 53.1228 50.554 53.1928 50.5539 53.2902C50.5537 53.3876 50.5999 53.5389 50.6923 53.744L51.247 54.9746C51.3479 55.1986 51.4351 55.352 51.5085 55.435C51.583 55.5174 51.6701 55.5362 51.7699 55.4912C51.8652 55.4482 51.9078 55.371 51.8976 55.2596C51.888 55.1465 51.832 54.9764 51.7296 54.7491L51.5579 54.3683L51.3201 54.4754L51.2002 54.2094L51.754 53.9598L52.4465 55.4964L52.2652 55.5781L52.1167 55.3729C52.1227 55.469 52.1018 55.5544 52.0542 55.6292C52.0071 55.7024 51.936 55.7605 51.8406 55.8035Z" fill="white"/>
<path d="M53.7187 54.9231L52.3996 51.9962L52.9883 51.7308C53.1047 51.6784 53.2077 51.6553 53.2973 51.6616C53.3879 51.6675 53.4691 51.6982 53.5409 51.7539C53.6127 51.8096 53.6785 51.886 53.7383 51.9831C53.7991 52.0797 53.8586 52.1923 53.9165 52.3209L53.9368 52.3658C54.0252 52.5621 54.0839 52.7337 54.1128 52.8807C54.1428 53.0273 54.1331 53.1523 54.0838 53.2559C54.0351 53.3579 53.937 53.4421 53.7895 53.5086L53.5451 53.6188L54.0629 54.7679L53.7187 54.9231ZM53.4161 53.3327L53.6257 53.2383C53.6933 53.2078 53.7358 53.166 53.7532 53.1128C53.7701 53.0585 53.7646 52.9843 53.7369 52.8901C53.7102 52.7954 53.6626 52.6721 53.5942 52.5202L53.5687 52.4637C53.4838 52.2752 53.4066 52.1426 53.3373 52.0657C53.2675 51.9878 53.1833 51.9711 53.0846 52.0156L52.8668 52.1138L53.4161 53.3327Z" fill="white"/>
<path d="M54.9493 54.3684L54.0743 51.2414L54.4884 51.0548L56.2914 53.7636L55.9671 53.9098L55.6321 53.3885L55.1016 53.6275L55.2769 54.2208L54.9493 54.3684ZM55.014 53.3309L55.463 53.1286L54.5348 51.6861L54.5298 51.6884L55.014 53.3309Z" fill="white"/>
<path d="M57.103 53.4379C56.9843 53.4913 56.8784 53.5137 56.7851 53.5051C56.6913 53.4953 56.6068 53.4601 56.5314 53.3994C56.456 53.3386 56.3865 53.2585 56.3231 53.1591C56.2602 53.0581 56.1995 52.9427 56.1411 52.813L56.0129 52.5286L56.3472 52.3779L56.4813 52.6756C56.5737 52.8807 56.6544 53.0211 56.7232 53.0968C56.7926 53.1709 56.8761 53.186 56.9736 53.142C57.0412 53.1115 57.0836 53.0738 57.1006 53.0288C57.1183 52.9821 57.1158 52.9219 57.0932 52.848C57.0706 52.7742 57.0336 52.6802 56.9821 52.566C56.9231 52.4351 56.8492 52.3331 56.7601 52.2599C56.6722 52.1861 56.5655 52.1255 56.4401 52.078L56.1626 51.9729C56.0817 51.9414 55.9996 51.9043 55.9165 51.8618C55.8328 51.8181 55.7539 51.7616 55.68 51.6922C55.6071 51.6224 55.546 51.5325 55.4965 51.4228C55.4301 51.2753 55.3881 51.1408 55.3707 51.0193C55.3533 50.8978 55.3724 50.7891 55.4279 50.6934C55.4835 50.5977 55.5866 50.5158 55.7374 50.4479C55.856 50.3944 55.9601 50.3722 56.0495 50.3812C56.1401 50.3898 56.2203 50.4243 56.2903 50.4848C56.3608 50.5437 56.4252 50.6228 56.4832 50.722C56.5424 50.8207 56.6004 50.9333 56.6574 51.0597L56.7353 51.2326L56.4061 51.381L56.3176 51.1848C56.2642 51.0662 56.2147 50.9697 56.1692 50.8955C56.1244 50.8197 56.0786 50.7683 56.0318 50.7414C55.9849 50.7145 55.9311 50.7147 55.8701 50.7422C55.8146 50.7672 55.7754 50.8016 55.7524 50.8453C55.7301 50.8874 55.7239 50.9402 55.7338 51.0037C55.7438 51.0672 55.7688 51.1434 55.8087 51.2321C55.8437 51.3097 55.8821 51.3697 55.9239 51.4122C55.9653 51.4536 56.0145 51.4874 56.0717 51.5137C56.13 51.5394 56.2001 51.5692 56.282 51.603L56.5768 51.7243C56.7315 51.7865 56.8729 51.8709 57.0009 51.9773C57.1295 52.082 57.2343 52.2242 57.3152 52.4038C57.3882 52.5657 57.4348 52.7121 57.4551 52.843C57.4765 52.9734 57.461 53.0884 57.4085 53.1881C57.3556 53.2867 57.2537 53.3699 57.103 53.4379Z" fill="white"/>
<path d="M58.4799 52.8173C58.3613 52.8708 58.2553 52.8932 58.1621 52.8845C58.0683 52.8748 57.9837 52.8395 57.9083 52.7788C57.833 52.7181 57.7635 52.638 57.7 52.5385C57.6372 52.4375 57.5765 52.3221 57.518 52.1924L57.3899 51.908L57.7241 51.7574L57.8583 52.0551C57.9507 52.2602 58.0313 52.4006 58.1001 52.4763C58.1695 52.5504 58.253 52.5654 58.3506 52.5215C58.4182 52.491 58.4606 52.4532 58.4776 52.4082C58.4953 52.3615 58.4928 52.3013 58.4702 52.2275C58.4476 52.1536 58.4105 52.0596 58.3591 51.9454C58.3001 51.8146 58.2261 51.7125 58.1371 51.6393C58.0492 51.5655 57.9425 51.5049 57.817 51.4574L57.5396 51.3523C57.4587 51.3208 57.3766 51.2837 57.2934 51.2412C57.2097 51.1976 57.1309 51.141 57.057 51.0717C56.9841 51.0018 56.923 50.912 56.8735 50.8022C56.807 50.6548 56.7651 50.5203 56.7477 50.3987C56.7303 50.2772 56.7493 50.1686 56.8049 50.0728C56.8604 49.9771 56.9636 49.8953 57.1144 49.8273C57.233 49.7738 57.3371 49.7516 57.4265 49.7607C57.517 49.7692 57.5973 49.8037 57.6673 49.8643C57.7378 49.9232 57.8021 50.0022 57.8602 50.1014C57.9193 50.2002 57.9774 50.3127 58.0344 50.4391L58.1123 50.612L57.783 50.7604L57.6946 50.5642C57.6411 50.4456 57.5917 50.3492 57.5462 50.2749C57.5014 50.1991 57.4555 50.1477 57.4087 50.1208C57.3619 50.0939 57.308 50.0942 57.247 50.1217C57.1916 50.1466 57.1524 50.181 57.1294 50.2247C57.107 50.2668 57.1008 50.3196 57.1108 50.3831C57.1208 50.4467 57.1457 50.5228 57.1857 50.6115C57.2207 50.6891 57.2591 50.7492 57.3009 50.7917C57.3422 50.8331 57.3915 50.8669 57.4487 50.8931C57.507 50.9189 57.5771 50.9486 57.659 50.9824L57.9537 51.1037C58.1085 51.166 58.2499 51.2503 58.3779 51.3567C58.5065 51.4615 58.6112 51.6037 58.6922 51.7833C58.7651 51.9451 58.8118 52.0915 58.8321 52.2224C58.8535 52.3528 58.838 52.4679 58.7855 52.5675C58.7326 52.6661 58.6307 52.7493 58.4799 52.8173Z" fill="white"/>
</g>
</g>
<g id="Group_8">
<g id="Group_9">
<path id="Vector_43" d="M69.8929 48.9861H32.7751C32.0399 48.9861 31.4438 49.5821 31.4438 50.3174V67.4657C31.4438 68.2009 32.0399 68.797 32.7751 68.797H69.8929C70.6281 68.797 71.2242 68.2009 71.2242 67.4657V50.3174C71.2242 49.5821 70.6281 48.9861 69.8929 48.9861Z" fill="white"/>
<path id="Vector_44" d="M72.5552 68.8007H81.594C82.3293 68.8007 82.9253 68.2046 82.9253 67.4694V50.3211C82.9253 49.5858 82.3293 48.9898 81.594 48.9898H72.5552C71.8199 48.9898 71.2239 49.5858 71.2239 50.3211V67.4694C71.2239 68.2046 71.8199 68.8007 72.5552 68.8007Z" fill="#ECEFF1"/>
<path id="Vector_45" d="M69.8927 48.9861H32.7712C32.0374 48.9861 31.4399 49.5798 31.4399 50.3174V54.7169H71.2203V50.3174C71.2203 49.5835 70.6265 48.9861 69.889 48.9861H69.8927Z" fill="#FF7F2C"/>
<path id="Vector_46" d="M81.594 48.9861H72.5515C71.8176 48.9861 71.2202 49.5798 71.2202 50.3174V54.7169H82.9216V50.3174C82.9216 49.5835 82.3279 48.9861 81.5903 48.9861H81.594Z" fill="#FF6604"/>
<path id="Vector_47" d="M73.6987 57.6303H80.4474" stroke="#B0BEC5" stroke-miterlimit="10"/>
<path id="Vector_48" d="M73.6987 60.8535H80.4474" stroke="#CFD8DC" stroke-miterlimit="10"/>
<path id="Vector_49" d="M73.6987 62.9334H80.4474" stroke="#CFD8DC" stroke-miterlimit="10"/>
<path id="Vector_50" d="M73.6987 65.017H80.4474" stroke="#CFD8DC" stroke-miterlimit="10"/>
<path id="Vector_51" d="M33.1289 57.6303H52.7038" stroke="#B0BEC5" stroke-miterlimit="10"/>
<path id="Vector_52" d="M33.1289 60.8535H42.9163" stroke="#CFD8DC" stroke-miterlimit="10"/>
<path id="Vector_53" d="M45.0591 60.8535H60.2455" stroke="#CFD8DC" stroke-miterlimit="10"/>
<path id="Vector_54" d="M33.1289 62.9334H47.0909" stroke="#CFD8DC" stroke-miterlimit="10"/>
<path id="Vector_55" d="M49.3921 62.9334H68.4175" stroke="#CFD8DC" stroke-miterlimit="10"/>
</g>
<path id="Vector_56" d="M36.1935 65.017H33.1289V66.8572H36.1935V65.017Z" fill="#80DEEA"/>
<path id="Vector_57" d="M40.11 65.017H37.0454V66.8572H40.11V65.017Z" fill="#80DEEA"/>
<g id="BOARDING PASS_2">
<path d="M34.0996 53.7102V50.4998H34.6797C34.8438 50.4998 34.9709 50.5241 35.0609 50.5727C35.1509 50.6214 35.2141 50.6986 35.2506 50.8044C35.2871 50.9102 35.3059 51.0494 35.3072 51.2221V51.2914C35.3072 51.4702 35.2901 51.6161 35.2561 51.7292C35.2233 51.8411 35.1594 51.922 35.0646 51.9718C35.1412 52.0022 35.2008 52.0551 35.2433 52.1305C35.2859 52.2059 35.3157 52.2965 35.3327 52.4023C35.3509 52.5081 35.3601 52.6218 35.3601 52.7434V52.8109C35.3576 53.0201 35.3363 53.1909 35.2962 53.3235C35.2573 53.456 35.1922 53.5539 35.101 53.6172C35.0098 53.6792 34.8852 53.7102 34.7271 53.7102H34.0996ZM34.4772 53.4056H34.7089C34.7806 53.4056 34.8359 53.3879 34.8748 53.3527C34.9138 53.3174 34.9411 53.256 34.9569 53.1684C34.9727 53.0797 34.9806 52.9568 34.9806 52.8V52.6887C34.9806 52.4905 34.9648 52.3482 34.9332 52.2619C34.9016 52.1743 34.8335 52.1305 34.7289 52.1305H34.4772V53.4056ZM34.4772 51.8405H34.6906C34.7417 51.8405 34.783 51.835 34.8147 51.8241C34.8463 51.8119 34.8706 51.7882 34.8876 51.7529C34.9059 51.7177 34.918 51.6654 34.9241 51.5961C34.9302 51.5268 34.9332 51.4337 34.9332 51.317V51.2276C34.9332 51.106 34.9241 51.0154 34.9059 50.9558C34.8876 50.8962 34.8584 50.8567 34.8183 50.8372C34.7794 50.8178 34.7277 50.8081 34.6633 50.8081H34.4772V51.8405Z" fill="white"/>
<path d="M36.3761 53.7467C36.2156 53.7467 36.0885 53.7114 35.9948 53.6409C35.9024 53.5703 35.8361 53.4639 35.796 53.3217C35.7571 53.1794 35.7376 53.0012 35.7376 52.7872V51.3717C35.7376 51.1869 35.7559 51.0263 35.7924 50.8901C35.8289 50.7539 35.8939 50.6481 35.9875 50.5727C36.0812 50.4974 36.2137 50.4597 36.3852 50.4597C36.5141 50.4597 36.6193 50.4815 36.7008 50.5253C36.7822 50.5679 36.8449 50.6293 36.8886 50.7096C36.9336 50.7886 36.9647 50.8841 36.9817 50.9959C36.9987 51.1078 37.0072 51.2331 37.0072 51.3717V52.7872C37.0072 53.0012 36.9878 53.1794 36.9488 53.3217C36.9111 53.4639 36.8461 53.5703 36.7537 53.6409C36.6625 53.7114 36.5366 53.7467 36.3761 53.7467ZM36.3761 53.422C36.4454 53.422 36.4983 53.4025 36.5348 53.3636C36.5713 53.3235 36.5962 53.2572 36.6096 53.1648C36.6229 53.0724 36.6296 52.9477 36.6296 52.7908V51.3498C36.6296 51.1577 36.6144 51.0154 36.584 50.923C36.5536 50.8306 36.4873 50.7843 36.3852 50.7843C36.2794 50.7843 36.2077 50.8306 36.17 50.923C36.1335 51.0142 36.1152 51.1559 36.1152 51.348V52.7908C36.1152 52.9489 36.1219 53.0742 36.1353 53.1666C36.1487 53.2578 36.1742 53.3235 36.2119 53.3636C36.2496 53.4025 36.3043 53.422 36.3761 53.422Z" fill="white"/>
<path d="M37.3246 53.7102L37.8116 50.4998H38.2658L38.7967 53.7102H38.441L38.3497 53.0973H37.7679L37.684 53.7102H37.3246ZM37.8098 52.7908H38.3023L38.0488 51.0944H38.0433L37.8098 52.7908Z" fill="white"/>
<path d="M39.1524 53.7102V50.4998H39.8254C39.9957 50.4998 40.1216 50.5302 40.203 50.591C40.2845 50.6506 40.3374 50.7412 40.3617 50.8628C40.3873 50.9832 40.4 51.1352 40.4 51.3188C40.4 51.517 40.38 51.6745 40.3398 51.7912C40.2997 51.908 40.2219 51.9834 40.1064 52.0174C40.1647 52.0272 40.2128 52.0521 40.2505 52.0922C40.2894 52.1324 40.3198 52.195 40.3417 52.2801C40.3635 52.3652 40.3787 52.4795 40.3873 52.623C40.397 52.7653 40.4019 52.9447 40.4019 53.1611C40.4019 53.1818 40.4019 53.2116 40.4019 53.2505C40.4019 53.2894 40.4025 53.332 40.4037 53.3782C40.4049 53.4244 40.4061 53.47 40.4073 53.515C40.4098 53.56 40.4128 53.6001 40.4164 53.6354C40.4201 53.6695 40.425 53.6944 40.431 53.7102H40.0553C40.0504 53.6992 40.0462 53.6749 40.0425 53.6372C40.0389 53.5995 40.0358 53.5497 40.0334 53.4877C40.031 53.4256 40.0291 53.3521 40.0279 53.2669C40.0267 53.1806 40.0261 53.0845 40.0261 52.9787C40.0261 52.8717 40.0261 52.755 40.0261 52.6285C40.0261 52.5069 40.0206 52.4145 40.0097 52.3512C39.9999 52.2868 39.9756 52.2424 39.9367 52.2181C39.899 52.1925 39.8382 52.1773 39.7543 52.1725L39.5299 52.1597V53.7102H39.1524ZM39.5299 51.8824H39.7707C39.84 51.8824 39.8929 51.8691 39.9294 51.8423C39.9671 51.8143 39.9927 51.7596 40.006 51.6782C40.0194 51.5955 40.0261 51.472 40.0261 51.3079V51.286C40.0261 51.1498 40.0194 51.047 40.006 50.9777C39.9939 50.9072 39.9695 50.8597 39.9331 50.8354C39.8966 50.8111 39.8412 50.7989 39.7671 50.7989H39.5299V51.8824Z" fill="white"/>
<path d="M40.867 53.7102V50.4998H41.4708C41.6386 50.4998 41.7693 50.5351 41.863 50.6056C41.9566 50.6749 42.0223 50.7746 42.06 50.9047C42.0977 51.0349 42.1165 51.1905 42.1165 51.3717L42.1183 52.7817C42.1183 52.9982 42.0964 53.1751 42.0527 53.3125C42.0101 53.4487 41.9402 53.5491 41.8429 53.6135C41.7468 53.678 41.6185 53.7102 41.458 53.7102H40.867ZM41.2428 53.4056H41.4361C41.5042 53.4056 41.5608 53.391 41.6058 53.3618C41.6508 53.3314 41.6842 53.2754 41.7061 53.194C41.7292 53.1125 41.7407 52.9945 41.7407 52.8401V51.3626C41.7407 51.1607 41.717 51.0166 41.6696 50.9303C41.6222 50.8427 41.5443 50.7989 41.4361 50.7989H41.2428V53.4056Z" fill="white"/>
<path d="M42.6072 53.7102V50.4998H42.9848V53.7102H42.6072Z" fill="white"/>
<path d="M43.5119 53.7102V50.4998H43.7965L44.5407 52.6851L44.5024 51.7566V50.4998H44.8362V53.7102H44.559L43.8384 51.5067L43.8603 52.3166V53.7102H43.5119Z" fill="white"/>
<path d="M45.9033 53.7412C45.7173 53.7412 45.5744 53.6646 45.4747 53.5114C45.3749 53.3581 45.3251 53.1058 45.3251 52.7544V51.4082C45.3251 51.2671 45.3348 51.1394 45.3543 51.0251C45.3749 50.9096 45.4096 50.8099 45.4582 50.726C45.5069 50.6421 45.5732 50.5776 45.6571 50.5326C45.7422 50.4876 45.8492 50.4651 45.9781 50.4651C46.1119 50.4651 46.2183 50.4882 46.2973 50.5344C46.3776 50.5794 46.4384 50.6439 46.4797 50.7278C46.5211 50.8117 46.5484 50.912 46.5618 51.0288C46.5752 51.1455 46.5819 51.2744 46.5819 51.4155V51.6636H46.2171V51.2458C46.2171 51.0902 46.2013 50.9753 46.1696 50.9011C46.1392 50.8257 46.0754 50.788 45.9781 50.788C45.8747 50.788 45.803 50.8324 45.7629 50.9212C45.7227 51.0099 45.7027 51.1668 45.7027 51.3918V52.7416C45.7027 52.9872 45.7191 53.163 45.7519 53.2688C45.786 53.3746 45.8577 53.4275 45.9672 53.4275C46.0717 53.4275 46.1423 53.3746 46.1788 53.2688C46.2165 53.1617 46.2353 52.9836 46.2353 52.7343V52.3166H45.9745V52.0247H46.5819V53.7102H46.3831L46.332 53.4621C46.2979 53.5521 46.2438 53.6214 46.1696 53.6701C46.0967 53.7175 46.0079 53.7412 45.9033 53.7412Z" fill="white"/>
<path d="M47.9773 53.7102V50.4998H48.623C48.7507 50.4998 48.8541 50.5211 48.9331 50.5636C49.0134 50.6062 49.0748 50.6676 49.1174 50.7479C49.1599 50.8281 49.1885 50.9248 49.2031 51.0379C49.2189 51.151 49.2268 51.2781 49.2268 51.4191V51.4684C49.2268 51.6836 49.2098 51.8642 49.1757 52.0101C49.1429 52.1561 49.0827 52.2661 48.9952 52.3403C48.9088 52.4133 48.7848 52.4497 48.623 52.4497H48.3549V53.7102H47.9773ZM48.3549 52.136H48.5847C48.6589 52.136 48.7149 52.1153 48.7526 52.074C48.7903 52.0314 48.8158 51.9615 48.8292 51.8642C48.8438 51.7669 48.8511 51.635 48.8511 51.4684V51.4064C48.8511 51.1996 48.8352 51.047 48.8036 50.9485C48.772 50.8488 48.7021 50.7989 48.5939 50.7989H48.3549V52.136Z" fill="white"/>
<path d="M49.3271 53.7102L49.8142 50.4998H50.2684L50.7992 53.7102H50.4435L50.3523 53.0973H49.7704L49.6865 53.7102H49.3271ZM49.8124 52.7908H50.3049L50.0513 51.0944H50.0458L49.8124 52.7908Z" fill="white"/>
<path d="M51.6729 53.7467C51.5428 53.7467 51.437 53.7236 51.3555 53.6774C51.2741 53.6299 51.2114 53.563 51.1677 53.4767C51.1239 53.3904 51.0935 53.2888 51.0765 53.1721C51.0606 53.0541 51.0527 52.924 51.0527 52.7817V52.4698H51.4194V52.7963C51.4194 53.0213 51.4352 53.1824 51.4668 53.2797C51.4996 53.3758 51.5696 53.4238 51.6766 53.4238C51.7508 53.4238 51.8049 53.4068 51.8389 53.3727C51.8742 53.3375 51.8967 53.2815 51.9064 53.2049C51.9161 53.1283 51.921 53.0274 51.921 52.9021C51.921 52.7586 51.8955 52.6352 51.8444 52.5318C51.7945 52.4285 51.7222 52.3294 51.6273 52.2345L51.4176 52.0247C51.3568 51.9627 51.2972 51.8952 51.2388 51.8223C51.1804 51.7481 51.1318 51.6642 51.0929 51.5705C51.0552 51.4769 51.0363 51.3699 51.0363 51.2495C51.0363 51.0878 51.0533 50.9479 51.0874 50.8299C51.1214 50.712 51.1835 50.6208 51.2735 50.5563C51.3634 50.4919 51.4911 50.4597 51.6565 50.4597C51.7866 50.4597 51.8906 50.4822 51.9684 50.5271C52.0475 50.5721 52.1065 50.6366 52.1454 50.7205C52.1855 50.8032 52.2116 50.9017 52.2238 51.016C52.2372 51.1303 52.2439 51.2568 52.2439 51.3954V51.5851H51.8827V51.3699C51.8827 51.2398 51.8772 51.1315 51.8663 51.0452C51.8566 50.9576 51.8359 50.892 51.8043 50.8482C51.7726 50.8044 51.7234 50.7825 51.6565 50.7825C51.5957 50.7825 51.5459 50.7977 51.5069 50.8281C51.4692 50.8573 51.4419 50.9029 51.4249 50.9649C51.4078 51.0269 51.3993 51.1066 51.3993 51.2039C51.3993 51.289 51.4097 51.3595 51.4303 51.4155C51.451 51.4702 51.482 51.5213 51.5234 51.5687C51.5659 51.6161 51.6176 51.6721 51.6784 51.7365L51.8973 51.9682C52.0128 52.0886 52.1071 52.2236 52.18 52.3731C52.2542 52.5215 52.2913 52.6942 52.2913 52.8912C52.2913 53.0687 52.2737 53.2213 52.2384 53.349C52.2044 53.4767 52.1429 53.5752 52.0542 53.6445C51.9654 53.7126 51.8383 53.7467 51.6729 53.7467Z" fill="white"/>
<path d="M53.1833 53.7467C53.0532 53.7467 52.9474 53.7236 52.8659 53.6774C52.7844 53.6299 52.7218 53.563 52.678 53.4767C52.6342 53.3904 52.6038 53.2888 52.5868 53.1721C52.571 53.0541 52.5631 52.924 52.5631 52.7817V52.4698H52.9297V52.7963C52.9297 53.0213 52.9455 53.1824 52.9772 53.2797C53.01 53.3758 53.0799 53.4238 53.1869 53.4238C53.2611 53.4238 53.3152 53.4068 53.3493 53.3727C53.3845 53.3375 53.407 53.2815 53.4168 53.2049C53.4265 53.1283 53.4314 53.0274 53.4314 52.9021C53.4314 52.7586 53.4058 52.6352 53.3547 52.5318C53.3049 52.4285 53.2325 52.3294 53.1377 52.2345L52.9279 52.0247C52.8671 51.9627 52.8075 51.8952 52.7491 51.8223C52.6908 51.7481 52.6421 51.6642 52.6032 51.5705C52.5655 51.4769 52.5467 51.3699 52.5467 51.2495C52.5467 51.0878 52.5637 50.9479 52.5977 50.8299C52.6318 50.712 52.6938 50.6208 52.7838 50.5563C52.8738 50.4919 53.0015 50.4597 53.1669 50.4597C53.297 50.4597 53.401 50.4822 53.4788 50.5271C53.5578 50.5721 53.6168 50.6366 53.6557 50.7205C53.6959 50.8032 53.722 50.9017 53.7342 51.016C53.7475 51.1303 53.7542 51.2568 53.7542 51.3954V51.5851H53.3931V51.3699C53.3931 51.2398 53.3876 51.1315 53.3766 51.0452C53.3669 50.9576 53.3462 50.892 53.3146 50.8482C53.283 50.8044 53.2337 50.7825 53.1669 50.7825C53.1061 50.7825 53.0562 50.7977 53.0173 50.8281C52.9796 50.8573 52.9522 50.9029 52.9352 50.9649C52.9182 51.0269 52.9097 51.1066 52.9097 51.2039C52.9097 51.289 52.92 51.3595 52.9407 51.4155C52.9614 51.4702 52.9924 51.5213 53.0337 51.5687C53.0763 51.6161 53.128 51.6721 53.1888 51.7365L53.4076 51.9682C53.5232 52.0886 53.6174 52.2236 53.6904 52.3731C53.7646 52.5215 53.8017 52.6942 53.8017 52.8912C53.8017 53.0687 53.784 53.2213 53.7488 53.349C53.7147 53.4767 53.6533 53.5752 53.5645 53.6445C53.4757 53.7126 53.3487 53.7467 53.1833 53.7467Z" fill="white"/>
</g>
</g>
</g>
</g>
</svg>
