<svg width="184" height="104" viewBox="0 0 184 104" fill="none" xmlns="http://www.w3.org/2000/svg">
<path d="M65.154 77.4346H15.8462C15.6736 77.4346 15.5028 77.4007 15.3433 77.3346C15.1839 77.2686 15.0391 77.1718 14.917 77.0498C14.795 76.9278 14.6982 76.7829 14.6322 76.6235C14.5662 76.4641 14.5322 76.2932 14.5322 76.1207V27.2385C14.5322 23.5223 17.3166 20.4993 20.7388 20.4993H60.2614C63.6837 20.4993 66.468 23.5223 66.468 27.2385V76.1207C66.468 76.2932 66.4341 76.4641 66.368 76.6235C66.302 76.7829 66.2052 76.9278 66.0832 77.0498C65.9612 77.1718 65.8163 77.2686 65.6569 77.3346C65.4974 77.4007 65.3266 77.4346 65.154 77.4346ZM17.16 74.8067H63.8402V27.2385C63.8402 24.9715 62.2348 23.1272 60.2615 23.1272H20.7388C18.7654 23.1272 17.1601 24.9715 17.1601 27.2385L17.16 74.8067Z" fill="#FFF"/>
<path d="M22.0888 84.5007H20.8382C19.5147 84.4992 18.2459 83.9728 17.31 83.037C16.3741 82.1012 15.8477 80.8323 15.8462 79.5088V76.4431C15.8462 76.0946 15.9846 75.7604 16.231 75.514C16.4775 75.2676 16.8117 75.1292 17.1602 75.1292C17.5086 75.1292 17.8428 75.2676 18.0893 75.514C18.3357 75.7604 18.4741 76.0946 18.4741 76.4431V79.5089C18.4749 80.1356 18.7242 80.7364 19.1674 81.1795C19.6106 81.6227 20.2115 81.8719 20.8382 81.8726H22.0888C22.7155 81.8719 23.3164 81.6227 23.7596 81.1795C24.2028 80.7363 24.4522 80.1355 24.4529 79.5087V76.4431C24.4529 76.0946 24.5914 75.7604 24.8378 75.514C25.0842 75.2676 25.4184 75.1292 25.7669 75.1292C26.1154 75.1292 26.4496 75.2676 26.696 75.514C26.9424 75.7604 27.0809 76.0946 27.0809 76.4431V79.5089C27.0794 80.8324 26.5529 82.1012 25.617 83.037C24.6812 83.9729 23.4123 84.4992 22.0888 84.5007Z" fill="#FFF"/>
<path d="M60.1621 84.5007H58.9112C57.5878 84.4992 56.3189 83.9728 55.3831 83.037C54.4473 82.1012 53.9209 80.8323 53.9194 79.5089V76.4431C53.9194 76.0946 54.0579 75.7604 54.3043 75.514C54.5507 75.2676 54.8849 75.1292 55.2334 75.1292C55.5819 75.1292 55.9161 75.2676 56.1625 75.514C56.4089 75.7604 56.5474 76.0946 56.5474 76.4431V79.5089C56.5481 80.1356 56.7973 80.7364 57.2405 81.1796C57.6837 81.6228 58.2845 81.872 58.9112 81.8728H60.1621C60.7888 81.872 61.3897 81.6228 61.8328 81.1796C62.276 80.7364 62.5253 80.1356 62.526 79.5089V76.4431C62.526 76.0946 62.6644 75.7604 62.9108 75.514C63.1572 75.2676 63.4915 75.1292 63.8399 75.1292C64.1884 75.1292 64.5226 75.2676 64.769 75.514C65.0155 75.7604 65.1539 76.0946 65.1539 76.4431V79.5089C65.1524 80.8323 64.6261 82.1012 63.6902 83.037C62.7544 83.9728 61.4855 84.4992 60.1621 84.5007Z" fill="#FFF"/>
<path d="M51.013 71.2974H29.9863C29.6378 71.2974 29.3036 71.1589 29.0572 70.9125C28.8108 70.6661 28.6724 70.3319 28.6724 69.9834C28.6724 69.6349 28.8108 69.3007 29.0572 69.0543C29.3036 68.8079 29.6378 68.6694 29.9863 68.6694H51.013C51.3615 68.6694 51.6957 68.8079 51.9422 69.0543C52.1886 69.3007 52.327 69.6349 52.327 69.9834C52.327 70.3319 52.1886 70.6661 51.9422 70.9125C51.6957 71.1589 51.3615 71.2974 51.013 71.2974Z" fill="#FFF"/>
<path d="M51.013 65.9455H29.9863C29.6378 65.9455 29.3036 65.8071 29.0572 65.5607C28.8108 65.3143 28.6724 64.9801 28.6724 64.6316C28.6724 64.2831 28.8108 63.9489 29.0572 63.7025C29.3036 63.4561 29.6378 63.3176 29.9863 63.3176H51.013C51.3615 63.3176 51.6957 63.4561 51.9422 63.7025C52.1886 63.9489 52.327 64.2831 52.327 64.6316C52.327 64.9801 52.1886 65.3143 51.9422 65.5607C51.6957 65.8071 51.3615 65.9455 51.013 65.9455Z" fill="#FFF"/>
<path d="M65.154 38.4299H15.8462C15.4977 38.4299 15.1635 38.2915 14.9171 38.0451C14.6707 37.7987 14.5322 37.4644 14.5322 37.116C14.5322 36.7675 14.6707 36.4333 14.9171 36.1869C15.1635 35.9404 15.4977 35.802 15.8462 35.802H65.154C65.5025 35.802 65.8367 35.9404 66.0831 36.1869C66.3295 36.4333 66.468 36.7675 66.468 37.116C66.468 37.4644 66.3295 37.7987 66.0831 38.0451C65.8367 38.2915 65.5025 38.4299 65.154 38.4299Z" fill="#FFF"/>
<path d="M65.154 59.5527H15.8462C15.4977 59.5527 15.1635 59.4143 14.9171 59.1679C14.6707 58.9215 14.5322 58.5872 14.5322 58.2388C14.5322 57.8903 14.6707 57.5561 14.9171 57.3097C15.1635 57.0632 15.4977 56.9248 15.8462 56.9248H65.154C65.5025 56.9248 65.8367 57.0632 66.0831 57.3097C66.3295 57.5561 66.468 57.8903 66.468 58.2388C66.468 58.5872 66.3295 58.9215 66.0831 59.1679C65.8367 59.4143 65.5025 59.5527 65.154 59.5527Z" fill="#FFF"/>
<path d="M40.5561 38.4298C40.3836 38.4298 40.2127 38.3959 40.0533 38.3298C39.8939 38.2638 39.749 38.167 39.627 38.045C39.505 37.923 39.4082 37.7781 39.3422 37.6187C39.2761 37.4593 39.2422 37.2884 39.2422 37.1159V21.8132C39.2422 21.4647 39.3806 21.1305 39.627 20.8841C39.8735 20.6377 40.2077 20.4993 40.5561 20.4993C40.9046 20.4993 41.2388 20.6377 41.4853 20.8841C41.7317 21.1305 41.8701 21.4647 41.8701 21.8132V37.1159C41.8701 37.2885 41.8361 37.4593 41.7701 37.6188C41.7041 37.7782 41.6073 37.923 41.4853 38.045C41.3633 38.167 41.2184 38.2638 41.059 38.3298C40.8996 38.3959 40.7287 38.4298 40.5561 38.4298Z" fill="#FFF"/>
<path d="M25.7668 65.9455H24.084C23.7355 65.9455 23.4013 65.8071 23.1549 65.5607C22.9085 65.3143 22.77 64.9801 22.77 64.6316C22.77 64.2831 22.9085 63.9489 23.1549 63.7025C23.4013 63.4561 23.7355 63.3176 24.084 63.3176H25.7668C26.1153 63.3176 26.4495 63.4561 26.6959 63.7025C26.9424 63.9489 27.0808 64.2831 27.0808 64.6316C27.0808 64.9801 26.9424 65.3143 26.6959 65.5607C26.4495 65.8071 26.1153 65.9455 25.7668 65.9455Z" fill="#FFF"/>
<path d="M56.9162 65.9455H55.2334C54.8849 65.9455 54.5507 65.8071 54.3043 65.5607C54.0579 65.3143 53.9194 64.9801 53.9194 64.6316C53.9194 64.2831 54.0579 63.9489 54.3043 63.7025C54.5507 63.4561 54.8849 63.3176 55.2334 63.3176H56.9162C57.2647 63.3176 57.5989 63.4561 57.8454 63.7025C58.0918 63.9489 58.2302 64.2831 58.2302 64.6316C58.2302 64.9801 58.0918 65.3143 57.8454 65.5607C57.5989 65.8071 57.2647 65.9455 56.9162 65.9455Z" fill="#FFF"/>
<path d="M11.2041 50.921C11.0315 50.921 10.8607 50.887 10.7012 50.821C10.5418 50.7549 10.397 50.6582 10.2749 50.5361C10.1529 50.4141 10.0561 50.2693 9.99012 50.1098C9.92409 49.9504 9.89012 49.7796 9.89014 49.607V39.9914C9.89014 39.643 10.0286 39.3088 10.275 39.0623C10.5214 38.8159 10.8556 38.6775 11.2041 38.6775C11.5526 38.6775 11.8868 38.8159 12.1332 39.0623C12.3796 39.3088 12.5181 39.643 12.5181 39.9914V49.607C12.5181 49.7796 12.4841 49.9504 12.4181 50.1098C12.352 50.2693 12.2553 50.4141 12.1332 50.5361C12.0112 50.6582 11.8664 50.7549 11.7069 50.821C11.5475 50.887 11.3767 50.921 11.2041 50.921Z" fill="#FFF"/>
<path d="M15.8465 49.323C15.6638 49.3232 15.483 49.2853 15.3158 49.2116C15.1486 49.1378 14.9986 49.03 14.8756 48.8949L10.2336 43.8085C10.1173 43.681 10.0272 43.5319 9.96849 43.3696C9.90979 43.2073 9.88363 43.035 9.89151 42.8626C9.89938 42.6902 9.94113 42.5211 10.0144 42.3648C10.0876 42.2085 10.1909 42.0682 10.3184 41.9519C10.4459 41.8355 10.595 41.7455 10.7573 41.6868C10.9196 41.6281 11.0919 41.6019 11.2643 41.6098C11.4367 41.6176 11.6059 41.6594 11.7621 41.7326C11.9184 41.8059 12.0587 41.9092 12.1751 42.0367L16.817 47.1231C16.9888 47.3112 17.1022 47.5453 17.1434 47.7968C17.1846 48.0482 17.1518 48.3062 17.0489 48.5394C16.9461 48.7725 16.7776 48.9707 16.5642 49.1098C16.3507 49.2489 16.1013 49.3231 15.8465 49.323Z" fill="#FFF"/>
<path d="M69.7959 50.921C69.6233 50.921 69.4525 50.887 69.293 50.821C69.1336 50.7549 68.9888 50.6582 68.8667 50.5361C68.7447 50.4141 68.6479 50.2693 68.5819 50.1098C68.5159 49.9504 68.4819 49.7796 68.4819 49.607V39.9914C68.4819 39.643 68.6204 39.3088 68.8668 39.0623C69.1132 38.8159 69.4474 38.6775 69.7959 38.6775C70.1444 38.6775 70.4786 38.8159 70.725 39.0623C70.9714 39.3088 71.1099 39.643 71.1099 39.9914V49.607C71.1099 49.7796 71.0759 49.9504 71.0099 50.1098C70.9438 50.2693 70.8471 50.4141 70.725 50.5361C70.603 50.6582 70.4582 50.7549 70.2987 50.821C70.1393 50.887 69.9684 50.921 69.7959 50.921Z" fill="#FFF"/>
<path d="M65.1535 49.3232C64.8987 49.3232 64.6494 49.2492 64.4359 49.1101C64.2224 48.9709 64.054 48.7727 63.9511 48.5396C63.8483 48.3065 63.8154 48.0485 63.8566 47.797C63.8978 47.5455 64.0112 47.3115 64.1831 47.1233L68.825 42.0369C68.9413 41.9095 69.0816 41.8061 69.2379 41.7329C69.3942 41.6596 69.5633 41.6179 69.7357 41.61C69.9081 41.6021 70.0804 41.6283 70.2427 41.687C70.405 41.7457 70.5541 41.8358 70.6816 41.9521C70.8091 42.0685 70.9124 42.2088 70.9856 42.3651C71.0589 42.5213 71.1007 42.6905 71.1085 42.8629C71.1164 43.0353 71.0902 43.2076 71.0315 43.3699C70.9728 43.5321 70.8827 43.6813 70.7664 43.8088L66.1245 48.8952C66.0014 49.0302 65.8514 49.1381 65.6842 49.2118C65.517 49.2855 65.3362 49.3234 65.1535 49.3232Z" fill="#FFF"/>
<path d="M168.154 77.4346H118.846C118.674 77.4346 118.503 77.4007 118.343 77.3346C118.184 77.2686 118.039 77.1718 117.917 77.0498C117.795 76.9278 117.698 76.7829 117.632 76.6235C117.566 76.4641 117.532 76.2932 117.532 76.1207V27.2385C117.532 23.5223 120.317 20.4993 123.739 20.4993H163.261C166.684 20.4993 169.468 23.5223 169.468 27.2385V76.1207C169.468 76.2932 169.434 76.4641 169.368 76.6235C169.302 76.7829 169.205 76.9278 169.083 77.0498C168.961 77.1718 168.816 77.2686 168.657 77.3346C168.497 77.4007 168.327 77.4346 168.154 77.4346ZM120.16 74.8067H166.84V27.2385C166.84 24.9715 165.235 23.1272 163.261 23.1272H123.739C121.765 23.1272 120.16 24.9715 120.16 27.2385L120.16 74.8067Z" fill="#FFF"/>
<path d="M125.089 84.5007H123.838C122.515 84.4992 121.246 83.9728 120.31 83.037C119.374 82.1012 118.848 80.8323 118.846 79.5088V76.4431C118.846 76.0946 118.985 75.7604 119.231 75.514C119.477 75.2676 119.812 75.1292 120.16 75.1292C120.509 75.1292 120.843 75.2676 121.089 75.514C121.336 75.7604 121.474 76.0946 121.474 76.4431V79.5089C121.475 80.1356 121.724 80.7364 122.167 81.1795C122.611 81.6227 123.211 81.8719 123.838 81.8726H125.089C125.716 81.8719 126.316 81.6227 126.76 81.1795C127.203 80.7363 127.452 80.1355 127.453 79.5087V76.4431C127.453 76.0946 127.591 75.7604 127.838 75.514C128.084 75.2676 128.418 75.1292 128.767 75.1292C129.115 75.1292 129.45 75.2676 129.696 75.514C129.942 75.7604 130.081 76.0946 130.081 76.4431V79.5089C130.079 80.8324 129.553 82.1012 128.617 83.037C127.681 83.9729 126.412 84.4992 125.089 84.5007Z" fill="#FFF"/>
<path d="M163.162 84.5007H161.911C160.588 84.4992 159.319 83.9728 158.383 83.037C157.447 82.1012 156.921 80.8323 156.919 79.5089V76.4431C156.919 76.0946 157.058 75.7604 157.304 75.514C157.551 75.2676 157.885 75.1292 158.233 75.1292C158.582 75.1292 158.916 75.2676 159.163 75.514C159.409 75.7604 159.547 76.0946 159.547 76.4431V79.5089C159.548 80.1356 159.797 80.7364 160.241 81.1796C160.684 81.6228 161.285 81.872 161.911 81.8728H163.162C163.789 81.872 164.39 81.6228 164.833 81.1796C165.276 80.7364 165.525 80.1356 165.526 79.5089V76.4431C165.526 76.0946 165.664 75.7604 165.911 75.514C166.157 75.2676 166.491 75.1292 166.84 75.1292C167.188 75.1292 167.523 75.2676 167.769 75.514C168.015 75.7604 168.154 76.0946 168.154 76.4431V79.5089C168.152 80.8323 167.626 82.1012 166.69 83.037C165.754 83.9728 164.486 84.4992 163.162 84.5007Z" fill="#FFF"/>
<path d="M154.013 71.2974H132.986C132.638 71.2974 132.304 71.1589 132.057 70.9125C131.811 70.6661 131.672 70.3319 131.672 69.9834C131.672 69.6349 131.811 69.3007 132.057 69.0543C132.304 68.8079 132.638 68.6694 132.986 68.6694H154.013C154.362 68.6694 154.696 68.8079 154.942 69.0543C155.189 69.3007 155.327 69.6349 155.327 69.9834C155.327 70.3319 155.189 70.6661 154.942 70.9125C154.696 71.1589 154.362 71.2974 154.013 71.2974Z" fill="#FFF"/>
<path d="M154.013 65.9455H132.986C132.638 65.9455 132.304 65.8071 132.057 65.5607C131.811 65.3143 131.672 64.9801 131.672 64.6316C131.672 64.2831 131.811 63.9489 132.057 63.7025C132.304 63.4561 132.638 63.3176 132.986 63.3176H154.013C154.362 63.3176 154.696 63.4561 154.942 63.7025C155.189 63.9489 155.327 64.2831 155.327 64.6316C155.327 64.9801 155.189 65.3143 154.942 65.5607C154.696 65.8071 154.362 65.9455 154.013 65.9455Z" fill="#FFF"/>
<path d="M168.154 38.4299H118.846C118.498 38.4299 118.163 38.2915 117.917 38.0451C117.671 37.7987 117.532 37.4644 117.532 37.116C117.532 36.7675 117.671 36.4333 117.917 36.1869C118.163 35.9404 118.498 35.802 118.846 35.802H168.154C168.502 35.802 168.837 35.9404 169.083 36.1869C169.33 36.4333 169.468 36.7675 169.468 37.116C169.468 37.4644 169.33 37.7987 169.083 38.0451C168.837 38.2915 168.502 38.4299 168.154 38.4299Z" fill="#FFF"/>
<path d="M168.154 59.5527H118.846C118.498 59.5527 118.163 59.4143 117.917 59.1679C117.671 58.9215 117.532 58.5872 117.532 58.2388C117.532 57.8903 117.671 57.5561 117.917 57.3097C118.163 57.0632 118.498 56.9248 118.846 56.9248H168.154C168.502 56.9248 168.837 57.0632 169.083 57.3097C169.33 57.5561 169.468 57.8903 169.468 58.2388C169.468 58.5872 169.33 58.9215 169.083 59.1679C168.837 59.4143 168.502 59.5527 168.154 59.5527Z" fill="#FFF"/>
<path d="M143.556 38.4298C143.384 38.4298 143.213 38.3959 143.053 38.3298C142.894 38.2638 142.749 38.167 142.627 38.045C142.505 37.923 142.408 37.7781 142.342 37.6187C142.276 37.4593 142.242 37.2884 142.242 37.1159V21.8132C142.242 21.4647 142.381 21.1305 142.627 20.8841C142.873 20.6377 143.208 20.4993 143.556 20.4993C143.905 20.4993 144.239 20.6377 144.485 20.8841C144.732 21.1305 144.87 21.4647 144.87 21.8132V37.1159C144.87 37.2885 144.836 37.4593 144.77 37.6188C144.704 37.7782 144.607 37.923 144.485 38.045C144.363 38.167 144.218 38.2638 144.059 38.3298C143.9 38.3959 143.729 38.4298 143.556 38.4298Z" fill="#FFF"/>
<path d="M128.767 65.9455H127.084C126.735 65.9455 126.401 65.8071 126.155 65.5607C125.908 65.3143 125.77 64.9801 125.77 64.6316C125.77 64.2831 125.908 63.9489 126.155 63.7025C126.401 63.4561 126.735 63.3176 127.084 63.3176H128.767C129.115 63.3176 129.45 63.4561 129.696 63.7025C129.942 63.9489 130.081 64.2831 130.081 64.6316C130.081 64.9801 129.942 65.3143 129.696 65.5607C129.45 65.8071 129.115 65.9455 128.767 65.9455Z" fill="#FFF"/>
<path d="M159.916 65.9455H158.233C157.885 65.9455 157.551 65.8071 157.304 65.5607C157.058 65.3143 156.919 64.9801 156.919 64.6316C156.919 64.2831 157.058 63.9489 157.304 63.7025C157.551 63.4561 157.885 63.3176 158.233 63.3176H159.916C160.265 63.3176 160.599 63.4561 160.845 63.7025C161.092 63.9489 161.23 64.2831 161.23 64.6316C161.23 64.9801 161.092 65.3143 160.845 65.5607C160.599 65.8071 160.265 65.9455 159.916 65.9455Z" fill="#FFF"/>
<path d="M114.204 50.921C114.032 50.921 113.861 50.887 113.701 50.821C113.542 50.7549 113.397 50.6582 113.275 50.5361C113.153 50.4141 113.056 50.2693 112.99 50.1098C112.924 49.9504 112.89 49.7796 112.89 49.607V39.9914C112.89 39.643 113.029 39.3088 113.275 39.0623C113.521 38.8159 113.856 38.6775 114.204 38.6775C114.553 38.6775 114.887 38.8159 115.133 39.0623C115.38 39.3088 115.518 39.643 115.518 39.9914V49.607C115.518 49.7796 115.484 49.9504 115.418 50.1098C115.352 50.2693 115.255 50.4141 115.133 50.5361C115.011 50.6582 114.866 50.7549 114.707 50.821C114.548 50.887 114.377 50.921 114.204 50.921Z" fill="#FFF"/>
<path d="M118.847 49.323C118.664 49.3232 118.483 49.2853 118.316 49.2116C118.149 49.1378 117.999 49.03 117.876 48.8949L113.234 43.8085C113.117 43.681 113.027 43.5319 112.968 43.3696C112.91 43.2073 112.884 43.035 112.892 42.8626C112.899 42.6902 112.941 42.5211 113.014 42.3648C113.088 42.2085 113.191 42.0682 113.318 41.9519C113.446 41.8355 113.595 41.7455 113.757 41.6868C113.92 41.6281 114.092 41.6019 114.264 41.6098C114.437 41.6176 114.606 41.6594 114.762 41.7326C114.918 41.8059 115.059 41.9092 115.175 42.0367L119.817 47.1231C119.989 47.3112 120.102 47.5453 120.143 47.7968C120.185 48.0482 120.152 48.3062 120.049 48.5394C119.946 48.7725 119.778 48.9707 119.564 49.1098C119.351 49.2489 119.101 49.3231 118.847 49.323Z" fill="#FFF"/>
<path d="M172.796 50.921C172.623 50.921 172.452 50.887 172.293 50.821C172.134 50.7549 171.989 50.6582 171.867 50.5361C171.745 50.4141 171.648 50.2693 171.582 50.1098C171.516 49.9504 171.482 49.7796 171.482 49.607V39.9914C171.482 39.643 171.62 39.3088 171.867 39.0623C172.113 38.8159 172.447 38.6775 172.796 38.6775C173.144 38.6775 173.479 38.8159 173.725 39.0623C173.971 39.3088 174.11 39.643 174.11 39.9914V49.607C174.11 49.7796 174.076 49.9504 174.01 50.1098C173.944 50.2693 173.847 50.4141 173.725 50.5361C173.603 50.6582 173.458 50.7549 173.299 50.821C173.139 50.887 172.968 50.921 172.796 50.921Z" fill="#FFF"/>
<path d="M168.154 49.3232C167.899 49.3232 167.649 49.2492 167.436 49.1101C167.222 48.9709 167.054 48.7727 166.951 48.5396C166.848 48.3065 166.815 48.0485 166.857 47.797C166.898 47.5455 167.011 47.3115 167.183 47.1233L171.825 42.0369C171.941 41.9095 172.082 41.8061 172.238 41.7329C172.394 41.6596 172.563 41.6179 172.736 41.61C172.908 41.6021 173.08 41.6283 173.243 41.687C173.405 41.7457 173.554 41.8358 173.682 41.9521C173.809 42.0685 173.912 42.2088 173.986 42.3651C174.059 42.5213 174.101 42.6905 174.109 42.8629C174.116 43.0353 174.09 43.2076 174.032 43.3699C173.973 43.5321 173.883 43.6813 173.766 43.8088L169.124 48.8952C169.001 49.0302 168.851 49.1381 168.684 49.2118C168.517 49.2855 168.336 49.3234 168.154 49.3232Z" fill="#FFF"/>
<path d="M81 51C80.4477 51 80 51.4477 80 52C80 52.5523 80.4477 53 81 53V51ZM103.707 52.7071C104.098 52.3166 104.098 51.6834 103.707 51.2929L97.3431 44.9289C96.9526 44.5384 96.3195 44.5384 95.9289 44.9289C95.5384 45.3195 95.5384 45.9526 95.9289 46.3431L101.586 52L95.9289 57.6569C95.5384 58.0474 95.5384 58.6805 95.9289 59.0711C96.3195 59.4616 96.9526 59.4616 97.3431 59.0711L103.707 52.7071ZM81 53H103V51H81V53Z" fill="#FFF"/>
</svg>
