<svg width="50" height="24" viewBox="0 0 50 24" fill="none" xmlns="http://www.w3.org/2000/svg">
<path d="M0.509692 10.5499L9.80472 0.981541C10.1351 0.664635 10.5721 0.492111 11.0236 0.500313C11.4751 0.508512 11.9059 0.696798 12.2252 1.0255C12.5445 1.35421 12.7274 1.79767 12.7354 2.26246C12.7434 2.72725 12.5758 3.17707 12.2679 3.51717L5.95019 10.0237L48.2164 10.0237C48.6786 10.0237 49.1219 10.2127 49.4488 10.5492C49.7756 10.8856 49.9592 11.3419 49.9592 11.8178C49.9592 12.2936 49.7756 12.7499 49.4488 13.0864C49.1219 13.4228 48.6786 13.6118 48.2164 13.6118L5.95019 13.6118L12.2679 20.1184C12.5758 20.4585 12.7434 20.9083 12.7354 21.3731C12.7274 21.8379 12.5445 22.2813 12.2252 22.61C11.9059 22.9387 11.4751 23.127 11.0236 23.1352C10.5721 23.1434 10.1351 22.9709 9.80472 22.654L0.509692 13.0856C0.18332 12.7492 0 12.2932 0 11.8178C0 11.3423 0.18332 10.8863 0.509692 10.5499Z" fill="#40A6FF"/>
</svg>
