<svg width="50" height="24" viewBox="0 0 50 24" fill="none" xmlns="http://www.w3.org/2000/svg">
<path id="Vector" d="M0.509692 10.5236L9.80472 0.955173C10.1351 0.638268 10.5721 0.465744 11.0236 0.473946C11.4751 0.482145 11.9059 0.670431 12.2252 0.999136C12.5445 1.32784 12.7274 1.77131 12.7354 2.23609C12.7434 2.70088 12.5758 3.15071 12.2679 3.4908L5.95019 9.99732L48.2164 9.99732C48.6786 9.99732 49.1219 10.1863 49.4488 10.5228C49.7756 10.8592 49.9592 11.3156 49.9592 11.7914C49.9592 12.2672 49.7756 12.7235 49.4488 13.06C49.1219 13.3965 48.6786 13.5855 48.2164 13.5855L5.95019 13.5855L12.2679 20.092C12.5758 20.4321 12.7434 20.8819 12.7354 21.3467C12.7274 21.8115 12.5445 22.255 12.2252 22.5837C11.9059 22.9124 11.4751 23.1007 11.0236 23.1089C10.5721 23.1171 10.1351 22.9445 9.80472 22.6276L0.509692 13.0592C0.18332 12.7228 0 12.2668 0 11.7914C0 11.316 0.18332 10.86 0.509692 10.5236Z" fill="white"/>
</svg>
