<svg width="23" height="11" viewBox="0 0 23 11" fill="none" xmlns="http://www.w3.org/2000/svg">
<path id="Vector" d="M5.25066 9.70994L2.36212 6.73508L1.53843 5.88676L2.72084 5.88676L22.0464 5.88676C22.1204 5.88676 22.1944 5.85665 22.2512 5.79811C22.3086 5.73908 22.3433 5.656 22.3433 5.56645C22.3433 5.4769 22.3086 5.39383 22.2512 5.3348C22.1944 5.27626 22.1204 5.24614 22.0464 5.24614L2.72084 5.24614L1.53843 5.24614L2.36212 4.39783L5.24325 1.4306C5.29484 1.37109 5.32479 1.29106 5.32333 1.20601C5.32183 1.11858 5.28735 1.03791 5.23135 0.980259C5.17577 0.923053 5.10381 0.892961 5.03149 0.891647C4.96126 0.890372 4.89069 0.916224 4.83431 0.967974L0.592117 5.33494L5.25066 9.70994ZM5.25066 9.70994C5.30792 9.76896 5.34256 9.85197 5.34256 9.94145C5.34256 10.0309 5.30799 10.1138 5.25082 10.1728C5.19401 10.2311 5.12019 10.261 5.04639 10.261M5.25066 9.70994L5.04639 10.261M5.04639 10.261C4.97246 10.261 4.89853 10.231 4.84168 10.1725L0.592117 5.79797M5.04639 10.261L0.592117 5.79797M0.592117 5.79797C0.534851 5.73895 0.500214 5.65593 0.500214 5.56645M0.592117 5.79797L0.500214 5.56645M0.500214 5.56645C0.500214 5.47708 0.534763 5.39417 0.591902 5.33516L0.500214 5.56645Z" fill="#40A6FF" stroke="#40A6FF"/>
</svg>
