<svg width="326" height="118" viewBox="0 0 326 118" fill="none" xmlns="http://www.w3.org/2000/svg">
<path opacity="0.1" fill-rule="evenodd" clip-rule="evenodd" d="M26.0786 30.308L6.84232 6.66491H257.242C274.26 6.66491 288.784 18.9996 291.561 35.8237L291.699 36.661H279.361V39.9935H292.249L304.02 111.335H274.451L273.006 108.193C269.378 100.308 261.499 95.2532 252.824 95.2532C242.471 95.2532 233.494 102.412 231.172 112.507L230.847 113.921L237.342 115.414L237.667 114.001C239.295 106.926 245.582 101.918 252.824 101.918C258.892 101.918 264.409 105.454 266.951 110.979L270.181 118H311.875L299.004 39.9935H322.165V63.7752H325.497V36.661H298.454L298.137 34.7386C294.831 14.7027 277.529 0 257.242 0H6.5203C1.02707 0 -1.98354 6.37774 1.47282 10.6259L21.904 35.7376L21.9088 35.7436L37.9644 55.5702L56.775 77.3922C58.0107 78.8258 59.8096 79.6511 61.7033 79.6511H172.048C174.149 79.6511 176.119 78.6372 177.341 76.9297L192.672 55.5042L234.142 54.9099L234.047 48.2457L192.497 48.8411C190.429 48.8706 188.5 49.8816 187.297 51.5618L171.967 72.9862H61.7763L47.6976 56.6536L119.483 55.5282L119.378 48.8641L42.0912 50.0758L31.4805 36.9729H119.431V30.308H26.0786Z" fill="#40A6FF"/>
</svg>
