<svg xmlns="http://www.w3.org/2000/svg" width="47" height="18" viewBox="0 0 47 18" fill="none">
    <path fill-rule="evenodd" clip-rule="evenodd" d="M4.42523 4.96542L1.74021 1.66329H36.6912C39.0667 1.66329 41.094 3.38602 41.4815 5.73579L41.5007 5.85238H39.7771V6.31782H41.5775L43.2206 16.2822H39.0933L38.8916 15.8434C38.3853 14.7421 37.2855 14.0361 36.0746 14.0361C34.6295 14.0361 33.3765 15.0359 33.0523 16.4459L33.007 16.6433L33.9136 16.8519L33.959 16.6545C34.1862 15.6663 35.0638 14.967 36.0746 14.967C36.9216 14.967 37.6917 15.4608 38.0464 16.2324L38.4972 17.2131H44.317L42.5203 6.31782H45.7516V9.63933H46.2168V5.85238H42.4436L42.3994 5.58424C41.9379 2.7859 39.523 0.732422 36.6912 0.732422H1.69527C0.928516 0.732422 0.508292 1.62318 0.990735 2.21651L3.84254 5.72376L3.84322 5.7246L6.08427 8.49372L8.70987 11.5415C8.88235 11.7417 9.13344 11.857 9.39777 11.857H24.7999C25.093 11.857 25.368 11.7154 25.5386 11.4769L27.6785 8.4845L33.467 8.40149L33.4536 7.47072L27.654 7.55389C27.3654 7.55801 27.0962 7.69921 26.9283 7.93387L24.7885 10.9261H9.40796L7.44284 8.64503L17.4627 8.48784L17.4481 7.55709L6.66029 7.72632L5.17924 5.89629H17.4554V4.96542H4.42523Z" fill="#40A6FF"/>
</svg>