<svg width="26" height="26" viewBox="0 0 26 26" fill="none" xmlns="http://www.w3.org/2000/svg">
<g id="money-bill" clip-path="url(#clip0_240_24115)">
<path id="Vector" d="M24.4688 4.69763H1.96875C1.27852 4.69763 0.71875 5.2574 0.71875 5.94763V18.4476C0.71875 19.1379 1.27852 19.6976 1.96875 19.6976H24.4688C25.159 19.6976 25.7188 19.1379 25.7188 18.4476V5.94763C25.7188 5.2574 25.159 4.69763 24.4688 4.69763ZM2.59375 17.8226V15.3226C3.97461 15.3226 5.09375 16.4418 5.09375 17.8226H2.59375ZM2.59375 9.07263V6.57263H5.09375C5.09375 7.95349 3.97461 9.07263 2.59375 9.07263ZM13.2188 15.9476C11.4926 15.9476 10.0938 14.2683 10.0938 12.1976C10.0938 10.1265 11.493 8.44763 13.2188 8.44763C14.9445 8.44763 16.3438 10.1265 16.3438 12.1976C16.3438 14.2691 14.9441 15.9476 13.2188 15.9476ZM23.8438 17.8226H21.3438C21.3438 16.4418 22.4629 15.3226 23.8438 15.3226V17.8226ZM23.8438 9.07263C22.4629 9.07263 21.3438 7.95349 21.3438 6.57263H23.8438V9.07263Z" fill="#40A6FF"/>
</g>
<defs>
<clipPath id="clip0_240_24115">
<rect width="25" height="25" fill="white" transform="translate(0.71875 0.180176)"/>
</clipPath>
</defs>
</svg>
