<svg width="24" height="28" viewBox="0 0 24 28" fill="none" xmlns="http://www.w3.org/2000/svg">
<g id="ph:clock-light" clip-path="url(#clip0_322_24669)">
<path id="Vector" d="M11.8496 3.40723C9.64312 3.40723 7.48617 4.03816 5.65153 5.22024C3.8169 6.40233 2.38697 8.08247 1.54258 10.0482C0.698193 12.0139 0.477262 14.177 0.907729 16.2638C1.3382 18.3506 2.40072 20.2675 3.96095 21.772C5.52118 23.2765 7.50904 24.3011 9.67314 24.7161C11.8372 25.1312 14.0804 24.9182 16.1189 24.104C18.1575 23.2897 19.8998 21.9109 21.1257 20.1418C22.3516 18.3726 23.0059 16.2927 23.0059 14.165C23.0024 11.3129 21.8259 8.57857 19.7344 6.56182C17.643 4.54506 14.8074 3.41058 11.8496 3.40723ZM11.8496 23.6572C9.9027 23.6572 7.99952 23.1005 6.38072 22.0575C4.76192 21.0145 3.50023 19.532 2.75518 17.7975C2.01013 16.0631 1.81519 14.1545 2.19501 12.3132C2.57483 10.4719 3.51236 8.78056 4.88903 7.45305C6.26571 6.12554 8.01969 5.2215 9.92919 4.85524C11.8387 4.48898 13.8179 4.67696 15.6167 5.3954C17.4154 6.11384 18.9527 7.33048 20.0344 8.89146C21.116 10.4524 21.6934 12.2877 21.6934 14.165C21.6905 16.6817 20.6524 19.0944 18.807 20.8739C16.9616 22.6535 14.4595 23.6544 11.8496 23.6572ZM18.6309 14.165C18.6309 14.3329 18.5617 14.4938 18.4387 14.6125C18.3156 14.7312 18.1487 14.7979 17.9746 14.7979H11.8496C11.6756 14.7979 11.5086 14.7312 11.3856 14.6125C11.2625 14.4938 11.1934 14.3329 11.1934 14.165V8.25879C11.1934 8.09096 11.2625 7.93 11.3856 7.81132C11.5086 7.69265 11.6756 7.62598 11.8496 7.62598C12.0237 7.62598 12.1906 7.69265 12.3137 7.81132C12.4367 7.93 12.5059 8.09096 12.5059 8.25879V13.5322H17.9746C18.1487 13.5322 18.3156 13.5989 18.4387 13.7176C18.5617 13.8362 18.6309 13.9972 18.6309 14.165Z" fill="white"/>
</g>
<defs>
<clipPath id="clip0_322_24669">
<rect width="23" height="27" fill="white" transform="translate(0.693359 0.665039)"/>
</clipPath>
</defs>
</svg>
