<svg width="251" height="31" viewBox="0 0 251 31" fill="none" xmlns="http://www.w3.org/2000/svg">
<g id="logo-dark" clip-path="url(#clip0_697_930)">
<path id="Union" fill-rule="evenodd" clip-rule="evenodd" d="M7.40805 7.94296L2.34454 1.71566H68.2564C72.7361 1.71566 76.5594 4.96446 77.2901 9.39574L77.3263 9.61522H74.0786V10.493H77.471L80.5699 29.2845H72.7864L72.4059 28.457C71.4511 26.3801 69.3771 25.0488 67.0937 25.0488C64.3683 25.0488 62.0054 26.9343 61.3941 29.5933L61.3086 29.9656L63.0183 30.3589L63.1039 29.9867C63.5323 28.1231 65.1874 26.8042 67.0937 26.8042C68.6909 26.8042 70.1432 27.7355 70.8121 29.1906L71.6623 31.04H82.6375L79.2492 10.493H85.3457V16.7568H86.2229V9.61522H79.1044L79.0211 9.10994C78.1508 3.83273 73.5966 -0.0397949 68.2564 -0.0397949H2.25978C0.813811 -0.0397949 0.0213367 1.64002 0.931144 2.75895L6.30919 9.37306L6.31046 9.37463L10.5367 14.5967L15.4882 20.3444C15.8134 20.722 16.287 20.9394 16.7854 20.9394H45.8313C46.3842 20.9394 46.9027 20.6723 47.2243 20.2226L51.2599 14.5794L62.176 14.4228L62.1509 12.6675L51.2138 12.8244C50.6694 12.8321 50.1617 13.0984 49.8452 13.541L45.8098 19.1839H16.8047L13.0988 14.8821L31.9946 14.5857L31.9671 12.8304L11.623 13.1496L8.82998 9.69841H31.9808V7.94296H7.40805Z" fill="#40A6FF"/>
<path id="Vector" d="M109.56 1.17285H111.808C112.065 1.17285 112.229 1.31361 112.229 1.5482V17.2191C112.229 17.4303 112.065 17.5945 111.808 17.5945H111.737C110.871 17.5945 109.841 17.5006 109.841 16.445L109.794 4.57447C109.794 4.33988 109.701 4.31642 109.56 4.52755L101.694 15.577C101.553 15.7646 101.296 15.8819 101.038 15.8819H100.523C100.266 15.8819 100.008 15.7646 99.8677 15.577L89.8711 1.50128C89.7072 1.29015 89.8008 1.17285 90.0584 1.17285H92.0015C92.259 1.17285 92.5166 1.29015 92.657 1.50128L100.804 12.8557L108.928 1.50128C109.045 1.29015 109.303 1.17285 109.56 1.17285ZM126.252 1.50128L136.272 17.2426C136.389 17.4303 136.295 17.5945 136.037 17.5945H133.977C133.72 17.5945 133.462 17.4303 133.322 17.2426L131.144 13.8175C131.051 13.6064 130.77 13.4891 130.466 13.4891H125.128C124.87 13.4891 124.706 13.3483 124.706 13.1137V12.9495C124.706 12.1988 124.823 11.3308 126.017 11.3308H129.67C128.007 8.7268 126.369 6.09934 124.706 3.47188L116.185 17.2426C116.044 17.4303 115.787 17.5945 115.529 17.5945H113.539C113.282 17.5945 113.165 17.4303 113.305 17.2426L123.325 1.50128C123.442 1.29015 123.7 1.17285 123.957 1.17285H125.619C125.877 1.17285 126.134 1.29015 126.252 1.50128ZM155.899 1.47782L148.22 9.10215L156.554 17.3364C156.718 17.5006 156.648 17.6179 156.39 17.6179H153.862C153.604 17.6179 153.347 17.5006 153.16 17.3364L146.464 10.7912L139.838 17.3364C139.675 17.5006 139.37 17.6179 139.113 17.6179H136.655C136.397 17.6179 136.327 17.5006 136.491 17.3364L144.778 9.19599L137.076 1.47782C136.912 1.33707 136.959 1.21977 137.216 1.21977H139.37C139.815 1.21977 140.33 1.40745 140.681 1.7828C142.601 3.68301 144.544 5.63015 146.44 7.53036L152.551 1.47782C152.762 1.33707 153.019 1.21977 153.277 1.21977H155.735C155.992 1.21977 156.063 1.33707 155.899 1.47782Z" fill="#434343"/>
<path id="Vector_2" d="M157.135 1.21977H173.664C173.921 1.21977 174.085 1.36053 174.085 1.59512V2.97923C174.085 3.19037 173.945 3.35458 173.664 3.35458H166.687L166.711 17.2426C166.711 17.4772 166.547 17.6179 166.289 17.6179H164.533C164.276 17.6179 164.112 17.4772 164.112 17.2426V3.75339C164.112 3.5188 163.948 3.35458 163.69 3.35458H158.025C157.299 3.35458 156.737 2.86193 156.737 2.22853V1.59512C156.737 1.36053 156.878 1.21977 157.135 1.21977ZM183.342 1.21977C188.961 1.21977 192.262 3.26074 192.262 6.80312C192.285 9.40712 190.529 11.3308 187.462 12.105L192.566 17.3364C192.777 17.5006 192.706 17.6179 192.449 17.6179H190.435C189.944 17.6179 189.429 17.3599 189.078 16.9845L185.121 12.7618C185.004 12.6211 184.7 12.5272 184.395 12.5272C183.482 12.5742 182.546 12.5742 181.609 12.5742C180.884 12.5742 180.181 12.5742 179.479 12.5742C178.753 12.5507 178.051 12.5507 177.325 12.5507L177.349 17.2426C177.349 17.4772 177.185 17.6179 176.927 17.6179H175.171C174.914 17.6179 174.75 17.4772 174.75 17.2426V10.7912C174.75 10.5801 174.914 10.3924 175.171 10.3924H183.342C187.486 10.3924 189.78 9.14907 189.78 6.89696C189.78 4.62139 187.486 3.35458 183.342 3.35458H176.037C175.312 3.35458 174.75 2.86193 174.75 2.22853V1.59512C174.75 1.36053 174.89 1.21977 175.148 1.21977H183.342ZM205.876 1.50128L215.896 17.2426C216.013 17.4303 215.92 17.5945 215.662 17.5945H213.602C213.344 17.5945 213.087 17.4303 212.946 17.2426L210.769 13.8175C210.675 13.6064 210.394 13.4891 210.09 13.4891H204.752C204.495 13.4891 204.331 13.3483 204.331 13.1137V12.9495C204.331 12.1988 204.448 11.3308 205.642 11.3308H209.294C207.632 8.7268 205.993 6.09934 204.331 3.47188L195.809 17.2426C195.669 17.4303 195.411 17.5945 195.154 17.5945H193.164C192.906 17.5945 192.789 17.4303 192.93 17.2426L202.95 1.50128C203.067 1.29015 203.324 1.17285 203.582 1.17285H205.244C205.502 1.17285 205.759 1.29015 205.876 1.50128ZM216.857 1.43091L230.272 14.2163L230.248 2.29891C230.248 1.6655 230.833 1.17285 231.559 1.17285H232.402C232.66 1.17285 232.823 1.31361 232.823 1.5482V17.2191C232.823 17.4303 232.66 17.5945 232.402 17.5945H230.693C230.435 17.5945 230.178 17.4772 229.991 17.2895L216.576 4.55101V8.51566C216.576 9.14907 215.991 9.66518 215.288 9.66518H214.422C214.165 9.66518 214.001 9.52442 214.001 9.28983V1.5482C214.001 1.31361 214.141 1.17285 214.399 1.17285H216.155C216.412 1.17285 216.716 1.26669 216.857 1.43091ZM247.384 2.39274C247.174 3.14345 246.823 3.94107 245.91 3.94107C245.839 3.94107 245.675 3.89415 245.488 3.84723C244.294 3.61264 243.1 3.44842 241.836 3.44842C238.886 3.44842 237.013 4.2695 237.013 5.53631C237.013 7.13155 239.659 7.67112 242.538 8.25761C245.98 8.93793 249.726 9.7121 249.726 12.9964C249.726 15.6943 246.823 17.5476 242.328 17.7118C242.07 17.7587 241.906 17.571 241.906 17.3364V15.8819C241.906 15.6473 242.07 15.5066 242.328 15.4831C245.137 15.3189 246.893 14.4744 246.893 13.1372C246.893 11.4481 244.13 10.8851 241.18 10.2986C237.833 9.61826 234.18 8.89101 234.18 5.72399C234.157 2.97923 237.271 1.19631 242 1.19631C243.685 1.19631 245.418 1.45437 247.104 1.92355C247.338 1.99393 247.455 2.20507 247.384 2.39274Z" fill="#434343"/>
<path id="Vector_3" d="M147.369 22.119V26.8109H146.881V22.548H143.918V26.8109H143.43V22.119H147.369ZM151.946 25.5575H149.338L148.776 26.8109H148.261L150.401 22.119H150.89L153.03 26.8109H152.508L151.946 25.5575ZM151.766 25.1554L150.642 22.6351L149.518 25.1554H151.766ZM155.909 26.8511C155.445 26.8511 155.026 26.7483 154.651 26.5428C154.281 26.3373 153.989 26.0535 153.775 25.6916C153.565 25.3252 153.461 24.9163 153.461 24.465C153.461 24.0136 153.565 23.607 153.775 23.2451C153.989 22.8787 154.283 22.5927 154.658 22.3871C155.033 22.1816 155.451 22.0788 155.915 22.0788C156.263 22.0788 156.584 22.1369 156.879 22.2531C157.173 22.3693 157.422 22.539 157.628 22.7625L157.313 23.0775C156.947 22.7066 156.486 22.5212 155.929 22.5212C155.558 22.5212 155.221 22.6061 154.919 22.7759C154.615 22.9457 154.377 23.1781 154.203 23.473C154.033 23.7679 153.949 24.0986 153.949 24.465C153.949 24.8314 154.033 25.1621 154.203 25.457C154.377 25.7519 154.615 25.9842 154.919 26.1541C155.221 26.3239 155.558 26.4088 155.929 26.4088C156.491 26.4088 156.952 26.2211 157.313 25.8457L157.628 26.1608C157.422 26.3842 157.17 26.5562 156.872 26.6769C156.578 26.7931 156.257 26.8511 155.909 26.8511ZM160.599 26.8511C160.135 26.8511 159.716 26.7483 159.341 26.5428C158.971 26.3373 158.679 26.0535 158.465 25.6916C158.255 25.3252 158.15 24.9163 158.15 24.465C158.15 24.0136 158.255 23.607 158.465 23.2451C158.679 22.8787 158.973 22.5927 159.348 22.3871C159.722 22.1816 160.141 22.0788 160.605 22.0788C160.953 22.0788 161.274 22.1369 161.568 22.2531C161.863 22.3693 162.113 22.539 162.318 22.7625L162.003 23.0775C161.638 22.7066 161.176 22.5212 160.619 22.5212C160.248 22.5212 159.912 22.6061 159.609 22.7759C159.305 22.9457 159.067 23.1781 158.893 23.473C158.723 23.7679 158.639 24.0986 158.639 24.465C158.639 24.8314 158.723 25.1621 158.893 25.457C159.067 25.7519 159.305 25.9842 159.609 26.1541C159.912 26.3239 160.248 26.4088 160.619 26.4088C161.181 26.4088 161.642 26.2211 162.003 25.8457L162.318 26.1608C162.113 26.3842 161.86 26.5562 161.562 26.6769C161.267 26.7931 160.946 26.8511 160.599 26.8511ZM166.219 25.5575H163.61L163.048 26.8109H162.533L164.674 22.119H165.162L167.303 26.8109H166.781L166.219 25.5575ZM166.038 25.1554L164.915 22.6351L163.791 25.1554H166.038ZM171.79 24.6594H170.82V26.8109H170.339V24.6594H169.362L167.931 26.8109H167.355L168.961 24.3912L167.476 22.119H168.011L169.355 24.2237H170.339V22.119H170.82V24.2237H171.79L173.141 22.119H173.676L172.191 24.3912L173.797 26.8109H173.221L171.79 24.6594ZM174.582 22.119H175.07V26.0066L178.067 22.119H178.515V26.8109H178.027V22.9301L175.03 26.8109H174.582V22.119ZM181.848 22.119C182.445 22.119 182.913 22.262 183.252 22.548C183.591 22.834 183.761 23.2272 183.761 23.7277C183.761 24.2281 183.591 24.6214 183.252 24.9074C182.913 25.1889 182.445 25.3296 181.848 25.3296H180.59V26.8109H180.095V22.119H181.848ZM181.834 24.8939C182.298 24.8939 182.652 24.7934 182.898 24.5923C183.143 24.3868 183.266 24.0986 183.266 23.7277C183.266 23.3479 183.143 23.0574 182.898 22.8563C182.652 22.6508 182.298 22.548 181.834 22.548H180.59V24.8939H181.834ZM186.89 26.8511C186.427 26.8511 186.007 26.7483 185.633 26.5428C185.263 26.3373 184.971 26.0535 184.757 25.6916C184.548 25.3252 184.442 24.9163 184.442 24.465C184.442 24.0136 184.548 23.607 184.757 23.2451C184.971 22.8787 185.265 22.5927 185.64 22.3871C186.014 22.1816 186.434 22.0788 186.897 22.0788C187.245 22.0788 187.566 22.1369 187.86 22.2531C188.155 22.3693 188.405 22.539 188.609 22.7625L188.295 23.0775C187.93 22.7066 187.468 22.5212 186.91 22.5212C186.541 22.5212 186.204 22.6061 185.9 22.7759C185.598 22.9457 185.359 23.1781 185.185 23.473C185.016 23.7679 184.931 24.0986 184.931 24.465C184.931 24.8314 185.016 25.1621 185.185 25.457C185.359 25.7519 185.598 25.9842 185.9 26.1541C186.204 26.3239 186.541 26.4088 186.91 26.4088C187.472 26.4088 187.934 26.2211 188.295 25.8457L188.609 26.1608C188.405 26.3842 188.153 26.5562 187.854 26.6769C187.559 26.7931 187.238 26.8511 186.89 26.8511ZM191.184 24.6594H190.114V26.8109H189.632V22.119H190.114V24.2237H191.184L192.769 22.119H193.304L191.565 24.3979L193.405 26.8109H192.836L191.184 24.6594ZM194.165 22.119H194.654V26.8109H194.165V22.119ZM201.92 22.119V26.8109H201.431V22.548H198.468V26.8109H197.98V22.119H201.92ZM206.811 26.3819V26.8109H203.5V22.119H206.711V22.548H203.995V24.217H206.416V24.6392H203.995V26.3819H206.811ZM209.661 22.119C210.259 22.119 210.727 22.262 211.066 22.548C211.405 22.834 211.574 23.2272 211.574 23.7277C211.574 24.2281 211.405 24.6214 211.066 24.9074C210.727 25.1889 210.259 25.3296 209.661 25.3296H208.404V26.8109H207.909V22.119H209.661ZM209.648 24.8939C210.112 24.8939 210.466 24.7934 210.711 24.5923C210.957 24.3868 211.079 24.0986 211.079 23.7277C211.079 23.3479 210.957 23.0574 210.711 22.8563C210.466 22.6508 210.112 22.548 209.648 22.548H208.404V24.8939H209.648ZM215.904 26.3819V26.8109H212.593V22.119H215.803V22.548H213.088V24.217H215.509V24.6392H213.088V26.3819H215.904ZM219.778 24.3912C220.104 24.4583 220.351 24.5901 220.52 24.7867C220.69 24.9788 220.774 25.2313 220.774 25.5441C220.774 25.9507 220.63 26.2636 220.339 26.4825C220.054 26.7014 219.633 26.8109 219.075 26.8109H217.002V22.119H218.948C219.448 22.119 219.838 22.2218 220.119 22.4274C220.4 22.6329 220.54 22.9301 220.54 23.3188C220.54 23.5825 220.473 23.8058 220.339 23.9891C220.206 24.1678 220.018 24.3018 219.778 24.3912ZM217.49 24.2438H218.921C219.283 24.2438 219.559 24.1701 219.751 24.0226C219.947 23.8751 220.045 23.6607 220.045 23.3791C220.045 23.0976 219.947 22.8831 219.751 22.7357C219.559 22.5882 219.283 22.5145 218.921 22.5145H217.49V24.2438ZM219.075 26.4155C219.883 26.4155 220.286 26.1138 220.286 25.5106C220.286 24.9208 219.883 24.6258 219.075 24.6258H217.49V26.4155H219.075ZM225.323 26.3819V26.8109H222.012V22.119H225.222V22.548H222.507V24.217H224.928V24.6392H222.507V26.3819H225.323ZM228.455 24.3577C228.762 24.4337 229.003 24.5722 229.177 24.7733C229.355 24.9744 229.445 25.2157 229.445 25.4972C229.445 25.7697 229.359 26.0089 229.191 26.2144C229.021 26.4199 228.796 26.5786 228.515 26.6903C228.234 26.7975 227.928 26.8511 227.599 26.8511C227.286 26.8511 226.978 26.802 226.676 26.7037C226.376 26.6009 226.107 26.449 225.866 26.2479L226.047 25.8927C226.252 26.0669 226.486 26.201 226.749 26.2948C227.012 26.3842 227.278 26.4289 227.545 26.4289C227.799 26.4289 228.033 26.3887 228.247 26.3082C228.461 26.2278 228.63 26.1138 228.756 25.9664C228.885 25.8145 228.95 25.6357 228.95 25.4302C228.95 25.1576 228.843 24.9476 228.629 24.8001C228.415 24.6527 228.114 24.5789 227.726 24.5789H226.722V24.1768H227.699C228.028 24.1768 228.285 24.1075 228.468 23.969C228.655 23.826 228.749 23.6294 228.749 23.3791C228.749 23.1021 228.63 22.8854 228.395 22.729C228.158 22.5681 227.861 22.4877 227.505 22.4877C227.282 22.4877 227.057 22.5212 226.829 22.5882C226.602 22.6508 226.385 22.7468 226.181 22.8764L226.013 22.4676C226.477 22.1905 226.978 22.052 227.518 22.052C227.834 22.052 228.124 22.1034 228.388 22.2062C228.65 22.309 228.858 22.4564 229.01 22.6485C229.165 22.8407 229.244 23.0664 229.244 23.3255C229.244 23.5758 229.175 23.7924 229.037 23.9757C228.898 24.1544 228.704 24.2817 228.455 24.3577ZM233.985 26.3819V26.8109H230.674V22.119H233.885V22.548H231.169V24.217H233.59V24.6392H231.169V26.3819H233.985ZM238.996 22.119V26.8109H238.507V24.6459H235.578V26.8109H235.083V22.119H235.578V24.2103H238.507V22.119H238.996ZM244.49 22.119V26.8109H244.002V24.6459H241.072V26.8109H240.577V22.119H241.072V24.2103H244.002V22.119H244.49ZM249.388 22.119V26.8109H248.9V25.3899H247.502C247.439 25.3899 247.349 25.3855 247.234 25.3765L246.251 26.8109H245.722L246.786 25.2894C246.442 25.1866 246.179 25.0056 245.997 24.7465C245.813 24.4828 245.722 24.1611 245.722 23.7813C245.722 23.254 245.887 22.8452 246.217 22.5547C246.552 22.2642 247.002 22.119 247.568 22.119H249.388ZM246.217 23.7679C246.217 24.1522 246.329 24.4493 246.552 24.6594C246.779 24.8649 247.109 24.9677 247.542 24.9677H248.9V22.548H247.589C247.151 22.548 246.813 22.653 246.572 22.863C246.335 23.0686 246.217 23.3702 246.217 23.7679Z" fill="#434343"/>
<path id="Vector_4" fill-rule="evenodd" clip-rule="evenodd" d="M247.573 30.9999H16.8042L61.5039 29.3242H250.5L247.573 30.9999Z" fill="#FF6604"/>
</g>
<defs>
<clipPath id="clip0_697_930">
<rect width="250" height="31" fill="white" transform="translate(0.5)"/>
</clipPath>
</defs>
</svg>
