<svg xmlns="http://www.w3.org/2000/svg" width="29" height="29" viewBox="0 0 29 29" fill="none">
    <path d="M1.67285 13.3305C1.67285 13.3305 6.43194 6.5123 14.1729 6.5123C15.249 6.5123 16.2626 6.6498 17.216 6.8782L10.0365 14.0578C9.76848 13.4729 9.62898 12.8374 9.6274 12.1941C9.6274 11.1293 10.0081 10.1634 10.6217 9.38843C7.90353 10.3112 5.83308 12.0987 4.65126 13.3305C5.65801 14.3808 6.79622 15.2967 8.03762 16.0555L6.38649 17.7066C3.37399 15.7509 1.67285 13.3305 1.67285 13.3305ZM26.6729 13.3305C26.6729 13.3305 21.9138 20.1487 14.1729 20.1487C13.0979 20.1487 12.0865 20.0077 11.1319 19.7816L6.21831 24.6941L4.51376 22.9896L23.8319 3.67139L25.5365 5.37593L21.9604 8.95207C24.9694 10.9089 26.6729 13.3305 26.6729 13.3305ZM23.7013 13.3373C22.6927 12.284 21.5518 11.3662 20.3069 10.6066L18.7183 12.1941C18.7183 13.3996 18.2394 14.5558 17.387 15.4082C16.5345 16.2607 15.3784 16.7396 14.1729 16.7396L13.0967 17.8157C13.449 17.8509 13.8058 17.8759 14.1729 17.8759C18.6933 17.8759 22.0626 15.06 23.7013 13.3373Z" fill="#40A6FF"/>
</svg>