<svg width="17" height="17" viewBox="0 0 17 17" fill="none" xmlns="http://www.w3.org/2000/svg">
<path id="Vector" d="M8.7876 1.61664C4.92844 1.61664 1.79999 4.74509 1.79999 8.60425C1.79999 12.4634 4.92844 15.5919 8.7876 15.5919C12.6468 15.5919 15.7752 12.4634 15.7752 8.60425C15.7752 4.74509 12.6468 1.61664 8.7876 1.61664ZM0.801758 8.60425C0.801758 4.19367 4.37702 0.618408 8.7876 0.618408C13.1982 0.618408 16.7734 4.19367 16.7734 8.60425C16.7734 13.0148 13.1982 16.5901 8.7876 16.5901C4.37702 16.5901 0.801758 13.0148 0.801758 8.60425ZM8.7876 7.00708C9.06311 7.00708 9.28671 7.23068 9.28671 7.5062V12.4973C9.28671 12.6297 9.23413 12.7567 9.14053 12.8503C9.04692 12.9439 8.91997 12.9965 8.7876 12.9965C8.65522 12.9965 8.52827 12.9439 8.43467 12.8503C8.34107 12.7567 8.28848 12.6297 8.28848 12.4973V7.5062C8.28848 7.23068 8.51209 7.00708 8.7876 7.00708ZM8.7876 5.8092C8.9994 5.8092 9.20252 5.72507 9.35228 5.5753C9.50205 5.42554 9.58618 5.22242 9.58618 5.01062C9.58618 4.79882 9.50205 4.5957 9.35228 4.44594C9.20252 4.29617 8.9994 4.21204 8.7876 4.21204C8.5758 4.21204 8.37268 4.29617 8.22291 4.44594C8.07315 4.5957 7.98901 4.79882 7.98901 5.01062C7.98901 5.22242 8.07315 5.42554 8.22291 5.5753C8.37268 5.72507 8.5758 5.8092 8.7876 5.8092Z" fill="#40A6FF"/>
</svg>
