<svg width="41" height="41" viewBox="0 0 41 41" fill="none" xmlns="http://www.w3.org/2000/svg">
<g id="instagram">
<path id="Vector" d="M20.4966 11.2488C15.5278 11.2488 11.52 15.2566 11.52 20.2253C11.52 25.1941 15.5278 29.2019 20.4966 29.2019C25.4653 29.2019 29.4731 25.1941 29.4731 20.2253C29.4731 15.2566 25.4653 11.2488 20.4966 11.2488ZM20.4966 26.0613C17.2856 26.0613 14.6606 23.4441 14.6606 20.2253C14.6606 17.0066 17.2778 14.3894 20.4966 14.3894C23.7153 14.3894 26.3325 17.0066 26.3325 20.2253C26.3325 23.4441 23.7075 26.0613 20.4966 26.0613ZM31.9341 10.8816C31.9341 12.0457 30.9966 12.9753 29.8403 12.9753C28.6763 12.9753 27.7466 12.0378 27.7466 10.8816C27.7466 9.72534 28.6841 8.78784 29.8403 8.78784C30.9966 8.78784 31.9341 9.72534 31.9341 10.8816ZM37.8794 13.0066C37.7466 10.2019 37.106 7.71753 35.0513 5.67065C33.0044 3.62378 30.52 2.98315 27.7153 2.84253C24.8247 2.67847 16.1606 2.67847 13.27 2.84253C10.4731 2.97534 7.98877 3.61597 5.93408 5.66284C3.87939 7.70972 3.24658 10.1941 3.10596 12.9988C2.94189 15.8894 2.94189 24.5535 3.10596 27.4441C3.23877 30.2488 3.87939 32.7332 5.93408 34.78C7.98877 36.8269 10.4653 37.4675 13.27 37.6082C16.1606 37.7722 24.8247 37.7722 27.7153 37.6082C30.52 37.4753 33.0044 36.8347 35.0513 34.78C37.0981 32.7332 37.7388 30.2488 37.8794 27.4441C38.0435 24.5535 38.0435 15.8972 37.8794 13.0066ZM34.145 30.5457C33.5356 32.0769 32.356 33.2566 30.8169 33.8738C28.5122 34.7878 23.0435 34.5769 20.4966 34.5769C17.9497 34.5769 12.4731 34.78 10.1763 33.8738C8.64502 33.2644 7.46533 32.0847 6.84814 30.5457C5.93408 28.241 6.14502 22.7722 6.14502 20.2253C6.14502 17.6785 5.94189 12.2019 6.84814 9.90503C7.45752 8.37378 8.63721 7.19409 10.1763 6.5769C12.481 5.66284 17.9497 5.87378 20.4966 5.87378C23.0435 5.87378 28.52 5.67065 30.8169 6.5769C32.3481 7.18628 33.5278 8.36597 34.145 9.90503C35.0591 12.2097 34.8481 17.6785 34.8481 20.2253C34.8481 22.7722 35.0591 28.2488 34.145 30.5457Z" fill="white"/>
</g>
</svg>
