<svg height="16" viewBox="0 0 16 16" width="16" xmlns="http://www.w3.org/2000/svg"><g fill="none" fill-rule="evenodd"><path d="m.05405405 8.03243243c0 4.38918917 3.55675676 7.94594597 7.94594595 7.94594597 4.3891892 0 7.9459459-3.5567568 7.9459459-7.94594597 0-4.38918919-3.5567567-7.94594594-7.9459459-7.94594594-4.38918919 0-7.94594595 3.55675675-7.94594595 7.94594594" fill="#0f218b"/><path d="m1.41621622 8.02162162c0-3.63243243 2.95135135-6.58378378 6.58378378-6.58378378 3.6432432 0 6.5837838 2.95135135 6.5837838 6.58378378 0 3.64324328-2.9513514 6.58378378-6.5837838 6.58378378-.71351351 0-1.40540541-.1189189-2.05405405-.3243243.46486486-2.7135135 2.18378378-4.92972975 4.45405405-5.87027029.2702703.31351351.6702703.50810811 1.1027027.50810811.8108108 0 1.4594595-.64864865 1.4594595-1.45945946s-.6486487-1.45945946-1.4594595-1.45945946-1.4594595.64864865-1.4594595 1.45945946c-2.89729725.87567568-5.2432432 2.88648644-6.43243239 5.49189194-.37837838-.3351352-.71351351-.7135136-1.0054054-1.1351352.06486486-2.52972971 1.31891891-4.73513512 3.18918918-6.04324323.27027027.30270271.65945946.4972973 1.0918919.4972973.81081081 0 1.45945946-.65945946 1.45945946-1.45945946 0-.81081081-.65945946-1.45945946-1.45945946-1.45945946-.81081081 0-1.45945946.65945946-1.45945946 1.45945946v.12972973c-1.74054054.61621622-3.17837838 1.82702703-4.01081081 3.36216216 0-.10810811 0-.19459459 0-.28108108" fill="#fc0"/></g></svg>