<svg width="71" height="55" viewBox="0 0 71 55" fill="none" xmlns="http://www.w3.org/2000/svg">
<g clip-path="url(#clip0_612_9916)">
<path d="M69.085 35.7808V34.6421H68.8618L68.6035 35.4242L68.3467 34.6421H68.1221V35.7808H68.2807V34.9221L68.5221 35.6632H68.6864L68.9278 34.9202V35.7808H69.085ZM67.6687 35.7808V34.8362H67.955V34.644H67.2251V34.8362H67.5115V35.7808H67.6687Z" fill="#0099DF"/>
<path d="M44.9601 38.7473H26.6729V5.76245H44.9601V38.7473Z" fill="#6C6BBD"/>
<path d="M27.8442 22.2524C27.8442 15.5612 30.9657 9.60097 35.8267 5.75994C32.272 2.95119 27.7858 1.27474 22.9102 1.27474C11.3677 1.27474 2.01123 10.6666 2.01123 22.2524C2.01123 33.8381 11.3677 43.23 22.9102 43.23C27.7858 43.23 32.272 41.5535 35.8267 38.7448C30.9657 34.9037 27.8442 28.9435 27.8442 22.2524Z" fill="#EB001B"/>
<path d="M69.6234 22.2524C69.6234 33.8381 60.2669 43.23 48.7245 43.23C43.8489 43.23 39.3627 41.5535 35.8066 38.7448C40.6689 34.9037 43.7904 28.9435 43.7904 22.2524C43.7904 15.5612 40.6689 9.60097 35.8066 5.75994C39.3627 2.95119 43.8489 1.27474 48.7245 1.27474C60.2669 1.27474 69.6234 10.6666 69.6234 22.2524Z" fill="#0099DF"/>
<path d="M51.1258 48.0621C51.369 48.0621 51.7185 48.1087 51.9856 48.2141L51.6135 49.3557C51.3584 49.2504 51.1032 49.2157 50.8587 49.2157C50.0694 49.2157 49.6747 49.7278 49.6747 50.6481V53.7716H48.4668V48.2021H49.6627V48.8783C49.9763 48.3888 50.4295 48.0621 51.1258 48.0621ZM46.6635 49.3091H44.6901V51.8257C44.6901 52.3846 44.8868 52.758 45.4914 52.758C45.8051 52.758 46.1997 52.6526 46.5585 52.4432L46.9067 53.4795C46.524 53.7476 45.9207 53.9116 45.3984 53.9116C43.9699 53.9116 43.4716 53.1421 43.4716 51.8484V49.3091H42.3447V48.2021H43.4716V46.5123H44.6901V48.2021H46.6635V49.3091ZM31.2102 50.4974C31.3391 49.6932 31.8255 49.145 32.6852 49.145C33.4626 49.145 33.9623 49.6345 34.0898 50.4974H31.2102ZM35.3443 50.9868C35.3323 49.2504 34.2639 48.0621 32.7078 48.0621C31.0826 48.0621 29.9451 49.2504 29.9451 50.9868C29.9451 52.7567 31.1291 53.9103 32.7902 53.9103C33.6261 53.9103 34.3915 53.7009 35.0652 53.1301L34.4726 52.2325C34.0088 52.6059 33.4161 52.8153 32.8593 52.8153C32.0819 52.8153 31.3737 52.4539 31.1996 51.4523H35.3204C35.3323 51.3003 35.3443 51.1496 35.3443 50.9868ZM40.6491 49.6238C40.3129 49.4131 39.6285 49.145 38.9202 49.145C38.2585 49.145 37.8638 49.3904 37.8638 49.7985C37.8638 50.1706 38.2811 50.276 38.8033 50.3453L39.3721 50.4267C40.58 50.6027 41.3109 51.1149 41.3109 52.0938C41.3109 53.1541 40.382 53.9116 38.7807 53.9116C37.8744 53.9116 37.0386 53.6782 36.3768 53.1888L36.9456 52.2445C37.3522 52.5593 37.9568 52.8273 38.7927 52.8273C39.6166 52.8273 40.0577 52.5833 40.0577 52.1512C40.0577 51.8377 39.7441 51.6617 39.0824 51.5697L38.5136 51.4883C37.2711 51.3123 36.5974 50.7535 36.5974 49.8452C36.5974 48.7382 37.5037 48.0621 38.9083 48.0621C39.7906 48.0621 40.5919 48.2608 41.1713 48.6449L40.6491 49.6238ZM55.5389 49.213C55.2905 49.213 55.0606 49.2571 54.8466 49.3437C54.634 49.4318 54.4493 49.5545 54.2938 49.7118C54.1383 49.8692 54.0161 50.0586 53.927 50.2787C53.838 50.4987 53.7942 50.7414 53.7942 51.0055C53.7942 51.2709 53.838 51.5123 53.927 51.7324C54.0161 51.9524 54.1383 52.1418 54.2938 52.2992C54.4493 52.4566 54.634 52.5793 54.8466 52.6673C55.0606 52.7553 55.2905 52.798 55.5389 52.798C55.7874 52.798 56.0187 52.7553 56.2313 52.6673C56.4452 52.5793 56.6313 52.4566 56.7867 52.2992C56.9449 52.1418 57.0671 51.9524 57.1575 51.7324C57.2465 51.5123 57.2904 51.2709 57.2904 51.0055C57.2904 50.7414 57.2465 50.4987 57.1575 50.2787C57.0671 50.0586 56.9449 49.8692 56.7867 49.7118C56.6313 49.5545 56.4452 49.4318 56.2313 49.3437C56.0187 49.2571 55.7874 49.213 55.5389 49.213ZM55.5389 48.0621C55.9695 48.0621 56.3682 48.1367 56.7349 48.2875C57.1017 48.4368 57.4193 48.6436 57.6864 48.9063C57.9548 49.169 58.1634 49.4798 58.3149 49.8372C58.4664 50.196 58.5422 50.5854 58.5422 51.0055C58.5422 51.4256 58.4664 51.8151 58.3149 52.1738C58.1634 52.5313 57.9548 52.8433 57.6864 53.1061C57.4193 53.3688 57.1017 53.5742 56.7349 53.7249C56.3682 53.8743 55.9695 53.949 55.5389 53.949C55.1084 53.949 54.7097 53.8743 54.343 53.7249C53.9762 53.5742 53.6613 53.3688 53.3955 53.1061C53.1297 52.8433 52.9211 52.5313 52.7696 52.1738C52.6181 51.8151 52.5424 51.4256 52.5424 51.0055C52.5424 50.5854 52.6181 50.196 52.7696 49.8372C52.9211 49.4798 53.1297 49.169 53.3955 48.9063C53.6613 48.6436 53.9762 48.4368 54.343 48.2875C54.7097 48.1367 55.1084 48.0621 55.5389 48.0621ZM24.1566 50.9868C24.1566 50.0079 24.7958 49.2037 25.8403 49.2037C26.8383 49.2037 27.512 49.9732 27.512 50.9868C27.512 52.0005 26.8383 52.7687 25.8403 52.7687C24.7958 52.7687 24.1566 51.9658 24.1566 50.9868ZM28.6495 50.9868V48.2021H27.4429V48.8783C27.0588 48.3768 26.4795 48.0621 25.6901 48.0621C24.134 48.0621 22.9155 49.2851 22.9155 50.9868C22.9155 52.6873 24.134 53.9116 25.6901 53.9116C26.4795 53.9116 27.0588 53.5969 27.4429 53.0954V53.7716H28.6495V50.9868ZM21.8471 53.7716V50.276C21.8471 48.9596 21.0112 48.0741 19.6651 48.0621C18.9568 48.0501 18.2246 48.2715 17.7143 49.053C17.3316 48.4355 16.727 48.0621 15.8792 48.0621C15.2878 48.0621 14.7071 48.2368 14.254 48.889V48.2021H13.0474V53.7716H14.2659V50.6841C14.2659 49.7172 14.8001 49.2037 15.624 49.2037C16.4253 49.2037 16.832 49.7278 16.832 50.6721V53.7716H18.0505V50.6841C18.0505 49.7172 18.6086 49.2037 19.4086 49.2037C20.2338 49.2037 20.6285 49.7278 20.6285 50.6721V53.7716H21.8471Z" fill="#231F20"/>
<path d="M60.031 53.0679V53.2602H60.2077C60.2467 53.2602 60.2802 53.2508 60.3025 53.2359C60.3267 53.221 60.3397 53.1948 60.3397 53.1631C60.3397 53.1314 60.3267 53.1071 60.3025 53.0922C60.2802 53.0754 60.2467 53.0679 60.2077 53.0679H60.031ZM60.2095 52.9335C60.3007 52.9335 60.3713 52.954 60.4215 52.9951C60.4718 53.0362 60.4959 53.0922 60.4959 53.1631C60.4959 53.2228 60.4773 53.2714 60.4364 53.3106C60.3974 53.3479 60.3397 53.3722 60.2672 53.3815L60.5015 53.6522H60.3192L60.1016 53.3834H60.031V53.6522H59.8785V52.9335H60.2095ZM60.163 53.8986C60.2467 53.8986 60.3248 53.8836 60.3955 53.8519C60.468 53.8202 60.5313 53.7772 60.5852 53.7231C60.6392 53.669 60.6819 53.6055 60.7135 53.5308C60.7433 53.458 60.76 53.3796 60.76 53.2956C60.76 53.2116 60.7433 53.1332 60.7135 53.0604C60.6819 52.9876 60.6392 52.9223 60.5852 52.8682C60.5313 52.814 60.468 52.7711 60.3955 52.7412C60.3248 52.7095 60.2467 52.6946 60.163 52.6946C60.0793 52.6946 59.9993 52.7095 59.9268 52.7412C59.8524 52.7711 59.7873 52.814 59.7334 52.8682C59.6794 52.9223 59.6367 52.9876 59.6069 53.0604C59.5753 53.1332 59.5604 53.2116 59.5604 53.2956C59.5604 53.3796 59.5753 53.458 59.6069 53.5308C59.6367 53.6055 59.6794 53.669 59.7334 53.7231C59.7873 53.7772 59.8524 53.8202 59.9268 53.8519C59.9993 53.8836 60.0793 53.8986 60.163 53.8986ZM60.163 52.521C60.2728 52.521 60.3732 52.5415 60.468 52.5826C60.5648 52.6218 60.6466 52.6778 60.7191 52.7487C60.7898 52.8178 60.8456 52.8999 60.8865 52.9951C60.9274 53.0884 60.9479 53.1892 60.9479 53.2956C60.9479 53.402 60.9274 53.5028 60.8865 53.5962C60.8456 53.6895 60.7898 53.7716 60.7191 53.8407C60.6466 53.9116 60.5648 53.9676 60.468 54.0087C60.3732 54.0498 60.2728 54.0703 60.163 54.0703C60.0514 54.0703 59.9491 54.0498 59.8524 54.0087C59.7557 53.9676 59.672 53.9116 59.6013 53.8407C59.5307 53.7716 59.4749 53.6895 59.4339 53.5962C59.393 53.5028 59.3726 53.402 59.3726 53.2956C59.3726 53.1892 59.393 53.0884 59.4339 52.9951C59.4749 52.8999 59.5307 52.8178 59.6013 52.7487C59.672 52.6778 59.7557 52.6218 59.8524 52.5826C59.9491 52.5415 60.0514 52.521 60.163 52.521Z" fill="#231F20"/>
</g>
<defs>
<clipPath id="clip0_612_9916">
<rect width="70" height="54.4444" fill="white" transform="translate(0.611816 0.246826)"/>
</clipPath>
</defs>
</svg>
