<svg width="58" height="21" viewBox="0 0 58 21" fill="none" xmlns="http://www.w3.org/2000/svg">
<path id="Union" fill-rule="evenodd" clip-rule="evenodd" d="M4.6411 5.39379L1.2177 1.18613H45.7803C48.809 1.18613 51.3938 3.38128 51.8879 6.37541L51.9124 6.52405H49.7161V7.11711H52.0103L54.1053 19.8139H48.843L48.5858 19.2547C47.9402 17.8514 46.538 16.9518 44.9941 16.9518C43.1516 16.9518 41.554 18.2258 41.1407 20.0225L41.0829 20.274L42.2389 20.5398L42.2967 20.2883C42.5863 19.0291 43.7053 18.138 44.9941 18.138C46.0741 18.138 47.0559 18.7672 47.5082 19.7504L48.083 21H55.5032L53.2125 7.11711H57.3337V11.3495H57.9267V6.52405H53.1146L53.0582 6.1823C52.4698 2.61659 49.3908 0 45.7803 0H1.16039C0.182784 0 -0.353002 1.13502 0.262113 1.89105L3.89817 6.36008L3.89903 6.36114L6.75638 9.88962L10.104 13.7732C10.3239 14.0283 10.6441 14.1752 10.9811 14.1752H30.6188C30.9926 14.1752 31.3432 13.9948 31.5606 13.6909L34.2891 9.87787L41.6694 9.7721L41.6524 8.58609L34.2579 8.69207C33.8898 8.69732 33.5466 8.87724 33.3326 9.17625L30.6043 12.9891H10.9941L8.48856 10.0824L21.2639 9.88214L21.2453 8.69615L7.49081 8.91179L5.60247 6.57992H21.2546V5.39379H4.6411Z" fill="#FFFFFF"/>
</svg>
