<svg width="51" height="23" viewBox="0 0 51 23" fill="none" xmlns="http://www.w3.org/2000/svg">
<path id="Vector" d="M0.777271 10.0499L10.0723 0.481541C10.4027 0.164635 10.8397 -0.00788879 11.2912 0.000312805C11.7427 0.0085125 12.1735 0.196798 12.4928 0.525503C12.8121 0.85421 12.995 1.29767 13.003 1.76246C13.0109 2.22725 12.8433 2.67707 12.5355 3.01717L6.21777 9.52369L48.484 9.52369C48.9462 9.52369 49.3895 9.71271 49.7164 10.0492C50.0432 10.3856 50.2268 10.8419 50.2268 11.3178C50.2268 11.7936 50.0432 12.2499 49.7164 12.5864C49.3895 12.9228 48.9462 13.1118 48.484 13.1118L6.21777 13.1118L12.5355 19.6184C12.8433 19.9585 13.0109 20.4083 13.003 20.8731C12.995 21.3379 12.8121 21.7813 12.4928 22.11C12.1735 22.4387 11.7427 22.627 11.2912 22.6352C10.8397 22.6434 10.4027 22.4709 10.0723 22.154L0.777271 12.5856C0.450898 12.2492 0.267578 11.7932 0.267578 11.3178C0.267578 10.8423 0.450898 10.3863 0.777271 10.0499Z" fill="#40A6FF"/>
</svg>
