<svg xmlns="http://www.w3.org/2000/svg" width="26" height="26" viewBox="0 0 26 26" fill="none">
    <g clip-path="url(#clip0_421_17507)">
        <path d="M15.6733 15.5605C15.3071 15.1455 14.9043 14.7793 14.4648 14.4619C14.0254 14.1445 13.5534 13.8719 13.0488 13.644C12.5443 13.4162 12.0316 13.2493 11.5107 13.1436C10.9899 13.0378 10.4447 12.9808 9.875 12.9727C9.15885 12.9727 8.46712 13.0662 7.7998 13.2534C7.13249 13.4406 6.50993 13.701 5.93213 14.0347C5.35433 14.3683 4.82943 14.7752 4.35742 15.2554C3.88542 15.7355 3.47852 16.2645 3.13672 16.8423C2.79492 17.4201 2.53044 18.0426 2.34326 18.71C2.15609 19.3773 2.0625 20.069 2.0625 20.7852H0.5C0.5 19.8086 0.642415 18.8687 0.927246 17.9653C1.21208 17.062 1.62305 16.2279 2.16016 15.4629C2.69727 14.6979 3.33203 14.0184 4.06445 13.4243C4.79688 12.8302 5.62695 12.3623 6.55469 12.0205C5.63509 11.4183 4.91895 10.6615 4.40625 9.75C3.89355 8.83854 3.63314 7.82943 3.625 6.72266C3.625 5.86003 3.78776 5.05029 4.11328 4.29346C4.4388 3.53662 4.88232 2.87337 5.44385 2.30371C6.00537 1.73405 6.66862 1.28646 7.43359 0.960938C8.19857 0.635417 9.01237 0.472656 9.875 0.472656C10.7376 0.472656 11.5474 0.635417 12.3042 0.960938C13.061 1.28646 13.7243 1.72998 14.2939 2.2915C14.8636 2.85303 15.3112 3.51628 15.6367 4.28125C15.9622 5.04622 16.125 5.86003 16.125 6.72266C16.125 7.25977 16.0599 7.78467 15.9297 8.29736C15.7995 8.81006 15.6042 9.29427 15.3438 9.75C15.0833 10.2057 14.7782 10.6248 14.4282 11.0073C14.0783 11.3898 13.6673 11.7275 13.1953 12.0205C13.8789 12.2809 14.5218 12.6146 15.124 13.0215C15.7262 13.4284 16.2756 13.9045 16.772 14.4497L15.6733 15.5605ZM5.1875 6.72266C5.1875 7.3737 5.30957 7.97998 5.55371 8.5415C5.79785 9.10303 6.13151 9.59945 6.55469 10.0308C6.97786 10.4621 7.47428 10.7998 8.04395 11.0439C8.61361 11.2881 9.22396 11.4102 9.875 11.4102C10.5179 11.4102 11.1242 11.2881 11.6938 11.0439C12.2635 10.7998 12.7599 10.4661 13.1831 10.043C13.6063 9.61979 13.944 9.12337 14.1963 8.55371C14.4486 7.98405 14.5706 7.3737 14.5625 6.72266C14.5625 6.07975 14.4404 5.47347 14.1963 4.90381C13.9521 4.33415 13.6185 3.83773 13.1953 3.41455C12.7721 2.99137 12.2716 2.65365 11.6938 2.40137C11.116 2.14909 10.5098 2.02702 9.875 2.03516C9.22396 2.03516 8.61768 2.15723 8.05615 2.40137C7.49463 2.64551 6.99821 2.97917 6.56689 3.40234C6.13558 3.82552 5.79785 4.32601 5.55371 4.90381C5.30957 5.48161 5.1875 6.08789 5.1875 6.72266ZM23.0586 11.4102C23.4004 11.4102 23.7178 11.4712 24.0107 11.5933C24.3037 11.7153 24.5641 11.8822 24.792 12.0938C25.0199 12.3053 25.1908 12.5617 25.3047 12.8628C25.4186 13.1639 25.4837 13.4854 25.5 13.8271C25.5 14.1445 25.439 14.4538 25.3169 14.7549C25.1948 15.056 25.0199 15.3205 24.792 15.5483L16.0396 24.3008L11.4375 25.4482L12.585 20.8462L21.3374 12.106C21.5734 11.87 21.8379 11.695 22.1309 11.5811C22.4238 11.4671 22.7331 11.4102 23.0586 11.4102ZM23.6812 14.4497C23.8521 14.2788 23.9375 14.0713 23.9375 13.8271C23.9375 13.5749 23.8561 13.3714 23.6934 13.2168C23.5306 13.0622 23.319 12.9808 23.0586 12.9727C22.9447 12.9727 22.8348 12.9889 22.729 13.0215C22.6232 13.054 22.5296 13.1151 22.4482 13.2046L14.001 21.6519L13.5859 23.2998L15.2339 22.8848L23.6812 14.4497Z" fill="#40A6FF"/>
    </g>
    <defs>
        <clipPath id="clip0_421_17507">
            <rect width="25" height="25" fill="white" transform="translate(0.5 0.472656)"/>
        </clipPath>
    </defs>
</svg>