<svg width="36" height="36" viewBox="0 0 36 36" fill="none" xmlns="http://www.w3.org/2000/svg">
<g id="ion:calendar-outline">
<path id="Vector" d="M28.7773 5.5332H6.90234C5.09016 5.5332 3.62109 7.00227 3.62109 8.81445V28.502C3.62109 30.3141 5.09016 31.7832 6.90234 31.7832H28.7773C30.5895 31.7832 32.0586 30.3141 32.0586 28.502V8.81445C32.0586 7.00227 30.5895 5.5332 28.7773 5.5332Z" stroke="#434343" stroke-width="2" stroke-linejoin="round"/>
<path id="Vector_2" d="M21.2148 15.9238C21.2148 16.2776 20.928 16.5645 20.5742 16.5645C20.2204 16.5645 19.9336 16.2776 19.9336 15.9238C19.9336 15.57 20.2204 15.2832 20.5742 15.2832C20.928 15.2832 21.2148 15.57 21.2148 15.9238Z" fill="#434343" stroke="#434343" stroke-width="2"/>
<path id="Vector_3" d="M26.6836 15.9238C26.6836 16.2776 26.3968 16.5645 26.043 16.5645C25.6892 16.5645 25.4023 16.2776 25.4023 15.9238C25.4023 15.57 25.6892 15.2832 26.043 15.2832C26.3968 15.2832 26.6836 15.57 26.6836 15.9238Z" fill="#434343" stroke="#434343" stroke-width="2"/>
<path id="Vector_4" d="M21.2148 21.3926C21.2148 21.7464 20.928 22.0332 20.5742 22.0332C20.2204 22.0332 19.9336 21.7464 19.9336 21.3926C19.9336 21.0388 20.2204 20.752 20.5742 20.752C20.928 20.752 21.2148 21.0388 21.2148 21.3926Z" fill="#434343" stroke="#434343" stroke-width="2"/>
<path id="Vector_5" d="M26.6836 21.3926C26.6836 21.7464 26.3968 22.0332 26.043 22.0332C25.6892 22.0332 25.4023 21.7464 25.4023 21.3926C25.4023 21.0388 25.6892 20.752 26.043 20.752C26.3968 20.752 26.6836 21.0388 26.6836 21.3926Z" fill="#434343" stroke="#434343" stroke-width="2"/>
<path id="Vector_6" d="M10.2773 21.3926C10.2773 21.7464 9.99053 22.0332 9.63672 22.0332C9.28291 22.0332 8.99609 21.7464 8.99609 21.3926C8.99609 21.0388 9.28291 20.752 9.63672 20.752C9.99053 20.752 10.2773 21.0388 10.2773 21.3926Z" fill="#434343" stroke="#434343" stroke-width="2"/>
<path id="Vector_7" d="M15.7461 21.3926C15.7461 21.7464 15.4593 22.0332 15.1055 22.0332C14.7517 22.0332 14.4648 21.7464 14.4648 21.3926C14.4648 21.0388 14.7517 20.752 15.1055 20.752C15.4593 20.752 15.7461 21.0388 15.7461 21.3926Z" fill="#434343" stroke="#434343" stroke-width="2"/>
<path id="Vector_8" d="M10.2773 26.8613C10.2773 27.2151 9.99053 27.502 9.63672 27.502C9.28291 27.502 8.99609 27.2151 8.99609 26.8613C8.99609 26.5075 9.28291 26.2207 9.63672 26.2207C9.99053 26.2207 10.2773 26.5075 10.2773 26.8613Z" fill="#434343" stroke="#434343" stroke-width="2"/>
<path id="Vector_9" d="M15.7461 26.8613C15.7461 27.2151 15.4593 27.502 15.1055 27.502C14.7517 27.502 14.4648 27.2151 14.4648 26.8613C14.4648 26.5075 14.7517 26.2207 15.1055 26.2207C15.4593 26.2207 15.7461 26.5075 15.7461 26.8613Z" fill="#434343" stroke="#434343" stroke-width="2"/>
<path id="Vector_10" d="M21.2148 26.8613C21.2148 27.2151 20.928 27.502 20.5742 27.502C20.2204 27.502 19.9336 27.2151 19.9336 26.8613C19.9336 26.5075 20.2204 26.2207 20.5742 26.2207C20.928 26.2207 21.2148 26.5075 21.2148 26.8613Z" fill="#434343" stroke="#434343" stroke-width="2"/>
<path id="Vector_11" d="M9.08984 3.3457V5.5332M26.5898 3.3457V5.5332" stroke="#434343" stroke-width="2" stroke-linecap="round" stroke-linejoin="round"/>
<path id="Vector_12" d="M32.0586 11.002H3.62109" stroke="#434343" stroke-width="2" stroke-linejoin="round"/>
</g>
</svg>
