<svg width="25" height="16" viewBox="0 0 25 16" fill="none" xmlns="http://www.w3.org/2000/svg">
<path id="Vector" d="M24.4666 11.5593L20.5335 15.4923C20.1674 15.8584 19.5738 15.8584 19.2077 15.4923L15.2746 11.5593C14.9085 11.1932 14.9085 10.5996 15.2746 10.2335L15.6974 9.8107C16.0709 9.43719 16.6791 9.44586 17.0419 9.82992L18.6206 11.5015V4.3875H11.2944C11.0458 4.38749 10.8073 4.28872 10.6315 4.11293L10.0065 3.48793C9.41593 2.8973 9.83421 1.8875 10.6694 1.8875H20.1831C20.7008 1.8875 21.1206 2.30723 21.1206 2.825V11.5015L22.6993 9.82992C23.062 9.4459 23.6703 9.43719 24.0438 9.8107L24.4666 10.2335C24.8327 10.5996 24.8327 11.1932 24.4666 11.5593ZM14.1096 12.1621C14.0225 12.075 13.9192 12.006 13.8054 11.9588C13.6917 11.9117 13.5698 11.8875 13.4467 11.8875H6.12058V4.77348L7.69933 6.44504C8.06206 6.82906 8.67026 6.83777 9.04382 6.46422L9.46655 6.04148C9.83269 5.67535 9.83269 5.08176 9.46655 4.71566L5.53351 0.782656C5.16737 0.416523 4.57378 0.416523 4.20769 0.782656L0.2746 4.7157C-0.0915332 5.08184 -0.0915332 5.67543 0.2746 6.04152L0.697334 6.46426C1.07085 6.83777 1.67909 6.8291 2.04183 6.44508L3.62058 4.77348V13.45C3.62058 13.9678 4.0403 14.3875 4.55808 14.3875H14.0717C14.9069 14.3875 15.3252 13.3777 14.7346 12.7871L14.1096 12.1621Z" fill="#40A6FF"/>
</svg>
