<svg width="22" height="22" viewBox="0 0 22 22" fill="none" xmlns="http://www.w3.org/2000/svg">
<g id="ion:calendar-outline">
<path id="Vector" d="M18.0552 3.99463H4.93018C3.84287 3.99463 2.96143 4.87607 2.96143 5.96338V17.7759C2.96143 18.8632 3.84287 19.7446 4.93018 19.7446H18.0552C19.1425 19.7446 20.0239 18.8632 20.0239 17.7759V5.96338C20.0239 4.87607 19.1425 3.99463 18.0552 3.99463Z" stroke="white" stroke-linejoin="round"/>
<path id="Vector_2" d="M13.6177 10.229C13.6177 10.4965 13.4008 10.7134 13.1333 10.7134C12.8658 10.7134 12.6489 10.4965 12.6489 10.229C12.6489 9.96149 12.8658 9.74463 13.1333 9.74463C13.4008 9.74463 13.6177 9.96149 13.6177 10.229Z" fill="white" stroke="white"/>
<path id="Vector_3" d="M16.8989 10.229C16.8989 10.4965 16.6821 10.7134 16.4146 10.7134C16.147 10.7134 15.9302 10.4965 15.9302 10.229C15.9302 9.96149 16.147 9.74463 16.4146 9.74463C16.6821 9.74463 16.8989 9.96149 16.8989 10.229Z" fill="white" stroke="white"/>
<path id="Vector_4" d="M13.6177 13.5103C13.6177 13.7778 13.4008 13.9946 13.1333 13.9946C12.8658 13.9946 12.6489 13.7778 12.6489 13.5103C12.6489 13.2427 12.8658 13.0259 13.1333 13.0259C13.4008 13.0259 13.6177 13.2427 13.6177 13.5103Z" fill="white" stroke="white"/>
<path id="Vector_5" d="M16.8989 13.5103C16.8989 13.7778 16.6821 13.9946 16.4146 13.9946C16.147 13.9946 15.9302 13.7778 15.9302 13.5103C15.9302 13.2427 16.147 13.0259 16.4146 13.0259C16.6821 13.0259 16.8989 13.2427 16.8989 13.5103Z" fill="white" stroke="white"/>
<path id="Vector_6" d="M7.05518 13.5103C7.05518 13.7778 6.83831 13.9946 6.5708 13.9946C6.30329 13.9946 6.08643 13.7778 6.08643 13.5103C6.08643 13.2427 6.30329 13.0259 6.5708 13.0259C6.83831 13.0259 7.05518 13.2427 7.05518 13.5103Z" fill="white" stroke="white"/>
<path id="Vector_7" d="M10.3364 13.5103C10.3364 13.7778 10.1196 13.9946 9.85205 13.9946C9.58454 13.9946 9.36768 13.7778 9.36768 13.5103C9.36768 13.2427 9.58454 13.0259 9.85205 13.0259C10.1196 13.0259 10.3364 13.2427 10.3364 13.5103Z" fill="white" stroke="white"/>
<path id="Vector_8" d="M7.05518 16.7915C7.05518 17.059 6.83831 17.2759 6.5708 17.2759C6.30329 17.2759 6.08643 17.059 6.08643 16.7915C6.08643 16.524 6.30329 16.3071 6.5708 16.3071C6.83831 16.3071 7.05518 16.524 7.05518 16.7915Z" fill="white" stroke="white"/>
<path id="Vector_9" d="M10.3364 16.7915C10.3364 17.059 10.1196 17.2759 9.85205 17.2759C9.58454 17.2759 9.36768 17.059 9.36768 16.7915C9.36768 16.524 9.58454 16.3071 9.85205 16.3071C10.1196 16.3071 10.3364 16.524 10.3364 16.7915Z" fill="white" stroke="white"/>
<path id="Vector_10" d="M13.6177 16.7915C13.6177 17.059 13.4008 17.2759 13.1333 17.2759C12.8658 17.2759 12.6489 17.059 12.6489 16.7915C12.6489 16.524 12.8658 16.3071 13.1333 16.3071C13.4008 16.3071 13.6177 16.524 13.6177 16.7915Z" fill="white" stroke="white"/>
<path id="Vector_11" d="M6.24268 2.68213V3.99463M16.7427 2.68213V3.99463" stroke="white" stroke-linecap="round" stroke-linejoin="round"/>
<path id="Vector_12" d="M20.0239 7.27588H2.96143" stroke="white" stroke-linejoin="round"/>
</g>
</svg>
