<svg width="41" height="41" viewBox="0 0 41 41" fill="none" xmlns="http://www.w3.org/2000/svg">
<g clip-path="url(#clip0_612_9971)">
<path d="M35.1761 4.13158C34.1839 3.21751 30.1683 0.30345 21.2152 0.264388C21.2152 0.264388 10.6605 -0.368425 5.51985 4.35033C2.66048 7.2097 1.65267 11.405 1.54329 16.6003C1.43392 21.7956 1.3011 31.53 10.6839 34.1706H10.6917L10.6839 38.2019C10.6839 38.2019 10.6214 39.8347 11.6995 40.1628C12.9964 40.5691 13.762 39.3269 15.0042 37.9909C15.6839 37.2566 16.6214 36.1785 17.3324 35.3581C23.7542 35.8972 28.6839 34.6628 29.2464 34.4831C30.5433 34.0613 37.8792 33.1238 39.0667 23.3894C40.3011 13.3425 38.473 6.99876 35.1761 4.13158ZM36.262 22.655C35.2542 30.78 29.3089 31.2956 28.2152 31.6472C27.7464 31.7956 23.4105 32.8738 17.9652 32.5222C17.9652 32.5222 13.9027 37.4206 12.637 38.6941C12.223 39.1081 11.7699 39.0691 11.7777 38.2488C11.7777 37.7097 11.8089 31.5534 11.8089 31.5534C11.8011 31.5534 11.8011 31.5534 11.8089 31.5534C3.85579 29.3503 4.32454 21.0613 4.41048 16.7253C4.49642 12.3894 5.31673 8.8347 7.7386 6.44408C12.0902 2.49876 21.0511 3.0847 21.0511 3.0847C28.6214 3.11595 32.2464 5.3972 33.0902 6.16283C35.8792 8.55345 37.3011 14.2722 36.262 22.655ZM25.4027 16.3425C25.4339 17.0144 24.4261 17.0613 24.3949 16.3894C24.3089 14.6706 23.5042 13.8347 21.848 13.741C21.1761 13.7019 21.2386 12.6941 21.9027 12.7331C24.0824 12.8503 25.2933 14.1003 25.4027 16.3425ZM26.9886 17.2253C27.0667 13.9128 24.9964 11.3191 21.0667 11.03C20.4027 10.9831 20.473 9.97533 21.137 10.0222C25.6683 10.3503 28.0824 13.4675 27.9964 17.2488C27.9886 17.9206 26.973 17.8894 26.9886 17.2253ZM30.6605 18.2722C30.6683 18.9441 29.6527 18.9519 29.6527 18.28C29.6058 11.9128 25.3636 8.44407 20.2152 8.40501C19.5511 8.3972 19.5511 7.3972 20.2152 7.3972C25.973 7.43626 30.6058 11.4128 30.6605 18.2722ZM29.7777 25.9363V25.9519C28.9339 27.4363 27.3558 29.0769 25.7308 28.5534L25.7152 28.53C24.0667 28.0691 20.1839 26.0691 17.7308 24.116C16.4652 23.1159 15.3089 21.9363 14.4183 20.8034C13.6136 19.7956 12.8011 18.6003 12.012 17.1628C10.348 14.155 9.98079 12.8113 9.98079 12.8113C9.45735 11.1863 11.0902 9.60814 12.5824 8.76439H12.598C13.3167 8.38939 14.0042 8.51439 14.4652 9.06907C14.4652 9.06907 15.4339 10.2253 15.848 10.7956C16.2386 11.3269 16.762 12.1785 17.0355 12.655C17.512 13.5066 17.2152 14.3738 16.7464 14.7331L15.8089 15.4831C15.3324 15.866 15.3949 16.5769 15.3949 16.5769C15.3949 16.5769 16.7855 21.8347 21.9808 23.1628C21.9808 23.1628 22.6917 23.2253 23.0745 22.7488L23.8245 21.8113C24.1839 21.3425 25.0511 21.0456 25.9027 21.5222C27.0511 22.1706 28.512 23.1784 29.4808 24.0925C30.0277 24.5378 30.1527 25.2175 29.7777 25.9363Z" fill="white"/>
</g>
<defs>
<clipPath id="clip0_612_9971">
<rect width="40" height="40" fill="white" transform="translate(0.48877 0.233154)"/>
</clipPath>
</defs>
</svg>
