<svg width="120" height="40" viewBox="0 0 120 40" fill="none" xmlns="http://www.w3.org/2000/svg">
<g clip-path="url(#clip0_612_9945)">
<path fill-rule="evenodd" clip-rule="evenodd" d="M77.7025 1.33838H78.8218C81.5317 1.45656 84.2416 1.8702 86.7747 2.87474C86.7747 2.93383 86.7747 2.99292 86.8336 3.05202C86.4213 5.65202 86.0089 8.31111 85.5376 10.9111C84.595 10.4975 83.7114 10.0838 82.7099 9.78838C80.7069 9.19747 78.645 8.96111 76.5832 9.13838C75.346 9.25656 74.1089 9.55201 73.1663 10.3202C72.5183 10.852 71.9881 11.6793 72.1059 12.5657C72.2237 13.452 72.8718 14.102 73.5198 14.5747C74.698 15.4611 75.994 16.1111 77.2901 16.8202C78.8218 17.5884 80.3534 18.4157 81.6495 19.4793C82.8866 20.4838 84.0059 21.7247 84.6539 23.202C85.2431 24.4429 85.4787 25.7429 85.4198 27.102C85.4198 29.2884 84.7718 31.4747 83.5936 33.3066C82.1797 35.4929 80 37.0884 77.6435 38.0338C75.1693 39.0975 72.4594 39.5111 69.7495 39.6293H68.0411C66.2737 39.5111 64.4475 39.3338 62.6802 39.0384C61.1485 38.7429 59.6168 38.3293 58.203 37.6793C58.6742 34.902 59.0866 32.1838 59.5579 29.4066C60.9129 29.9975 62.2678 30.6475 63.6817 31.1202C65.449 31.7111 67.3341 31.8884 69.1604 31.9475C70.3386 32.0066 71.5168 31.8884 72.6361 31.5338C73.4609 31.2384 74.3445 30.7656 74.8747 30.0566C75.5228 29.2293 75.6406 28.0475 75.1693 27.1611C74.8158 26.5111 74.2856 26.0384 73.7554 25.6247C72.5183 24.7384 71.1044 24.0884 69.6906 23.3793C68.0411 22.552 66.5094 21.5475 65.1544 20.3066C64.094 19.302 63.2104 18.1793 62.6802 16.8202C61.9143 14.9293 61.9733 12.8611 62.5034 10.9111C63.2104 8.19292 65.0955 5.82929 67.452 4.35202C70.5153 2.22474 74.1089 1.45656 77.7025 1.33838ZM34.6975 2.04747H44.8302C41.8257 9.43383 38.8213 16.8202 35.8168 24.2656C33.8138 29.1702 31.8109 34.1338 29.8079 39.0384H19.7341C16.9064 28.4611 14.1376 17.9429 11.3688 7.42474C11.3099 7.24747 11.3099 7.0702 11.251 6.83383C15.3158 9.19747 18.8505 12.4475 21.4426 16.3475C22.6208 18.1202 23.5634 20.0111 24.3292 21.9611C24.6827 23.7338 25.0361 25.4475 25.3307 27.2202C25.5663 26.6293 25.802 25.9793 26.0376 25.3884C28.9242 17.6475 31.8109 9.84747 34.6975 2.04747ZM48.6594 1.98838H58.203C56.2 14.3384 54.197 26.6884 52.253 39.0384H42.7094C44.6535 26.6884 46.6564 14.3384 48.6594 1.98838ZM102.445 2.16565C103.329 1.98838 104.271 2.04747 105.214 2.04747H111.341C112.99 10.1429 114.698 18.1793 116.407 26.2747C117.291 30.4702 118.174 34.7247 119.058 38.9202V38.9793H110.221C109.809 37.1475 109.455 35.2566 109.043 33.4247H96.8485C96.1416 35.2566 95.4936 37.1475 94.8455 38.9793H84.8307C86.9515 33.7793 89.1312 28.6384 91.3109 23.4384C93.844 17.2929 96.4361 11.1475 98.9693 5.00201C99.2638 4.23383 99.7351 3.52474 100.383 2.99292C100.913 2.57929 101.679 2.28383 102.445 2.16565ZM104.389 12.6838C102.799 17.1157 101.149 21.4884 99.5584 25.9202H107.452C107.099 23.9702 106.628 22.0202 106.274 20.0702C105.685 17.4111 105.214 14.752 104.625 12.152C104.507 12.2702 104.448 12.4475 104.389 12.6838Z" fill="#0E4595"/>
<path fill-rule="evenodd" clip-rule="evenodd" d="M1.35398 1.98828H16.4941C17.5545 1.98828 18.6738 2.16555 19.5574 2.81555C20.3822 3.40646 20.8535 4.35192 21.0302 5.35646C22.0906 10.911 23.2099 16.4656 24.2703 21.961C23.5045 20.011 22.5619 18.1201 21.3837 16.3474C18.8505 12.4474 15.3159 9.19737 11.251 6.89283C8.12873 5.00192 4.7119 3.70192 1.17725 2.75646V2.63828C1.23616 2.40192 1.29507 2.22464 1.35398 1.98828Z" fill="#F2AD12"/>
</g>
<defs>
<clipPath id="clip0_612_9945">
<rect width="119" height="39" fill="white" transform="translate(0.611816 0.968994)"/>
</clipPath>
</defs>
</svg>
