<svg width="56" height="56" viewBox="0 0 56 56" fill="none" xmlns="http://www.w3.org/2000/svg">
<g id="fluent:info-48-regular">
<path id="Vector" d="M28.1857 7.90853C17.1112 7.90853 8.13363 16.8861 8.13363 27.9606C8.13363 39.0351 17.1112 48.0127 28.1857 48.0127C39.2602 48.0127 48.2378 39.0351 48.2378 27.9606C48.2378 16.8861 39.2602 7.90853 28.1857 7.90853ZM5.26904 27.9606C5.26904 15.3037 15.5288 5.04395 28.1857 5.04395C40.8426 5.04395 51.1024 15.3037 51.1024 27.9606C51.1024 40.6175 40.8426 50.8773 28.1857 50.8773C15.5288 50.8773 5.26904 40.6175 5.26904 27.9606ZM28.1857 23.3773C28.9763 23.3773 29.618 24.0189 29.618 24.8096V39.1325C29.618 39.5124 29.4671 39.8767 29.1985 40.1453C28.9299 40.4139 28.5656 40.5648 28.1857 40.5648C27.8058 40.5648 27.4415 40.4139 27.1729 40.1453C26.9043 39.8767 26.7534 39.5124 26.7534 39.1325V24.8096C26.7534 24.0189 27.3951 23.3773 28.1857 23.3773ZM28.1857 19.9398C28.7935 19.9398 29.3764 19.6983 29.8062 19.2686C30.2359 18.8388 30.4774 18.2559 30.4774 17.6481C30.4774 17.0403 30.2359 16.4574 29.8062 16.0277C29.3764 15.5979 28.7935 15.3564 28.1857 15.3564C27.5779 15.3564 26.995 15.5979 26.5653 16.0277C26.1355 16.4574 25.894 17.0403 25.894 17.6481C25.894 18.2559 26.1355 18.8388 26.5653 19.2686C26.995 19.6983 27.5779 19.9398 28.1857 19.9398Z" fill="white"/>
</g>
</svg>
