<svg width="36" height="36" viewBox="0 0 36 36" fill="none" xmlns="http://www.w3.org/2000/svg">
<g id="ph:arrows-down-up-light">
<path id="Vector" d="M15.8225 26.8956C16.0516 27.1245 16.1802 27.4349 16.1802 27.7584C16.1802 28.082 16.0516 28.3923 15.8225 28.6212L9.29955 35.1328C9.07023 35.3615 8.75937 35.4899 8.43526 35.4899C8.11115 35.4899 7.80029 35.3615 7.57096 35.1328L1.04798 28.6212C0.831941 28.3898 0.714327 28.0836 0.719917 27.7673C0.725508 27.451 0.853866 27.1492 1.07795 26.9255C1.30204 26.7018 1.60435 26.5737 1.92121 26.5681C2.23806 26.5625 2.54472 26.68 2.77657 26.8956L7.2122 31.3215V1.7119C7.2122 1.38809 7.34106 1.07754 7.57042 0.848569C7.79979 0.6196 8.11088 0.490967 8.43526 0.490967C8.75963 0.490967 9.07072 0.6196 9.30009 0.848569C9.52946 1.07754 9.65832 1.38809 9.65832 1.7119V31.3215L14.0939 26.8956C14.3233 26.667 14.6341 26.5386 14.9582 26.5386C15.2823 26.5386 15.5932 26.667 15.8225 26.8956ZM35.3915 7.36073L28.8685 0.849106C28.6392 0.620466 28.3283 0.492041 28.0042 0.492041C27.6801 0.492041 27.3692 0.620466 27.1399 0.849106L20.6169 7.36073C20.4009 7.59218 20.2833 7.8983 20.2889 8.21461C20.2944 8.53091 20.4228 8.8327 20.6469 9.0564C20.871 9.28009 21.1733 9.40823 21.4901 9.41381C21.807 9.41939 22.1137 9.30198 22.3455 9.08632L26.7811 4.66044V34.27C26.7811 34.5938 26.91 34.9044 27.1394 35.1334C27.3687 35.3623 27.6798 35.491 28.0042 35.491C28.3286 35.491 28.6397 35.3623 28.869 35.1334C29.0984 34.9044 29.2273 34.5938 29.2273 34.27V4.66044L33.6629 9.08632C33.8947 9.30198 34.2014 9.41939 34.5182 9.41381C34.8351 9.40823 35.1374 9.28009 35.3615 9.0564C35.5856 8.8327 35.7139 8.53091 35.7195 8.21461C35.7251 7.8983 35.6075 7.59218 35.3915 7.36073Z" fill="white"/>
</g>
</svg>
