<svg width="50" height="23" viewBox="0 0 50 23" fill="none" xmlns="http://www.w3.org/2000/svg">
<path id="Vector" d="M49.4903 10.4145L40.1953 0.846043C39.8649 0.529137 39.4279 0.356613 38.9764 0.364815C38.5249 0.373014 38.0941 0.5613 37.7748 0.890005C37.4555 1.21871 37.2726 1.66217 37.2646 2.12696C37.2566 2.59175 37.4242 3.04158 37.7321 3.38167L44.0498 9.88819L1.78358 9.88819C1.32136 9.88819 0.878067 10.0772 0.551224 10.4137C0.22438 10.7501 0.0407677 11.2064 0.0407677 11.6823C0.0407677 12.1581 0.22438 12.6144 0.551224 12.9509C0.878067 13.2873 1.32136 13.4763 1.78358 13.4763L44.0498 13.4763L37.7321 19.9829C37.4242 20.323 37.2566 20.7728 37.2646 21.2376C37.2726 21.7024 37.4555 22.1458 37.7748 22.4745C38.0941 22.8032 38.5249 22.9915 38.9764 22.9997C39.4279 23.0079 39.8649 22.8354 40.1953 22.5185L49.4903 12.9501C49.8167 12.6137 50 12.1577 50 11.6823C50 11.2068 49.8167 10.7508 49.4903 10.4145Z" fill="white"/>
</svg>
