<svg width="26" height="20" viewBox="0 0 26 20" fill="none" xmlns="http://www.w3.org/2000/svg">
<path id="Vector" d="M0.71875 17.8153C0.71875 18.9758 1.65191 19.9174 2.80208 19.9174H23.6354C24.7856 19.9174 25.7188 18.9758 25.7188 17.8153V10.1077H0.71875V17.8153ZM9.05208 14.8374C9.05208 14.5484 9.28646 14.3119 9.57292 14.3119H15.4757C15.7622 14.3119 15.9965 14.5484 15.9965 14.8374V16.5891C15.9965 16.8781 15.7622 17.1146 15.4757 17.1146H9.57292C9.28646 17.1146 9.05208 16.8781 9.05208 16.5891V14.8374ZM3.49653 14.8374C3.49653 14.5484 3.7309 14.3119 4.01736 14.3119H7.14236C7.42882 14.3119 7.66319 14.5484 7.66319 14.8374V16.5891C7.66319 16.8781 7.42882 17.1146 7.14236 17.1146H4.01736C3.7309 17.1146 3.49653 16.8781 3.49653 16.5891V14.8374ZM25.7188 2.40016V4.50223H0.71875V2.40016C0.71875 1.23965 1.65191 0.298096 2.80208 0.298096H23.6354C24.7856 0.298096 25.7188 1.23965 25.7188 2.40016Z" fill="#40A6FF"/>
</svg>
