<svg width="93" height="79" viewBox="0 0 93 79" fill="none" xmlns="http://www.w3.org/2000/svg">
<g id="Group 13">
<path id="Vector" d="M92.1379 47.8804C89.7789 33.6629 76.3265 24.0996 62.1728 26.5223L66.3169 2.70961L51.1112 0C49.8361 2.869 44.0981 15.9389 41.3247 30.6027C46.9671 34.428 51.1112 40.4848 52.3544 47.8167C53.6295 55.563 51.3981 63.118 46.7439 68.7285C47.8915 70.1311 49.1985 71.4062 50.6649 72.5538C56.5623 77.208 63.7348 79.025 70.7479 77.8455C84.9973 75.4866 94.5606 62.0341 92.106 47.8804H92.1379Z" fill="#054752"/>
<path id="Vector_2" d="M41.0695 32.2603L41.3883 30.6664C35.9691 26.9686 29.2747 25.311 22.3254 26.4586L26.4695 2.67773L11.2957 0C9.95682 2.96463 3.83629 16.8952 1.22231 32.1966C-0.881623 44.5651 -0.785989 57.8263 5.6852 67.1665C7.1197 69.1748 8.80922 70.9918 10.8494 72.5857C16.7787 77.2399 23.983 79.0569 30.9961 77.8774C37.4355 76.8254 42.8866 73.4145 46.7438 68.7922L45.5324 67.1984C39.0294 57.89 38.9337 44.6289 41.0695 32.2922V32.2603Z" fill="#2DBEFF"/>
<path id="Vector_3" d="M52.3854 47.8801C51.1102 40.5482 46.9661 34.4915 41.3556 30.6661L41.0369 32.26C38.9648 44.6286 39.0604 57.8898 45.5635 67.2299L46.743 68.8238C51.3971 63.0858 53.6923 55.5627 52.3535 47.7845L52.3854 47.8801Z" fill="#9EF769"/>
</g>
</svg>
