<svg width="24" height="24" viewBox="0 0 24 24" fill="none" xmlns="http://www.w3.org/2000/svg">
<path id="Vector" d="M10.1295 17.7806C10.2832 17.93 10.3694 18.1326 10.3694 18.3438C10.3694 18.5549 10.2832 18.7575 10.1295 18.9069L5.75454 23.1569C5.60073 23.3061 5.39223 23.3899 5.17485 23.3899C4.95747 23.3899 4.74897 23.3061 4.59516 23.1569L0.220163 18.9069C0.0752627 18.7558 -0.00362181 18.556 0.000127802 18.3496C0.00387741 18.1431 0.0899684 17.9462 0.240264 17.8002C0.390559 17.6542 0.593324 17.5705 0.805841 17.5669C1.01836 17.5632 1.22403 17.6399 1.37954 17.7806L4.35454 20.6693V1.34375C4.35454 1.13241 4.44096 0.929717 4.5948 0.780274C4.74864 0.630831 4.95729 0.546875 5.17485 0.546875C5.39241 0.546875 5.60106 0.630831 5.7549 0.780274C5.90874 0.929717 5.99516 1.13241 5.99516 1.34375V20.6693L8.97016 17.7806C9.12397 17.6314 9.33247 17.5476 9.54985 17.5476C9.76723 17.5476 9.97573 17.6314 10.1295 17.7806ZM23.2545 5.03063L18.8795 0.780625C18.7257 0.631396 18.5172 0.547576 18.2999 0.547576C18.0825 0.547576 17.874 0.631396 17.7202 0.780625L13.3452 5.03063C13.2003 5.18169 13.1214 5.38148 13.1251 5.58793C13.1289 5.79437 13.215 5.99135 13.3653 6.13735C13.5156 6.28335 13.7183 6.36698 13.9308 6.37062C14.1434 6.37427 14.349 6.29763 14.5045 6.15687L17.4795 3.2682V22.5938C17.4795 22.8051 17.566 23.0078 17.7198 23.1572C17.8736 23.3067 18.0823 23.3906 18.2999 23.3906C18.5174 23.3906 18.7261 23.3067 18.8799 23.1572C19.0337 23.0078 19.1202 22.8051 19.1202 22.5938V3.2682L22.0952 6.15687C22.2507 6.29763 22.4563 6.37427 22.6689 6.37062C22.8814 6.36698 23.0841 6.28335 23.2344 6.13735C23.3847 5.99135 23.4708 5.79437 23.4746 5.58793C23.4783 5.38148 23.3994 5.18169 23.2545 5.03063Z" fill="#40A6FF"/>
</svg>
