<svg width="36" height="36" viewBox="0 0 36 36" fill="none" xmlns="http://www.w3.org/2000/svg">
<g id="ion:calendar-outline">
<path id="Vector" d="M29.1572 6.46118H7.28223C5.47004 6.46118 4.00098 7.93025 4.00098 9.74243V29.4299C4.00098 31.2421 5.47004 32.7112 7.28223 32.7112H29.1572C30.9694 32.7112 32.4385 31.2421 32.4385 29.4299V9.74243C32.4385 7.93025 30.9694 6.46118 29.1572 6.46118Z" stroke="white" stroke-width="1.5" stroke-linejoin="round"/>
<path id="Vector_2" d="M21.8447 16.8518C21.8447 17.3437 21.446 17.7424 20.9541 17.7424C20.4622 17.7424 20.0635 17.3437 20.0635 16.8518C20.0635 16.3599 20.4622 15.9612 20.9541 15.9612C21.446 15.9612 21.8447 16.3599 21.8447 16.8518Z" fill="#3625FF" stroke="white" stroke-width="1.5"/>
<path id="Vector_3" d="M27.3135 16.8518C27.3135 17.3437 26.9147 17.7424 26.4229 17.7424C25.931 17.7424 25.5322 17.3437 25.5322 16.8518C25.5322 16.3599 25.931 15.9612 26.4229 15.9612C26.9147 15.9612 27.3135 16.3599 27.3135 16.8518Z" fill="#3625FF" stroke="white" stroke-width="1.5"/>
<path id="Vector_4" d="M21.8447 22.3206C21.8447 22.8124 21.446 23.2112 20.9541 23.2112C20.4622 23.2112 20.0635 22.8124 20.0635 22.3206C20.0635 21.8287 20.4622 21.4299 20.9541 21.4299C21.446 21.4299 21.8447 21.8287 21.8447 22.3206Z" fill="#3625FF" stroke="white" stroke-width="1.5"/>
<path id="Vector_5" d="M27.3135 22.3206C27.3135 22.8124 26.9147 23.2112 26.4229 23.2112C25.931 23.2112 25.5322 22.8124 25.5322 22.3206C25.5322 21.8287 25.931 21.4299 26.4229 21.4299C26.9147 21.4299 27.3135 21.8287 27.3135 22.3206Z" fill="#3625FF" stroke="white" stroke-width="1.5"/>
<path id="Vector_6" d="M10.9072 22.3206C10.9072 22.8124 10.5085 23.2112 10.0166 23.2112C9.52472 23.2112 9.12598 22.8124 9.12598 22.3206C9.12598 21.8287 9.52472 21.4299 10.0166 21.4299C10.5085 21.4299 10.9072 21.8287 10.9072 22.3206Z" fill="#3625FF" stroke="white" stroke-width="1.5"/>
<path id="Vector_7" d="M16.376 22.3206C16.376 22.8124 15.9772 23.2112 15.4854 23.2112C14.9935 23.2112 14.5947 22.8124 14.5947 22.3206C14.5947 21.8287 14.9935 21.4299 15.4854 21.4299C15.9772 21.4299 16.376 21.8287 16.376 22.3206Z" fill="#3625FF" stroke="white" stroke-width="1.5"/>
<path id="Vector_8" d="M10.9072 27.7893C10.9072 28.2812 10.5085 28.6799 10.0166 28.6799C9.52472 28.6799 9.12598 28.2812 9.12598 27.7893C9.12598 27.2974 9.52472 26.8987 10.0166 26.8987C10.5085 26.8987 10.9072 27.2974 10.9072 27.7893Z" fill="#3625FF" stroke="white" stroke-width="1.5"/>
<path id="Vector_9" d="M16.376 27.7893C16.376 28.2812 15.9772 28.6799 15.4854 28.6799C14.9935 28.6799 14.5947 28.2812 14.5947 27.7893C14.5947 27.2974 14.9935 26.8987 15.4854 26.8987C15.9772 26.8987 16.376 27.2974 16.376 27.7893Z" fill="#3625FF" stroke="white" stroke-width="1.5"/>
<path id="Vector_10" d="M21.8447 27.7893C21.8447 28.2812 21.446 28.6799 20.9541 28.6799C20.4622 28.6799 20.0635 28.2812 20.0635 27.7893C20.0635 27.2974 20.4622 26.8987 20.9541 26.8987C21.446 26.8987 21.8447 27.2974 21.8447 27.7893Z" fill="#3625FF" stroke="white" stroke-width="1.5"/>
<path id="Vector_11" d="M9.46973 4.27368V6.46118M26.9697 4.27368V6.46118" stroke="white" stroke-width="1.5" stroke-linecap="round" stroke-linejoin="round"/>
<path id="Vector_12" d="M32.4385 11.9299H4.00098" stroke="white" stroke-width="1.5" stroke-linejoin="round"/>
</g>
</svg>
