<svg width="23" height="28" viewBox="0 0 23 28" fill="none" xmlns="http://www.w3.org/2000/svg">
<g id="ph:clock-light" clip-path="url(#clip0_724_1125)">
<path id="Vector" d="M11.1563 3.37939C8.94976 3.37939 6.79281 4.01033 4.95817 5.19241C3.12354 6.3745 1.69361 8.05464 0.849224 10.0204C0.00483364 11.9861 -0.216097 14.1491 0.214369 16.236C0.644836 18.3228 1.70737 20.2396 3.26759 21.7441C4.82782 23.2486 6.81568 24.2732 8.97978 24.6883C11.1439 25.1034 13.387 24.8904 15.4256 24.0761C17.4641 23.2619 19.2065 21.883 20.4323 20.1139C21.6582 18.3448 22.3125 16.2649 22.3125 14.1372C22.309 11.2851 21.1325 8.55074 19.0411 6.53398C16.9496 4.51723 14.114 3.38274 11.1563 3.37939ZM11.1563 23.6294C9.20934 23.6294 7.30616 23.0727 5.68736 22.0297C4.06856 20.9867 2.80687 19.5042 2.06182 17.7697C1.31677 16.0352 1.12183 14.1267 1.50165 12.2854C1.88147 10.4441 2.819 8.75272 4.19567 7.42522C5.57235 6.09771 7.32633 5.19367 9.23584 4.82741C11.1453 4.46115 13.1246 4.64913 14.9233 5.36757C16.722 6.08601 18.2594 7.30265 19.341 8.86363C20.4227 10.4246 21 12.2598 21 14.1372C20.9971 16.6538 19.9591 19.0666 18.1136 20.8461C16.2682 22.6256 13.7661 23.6266 11.1563 23.6294ZM17.9375 14.1372C17.9375 14.305 17.8684 14.466 17.7453 14.5847C17.6222 14.7034 17.4553 14.77 17.2813 14.77H11.1563C10.9822 14.77 10.8153 14.7034 10.6922 14.5847C10.5691 14.466 10.5 14.305 10.5 14.1372V8.23096C10.5 8.06313 10.5691 7.90217 10.6922 7.78349C10.8153 7.66482 10.9822 7.59815 11.1563 7.59815C11.3303 7.59815 11.4972 7.66482 11.6203 7.78349C11.7434 7.90217 11.8125 8.06313 11.8125 8.23096V13.5044H17.2813C17.4553 13.5044 17.6222 13.5711 17.7453 13.6897C17.8684 13.8084 17.9375 13.9694 17.9375 14.1372Z" fill="#40A6FF"/>
</g>
<defs>
<clipPath id="clip0_724_1125">
<rect width="23" height="27" fill="white" transform="translate(0 0.637207)"/>
</clipPath>
</defs>
</svg>
