<svg xmlns="http://www.w3.org/2000/svg" width="9" height="20" viewBox="0 0 9 20" fill="none">
    <path d="M8.60843 15.0769C8.73898 15.2038 8.81231 15.376 8.81231 15.5554C8.81231 15.7349 8.73898 15.907 8.60843 16.034L4.89041 19.6458C4.75969 19.7726 4.58251 19.8438 4.39777 19.8438C4.21303 19.8438 4.03584 19.7726 3.90513 19.6458L0.187102 16.034C0.0639608 15.9056 -0.00307794 15.7358 0.00010861 15.5604C0.00329516 15.3849 0.0764583 15.2175 0.204185 15.0935C0.331911 14.9694 0.504228 14.8983 0.684832 14.8952C0.865436 14.8921 1.04023 14.9572 1.17238 15.0769L3.70064 17.5318V1.10824C3.70064 0.928635 3.77409 0.756383 3.90482 0.629381C4.03556 0.502379 4.21288 0.43103 4.39777 0.43103C4.58266 0.43103 4.75998 0.502379 4.89071 0.629381C5.02145 0.756383 5.0949 0.928635 5.0949 1.10824V17.5318L7.62316 15.0769C7.75387 14.9501 7.93106 14.8788 8.1158 14.8788C8.30054 14.8788 8.47772 14.9501 8.60843 15.0769Z" fill="white"/>
</svg>