<svg width="29" height="29" viewBox="0 0 29 29" fill="none" xmlns="http://www.w3.org/2000/svg">
<g id="gridicons:visible">
<path id="Vector" d="M14.1624 7.41309C6.2151 7.41309 1.3291 14.4131 1.3291 14.4131C1.3291 14.4131 6.2151 21.4131 14.1624 21.4131C22.1098 21.4131 26.9958 14.4131 26.9958 14.4131C26.9958 14.4131 22.1098 7.41309 14.1624 7.41309ZM14.1624 19.0798C9.56227 19.0798 6.0821 16.1818 4.38694 14.4131C5.60027 13.1473 7.72594 11.3133 10.5166 10.3659C9.85942 11.1825 9.49943 12.1983 9.49577 13.2464C9.49577 14.4841 9.98743 15.6711 10.8626 16.5463C11.7378 17.4214 12.9248 17.9131 14.1624 17.9131C15.4001 17.9131 16.5871 17.4214 17.4623 16.5463C18.3374 15.6711 18.8291 14.4841 18.8291 13.2464C18.8254 12.1983 18.4655 11.1825 17.8083 10.3659C20.6001 11.3133 22.7269 13.1484 23.9379 14.4131C22.2404 16.1841 18.7614 19.0798 14.1624 19.0798Z" fill="#40A6FF"/>
</g>
</svg>
