<svg width="41" height="41" viewBox="0 0 41 41" fill="none" xmlns="http://www.w3.org/2000/svg">
<g id="facebook-square">
<path id="Vector" d="M34.2388 2.73315H6.73877C5.74421 2.73315 4.79038 3.12824 4.08712 3.8315C3.38386 4.53477 2.98877 5.48859 2.98877 6.48315L2.98877 33.9832C2.98877 34.9777 3.38386 35.9315 4.08712 36.6348C4.79038 37.3381 5.74421 37.7332 6.73877 37.7332H17.4614V25.8339H12.5396V20.2332H17.4614V15.9644C17.4614 11.1089 20.3521 8.4269 24.7794 8.4269C26.8997 8.4269 29.1169 8.80503 29.1169 8.80503V13.5707H26.6739C24.2669 13.5707 23.5161 15.0644 23.5161 16.5964V20.2332H28.8896L28.0302 25.8339H23.5161V37.7332H34.2388C35.2333 37.7332 36.1872 37.3381 36.8904 36.6348C37.5937 35.9315 37.9888 34.9777 37.9888 33.9832V6.48315C37.9888 5.48859 37.5937 4.53477 36.8904 3.8315C36.1872 3.12824 35.2333 2.73315 34.2388 2.73315Z" fill="white"/>
</g>
</svg>
