<svg width="55" height="56" viewBox="0 0 55 56" fill="none" xmlns="http://www.w3.org/2000/svg">
<g id="system-uicons:filtering">
<path id="Vector" d="M48.4516 16.1652H19.6421M14.404 16.1652H6.54688M48.4516 42.3557H19.6421M14.404 42.3557H6.54688M35.3564 29.2605H6.54688M48.4516 29.2605H40.5945M17.0231 10.9271C17.7177 10.9271 18.3838 11.2031 18.875 11.6942C19.3662 12.1854 19.6421 12.8516 19.6421 13.5462V18.7843C19.6421 19.4789 19.3662 20.145 18.875 20.6362C18.3838 21.1274 17.7177 21.4033 17.0231 21.4033C16.3285 21.4033 15.6623 21.1274 15.1711 20.6362C14.68 20.145 14.404 19.4789 14.404 18.7843V13.5462C14.404 12.8516 14.68 12.1854 15.1711 11.6942C15.6623 11.2031 16.3285 10.9271 17.0231 10.9271ZM17.0231 37.1176C17.7177 37.1176 18.3838 37.3935 18.875 37.8847C19.3662 38.3759 19.6421 39.042 19.6421 39.7366V44.9747C19.6421 45.6694 19.3662 46.3355 18.875 46.8267C18.3838 47.3179 17.7177 47.5938 17.0231 47.5938C16.3285 47.5938 15.6623 47.3179 15.1711 46.8267C14.68 46.3355 14.404 45.6694 14.404 44.9747V39.7366C14.404 39.042 14.68 38.3759 15.1711 37.8847C15.6623 37.3935 16.3285 37.1176 17.0231 37.1176ZM37.9754 24.0224C38.6701 24.0224 39.3362 24.2983 39.8274 24.7895C40.3186 25.2806 40.5945 25.9468 40.5945 26.6414V31.8795C40.5945 32.5741 40.3186 33.2403 39.8274 33.7315C39.3362 34.2226 38.6701 34.4986 37.9754 34.4986C37.2808 34.4986 36.6147 34.2226 36.1235 33.7315C35.6323 33.2403 35.3564 32.5741 35.3564 31.8795V26.6414C35.3564 25.9468 35.6323 25.2806 36.1235 24.7895C36.6147 24.2983 37.2808 24.0224 37.9754 24.0224Z" stroke="#40A6FF" stroke-width="2.61905" stroke-linecap="round" stroke-linejoin="round"/>
</g>
</svg>
