<svg xmlns="http://www.w3.org/2000/svg" width="36" height="36" viewBox="0 0 36 36" fill="none">
    <path d="M28.667 5.59045H6.79199C4.97981 5.59045 3.51074 7.05952 3.51074 8.8717V28.5592C3.51074 30.3714 4.97981 31.8405 6.79199 31.8405H28.667C30.4792 31.8405 31.9482 30.3714 31.9482 28.5592V8.8717C31.9482 7.05952 30.4792 5.59045 28.667 5.59045Z" stroke="#2C2C2C" stroke-width="1.5" stroke-linejoin="round"/>
    <path d="M20.4639 17.6217C21.37 17.6217 22.1045 16.8872 22.1045 15.9811C22.1045 15.075 21.37 14.3405 20.4639 14.3405C19.5578 14.3405 18.8232 15.075 18.8232 15.9811C18.8232 16.8872 19.5578 17.6217 20.4639 17.6217Z" fill="#2C2C2C"/>
    <path d="M25.9326 17.6217C26.8387 17.6217 27.5732 16.8872 27.5732 15.9811C27.5732 15.075 26.8387 14.3405 25.9326 14.3405C25.0265 14.3405 24.292 15.075 24.292 15.9811C24.292 16.8872 25.0265 17.6217 25.9326 17.6217Z" fill="#2C2C2C"/>
    <path d="M20.4639 23.0905C21.37 23.0905 22.1045 22.3559 22.1045 21.4498C22.1045 20.5437 21.37 19.8092 20.4639 19.8092C19.5578 19.8092 18.8232 20.5437 18.8232 21.4498C18.8232 22.3559 19.5578 23.0905 20.4639 23.0905Z" fill="#2C2C2C"/>
    <path d="M25.9326 23.0905C26.8387 23.0905 27.5732 22.3559 27.5732 21.4498C27.5732 20.5437 26.8387 19.8092 25.9326 19.8092C25.0265 19.8092 24.292 20.5437 24.292 21.4498C24.292 22.3559 25.0265 23.0905 25.9326 23.0905Z" fill="#2C2C2C"/>
    <path d="M9.52637 23.0905C10.4325 23.0905 11.167 22.3559 11.167 21.4498C11.167 20.5437 10.4325 19.8092 9.52637 19.8092C8.62028 19.8092 7.88574 20.5437 7.88574 21.4498C7.88574 22.3559 8.62028 23.0905 9.52637 23.0905Z" fill="#2C2C2C"/>
    <path d="M14.9951 23.0905C15.9012 23.0905 16.6357 22.3559 16.6357 21.4498C16.6357 20.5437 15.9012 19.8092 14.9951 19.8092C14.089 19.8092 13.3545 20.5437 13.3545 21.4498C13.3545 22.3559 14.089 23.0905 14.9951 23.0905Z" fill="#2C2C2C"/>
    <path d="M9.52637 28.5592C10.4325 28.5592 11.167 27.8247 11.167 26.9186C11.167 26.0125 10.4325 25.278 9.52637 25.278C8.62028 25.278 7.88574 26.0125 7.88574 26.9186C7.88574 27.8247 8.62028 28.5592 9.52637 28.5592Z" fill="#2C2C2C"/>
    <path d="M14.9951 28.5592C15.9012 28.5592 16.6357 27.8247 16.6357 26.9186C16.6357 26.0125 15.9012 25.278 14.9951 25.278C14.089 25.278 13.3545 26.0125 13.3545 26.9186C13.3545 27.8247 14.089 28.5592 14.9951 28.5592Z" fill="#2C2C2C"/>
    <path d="M20.4639 28.5592C21.37 28.5592 22.1045 27.8247 22.1045 26.9186C22.1045 26.0125 21.37 25.278 20.4639 25.278C19.5578 25.278 18.8232 26.0125 18.8232 26.9186C18.8232 27.8247 19.5578 28.5592 20.4639 28.5592Z" fill="#2C2C2C"/>
    <path d="M8.97949 3.40295V5.59045M26.4795 3.40295V5.59045" stroke="#2C2C2C" stroke-width="1.5" stroke-linecap="round" stroke-linejoin="round"/>
    <path d="M31.9482 11.0592H3.51074" stroke="#2C2C2C" stroke-width="1.5" stroke-linejoin="round"/>
</svg>