<svg width="47" height="19" viewBox="0 0 47 19" fill="none" xmlns="http://www.w3.org/2000/svg">
<g id="Frame" clip-path="url(#clip0_240_24104)">
<path id="Vector" d="M21.9728 9.51068V14.8177H20.2861V1.7124H24.7575C25.8907 1.7124 26.857 2.0896 27.6476 2.84399C28.4558 3.59837 28.8599 4.51942 28.8599 5.60714C28.8599 6.72117 28.4558 7.64223 27.6476 8.38785C26.8658 9.13343 25.8995 9.5019 24.7575 9.5019H21.9728V9.51068ZM21.9728 3.32644V7.89661H24.7926C25.4602 7.89661 26.0224 7.66854 26.4617 7.22118C26.9097 6.7738 27.1381 6.22994 27.1381 5.6159C27.1381 5.01065 26.9097 4.47556 26.4617 4.02819C26.0224 3.56328 25.469 3.33521 24.7926 3.33521H21.9728V3.32644Z" fill="#5F6368"/>
<path id="Vector_2" d="M33.2694 5.55432C34.5169 5.55432 35.5007 5.88765 36.2211 6.55432C36.9414 7.22099 37.3016 8.13327 37.3016 9.29115V14.8175H35.694V13.5719H35.6238C34.9297 14.5982 33.9986 15.107 32.839 15.107C31.8464 15.107 31.0206 14.8175 30.353 14.2298C29.6853 13.6421 29.3516 12.914 29.3516 12.0368C29.3516 11.107 29.7029 10.3701 30.4057 9.82628C31.1085 9.2736 32.0484 9.00165 33.2168 9.00165C34.2182 9.00165 35.0439 9.18593 35.6852 9.55433V9.16838C35.6852 8.5806 35.4568 8.0894 34.9913 7.67713C34.5257 7.26485 33.981 7.06309 33.3573 7.06309C32.4174 7.06309 31.6707 7.45783 31.126 8.25608L29.6414 7.32625C30.4584 6.14204 31.6707 5.55432 33.2694 5.55432ZM31.0909 12.0631C31.0909 12.5017 31.2754 12.8701 31.6531 13.1596C32.0221 13.4491 32.4612 13.5982 32.962 13.5982C33.6735 13.5982 34.306 13.335 34.8594 12.8087C35.4129 12.2824 35.694 11.6684 35.694 10.9578C35.167 10.5455 34.4378 10.335 33.4979 10.335C32.8126 10.335 32.2417 10.5017 31.7849 10.8263C31.3193 11.1683 31.0909 11.5806 31.0909 12.0631Z" fill="#5F6368"/>
<path id="Vector_3" d="M46.4729 5.84399L40.8508 18.7563H39.1115L41.2022 14.2388L37.4951 5.84399H39.3311L42.0016 12.2826H42.0367L44.637 5.84399H46.4729Z" fill="#5F6368"/>
<path id="Vector_4" d="M15.2641 8.44043C15.2641 7.8913 15.2149 7.36586 15.1236 6.8606H8.05371V9.75533L12.1254 9.75623C11.9602 10.7194 11.4288 11.5404 10.6145 12.0878V13.9658H13.0381C14.4533 12.658 15.2641 10.7246 15.2641 8.44043Z" fill="#4285F4"/>
<path id="Vector_5" d="M10.6144 12.0876C9.93976 12.542 9.07093 12.8078 8.05454 12.8078C6.09122 12.8078 4.42566 11.4868 3.82919 9.70605H1.3291V11.6429C2.56773 14.0973 5.1135 15.7815 8.05454 15.7815C10.0873 15.7815 11.7951 15.1139 13.038 13.9649L10.6144 12.0876Z" fill="#34A853"/>
<path id="Vector_6" d="M3.59423 8.26935C3.59423 7.76933 3.67769 7.286 3.82966 6.83161V4.89478H1.32957C0.817426 5.90968 0.529297 7.0553 0.529297 8.26935C0.529297 9.48337 0.818307 10.629 1.32957 11.6439L3.82966 9.70702C3.67769 9.25267 3.59423 8.7693 3.59423 8.26935Z" fill="#FABB05"/>
<path id="Vector_7" d="M8.05454 3.72991C9.16404 3.72991 10.1576 4.11149 10.9421 4.8571L13.0899 2.71412C11.7854 1.50096 10.0847 0.756226 8.05454 0.756226C5.11438 0.756226 2.56773 2.44043 1.3291 4.89482L3.82919 6.83166C4.42566 5.05096 6.09122 3.72991 8.05454 3.72991Z" fill="#E94235"/>
</g>
<defs>
<clipPath id="clip0_240_24104">
<rect width="47" height="18" fill="white" transform="translate(0 0.756226)"/>
</clipPath>
</defs>
</svg>
