<svg xmlns="http://www.w3.org/2000/svg" width="26" height="26" viewBox="0 0 26 26" fill="none">
    <g clip-path="url(#clip0_421_17501)">
        <path d="M13.5547 2.06484C13.2869 2.04507 13.0185 2.03517 12.75 2.03516V0.472656C13.0571 0.472806 13.3641 0.484272 13.6703 0.507031L13.5547 2.06484ZM16.6859 2.76797C16.1851 2.57469 15.6707 2.41854 15.1469 2.30078L15.4891 0.775781C16.0875 0.910156 16.6766 1.08828 17.2484 1.31016L16.6859 2.76797ZM18.8266 3.87734C18.6032 3.72836 18.3744 3.58764 18.1406 3.45547L18.9109 2.09609C19.4452 2.39881 19.9564 2.74035 20.4406 3.11797L19.4797 4.35078C19.2679 4.18552 19.05 4.02812 18.8266 3.87891V3.87734ZM21.6922 6.67422C21.3831 6.23512 21.0421 5.81941 20.6719 5.43047L21.8031 4.35234C22.225 4.79766 22.6156 5.27422 22.9703 5.77422L21.6922 6.67422ZM22.8547 8.78672C22.7521 8.539 22.6406 8.29509 22.5203 8.05547L23.9156 7.35234C24.1916 7.90091 24.4266 8.46913 24.6188 9.05234L23.1344 9.54141C23.0504 9.28651 22.9571 9.03478 22.8547 8.78672ZM23.6828 12.7039C23.6702 12.1669 23.618 11.6316 23.5266 11.1023L25.0656 10.8367C25.1703 11.4398 25.2313 12.0523 25.2469 12.6648L23.6844 12.7039H23.6828ZM23.4781 15.107C23.5297 14.8414 23.5719 14.5773 23.6047 14.3102L25.1562 14.5023C25.0812 15.112 24.9611 15.7152 24.7969 16.307L23.2906 15.8898C23.3625 15.632 23.425 15.3711 23.4781 15.107ZM21.9906 18.8242C22.2781 18.3711 22.5312 17.8961 22.75 17.4055L24.1781 18.0383C23.9281 18.6008 23.6391 19.1414 23.3109 19.6602L21.9906 18.8242ZM20.4844 20.707C20.675 20.5164 20.8578 20.3195 21.0313 20.1164L22.2156 21.1367C22.0151 21.3693 21.8061 21.5944 21.5891 21.8117L20.4844 20.707Z" fill="#40A6FF"/>
        <path d="M12.751 2.03516C10.9524 2.03529 9.18151 2.47898 7.59532 3.32694C6.00912 4.17489 4.65652 5.40094 3.65731 6.89648C2.65811 8.39203 2.04315 10.1109 1.8669 11.9009C1.69065 13.6908 1.95855 15.4967 2.64688 17.1584C3.3352 18.8201 4.4227 20.2864 5.81305 21.4274C7.2034 22.5685 8.85369 23.349 10.6177 23.7C12.3818 24.0509 14.2052 23.9614 15.9264 23.4393C17.6476 22.9173 19.2135 21.9788 20.4854 20.707L21.59 21.8117C20.1365 23.2661 18.3467 24.3394 16.3792 24.9367C14.4116 25.534 12.3272 25.6368 10.3105 25.2359C8.29372 24.8351 6.407 23.9429 4.81746 22.6386C3.22791 21.3343 1.98462 19.6581 1.19775 17.7584C0.410871 15.8588 0.104703 13.7943 0.306372 11.7481C0.50804 9.70181 1.21132 7.73688 2.35389 6.02737C3.49647 4.31787 5.04306 2.91658 6.85664 1.94766C8.67022 0.978742 10.6948 0.472111 12.751 0.472657V2.03516Z" fill="#40A6FF"/>
        <path d="M11.9688 5.16016C12.176 5.16016 12.3747 5.24247 12.5212 5.38898C12.6677 5.53549 12.75 5.73421 12.75 5.94141V14.082L17.825 16.982C17.9997 17.0874 18.1262 17.2569 18.1775 17.4544C18.2289 17.6518 18.201 17.8615 18.0998 18.0386C17.9986 18.2157 17.8321 18.3462 17.6359 18.4022C17.4398 18.4582 17.2295 18.4353 17.05 18.3383L11.5812 15.2133C11.4617 15.145 11.3623 15.0463 11.2931 14.9272C11.224 14.8081 11.1875 14.6729 11.1875 14.5352V5.94141C11.1875 5.73421 11.2698 5.53549 11.4163 5.38898C11.5628 5.24247 11.7615 5.16016 11.9688 5.16016Z" fill="#40A6FF"/>
    </g>
    <defs>
        <clipPath id="clip0_421_17501">
            <rect width="25" height="25" fill="white" transform="translate(0.25 0.472656)"/>
        </clipPath>
    </defs>
</svg>