<svg width="36" height="36" viewBox="0 0 36 36" fill="none" xmlns="http://www.w3.org/2000/svg">
<g id="ion:calendar-outline">
<path id="Vector" d="M28.626 5.80859H6.75098C4.93879 5.80859 3.46973 7.27766 3.46973 9.08984V28.7773C3.46973 30.5895 4.93879 32.0586 6.75098 32.0586H28.626C30.4382 32.0586 31.9072 30.5895 31.9072 28.7773V9.08984C31.9072 7.27766 30.4382 5.80859 28.626 5.80859Z" stroke="#40A6FF" stroke-width="2" stroke-linejoin="round"/>
<path id="Vector_2" d="M21.0635 16.1992C21.0635 16.553 20.7767 16.8398 20.4229 16.8398C20.069 16.8398 19.7822 16.553 19.7822 16.1992C19.7822 15.8454 20.069 15.5586 20.4229 15.5586C20.7767 15.5586 21.0635 15.8454 21.0635 16.1992Z" fill="#40A6FF" stroke="#40A6FF" stroke-width="2"/>
<path id="Vector_3" d="M26.5322 16.1992C26.5322 16.553 26.2454 16.8398 25.8916 16.8398C25.5378 16.8398 25.251 16.553 25.251 16.1992C25.251 15.8454 25.5378 15.5586 25.8916 15.5586C26.2454 15.5586 26.5322 15.8454 26.5322 16.1992Z" fill="#40A6FF" stroke="#40A6FF" stroke-width="2"/>
<path id="Vector_4" d="M21.0635 21.668C21.0635 22.0218 20.7767 22.3086 20.4229 22.3086C20.069 22.3086 19.7822 22.0218 19.7822 21.668C19.7822 21.3142 20.069 21.0273 20.4229 21.0273C20.7767 21.0273 21.0635 21.3142 21.0635 21.668Z" fill="#40A6FF" stroke="#40A6FF" stroke-width="2"/>
<path id="Vector_5" d="M26.5322 21.668C26.5322 22.0218 26.2454 22.3086 25.8916 22.3086C25.5378 22.3086 25.251 22.0218 25.251 21.668C25.251 21.3142 25.5378 21.0273 25.8916 21.0273C26.2454 21.0273 26.5322 21.3142 26.5322 21.668Z" fill="#40A6FF" stroke="#40A6FF" stroke-width="2"/>
<path id="Vector_6" d="M10.126 21.668C10.126 22.0218 9.83916 22.3086 9.48535 22.3086C9.13154 22.3086 8.84473 22.0218 8.84473 21.668C8.84473 21.3142 9.13154 21.0273 9.48535 21.0273C9.83916 21.0273 10.126 21.3142 10.126 21.668Z" fill="#40A6FF" stroke="#40A6FF" stroke-width="2"/>
<path id="Vector_7" d="M15.5947 21.668C15.5947 22.0218 15.3079 22.3086 14.9541 22.3086C14.6003 22.3086 14.3135 22.0218 14.3135 21.668C14.3135 21.3142 14.6003 21.0273 14.9541 21.0273C15.3079 21.0273 15.5947 21.3142 15.5947 21.668Z" fill="#40A6FF" stroke="#40A6FF" stroke-width="2"/>
<path id="Vector_8" d="M10.126 27.1367C10.126 27.4905 9.83916 27.7773 9.48535 27.7773C9.13154 27.7773 8.84473 27.4905 8.84473 27.1367C8.84473 26.7829 9.13154 26.4961 9.48535 26.4961C9.83916 26.4961 10.126 26.7829 10.126 27.1367Z" fill="#40A6FF" stroke="#40A6FF" stroke-width="2"/>
<path id="Vector_9" d="M15.5947 27.1367C15.5947 27.4905 15.3079 27.7773 14.9541 27.7773C14.6003 27.7773 14.3135 27.4905 14.3135 27.1367C14.3135 26.7829 14.6003 26.4961 14.9541 26.4961C15.3079 26.4961 15.5947 26.7829 15.5947 27.1367Z" fill="#40A6FF" stroke="#40A6FF" stroke-width="2"/>
<path id="Vector_10" d="M21.0635 27.1367C21.0635 27.4905 20.7767 27.7773 20.4229 27.7773C20.069 27.7773 19.7822 27.4905 19.7822 27.1367C19.7822 26.7829 20.069 26.4961 20.4229 26.4961C20.7767 26.4961 21.0635 26.7829 21.0635 27.1367Z" fill="#40A6FF" stroke="#40A6FF" stroke-width="2"/>
<path id="Vector_11" d="M8.93848 3.62109V5.80859M26.4385 3.62109V5.80859" stroke="#40A6FF" stroke-width="2" stroke-linecap="round" stroke-linejoin="round"/>
<path id="Vector_12" d="M31.9072 11.2773H3.46973" stroke="#40A6FF" stroke-width="2" stroke-linejoin="round"/>
</g>
</svg>
