<svg width="560" height="559" viewBox="0 0 560 559" fill="none" xmlns="http://www.w3.org/2000/svg">
<circle cx="280.004" cy="279.576" r="200.688" fill="#40A6FF"/>
<path fill-rule="evenodd" clip-rule="evenodd" d="M150.753 252.767L132.494 230.326H370.162C386.315 230.326 400.101 242.033 402.735 258.002L402.866 258.793H391.156V261.956H403.388L414.562 329.674H386.496L385.124 326.692C381.681 319.207 374.203 314.41 365.969 314.41C356.142 314.41 347.621 321.204 345.417 330.787L345.109 332.128L351.274 333.546L351.582 332.204C353.127 325.489 359.095 320.736 365.969 320.736C371.728 320.736 376.965 324.092 379.377 329.336L382.443 336H422.017L409.799 261.956H431.783V284.528H434.946V258.793H409.278L408.977 256.972C405.839 237.955 389.417 224 370.162 224H132.189C126.975 224 124.117 230.053 127.398 234.086L146.79 257.92L146.795 257.926L162.034 276.745L179.888 297.457C181.061 298.818 182.768 299.601 184.566 299.601H289.3C291.294 299.601 293.164 298.639 294.323 297.018L308.875 276.682L348.237 276.118L348.146 269.792L308.709 270.358C306.746 270.386 304.915 271.345 303.774 272.94L289.223 293.275H184.635L171.272 277.773L239.408 276.705L239.308 270.379L165.951 271.53L155.88 259.093H239.358V252.767H150.753Z" fill="white"/>
<g filter="url(#filter0_b_272_4728)">
<path d="M559.266 279.577C559.266 316.25 552.043 352.565 538.009 386.447C523.974 420.329 503.404 451.115 477.472 477.047C451.539 502.979 420.753 523.549 386.871 537.584C352.989 551.618 316.675 558.842 280.001 558.842C243.328 558.842 207.013 551.618 173.131 537.584C139.249 523.549 108.463 502.979 82.5311 477.047C56.599 451.115 36.0285 420.329 21.9941 386.447C7.95972 352.565 0.736325 316.25 0.736328 279.577L280.001 279.577H559.266Z" fill="white" fill-opacity="0.3"/>
</g>
<defs>
<filter id="filter0_b_272_4728" x="-34.2637" y="244.576" width="628.53" height="349.266" filterUnits="userSpaceOnUse" color-interpolation-filters="sRGB">
<feFlood flood-opacity="0" result="BackgroundImageFix"/>
<feGaussianBlur in="BackgroundImageFix" stdDeviation="17.5"/>
<feComposite in2="SourceAlpha" operator="in" result="effect1_backgroundBlur_272_4728"/>
<feBlend mode="normal" in="SourceGraphic" in2="effect1_backgroundBlur_272_4728" result="shape"/>
</filter>
</defs>
</svg>
