<svg width="71" height="57" viewBox="0 0 71 57" fill="none" xmlns="http://www.w3.org/2000/svg">
<g clip-path="url(#clip0_612_9925)">
<path fill-rule="evenodd" clip-rule="evenodd" d="M69.7018 22.9222C69.7018 35.1071 60.1529 44.985 48.3736 44.985C36.5944 44.985 27.0454 35.1071 27.0454 22.9222C27.0454 10.7372 36.5944 0.859375 48.3736 0.859375C60.1529 0.859375 69.7018 10.7372 69.7018 22.9222Z" fill="#F79F1A"/>
<path fill-rule="evenodd" clip-rule="evenodd" d="M43.3903 22.9222C43.3903 35.1071 33.8413 44.985 22.0621 44.985C10.2829 44.985 0.733887 35.1071 0.733887 22.9222C0.733887 10.7372 10.2829 0.859375 22.0621 0.859375C33.8413 0.859375 43.3903 10.7372 43.3903 22.9222Z" fill="#EA001B"/>
<path fill-rule="evenodd" clip-rule="evenodd" d="M35.2182 5.5542C30.2418 9.59318 27.0474 15.8695 27.0474 22.9201C27.0474 29.9707 30.2418 36.2519 35.2182 40.2908C40.1946 36.2519 43.389 29.9707 43.389 22.9201C43.389 15.8695 40.1946 9.59318 35.2182 5.5542Z" fill="#FF5F01"/>
<path fill-rule="evenodd" clip-rule="evenodd" d="M69.6619 34.6288V33.8413H69.4627L69.2337 34.3829L69.0046 33.8413H68.8055V34.6288H68.946V34.0348L69.1608 34.5468H69.3065L69.5213 34.0335V34.6288H69.6619ZM68.4007 34.6288V33.9757H68.6558V33.8427H68.0063V33.9757H68.2614V34.6288H68.4007Z" fill="#F79F1A"/>
<path fill-rule="evenodd" clip-rule="evenodd" d="M5.47835 55.8992H4.26807V50.0678H5.45462V50.7783C5.45462 50.7783 6.49679 49.9099 7.11579 49.9208C8.31933 49.9419 9.038 50.9988 9.038 50.9988C9.038 50.9988 9.62098 49.9208 10.9365 49.9208C12.8818 49.9208 13.1672 51.7584 13.1672 51.7584V55.8747H12.0044V52.2484C12.0044 52.2484 12.0085 51.1459 10.7466 51.1459C9.44168 51.1459 9.32277 52.2484 9.32277 52.2484V55.8747H8.11249V52.2239C8.11249 52.2239 7.99622 51.0723 6.90221 51.0723C5.48135 51.0723 5.45462 52.2484 5.45462 52.2484L5.47835 55.8992Z" fill="black"/>
<path fill-rule="evenodd" clip-rule="evenodd" d="M42.2844 49.92C41.6654 49.9092 40.6234 50.7775 40.6234 50.7775V50.0685H39.4355V55.8987H40.6466L40.6234 52.2483C40.6234 52.2483 40.6501 51.0746 42.071 51.0746C42.3349 51.0746 42.5398 51.1406 42.702 51.2422V51.2374L43.0964 50.1021C42.8584 49.9987 42.5878 49.9253 42.2844 49.92Z" fill="black"/>
<path fill-rule="evenodd" clip-rule="evenodd" d="M59.3333 49.92C58.7143 49.9092 57.6722 50.7775 57.6722 50.7775V50.0685H56.4844V55.8987H57.6954L57.6722 52.2483C57.6722 52.2483 57.699 51.0746 59.1198 51.0746C59.3837 51.0746 59.5886 51.1406 59.7508 51.2422V51.2374L60.1452 50.1021C59.9072 49.9987 59.6366 49.9253 59.3333 49.92Z" fill="black"/>
<path fill-rule="evenodd" clip-rule="evenodd" d="M17.0808 49.896C15.2695 49.896 14.311 51.5768 14.3062 52.9811C14.3012 54.4206 15.3974 56.0807 17.1318 56.0807C18.1437 56.0807 18.975 55.3094 18.975 55.3094L18.9728 55.9034H20.1641V50.0662H18.9686V50.8014C18.9686 50.8014 18.188 49.896 17.0808 49.896ZM17.3128 51.0841C18.2859 51.0841 19.076 51.958 19.076 53.0338C19.076 54.1096 18.2859 54.9788 17.3128 54.9788C16.3397 54.9788 15.5543 54.1096 15.5543 53.0338C15.5543 51.958 16.3397 51.0841 17.3128 51.0841Z" fill="black"/>
<path fill-rule="evenodd" clip-rule="evenodd" d="M51.8225 49.896C50.0112 49.896 49.0527 51.5768 49.0479 52.9811C49.0429 54.4206 50.1391 56.0807 51.8735 56.0807C52.8854 56.0807 53.7167 55.3094 53.7167 55.3094L53.7145 55.9034H54.9058V50.0662H53.7103V50.8014C53.7103 50.8014 52.9297 49.896 51.8225 49.896ZM52.0545 51.0841C53.0276 51.0841 53.8177 51.958 53.8177 53.0338C53.8177 54.1096 53.0276 54.9788 52.0545 54.9788C51.0814 54.9788 50.296 54.1096 50.296 53.0338C50.296 51.958 51.0814 51.0841 52.0545 51.0841Z" fill="black"/>
<path fill-rule="evenodd" clip-rule="evenodd" d="M63.261 49.8961C61.4497 49.8961 60.4912 51.5769 60.4863 52.9812C60.4814 54.4206 61.5776 56.0808 63.312 56.0808C64.3239 56.0808 65.1552 55.3095 65.1552 55.3095L65.153 55.9035H66.3443V47.762H65.1488V50.8015C65.1488 50.8015 64.3681 49.8961 63.261 49.8961ZM63.493 51.0842C64.4661 51.0842 65.2561 51.9581 65.2561 53.0339C65.2561 54.1097 64.4661 54.9789 63.493 54.9789C62.5198 54.9789 61.7345 54.1097 61.7345 53.0339C61.7345 51.9581 62.5198 51.0842 63.493 51.0842Z" fill="black"/>
<path fill-rule="evenodd" clip-rule="evenodd" d="M23.7989 56.0952C22.5649 56.0952 21.4258 55.3112 21.4258 55.3112L21.9479 54.4781C21.9479 54.4781 23.0257 54.9926 23.7989 54.9926C24.3012 54.9926 25.1414 54.8252 25.1515 54.3066C25.1623 53.7585 23.7396 53.596 23.7396 53.596C23.7396 53.596 21.6156 53.5661 21.6156 51.7584C21.6156 50.6215 22.6764 49.8962 24.0362 49.8962C24.8219 49.8962 26.2906 50.6068 26.2906 50.6068L25.6974 51.5624C25.6974 51.5624 24.5633 51.0946 23.965 51.0723C23.4597 51.0535 22.8496 51.3033 22.8496 51.7584C22.8496 52.9948 26.3856 51.6621 26.3856 54.1596C26.3856 55.7981 24.9455 56.0952 23.7989 56.0952Z" fill="black"/>
<path fill-rule="evenodd" clip-rule="evenodd" d="M28.3506 48.3774V50.0733H27.2974V51.2997H28.3506V54.2316C28.3506 54.2316 28.2574 56.2149 30.3226 56.2149C30.8935 56.2149 32.0115 55.7789 32.0115 55.7789L31.5336 54.5046C31.5336 54.5046 31.089 54.8962 30.587 54.8831C29.6326 54.8582 29.6591 54.2268 29.6591 54.2268V51.2997H31.6264V50.0733H29.6591V48.3774H28.3506Z" fill="black"/>
<path fill-rule="evenodd" clip-rule="evenodd" d="M35.5194 49.968C33.5772 49.968 32.6068 51.6197 32.6148 53.0532C32.623 54.5273 33.4984 56.1862 35.6353 56.1862C36.55 56.1862 37.8346 55.3574 37.8346 55.3574L37.2825 54.3658C37.2825 54.3658 36.4059 55.0077 35.6353 55.0077C34.0927 55.0077 33.9928 53.4508 33.9928 53.4508H38.1223C38.1223 53.4508 38.4304 49.968 35.5194 49.968ZM35.343 51.113C35.3888 51.1103 35.4379 51.113 35.4869 51.113C36.9402 51.113 36.9299 52.531 36.9299 52.531H33.9928C33.9928 52.531 33.9234 51.1963 35.343 51.113Z" fill="black"/>
<path fill-rule="evenodd" clip-rule="evenodd" d="M47.8026 54.3506L48.3564 55.4941C48.3564 55.4941 47.4787 56.0832 46.4938 56.0832C44.4546 56.0832 43.3223 54.4986 43.3223 52.9992C43.3223 50.6428 45.1242 49.95 46.3427 49.95C47.4488 49.95 48.4067 50.6083 48.4067 50.6083L47.7858 51.7518C47.7858 51.7518 47.4094 51.1454 46.3092 51.1454C45.2107 51.1454 44.6311 52.1232 44.6311 53.0512C44.6311 54.0912 45.3058 54.9743 46.3259 54.9743C47.1263 54.9743 47.8026 54.3506 47.8026 54.3506Z" fill="black"/>
<path fill-rule="evenodd" clip-rule="evenodd" d="M68.8422 55.0991C68.6746 55.1034 68.5364 55.1608 68.4279 55.2714C68.3193 55.382 68.2631 55.5204 68.2593 55.6866C68.2631 55.8516 68.3193 55.9896 68.4279 56.1008C68.5364 56.2119 68.6746 56.2697 68.8422 56.2741C69.0061 56.2697 69.1425 56.2119 69.2514 56.1008C69.3603 55.9896 69.4168 55.8516 69.421 55.6866C69.4169 55.5204 69.3606 55.382 69.2519 55.2714C69.1432 55.1608 69.0067 55.1034 68.8422 55.0991ZM68.8422 56.1445C68.7145 56.1413 68.6091 56.0966 68.5262 56.0106C68.4432 55.9246 68.4003 55.8166 68.3973 55.6866C68.4003 55.5561 68.4432 55.4482 68.5262 55.3628C68.6091 55.2775 68.7145 55.2332 68.8422 55.2302C68.9673 55.2332 69.071 55.2775 69.1534 55.3628C69.2358 55.4482 69.2785 55.5561 69.2815 55.6866C69.2785 55.8166 69.2358 55.9246 69.1534 56.0106C69.071 56.0966 68.9673 56.1413 68.8422 56.1445ZM68.8757 55.4116H68.6316V55.9573H68.7446V55.7528H68.7962L68.9566 55.9573H69.0919L68.9189 55.7514C68.9729 55.7444 69.0145 55.7264 69.0436 55.6972C69.0727 55.6681 69.0874 55.631 69.0877 55.5858C69.0873 55.5319 69.0689 55.4896 69.0324 55.4587C68.996 55.4279 68.9437 55.4122 68.8757 55.4116ZM68.8743 55.5138C68.9046 55.5139 68.9284 55.5199 68.9456 55.532C68.9628 55.5441 68.9716 55.562 68.9719 55.5858C68.9716 55.6103 68.9628 55.6287 68.9456 55.6409C68.9284 55.6531 68.9046 55.6593 68.8743 55.6593H68.7446V55.5138L68.8743 55.5138Z" fill="black"/>
</g>
<defs>
<clipPath id="clip0_612_9925">
<rect width="70" height="55.4717" fill="white" transform="translate(0.611816 0.733154)"/>
</clipPath>
</defs>
</svg>
