<svg width="156" height="57" viewBox="0 0 156 57" fill="none" xmlns="http://www.w3.org/2000/svg">
<path id="Union" fill-rule="evenodd" clip-rule="evenodd" d="M12.4667 14.4886L3.27094 3.18613H122.973C131.109 3.18613 138.052 9.08265 139.379 17.1254L139.445 17.5237H133.547V19.1168H139.708L145.335 53.2232H131.2L130.509 51.7212C128.775 47.9517 125.008 45.5353 120.861 45.5353C115.912 45.5353 111.621 48.9575 110.51 53.7836L110.355 54.4593L113.46 55.1732L113.616 54.4976C114.394 51.1153 117.399 48.7215 120.861 48.7215C123.762 48.7215 126.4 50.4118 127.614 53.0527L129.158 56.4093H149.09L142.937 19.1168H154.009V30.4855H155.602V17.5237H142.674L142.523 16.6066C140.942 7.02857 132.671 0 122.973 0H3.117C0.490987 0 -0.948219 3.04885 0.704076 5.07967L10.4711 17.0842L10.4734 17.087L18.1487 26.5651L27.141 36.997C27.7317 37.6823 28.5917 38.0768 29.497 38.0768H82.2469C83.251 38.0768 84.1928 37.5921 84.7768 36.7759L92.1058 26.5335L111.931 26.2494L111.885 23.0636L92.022 23.3483C91.0334 23.3624 90.1114 23.8457 89.5366 24.6488L82.208 34.8907H29.5318L22.8016 27.083L57.1182 26.545L57.0683 23.3592L20.1215 23.9385L15.0491 17.6747H57.0932V14.4886H12.4667Z" fill="white"/>
</svg>
