<svg width="35" height="36" viewBox="0 0 35 36" fill="none" xmlns="http://www.w3.org/2000/svg">
<g id="ph:arrows-down-up-light">
<path id="Vector" d="M23.0414 20.0133C23.1908 19.8597 23.3933 19.7734 23.6045 19.7734C23.8157 19.7734 24.0182 19.8597 24.1676 20.0133L28.4176 24.3883C28.5668 24.5421 28.6507 24.7506 28.6507 24.968C28.6507 25.1854 28.5668 25.3938 28.4176 25.5477L24.1676 29.9227C24.0166 30.0676 23.8168 30.1464 23.6103 30.1427C23.4039 30.1389 23.2069 30.0529 23.0609 29.9026C22.9149 29.7523 22.8313 29.5495 22.8276 29.337C22.824 29.1245 22.9006 28.9188 23.0414 28.7633L25.93 25.7883H6.60449C6.39315 25.7883 6.19046 25.7019 6.04102 25.548C5.89157 25.3942 5.80762 25.1855 5.80762 24.968C5.80762 24.7504 5.89157 24.5418 6.04102 24.3879C6.19046 24.2341 6.39315 24.1477 6.60449 24.1477H25.93L23.0414 21.1727C22.8921 21.0189 22.8083 20.8104 22.8083 20.593C22.8083 20.3756 22.8921 20.1671 23.0414 20.0133ZM10.2914 6.88828L6.04137 11.2633C5.89214 11.4171 5.80832 11.6256 5.80832 11.843C5.80832 12.0604 5.89214 12.2689 6.04137 12.4227L10.2914 16.7977C10.4424 16.9426 10.6422 17.0214 10.8487 17.0177C11.0551 17.0139 11.2521 16.9279 11.3981 16.7776C11.5441 16.6273 11.6277 16.4245 11.6314 16.212C11.635 15.9995 11.5584 15.7938 11.4176 15.6383L8.52895 12.6633H27.8545C28.0658 12.6633 28.2685 12.5769 28.418 12.423C28.5674 12.2692 28.6514 12.0605 28.6514 11.843C28.6514 11.6254 28.5674 11.4168 28.418 11.2629C28.2685 11.1091 28.0658 11.0227 27.8545 11.0227H8.52895L11.4176 8.04766C11.5584 7.89215 11.635 7.68648 11.6314 7.47396C11.6277 7.26145 11.5441 7.05868 11.3981 6.90838C11.2521 6.75809 11.0551 6.672 10.8487 6.66825C10.6422 6.6645 10.4424 6.74338 10.2914 6.88828Z" fill="#2C2C2C"/>
</g>
</svg>
