<svg width="39" height="39" viewBox="0 0 39 39" fill="none" xmlns="http://www.w3.org/2000/svg">
<g id="pepicons-pencil:pen">
<g id="Group">
<path id="Vector" fill-rule="evenodd" clip-rule="evenodd" d="M7.54378 22.814C7.5749 22.6145 7.66873 22.4302 7.81168 22.2877L26.9599 3.13948C27.138 2.96138 27.3796 2.86133 27.6315 2.86133C27.8834 2.86133 28.125 2.96138 28.3032 3.13948L35.6942 10.5305C35.8717 10.7085 35.9714 10.9497 35.9714 11.2012C35.9714 11.4526 35.8717 11.6938 35.6942 11.8719L16.5422 31.022C16.3994 31.1642 16.2151 31.2574 16.0159 31.288L7.28538 32.6294C7.13798 32.652 6.98732 32.6396 6.84561 32.5931C6.70389 32.5467 6.5751 32.4675 6.46966 32.3621C6.36421 32.2567 6.28506 32.1279 6.23863 31.9861C6.1922 31.8444 6.17978 31.6938 6.20238 31.5464L7.54188 22.8178L7.54378 22.814ZM9.37538 23.4106L8.27908 30.5546L15.4212 29.4564L33.6764 11.2012L27.6325 5.15538L9.37538 23.4106Z" fill="white"/>
<path id="Vector_2" fill-rule="evenodd" clip-rule="evenodd" d="M29.4469 15.9418L22.7266 9.23485L24.0699 7.88965L30.7883 14.5966L29.4469 15.9418Z" fill="white"/>
</g>
</g>
</svg>
