<svg width="102" height="21" viewBox="0 0 102 21" fill="none" xmlns="http://www.w3.org/2000/svg">
<g id="Group 370">
<path id="Vector" fill-rule="evenodd" clip-rule="evenodd" d="M0.4375 4.86221V9.14872L2.44202 9.21499C3.71804 9.25724 4.65934 9.35175 5.03187 9.47528C7.19955 10.1933 8.45165 11.5278 9.03188 13.7382C9.14311 14.1619 9.26796 15.3033 9.3092 16.2744L9.38429 18.0401H13.6289H17.8737V9.30783V0.575562H9.15558H0.4375V4.86221ZM4.12837 4.9417C4.12837 5.52933 4.15369 5.58378 4.42618 5.58378C5.08074 5.58378 6.80285 6.12749 7.94371 6.69419C8.92815 7.18319 9.33898 7.48472 10.1769 8.33277C11.0215 9.18751 11.3076 9.58868 11.7884 10.592C12.3367 11.7363 12.6513 12.7055 12.8409 13.8345C12.9214 14.3151 12.9227 14.316 13.5522 14.316H14.1828V9.30783V4.29962H9.15558H4.12837V4.9417ZM85.2768 7.3866C83.7707 7.6252 82.7062 8.47737 82.3336 9.7429C81.9783 10.9504 81.9391 10.9187 83.9448 11.0475L85.2983 11.1343L85.4568 10.6385C85.66 10.0023 85.8096 9.81995 86.2966 9.61449C86.5869 9.49211 86.8158 9.48158 87.1519 9.57519C87.7043 9.72904 88.0002 10.1161 88.0002 10.6844C88.0002 11.2546 87.4199 11.8806 85.5797 13.2958C84.7694 13.9189 83.8057 14.7496 83.4381 15.1418C82.7442 15.8819 82.061 17.1619 81.9322 17.9627L81.8578 18.4254H86.5835H91.3092V17.1412V15.857H89.0108C87.6029 15.857 86.7412 15.81 86.7866 15.7359C86.8275 15.6693 87.5042 15.1573 88.2905 14.5982C90.55 12.9914 91.2196 12.0806 91.2354 10.592C91.2514 9.08285 90.4538 8.01623 88.9786 7.57422C88.1664 7.33087 86.2443 7.2334 85.2768 7.3866ZM95.0741 10.554L92.2001 13.8548V15.1769V16.4991H95.0637H97.9273V17.4622V18.4254H99.3273H100.727V17.4622V16.4991H101.364H102V15.215V13.9308H101.364H100.727V10.592V7.25318H99.3377H97.9483L95.0741 10.554ZM20.0373 12.7751V18.0401H21.5645H23.0918V13.8666V9.69308H25.3827H27.6736V13.8666V18.0401H29.2008H30.7281V12.7751V7.51001H25.3827H20.0373V12.7751ZM36.0526 10.3172C35.7261 10.4501 35.2822 10.6857 35.0662 10.841L34.6735 11.1231V10.7291V10.3352H33.3371H32.0008V15.536V20.7368H33.4644H34.928V19.121C34.928 18.2322 34.9709 17.5272 35.0235 17.5544C36.2393 18.1832 36.405 18.2264 37.6034 18.2296C38.7211 18.2325 38.8816 18.1997 39.6709 17.8077C40.1524 17.5686 40.6645 17.2003 40.8417 16.9659C42.1653 15.215 42.0399 12.4879 40.5711 11.0805C39.9277 10.4638 39.0589 10.1627 37.7916 10.1168C36.8949 10.0845 36.5174 10.128 36.0526 10.3172ZM64.1024 10.2774C63.2428 10.511 62.8203 10.737 62.395 11.1905C62.0116 11.5993 61.7823 12.1235 61.7823 12.5908C61.7823 12.9022 61.7876 12.9035 63.1186 12.9035C64.2506 12.9035 64.455 12.8725 64.455 12.701C64.455 12.5896 64.6223 12.3296 64.827 12.1231C65.1547 11.7924 65.2891 11.7477 65.9552 11.7477C66.9225 11.7477 67.3822 12.0621 67.3822 12.7233C67.3822 13.277 67.2491 13.3338 65.4731 13.5378C63.7672 13.7338 63.1359 13.8874 62.389 14.2882C60.8869 15.094 60.9605 17.1602 62.5189 17.9347C63.0361 18.1918 63.3112 18.2327 64.5186 18.2327C65.9344 18.2327 66.1762 18.1683 67.5261 17.4306C67.5703 17.4066 67.643 17.5338 67.6877 17.7134C67.7687 18.0396 67.7709 18.0401 69.23 18.0401C70.0338 18.0401 70.6913 18.0013 70.6913 17.9539C70.6913 17.9066 70.591 17.7557 70.4685 17.6186C70.2716 17.3984 70.2457 17.062 70.2448 14.7191C70.244 12.4181 70.2134 12.0067 70.0128 11.5981C69.5158 10.5861 68.1703 10.0728 66.0509 10.0868C65.3482 10.0914 64.4714 10.1772 64.1024 10.2774ZM42.3333 13.385C42.3731 16.4201 42.375 16.4377 42.7109 17.0142C43.1724 17.8063 43.8476 18.1697 45.0241 18.2594C46.0909 18.3409 47.0798 18.107 47.8242 17.5973L48.2915 17.2773V17.6587V18.0401H49.7551H51.2188V14.1876V10.3352H49.7551H48.2915V12.8845C48.2915 15.3255 48.2792 15.4523 48.0013 15.8683C47.6399 16.4095 47.2327 16.6232 46.5587 16.6256C45.8972 16.628 45.4176 16.2641 45.2421 15.6265C45.1701 15.3648 45.1109 14.0673 45.1105 12.743L45.1097 10.3352H43.7015H42.2931L42.3333 13.385ZM52.2369 14.1996V18.0641L55.7687 18.0176C59.0254 17.9746 59.3451 17.9502 59.8732 17.7031C60.71 17.3119 60.9315 17.001 60.9861 16.1412C61.048 15.1664 60.7441 14.666 59.8379 14.2504C59.4723 14.0827 59.2715 13.9422 59.3915 13.9382C59.7622 13.9257 60.4975 13.1688 60.6333 12.66C60.7878 12.081 60.6338 11.4483 60.2338 11.0186C59.6955 10.4406 58.9591 10.3352 55.4592 10.3352H52.2369V14.1996ZM70.4367 11.1699V12.0046H71.9003H73.364V15.0223V18.0401H74.8276H76.2912V15.0223V12.0046H77.7548H79.2184V11.1699V10.3352H74.8276H70.4367V11.1699ZM96.5505 12.3541L95.2374 13.8666L96.5353 13.9033C97.2491 13.9236 97.8563 13.9169 97.8844 13.8884C97.9127 13.86 97.9194 13.1629 97.8997 12.3392L97.8637 10.8416L96.5505 12.3541ZM35.7286 12.0001C34.4249 12.802 34.483 15.6887 35.8169 16.3933C36.3765 16.6889 37.1527 16.6926 37.7274 16.4025C39.102 15.7086 39.1919 12.9279 37.8682 12.0383C37.306 11.6605 36.3094 11.6427 35.7286 12.0001ZM55.0369 12.6466V13.2887H56.0491C57.4111 13.2887 57.9681 13.0125 57.7518 12.4441C57.6323 12.13 57.146 12.0046 56.0468 12.0046H55.0369V12.6466ZM67.231 14.5114C67.1946 14.5482 66.6967 14.6614 66.1248 14.7628C64.8332 14.9919 64.4317 15.1812 64.2733 15.6354C64.0875 16.1686 64.4972 16.526 65.3702 16.5921C66.5053 16.6781 67.2348 16.0901 67.4373 14.926C67.5116 14.4985 67.4222 14.3186 67.231 14.5114ZM55.0369 15.6002V16.3707H56.1228C57.4282 16.3707 58.0924 16.1452 58.0895 15.7031C58.085 15.038 57.6131 14.8297 56.1104 14.8297H55.0369V15.6002Z" fill="#65B337"/>
<path id="Vector_2" fill-rule="evenodd" clip-rule="evenodd" d="M85.2764 7.38672C83.7703 7.62532 82.7058 8.47748 82.3333 9.74302C81.9779 10.9505 81.9388 10.9188 83.9444 11.0476L85.298 11.1344L85.4564 10.6386C85.6597 10.0024 85.8092 9.82007 86.2963 9.6146C86.5866 9.49222 86.8154 9.48169 87.1515 9.57531C87.7039 9.72915 87.9998 10.1162 87.9998 10.6846C87.9998 11.2547 87.4196 11.8808 85.5793 13.2959C84.769 13.919 83.8053 14.7497 83.4378 15.1419C82.7439 15.8821 82.0607 17.162 81.9319 17.9628L81.8574 18.4255H86.5831H91.3088V17.1413V15.8572H89.0105C87.6026 15.8572 86.7408 15.8102 86.7863 15.7361C86.8271 15.6694 87.5038 15.1574 88.2901 14.5983C90.5497 12.9916 91.2192 12.0807 91.235 10.5921C91.2511 9.08296 90.4535 8.01634 88.9783 7.57434C88.166 7.33099 86.244 7.23352 85.2764 7.38672ZM95.0738 10.5541L92.1997 13.8549V15.1771V16.4992H95.0634H97.927V17.4623V18.4255H99.3269H100.727V17.4623V16.4992H101.363H102V15.2151V13.9309H101.363H100.727V10.5921V7.2533H99.3374H97.948L95.0738 10.5541ZM96.5501 12.3542L95.2371 13.8667L96.535 13.9034C97.2487 13.9237 97.8559 13.917 97.8841 13.8885C97.9123 13.8602 97.9191 13.163 97.8993 12.3393L97.8633 10.8417L96.5501 12.3542Z" fill="#434343"/>
<path id="Vector_3" d="M0.4375 18.0402V14.5729V11.1057H3.87383H7.31015V14.5729V18.0402H3.87383H0.4375Z" fill="#434343"/>
</g>
</svg>
