<svg width="200" height="40" viewBox="0 0 200 40" fill="none" xmlns="http://www.w3.org/2000/svg">
<g id="Group 362">
<g id="Group 359">
<circle id="Ellipse 24" cx="99.7871" cy="20.2683" r="18.8359" stroke="#40A6FF"/>
<path id="Union" fill-rule="evenodd" clip-rule="evenodd" d="M87.0609 17.4628L85.2677 15.2588H108.61C110.196 15.2588 111.55 16.4086 111.809 17.977L111.822 18.0547H110.672V18.3654H111.873L112.971 25.0161H110.214L110.08 24.7233C109.741 23.9882 109.007 23.517 108.198 23.517C107.233 23.517 106.396 24.1843 106.18 25.1254L106.149 25.2572L106.755 25.3964L106.785 25.2647C106.937 24.6051 107.523 24.1383 108.198 24.1383C108.764 24.1383 109.278 24.4679 109.515 24.9829L109.816 25.6375H113.703L112.503 18.3654H114.662V20.5823H114.973V18.0547H112.452L112.422 17.8758C112.114 16.008 110.501 14.6375 108.61 14.6375H85.2377C84.7256 14.6375 84.445 15.232 84.7672 15.628L86.6718 17.9689L86.6722 17.9695L88.1689 19.8177L89.9225 21.852C90.0377 21.9856 90.2054 22.0626 90.3819 22.0626H100.668C100.864 22.0626 101.048 21.968 101.162 21.8089L102.591 19.8116L106.457 19.7562L106.448 19.1349L102.574 19.1904C102.382 19.1932 102.202 19.2874 102.09 19.4441L100.661 21.4412H90.3887L89.0763 19.9187L95.7681 19.8138L95.7584 19.1926L88.5536 19.3055L87.5645 18.0841H95.7632V17.4628H87.0609Z" fill="#40A6FF"/>
</g>
<path id="Vector 23" d="M124.123 20.2683L199.495 20.2683" stroke="#40A6FF" stroke-dasharray="2 2"/>
<path id="Vector 24" d="M0.0791016 20.2683L75.4514 20.2683" stroke="#40A6FF" stroke-dasharray="2 2"/>
</g>
</svg>
