<svg xmlns="http://www.w3.org/2000/svg" width="40" height="40" viewBox="0 0 40 40" fill="none">
    <path d="M38.639 20.3203C38.639 30.7293 30.3128 39.1562 20.0558 39.1562C9.7988 39.1562 1.47266 30.7293 1.47266 20.3203C1.47266 9.91129 9.7988 1.48438 20.0558 1.48438C30.3128 1.48438 38.639 9.91129 38.639 20.3203Z" stroke="white"/>
    <path fill-rule="evenodd" clip-rule="evenodd" d="M8.22981 17.5914L6.58504 15.5699H27.9951C29.4502 15.5699 30.6921 16.6245 30.9295 18.0631L30.9412 18.1342H29.8861V18.4191H30.9882L31.9948 24.5195H29.4665L29.3429 24.2509C29.0328 23.5767 28.3591 23.1445 27.6174 23.1445C26.7321 23.1445 25.9645 23.7566 25.766 24.6198L25.7382 24.7406L26.2936 24.8683L26.3214 24.7475C26.4605 24.1425 26.9982 23.7144 27.6174 23.7144C28.1362 23.7144 28.6079 24.0167 28.8252 24.4891L29.1014 25.0894H32.6664L31.5658 18.4191H33.546V20.4526H33.8309V18.1342H31.5188L31.4917 17.9703C31.209 16.2571 29.7297 15 27.9951 15H6.55751C6.08782 15 5.8304 15.5453 6.12593 15.9086L7.87287 18.0557L7.87328 18.0562L9.24609 19.7515L10.8545 21.6173C10.9601 21.7399 11.1139 21.8105 11.2759 21.8105H20.7107C20.8903 21.8105 21.0588 21.7238 21.1633 21.5778L22.4741 19.7458L26.02 19.695L26.0118 19.1252L22.4591 19.1761C22.2823 19.1786 22.1174 19.2651 22.0146 19.4087L20.7038 21.2406H11.2821L10.0783 19.8441L16.2162 19.7479L16.2073 19.1781L9.59895 19.2817L8.6917 18.1613H16.2117V17.5914H8.22981Z" fill="white"/>
</svg>