<svg width="40" height="40" viewBox="0 0 40 40" fill="none" xmlns="http://www.w3.org/2000/svg">
<g id="Group 359">
<path id="Ellipse 24" d="M38.6233 19.9165C38.6233 30.3255 30.2972 38.7524 20.0402 38.7524C9.78317 38.7524 1.45703 30.3255 1.45703 19.9165C1.45703 9.50748 9.78317 1.08057 20.0402 1.08057C30.2972 1.08057 38.6233 9.50748 38.6233 19.9165Z" stroke="#40A6FF"/>
<path id="Union" fill-rule="evenodd" clip-rule="evenodd" d="M8.21753 17.5787L6.58182 15.5671H27.8739C29.3211 15.5671 30.5561 16.6166 30.7922 18.048L30.8039 18.1189H29.7544V18.4025H30.8506L31.8517 24.4729H29.3373L29.2144 24.2056C28.906 23.5347 28.236 23.1046 27.4983 23.1046C26.6179 23.1046 25.8546 23.7137 25.6571 24.5727L25.6295 24.6929L26.1818 24.82L26.2095 24.6997C26.3479 24.0977 26.8825 23.6717 27.4983 23.6717C28.0143 23.6717 28.4834 23.9725 28.6995 24.4426L28.9742 25.04H32.5196L31.425 18.4025H33.3941V20.4259H33.6775V18.1189H31.3783L31.3513 17.9557C31.0702 16.251 29.599 15 27.8739 15H6.55444C6.08733 15 5.83133 15.5426 6.12524 15.9041L7.86256 18.0407L7.86297 18.0412L9.22822 19.7282L10.8277 21.5849C10.9328 21.7069 11.0858 21.7771 11.2468 21.7771H20.6297C20.8083 21.7771 20.9759 21.6908 21.0798 21.5455L22.3834 19.7226L25.9097 19.672L25.9016 19.105L22.3685 19.1556C22.1927 19.1581 22.0286 19.2442 21.9264 19.3871L20.6228 21.21H11.253L10.0559 19.8204L16.16 19.7246L16.1511 19.1576L9.57913 19.2607L8.67687 18.1458H16.1555V17.5787H8.21753Z" fill="#40A6FF"/>
</g>
</svg>
