<svg xmlns="http://www.w3.org/2000/svg" width="35" height="36" viewBox="0 0 35 36" fill="none">
    <path d="M25.0229 10.453C24.4542 9.88416 24.1212 9.12157 24.0905 8.31778C24.0599 7.51399 24.3338 6.72824 24.8574 6.11769C24.9007 6.06691 24.9233 6.00163 24.9205 5.93495C24.9177 5.86827 24.8898 5.8051 24.8424 5.75811L21.8257 2.738C21.7758 2.68816 21.7082 2.66016 21.6377 2.66016C21.5672 2.66016 21.4996 2.68816 21.4497 2.738L16.6413 7.5464C16.4639 7.72376 16.3303 7.94003 16.251 8.17804C16.172 8.4166 16.0385 8.63347 15.8611 8.81146C15.6837 8.98945 15.4673 9.12365 15.229 9.20343C14.9908 9.28279 14.7744 9.41641 14.5967 9.59376L2.26534 21.9224C2.2155 21.9722 2.1875 22.0399 2.1875 22.1104C2.1875 22.1809 2.2155 22.2485 2.26534 22.2983L5.28204 25.315C5.32903 25.3625 5.39219 25.3903 5.45887 25.3931C5.52556 25.3959 5.59083 25.3734 5.64161 25.3301C6.25204 24.8058 7.03796 24.5315 7.84203 24.562C8.6461 24.5925 9.40898 24.9256 9.97795 25.4945C10.5469 26.0635 10.88 26.8264 10.9105 27.6305C10.941 28.4345 10.6666 29.2204 10.1424 29.8309C10.0991 29.8816 10.0766 29.9469 10.0794 30.0136C10.0821 30.0803 10.11 30.1435 10.1574 30.1904L13.1741 33.2071C13.224 33.257 13.2916 33.285 13.3621 33.285C13.4326 33.285 13.5002 33.257 13.5501 33.2071L25.8821 20.8758C26.0595 20.6981 26.1931 20.4816 26.2725 20.2435C26.3514 20.0049 26.4849 19.788 26.6623 19.61C26.8397 19.4321 27.0561 19.2979 27.2944 19.2181C27.5325 19.1388 27.7487 19.0052 27.9261 18.8277L32.7345 14.0193C32.7843 13.9695 32.8123 13.9019 32.8123 13.8314C32.8123 13.7609 32.7843 13.6932 32.7345 13.6434L29.7178 10.6267C29.6708 10.5793 29.6076 10.5514 29.5409 10.5486C29.4743 10.5458 29.409 10.5683 29.3582 10.6116C28.7485 11.1362 27.9632 11.4113 27.1595 11.3819C26.3557 11.3525 25.5926 11.0208 25.0229 10.453Z" stroke="white" stroke-width="2" stroke-miterlimit="10"/>
    <path d="M17.1247 10.0729L15.9961 8.94434M20.1339 13.0821L19.3813 12.3302M23.1431 16.092L22.3911 15.3394M26.5289 19.4771L25.4003 18.3485" stroke="white" stroke-width="2" stroke-miterlimit="10" stroke-linecap="round"/>
</svg>